<svg width="96" height="96" xmlns="http://www.w3.org/2000/svg" xmlns:xlink="http://www.w3.org/1999/xlink" xml:space="preserve" overflow="hidden"><defs><linearGradient x1="230.367" y1="413.147" x2="309.297" y2="334.217" gradientUnits="userSpaceOnUse" spreadMethod="pad" id="fill0"><stop offset="0" stop-color="#FF9F00"/><stop offset="0.05089" stop-color="#FE9900"/><stop offset="0.466323" stop-color="#FD7204"/><stop offset="0.797112" stop-color="#FD5907"/><stop offset="1" stop-color="#FD5108"/></linearGradient></defs><g transform="translate(-220 -318)"><path d="M307.12 401.31 307.12 393.42 291.73 393.42 291.73 405.87 286.57 405.87 286.57 393.42 271.18 393.42 271.18 405.87 266.02 405.87 266.02 393.42 250.63 393.42 250.63 405.87 226.09 405.87 226.09 408.87 305.35 408.87 307.12 405.81 294.73 405.81 294.73 396.42 304.12 396.42 304.12 401.31 307.12 401.31ZM263.02 405.81 253.63 405.81 253.63 396.42 263.02 396.42 263.02 405.81ZM283.57 405.81 274.18 405.81 274.18 396.42 283.57 396.42 283.57 405.81ZM241.39 350.49 230.5 361.35 241.39 372.24 252.25 361.35 241.39 350.49ZM234.73 361.35 241.39 354.72 248.02 361.35 241.39 368.01 234.73 361.35ZM297.34 334.02C294.34 334.02 291.88 336.45 291.88 339.48 291.88 342.48 294.34 344.94 297.34 344.94 300.37 344.94 302.8 342.48 302.8 339.48 302.8 336.45 300.37 334.02 297.34 334.02ZM297.34 341.94C295.99 341.94 294.88 340.83 294.88 339.48 294.88 338.1 295.99 337.02 297.34 337.02 298.69 337.02 299.8 338.1 299.8 339.48 299.8 340.83 298.69 341.94 297.34 341.94ZM307.96 342.87 309.91 339.48 303.64 328.56 292.03 328.56 253.18 323.28C252.91 323.22 252.64 323.19 252.34 323.16L252.13 323.13 251.95 323.13C248.92 323.13 246.49 325.56 246.49 328.59 246.49 329.79 246.88 330.9 247.57 331.83L240.46 344.1 235.09 344.1 229.24 354.24 231.85 355.74 236.83 347.1 245.95 347.1 250.93 355.74 253.54 354.24 247.69 344.1 243.94 344.1 249.97 333.66C250.48 333.87 251.05 333.99 251.65 334.02L285.55 340.8 290.26 348.99 267.22 388.92 270.7 388.92 292.96 350.37 300.64 350.37 286.72 388.92 289.9 388.92 304.15 349.5 305.38 347.37 292.78 347.37 288.22 339.48 292.78 331.56 301.9 331.56 306.46 339.48 304.51 342.87 307.96 342.87ZM251.95 331.05C250.57 331.05 249.49 329.94 249.49 328.59 249.49 327.24 250.57 326.16 251.89 326.13L252.16 326.16C253.39 326.28 254.41 327.3 254.41 328.59 254.41 329.94 253.3 331.05 251.95 331.05ZM285.73 337.8 256.27 331.89C256.96 330.96 257.41 329.82 257.41 328.59 257.41 327.96 257.26 327.39 257.08 326.85L289.51 331.26 285.73 337.8Z" fill="url(#fill0)"/></g></svg>