<svg width="252" height="251" xmlns="http://www.w3.org/2000/svg" xmlns:xlink="http://www.w3.org/1999/xlink" xml:space="preserve" overflow="hidden"><defs><clipPath id="clip0"><rect x="1524" y="993" width="252" height="251"/></clipPath></defs><g clip-path="url(#clip0)" transform="translate(-1524 -993)"><path d="M1524 993 1524 1244 1776 1244 1776 993 1524 993ZM1765.23 1233.34 1534.77 1233.34 1534.77 1003.66 1765.23 1003.66 1765.23 1233.34Z" fill-rule="evenodd"/><path d="M1585.67 1185 1619 1185 1619 1174.16 1585.45 1174.16 1585.45 1174.16 1583.87 1174.08 1582.29 1174.01 1580.79 1173.78 1579.28 1173.55 1577.78 1173.17 1576.35 1172.79 1574.92 1172.26 1573.49 1171.73 1572.13 1171.13 1570.78 1170.44 1569.5 1169.69 1568.3 1168.85 1567.09 1168.02 1565.89 1167.11 1564.84 1166.12 1563.71 1165.06 1562.73 1164 1561.75 1162.86 1560.85 1161.72 1559.95 1160.51 1559.2 1159.22 1558.44 1157.93 1557.77 1156.65 1557.16 1155.2 1556.56 1153.84 1556.11 1152.4 1555.66 1150.96 1555.36 1149.44 1555.06 1147.93 1554.91 1146.33 1554.76 1144.82 1554.76 1143.23 1554.76 1143.23 1554.76 1141.63 1554.91 1140.04 1555.06 1138.45 1555.36 1136.93 1555.66 1135.49 1556.11 1133.98 1556.56 1132.54 1557.16 1131.17 1557.77 1129.81 1558.44 1128.44 1559.2 1127.15 1559.95 1125.86 1560.85 1124.65 1561.75 1123.51 1562.73 1122.38 1563.71 1121.32 1564.84 1120.25 1565.89 1119.34 1567.09 1118.36 1568.3 1117.52 1569.5 1116.69 1570.78 1116.01 1572.13 1115.33 1573.49 1114.64 1574.92 1114.11 1576.35 1113.66 1577.78 1113.2 1579.28 1112.9 1580.79 1112.6 1582.29 1112.37 1583.87 1112.29 1585.45 1112.22 1585.45 1112.22 1586.8 1112.29 1588.08 1112.37 1592.29 1112.75 1593.65 1108.73 1593.65 1108.73 1594.33 1106.84 1595 1105.02 1595.83 1103.2 1596.73 1101.45 1597.64 1099.71 1598.61 1098.04 1599.67 1096.45 1600.8 1094.86 1602 1093.34 1603.2 1091.82 1604.48 1090.46 1605.76 1089.09 1607.19 1087.73 1608.62 1086.52 1610.05 1085.3 1611.55 1084.17 1613.13 1083.11 1614.71 1082.04 1616.37 1081.06 1618.02 1080.22 1619.75 1079.39 1621.48 1078.56 1623.29 1077.87 1625.09 1077.27 1626.9 1076.66 1628.78 1076.21 1630.66 1075.75 1632.54 1075.45 1634.5 1075.14 1636.45 1074.99 1638.41 1074.84 1640.36 1074.84 1640.36 1074.84 1642.17 1074.84 1643.9 1074.92 1645.7 1075.07 1647.43 1075.3 1649.16 1075.6 1650.86 1075.98 1652.51 1076.36 1654.24 1076.81 1655.9 1077.34 1657.48 1077.95 1659.13 1078.56 1660.71 1079.31 1662.29 1080.07 1663.8 1080.83 1665.3 1081.74 1666.81 1082.65 1668.23 1083.56 1669.66 1084.62 1671.02 1085.68 1672.37 1086.74 1673.65 1087.88 1674.93 1089.09 1676.13 1090.38 1677.26 1091.67 1678.39 1092.96 1679.52 1094.4 1680.57 1095.77 1681.55 1097.28 1682.45 1098.72 1683.35 1100.32 1684.18 1101.91 1685.01 1103.5 1688.62 1111.38 1694.04 1104.56 1694.04 1104.56 1694.64 1103.95 1695.24 1103.27 1695.84 1102.67 1696.52 1102.13 1697.2 1101.6 1697.87 1101.15 1698.63 1100.69 1699.38 1100.32 1700.13 1100.01 1700.96 1099.71 1701.71 1099.41 1702.54 1099.18 1703.44 1099.03 1704.27 1098.87 1705.09 1098.8 1706 1098.8 1706 1098.8 1707.58 1098.87 1709.08 1099.1 1710.51 1099.48 1711.94 1100.01 1713.29 1100.69 1714.57 1101.45 1715.78 1102.36 1716.83 1103.35 1717.81 1104.41 1718.71 1105.62 1719.46 1106.91 1720.14 1108.28 1720.67 1109.64 1721.04 1111.16 1721.27 1112.67 1721.34 1114.26 1721.34 1114.26 1721.27 1115.86 1721.04 1117.37 1720.59 1118.97 1720.06 1120.41 1716.98 1127.53 1724.65 1127.99 1724.65 1127.99 1725.78 1128.06 1726.91 1128.21 1727.96 1128.44 1729.09 1128.67 1730.14 1128.97 1731.12 1129.35 1732.18 1129.73 1733.15 1130.19 1734.13 1130.64 1735.03 1131.17 1735.94 1131.78 1736.84 1132.38 1737.67 1132.99 1738.49 1133.67 1739.25 1134.43 1740 1135.19 1740.68 1135.95 1741.35 1136.78 1742.03 1137.69 1742.63 1138.53 1743.16 1139.44 1743.69 1140.42 1744.14 1141.41 1744.59 1142.39 1744.96 1143.38 1745.26 1144.44 1745.57 1145.5 1745.79 1146.56 1746.02 1147.62 1746.17 1148.76 1746.24 1149.9 1746.24 1151.03 1746.24 1151.03 1746.24 1152.25 1746.17 1153.39 1746.02 1154.52 1745.79 1155.66 1745.49 1156.8 1745.19 1157.93 1744.89 1159 1744.44 1160.06 1743.99 1161.04 1743.46 1162.03 1742.93 1163.01 1742.33 1163.92 1741.65 1164.83 1740.98 1165.74 1740.3 1166.58 1739.55 1167.41 1738.72 1168.17 1737.89 1168.85 1736.99 1169.53 1736.09 1170.22 1735.18 1170.82 1734.21 1171.35 1733.23 1171.88 1732.25 1172.34 1731.2 1172.72 1730.14 1173.1 1729.02 1173.4 1727.89 1173.7 1726.76 1173.86 1725.63 1174.01 1724.5 1174.16 1723.3 1174.16 1686.14 1174.16 1686.14 1185 1723.3 1185 1723.3 1185 1725.03 1184.92 1726.76 1184.77 1728.41 1184.62 1730.07 1184.32 1731.72 1183.94 1733.3 1183.48 1734.88 1182.88 1736.39 1182.27 1737.89 1181.59 1739.32 1180.91 1740.75 1180.07 1742.11 1179.16 1743.46 1178.25 1744.74 1177.19 1745.94 1176.13 1747.07 1174.99 1748.2 1173.86 1749.25 1172.64 1750.3 1171.35 1751.21 1169.99 1752.11 1168.62 1752.94 1167.18 1753.69 1165.74 1754.37 1164.23 1754.97 1162.71 1755.5 1161.12 1755.95 1159.53 1756.32 1157.86 1756.62 1156.19 1756.77 1154.52 1756.92 1152.78 1757 1151.03 1757 1151.03 1756.92 1149.59 1756.85 1148.08 1756.7 1146.71 1756.47 1145.27 1756.25 1143.91 1755.87 1142.47 1755.5 1141.18 1755.12 1139.81 1754.59 1138.53 1754.07 1137.24 1753.46 1135.95 1752.86 1134.73 1752.19 1133.52 1751.43 1132.38 1750.68 1131.25 1749.85 1130.19 1748.95 1129.12 1748.05 1128.06 1747.15 1127.08 1746.17 1126.09 1745.11 1125.18 1744.06 1124.35 1743.01 1123.51 1741.88 1122.76 1740.68 1122 1739.47 1121.32 1738.27 1120.63 1737.07 1120.03 1735.79 1119.5 1734.43 1119.04 1733.15 1118.59 1731.8 1118.21 1731.8 1118.21 1731.95 1116.24 1732.03 1114.26 1732.03 1114.26 1732.03 1112.9 1731.95 1111.61 1731.72 1110.25 1731.5 1108.96 1731.2 1107.74 1730.9 1106.46 1730.45 1105.24 1729.99 1104.03 1729.47 1102.89 1728.94 1101.76 1728.26 1100.62 1727.59 1099.56 1726.83 1098.57 1726.08 1097.59 1725.25 1096.6 1724.43 1095.69 1723.52 1094.86 1722.55 1094.02 1721.57 1093.19 1720.59 1092.51 1719.46 1091.82 1718.41 1091.14 1717.28 1090.61 1716.15 1090.08 1714.95 1089.63 1713.75 1089.17 1712.47 1088.79 1711.26 1088.56 1709.98 1088.26 1708.63 1088.11 1707.35 1088.03 1706 1087.96 1706 1087.96 1704.04 1088.03 1702.09 1088.26 1700.13 1088.64 1698.25 1089.17 1696.44 1089.85 1694.64 1090.61 1692.91 1091.52 1691.33 1092.58 1691.33 1092.58 1690.28 1090.91 1689.15 1089.32 1688.02 1087.81 1686.81 1086.29 1685.61 1084.85 1684.33 1083.41 1683.05 1082.04 1681.7 1080.68 1680.27 1079.39 1678.84 1078.18 1677.41 1076.96 1675.91 1075.83 1674.33 1074.69 1672.75 1073.63 1671.17 1072.64 1669.51 1071.66 1667.86 1070.82 1666.2 1069.91 1664.47 1069.16 1662.74 1068.4 1660.94 1067.71 1659.21 1067.11 1657.4 1066.5 1655.52 1065.97 1653.72 1065.52 1651.84 1065.14 1649.99 1064.76 1648.11 1064.53 1646.16 1064.3 1644.28 1064.15 1642.32 1064 1640.36 1064 1640.36 1064 1638.11 1064 1635.77 1064.15 1633.59 1064.38 1631.34 1064.68 1629.15 1065.06 1626.97 1065.52 1624.79 1066.05 1622.69 1066.65 1620.58 1067.34 1618.47 1068.09 1616.44 1069 1614.49 1069.91 1612.53 1070.9 1610.57 1071.96 1608.77 1073.02 1606.89 1074.23 1605.08 1075.52 1603.35 1076.81 1601.7 1078.25 1600.04 1079.69 1598.46 1081.21 1596.88 1082.73 1595.45 1084.39 1594.02 1086.06 1592.6 1087.81 1591.32 1089.63 1590.11 1091.44 1588.91 1093.34 1587.78 1095.31 1586.73 1097.28 1585.75 1099.33 1584.85 1101.45 1584.85 1101.45 1582.74 1101.53 1580.71 1101.68 1578.68 1101.98 1576.65 1102.36 1574.62 1102.82 1572.74 1103.42 1570.78 1104.11 1568.97 1104.86 1567.17 1105.7 1565.36 1106.61 1563.63 1107.67 1561.98 1108.73 1560.4 1109.94 1558.89 1111.16 1557.39 1112.45 1555.96 1113.89 1554.61 1115.33 1553.33 1116.84 1552.12 1118.36 1551 1120.03 1549.94 1121.69 1548.89 1123.44 1547.99 1125.26 1547.23 1127.08 1546.48 1128.97 1545.81 1130.87 1545.28 1132.84 1544.83 1134.89 1544.45 1136.86 1544.23 1138.98 1544.08 1141.1 1544 1143.23 1544 1143.23 1544.08 1145.35 1544.23 1147.47 1544.45 1149.52 1544.83 1151.64 1545.28 1153.61 1545.88 1155.58 1546.48 1157.56 1547.23 1159.45 1548.06 1161.27 1549.04 1163.09 1550.02 1164.83 1551.07 1166.58 1552.27 1168.17 1553.48 1169.76 1554.83 1171.28 1556.19 1172.72 1557.62 1174.08 1559.12 1175.45 1560.7 1176.66 1562.35 1177.8 1564.01 1178.93 1565.82 1179.92 1567.62 1180.83 1569.43 1181.66 1571.31 1182.42 1573.26 1183.1 1575.29 1183.64 1577.25 1184.09 1579.36 1184.47 1581.46 1184.77 1583.57 1184.92 1585.67 1185 1585.67 1185Z" fill-rule="evenodd"/><path d="M1618 1157.82 1625.68 1165.45 1644.62 1146.63 1644.62 1208 1655.38 1208 1655.38 1146.63 1674.32 1165.45 1682 1157.82 1650.02 1126 1618 1157.82Z" fill-rule="evenodd"/></g></svg>