<svg width="252" height="298" xmlns="http://www.w3.org/2000/svg" xmlns:xlink="http://www.w3.org/1999/xlink" xml:space="preserve" overflow="hidden"><defs><clipPath id="clip0"><rect x="353" y="875" width="252" height="298"/></clipPath></defs><g clip-path="url(#clip0)" transform="translate(-353 -875)"><path d="M353 875 353 1127.71 387.568 1127.71 387.568 1173 432.694 1127.71 444.454 1127.71 444.454 1116.9 428.239 1116.9 398.215 1147.01 398.215 1116.9 363.78 1116.9 363.78 885.809 594.22 885.809 594.22 955.887 605 955.887 605 875 353 875Z" fill="#FD5108" fill-rule="evenodd"/><rect x="400" y="928" width="157" height="11" fill="#FD5108"/><rect x="400" y="973" width="44" height="11" fill="#FD5108"/><rect x="400" y="1019" width="44" height="11" fill="#FD5108"/><rect x="400" y="1064" width="44" height="11" fill="#FD5108"/><rect x="507" y="1019" width="58.0001" height="11" fill="#FD5108"/><rect x="507" y="1064" width="58.0001" height="11" fill="#FD5108"/><path d="M469 1127.83 527.216 1127.83 572.356 1173 572.356 1127.83 605 1127.83 605 974 469 974 469 1127.83ZM479.629 984.692 594.237 984.692 594.237 1117.05 561.638 1117.05 561.638 1147.07 531.663 1117.05 479.629 1117.05 479.629 984.692Z" fill="#FD5108" fill-rule="evenodd"/></g></svg>