<svg width="251" height="251" xmlns="http://www.w3.org/2000/svg" xmlns:xlink="http://www.w3.org/1999/xlink" xml:space="preserve" overflow="hidden"><g transform="translate(-683 -993)"><path d="M745.205 993.45 745.205 993 734.537 993 734.537 993.45 683 993.45 683 1244 934 1244 934 993.45 745.205 993.45ZM693.668 1233.35 693.668 1004.17 734.537 1004.17 734.537 1066.33 706.59 1082.38 706.59 1117.69 717.333 1117.69 717.333 1088.6 739.871 1075.55 762.447 1088.6 762.447 1117.69 773.115 1117.69 773.115 1082.38 745.205 1066.33 745.205 1004.17 923.332 1004.17 923.332 1194.29 912.063 1194.29 912.063 1150.5 857.708 1150.5 857.708 1194.29 848.317 1194.29 848.317 1150.5 793.925 1150.5 793.925 1194.29 761.32 1194.29 761.32 1205.01 923.332 1205.01 923.332 1233.35 693.668 1233.35ZM901.846 1194.29 867.926 1194.29 867.926 1160.62 901.846 1160.62 901.846 1194.29ZM838.1 1194.29 804.068 1194.29 804.068 1160.62 838.1 1160.62 838.1 1194.29Z" fill-rule="evenodd"/><path d="M739.481 1113 701 1151.48 739.481 1190 778 1151.48 739.481 1113ZM715.383 1151.48 739.481 1127.41 763.541 1151.48 739.481 1175.56 715.383 1151.48Z" fill-rule="evenodd"/></g></svg>