<svg width="252" height="251" xmlns="http://www.w3.org/2000/svg" xmlns:xlink="http://www.w3.org/1999/xlink" xml:space="preserve" overflow="hidden"><defs><clipPath id="clip0"><rect x="1103" y="993" width="252" height="251"/></clipPath></defs><g clip-path="url(#clip0)" transform="translate(-1103 -993)"><path d="M1103 993 1103 1244 1355 1244 1355 993 1103 993ZM1344.28 1233.32 1113.73 1233.32 1113.73 1003.68 1344.28 1003.68 1344.28 1233.32Z" fill-rule="evenodd"/><path d="M1229.06 1211 1229.06 1211 1231.39 1211 1233.73 1210.92 1236.07 1210.77 1238.41 1210.55 1240.75 1210.32 1243.01 1209.94 1245.27 1209.57 1247.54 1209.19 1249.8 1208.66 1251.99 1208.13 1254.17 1207.53 1256.36 1206.93 1258.55 1206.17 1260.66 1205.42 1262.77 1204.66 1264.81 1203.76 1266.84 1202.93 1268.88 1201.95 1270.92 1200.97 1272.88 1199.91 1274.76 1198.85 1276.73 1197.72 1278.61 1196.52 1280.42 1195.31 1282.23 1194.03 1284.04 1192.74 1285.78 1191.39 1287.51 1190.03 1289.17 1188.59 1290.83 1187.09 1292.49 1185.58 1294.07 1184.07 1295.58 1182.48 1297.09 1180.82 1298.6 1179.24 1300.03 1177.5 1301.39 1175.77 1302.75 1174.03 1304.03 1172.22 1305.31 1170.41 1306.52 1168.6 1307.73 1166.72 1308.86 1164.75 1309.91 1162.87 1310.97 1160.91 1311.95 1158.87 1312.85 1156.83 1313.76 1154.8 1314.66 1152.76 1315.42 1150.65 1316.17 1148.54 1316.85 1146.35 1317.53 1144.16 1318.13 1141.97 1318.66 1139.78 1319.19 1137.52 1319.57 1135.33 1319.94 1132.99 1320.32 1130.73 1320.55 1128.39 1320.77 1126.13 1320.92 1123.79 1321 1121.38 1321 1119.04 1321 1119.04 1321 1116.62 1320.92 1114.29 1320.77 1111.95 1320.55 1109.61 1320.32 1107.34 1319.94 1105.01 1319.57 1102.74 1319.19 1100.48 1318.66 1098.29 1318.13 1096.03 1317.53 1093.84 1316.85 1091.73 1316.17 1089.54 1315.42 1087.43 1314.66 1085.32 1313.76 1083.28 1312.85 1081.17 1311.95 1079.21 1310.97 1077.17 1309.91 1075.21 1308.86 1073.25 1307.73 1071.36 1306.52 1069.47 1305.31 1067.66 1304.03 1065.78 1302.75 1064.04 1301.39 1062.23 1300.03 1060.57 1298.6 1058.84 1297.09 1057.18 1295.58 1055.59 1294.07 1054.01 1292.49 1052.5 1290.83 1050.99 1289.17 1049.48 1287.51 1048.05 1285.78 1046.69 1284.04 1045.33 1282.23 1044.05 1280.42 1042.77 1278.61 1041.56 1276.73 1040.35 1274.76 1039.22 1272.88 1038.17 1270.92 1037.11 1268.88 1036.13 1266.84 1035.15 1264.81 1034.24 1262.77 1033.41 1260.66 1032.66 1258.55 1031.9 1256.36 1031.15 1254.17 1030.55 1251.99 1029.94 1249.8 1029.41 1247.54 1028.89 1245.27 1028.43 1243.01 1028.06 1240.75 1027.75 1238.41 1027.53 1236.07 1027.3 1233.73 1027.15 1231.39 1027.08 1229.06 1027 1229.06 1027 1226.61 1027.08 1224.27 1027.15 1221.93 1027.3 1219.59 1027.53 1217.33 1027.75 1214.99 1028.06 1212.73 1028.43 1210.46 1028.89 1208.28 1029.41 1206.01 1029.94 1203.83 1030.55 1201.71 1031.15 1199.53 1031.9 1197.42 1032.66 1195.3 1033.41 1193.27 1034.24 1191.16 1035.15 1189.19 1036.13 1187.16 1037.11 1185.2 1038.17 1183.24 1039.22 1181.35 1040.35 1179.46 1041.56 1177.58 1042.77 1175.77 1044.05 1174.03 1045.33 1172.22 1046.69 1170.56 1048.05 1168.83 1049.48 1167.17 1050.99 1165.59 1052.5 1164 1054.01 1162.42 1055.59 1160.91 1057.18 1159.48 1058.84 1158.04 1060.57 1156.69 1062.23 1155.33 1064.04 1154.05 1065.78 1152.76 1067.66 1151.56 1069.47 1150.35 1071.36 1149.22 1073.25 1148.16 1075.21 1147.11 1077.17 1146.13 1079.21 1145.15 1081.17 1144.24 1083.28 1143.41 1085.32 1142.58 1087.43 1141.83 1089.54 1141.15 1091.73 1140.55 1093.84 1139.94 1096.03 1139.41 1098.29 1138.89 1100.48 1138.43 1102.74 1138.06 1105.01 1137.75 1107.34 1137.53 1109.61 1137.3 1111.95 1137.15 1114.29 1137.08 1116.62 1137 1119.04 1137 1119.04 1137.08 1121.38 1137.15 1123.79 1137.3 1126.13 1137.53 1128.39 1137.75 1130.73 1138.06 1132.99 1138.43 1135.33 1138.89 1137.52 1139.41 1139.78 1139.94 1141.97 1140.55 1144.16 1141.15 1146.35 1141.83 1148.54 1142.58 1150.65 1143.41 1152.76 1144.24 1154.8 1145.15 1156.83 1146.13 1158.87 1147.11 1160.91 1148.16 1162.87 1149.22 1164.75 1150.35 1166.72 1151.56 1168.6 1152.76 1170.41 1154.05 1172.22 1155.33 1174.03 1156.69 1175.77 1158.04 1177.5 1159.48 1179.24 1160.91 1180.82 1162.42 1182.48 1164 1184.07 1165.59 1185.58 1167.17 1187.09 1168.83 1188.59 1170.56 1190.03 1172.22 1191.39 1174.03 1192.74 1175.77 1194.03 1177.58 1195.31 1179.46 1196.52 1181.35 1197.72 1183.24 1198.85 1185.2 1199.91 1187.16 1200.97 1189.19 1201.95 1191.16 1202.93 1193.27 1203.76 1195.3 1204.66 1197.42 1205.42 1199.53 1206.17 1201.71 1206.93 1203.83 1207.53 1206.01 1208.13 1208.28 1208.66 1210.46 1209.19 1212.73 1209.57 1214.99 1209.94 1217.33 1210.32 1219.59 1210.55 1221.93 1210.77 1224.27 1210.92 1226.61 1211 1229.06 1211 1229.06 1211ZM1164 1167.7 1182.48 1167.7 1182.48 1167.7 1183.91 1171.47 1185.42 1175.01 1187.08 1178.49 1188.82 1181.8 1190.63 1184.97 1192.51 1187.99 1194.55 1190.86 1196.59 1193.57 1196.59 1193.57 1194.17 1192.44 1191.83 1191.23 1189.5 1190.03 1187.23 1188.67 1184.97 1187.31 1182.78 1185.8 1180.67 1184.29 1178.56 1182.71 1176.52 1181.05 1174.56 1179.31 1172.68 1177.5 1170.79 1175.69 1168.98 1173.81 1167.25 1171.85 1165.59 1169.81 1164 1167.7 1164 1167.7ZM1169.13 1081.09 1169.13 1081.09 1169.58 1082.83 1170.19 1084.56 1170.94 1086.15 1171.85 1087.65 1172.9 1089.16 1174.03 1090.45 1175.32 1091.73 1176.67 1092.86 1176.67 1092.86 1176.22 1095.35 1175.84 1097.91 1175.24 1103.12 1174.79 1108.4 1174.64 1111.04 1174.56 1113.68 1147.94 1113.68 1147.94 1113.68 1148.09 1111.49 1148.39 1109.31 1148.62 1107.12 1148.99 1105.01 1149.37 1102.89 1149.82 1100.78 1150.35 1098.74 1150.88 1096.71 1151.48 1094.67 1152.16 1092.63 1152.91 1090.67 1153.67 1088.71 1154.5 1086.75 1155.33 1084.86 1156.23 1082.98 1157.21 1081.09 1169.13 1081.09ZM1310.06 1113.68 1297.39 1113.68 1297.39 1113.68 1296.94 1112.47 1296.34 1111.34 1295.73 1110.21 1295.05 1109.16 1294.3 1108.17 1293.47 1107.19 1292.56 1106.29 1291.66 1105.46 1290.68 1104.63 1289.7 1103.95 1288.57 1103.27 1287.44 1102.67 1286.3 1102.14 1285.1 1101.69 1283.89 1101.31 1282.61 1101.01 1282.61 1101.01 1282.31 1098.44 1281.93 1095.8 1281.48 1093.31 1281.02 1090.75 1280.57 1088.33 1280.04 1085.84 1279.52 1083.43 1278.91 1081.09 1300.86 1081.09 1300.86 1081.09 1301.84 1082.98 1302.75 1084.86 1303.58 1086.75 1304.41 1088.71 1305.16 1090.67 1305.84 1092.63 1306.52 1094.67 1307.12 1096.71 1307.73 1098.74 1308.18 1100.78 1308.63 1102.89 1309.08 1105.01 1309.38 1107.12 1309.69 1109.31 1309.91 1111.49 1310.06 1113.68 1310.06 1113.68ZM1208.05 1081.09 1223.66 1081.09 1223.66 1113.68 1185.27 1113.68 1185.27 1113.68 1185.5 1109.38 1185.8 1105.08 1186.33 1100.93 1186.86 1096.78 1186.86 1096.78 1188.59 1096.86 1188.59 1096.86 1190.33 1096.78 1192.06 1096.56 1193.72 1096.18 1195.38 1095.65 1196.96 1094.97 1198.4 1094.22 1199.83 1093.31 1201.19 1092.33 1202.39 1091.2 1203.53 1089.99 1204.58 1088.71 1205.56 1087.35 1206.32 1085.84 1207.07 1084.34 1207.6 1082.75 1208.05 1081.09 1208.05 1081.09ZM1223.66 1124.39 1223.66 1142.2 1223.66 1142.2 1222.38 1142.58 1221.1 1143.1 1219.97 1143.71 1218.76 1144.39 1217.71 1145.06 1216.65 1145.89 1215.67 1146.72 1214.76 1147.71 1213.86 1148.69 1213.1 1149.74 1212.35 1150.8 1211.67 1151.93 1211.14 1153.14 1210.62 1154.42 1210.16 1155.7 1209.86 1156.98 1190.4 1156.98 1190.4 1156.98 1189.35 1153.21 1188.44 1149.36 1187.61 1145.37 1186.93 1141.37 1186.33 1137.22 1185.88 1132.99 1185.5 1128.77 1185.27 1124.39 1223.66 1124.39ZM1229.28 1170.41 1229.28 1170.41 1228.34 1170.41 1227.44 1170.26 1226.53 1170.04 1225.7 1169.73 1224.95 1169.36 1224.19 1168.83 1223.44 1168.3 1222.83 1167.77 1222.23 1167.09 1221.7 1166.41 1221.25 1165.66 1220.8 1164.83 1220.5 1164 1220.27 1163.1 1220.19 1162.19 1220.12 1161.28 1220.12 1161.28 1220.19 1160.3 1220.27 1159.4 1220.5 1158.57 1220.8 1157.66 1221.25 1156.91 1221.7 1156.15 1222.23 1155.4 1222.83 1154.8 1223.44 1154.19 1224.19 1153.67 1224.95 1153.21 1225.7 1152.84 1226.53 1152.53 1227.44 1152.31 1228.34 1152.16 1229.28 1152.08 1229.28 1152.08 1230.26 1152.16 1231.17 1152.31 1232.07 1152.53 1232.9 1152.84 1233.66 1153.21 1234.41 1153.67 1235.17 1154.19 1235.77 1154.8 1236.37 1155.4 1236.9 1156.15 1237.35 1156.91 1237.81 1157.66 1238.11 1158.57 1238.33 1159.4 1238.41 1160.3 1238.48 1161.28 1238.48 1161.28 1238.41 1162.19 1238.33 1163.1 1238.11 1164 1237.81 1164.83 1237.35 1165.66 1236.9 1166.41 1236.37 1167.09 1235.77 1167.77 1235.17 1168.3 1234.41 1168.83 1233.66 1169.36 1232.9 1169.73 1232.07 1170.04 1231.17 1170.26 1230.26 1170.41 1229.28 1170.41 1229.28 1170.41ZM1210.46 1167.7 1210.46 1167.7 1210.92 1168.83 1211.37 1169.88 1211.97 1170.94 1212.58 1172 1213.18 1172.98 1213.93 1173.88 1214.69 1174.79 1215.52 1175.62 1216.42 1176.37 1217.33 1177.13 1218.31 1177.81 1219.29 1178.41 1220.34 1179.01 1221.4 1179.54 1222.53 1179.99 1223.66 1180.37 1223.66 1199.61 1223.66 1199.61 1222.53 1199.38 1221.4 1199.01 1220.34 1198.63 1219.29 1198.18 1218.16 1197.65 1217.1 1197.12 1216.05 1196.52 1214.99 1195.84 1212.95 1194.4 1210.99 1192.82 1209.03 1191.01 1207.07 1189.05 1205.26 1186.86 1203.45 1184.6 1201.71 1182.11 1200.06 1179.54 1198.47 1176.75 1196.96 1173.88 1195.53 1170.87 1194.17 1167.7 1210.46 1167.7ZM1234.41 1199.61 1234.41 1180.45 1234.41 1180.45 1235.62 1180.14 1236.75 1179.69 1237.88 1179.24 1238.94 1178.64 1239.99 1178.03 1240.97 1177.35 1241.95 1176.6 1242.86 1175.77 1243.76 1174.94 1244.52 1174.03 1245.27 1173.13 1245.95 1172.07 1246.63 1171.09 1247.16 1169.96 1247.69 1168.9 1248.14 1167.7 1263.9 1167.7 1263.9 1167.7 1262.55 1170.87 1261.04 1173.88 1259.53 1176.83 1257.94 1179.54 1256.29 1182.18 1254.55 1184.6 1252.74 1186.86 1250.85 1189.05 1248.97 1191.01 1247.01 1192.74 1244.97 1194.4 1242.93 1195.84 1241.95 1196.44 1240.9 1197.04 1239.84 1197.57 1238.71 1198.1 1237.66 1198.55 1236.6 1198.93 1235.47 1199.31 1234.41 1199.61 1234.41 1199.61ZM1248.74 1156.98 1248.74 1156.98 1248.37 1155.63 1247.99 1154.34 1247.46 1153.06 1246.86 1151.85 1246.18 1150.65 1245.42 1149.59 1244.59 1148.46 1243.69 1147.48 1242.71 1146.57 1241.65 1145.67 1240.6 1144.91 1239.47 1144.16 1238.26 1143.48 1236.98 1142.95 1235.69 1142.42 1234.41 1142.05 1234.41 1124.39 1259.23 1124.39 1259.23 1124.39 1259.53 1125.68 1259.91 1126.88 1260.28 1128.02 1260.81 1129.15 1261.41 1130.28 1262.02 1131.33 1262.77 1132.39 1263.53 1133.3 1264.36 1134.28 1265.19 1135.11 1266.17 1135.94 1267.15 1136.69 1268.13 1137.37 1269.18 1137.97 1270.31 1138.58 1271.45 1139.03 1271.45 1139.03 1270.77 1143.71 1269.86 1148.31 1268.81 1152.68 1267.67 1156.98 1248.74 1156.98ZM1278.76 1111.34 1278.76 1111.34 1279.67 1111.42 1280.57 1111.57 1281.48 1111.8 1282.31 1112.1 1283.14 1112.47 1283.89 1112.93 1284.57 1113.46 1285.25 1114.06 1285.85 1114.74 1286.38 1115.42 1286.83 1116.17 1287.21 1117 1287.51 1117.83 1287.74 1118.74 1287.89 1119.64 1287.89 1120.55 1287.89 1120.55 1287.89 1121.45 1287.74 1122.36 1287.51 1123.26 1287.21 1124.09 1286.83 1124.92 1286.38 1125.68 1285.85 1126.36 1285.25 1127.03 1284.57 1127.64 1283.89 1128.17 1283.14 1128.62 1282.31 1129 1281.48 1129.3 1280.57 1129.52 1279.67 1129.67 1278.76 1129.75 1278.76 1129.75 1277.78 1129.67 1276.88 1129.52 1276.05 1129.3 1275.14 1129 1274.39 1128.62 1273.63 1128.17 1272.88 1127.64 1272.28 1127.03 1271.67 1126.36 1271.14 1125.68 1270.69 1124.92 1270.31 1124.09 1270.01 1123.26 1269.79 1122.36 1269.64 1121.45 1269.56 1120.55 1269.56 1120.55 1269.64 1119.64 1269.79 1118.74 1270.01 1117.83 1270.31 1117 1270.69 1116.17 1271.14 1115.42 1271.67 1114.74 1272.28 1114.06 1272.88 1113.46 1273.63 1112.93 1274.39 1112.47 1275.14 1112.1 1276.05 1111.8 1276.88 1111.57 1277.78 1111.42 1278.76 1111.34 1278.76 1111.34ZM1282.23 1140.16 1282.23 1140.16 1283.66 1139.78 1285.17 1139.41 1286.53 1138.8 1287.89 1138.2 1289.17 1137.45 1290.45 1136.62 1291.58 1135.71 1292.64 1134.73 1293.7 1133.67 1294.6 1132.54 1295.43 1131.33 1296.26 1130.05 1296.86 1128.69 1297.47 1127.34 1297.92 1125.9 1298.3 1124.39 1310.06 1124.39 1310.06 1124.39 1309.91 1126.58 1309.69 1128.77 1309.38 1130.88 1309.08 1133.07 1308.63 1135.18 1308.18 1137.29 1307.73 1139.33 1307.12 1141.37 1306.52 1143.41 1305.84 1145.44 1305.16 1147.4 1304.41 1149.36 1303.58 1151.33 1302.75 1153.21 1301.84 1155.1 1300.86 1156.98 1278.84 1156.98 1278.84 1156.98 1279.82 1152.91 1280.72 1148.76 1281.55 1144.46 1282.23 1140.16 1282.23 1140.16ZM1271.9 1101.91 1271.9 1101.91 1270.84 1102.29 1269.86 1102.74 1268.96 1103.27 1268.05 1103.8 1267.15 1104.4 1266.32 1105.08 1265.49 1105.76 1264.73 1106.51 1263.98 1107.27 1263.3 1108.1 1262.62 1108.93 1262.02 1109.83 1261.49 1110.74 1260.96 1111.64 1260.51 1112.63 1260.06 1113.68 1234.41 1113.68 1234.41 1081.09 1267.75 1081.09 1267.75 1081.09 1268.43 1083.51 1269.03 1085.99 1269.64 1088.56 1270.16 1091.12 1270.69 1093.77 1271.14 1096.41 1271.52 1099.12 1271.9 1101.91 1271.9 1101.91ZM1234.41 1070.38 1234.41 1038.39 1234.41 1038.39 1235.54 1038.69 1236.6 1039.07 1237.73 1039.45 1238.79 1039.9 1239.84 1040.35 1240.97 1040.88 1242.03 1041.48 1243.09 1042.16 1245.12 1043.6 1247.16 1045.18 1249.12 1046.99 1251.01 1048.95 1252.89 1051.07 1254.7 1053.4 1256.44 1055.82 1258.1 1058.46 1259.68 1061.25 1261.19 1064.12 1262.62 1067.13 1263.98 1070.38 1234.41 1070.38ZM1223.66 1038.39 1223.66 1070.38 1207.37 1070.38 1207.37 1070.38 1206.69 1068.79 1205.94 1067.29 1205.03 1065.85 1204.05 1064.49 1203 1063.21 1201.79 1062.08 1200.51 1061.02 1199.08 1060.04 1199.08 1060.04 1200.43 1057.86 1201.71 1055.82 1203.15 1053.86 1204.51 1051.97 1206.01 1050.16 1207.45 1048.58 1208.96 1046.99 1210.54 1045.56 1212.12 1044.28 1213.71 1043.07 1215.29 1042.01 1216.95 1041.03 1218.61 1040.2 1220.27 1039.45 1221.93 1038.92 1223.66 1038.39 1223.66 1038.39ZM1188.59 1067.74 1188.59 1067.74 1189.5 1067.81 1190.4 1067.96 1191.31 1068.19 1192.14 1068.49 1192.97 1068.87 1193.72 1069.32 1194.4 1069.85 1195.08 1070.45 1195.68 1071.06 1196.21 1071.81 1196.66 1072.57 1197.04 1073.4 1197.34 1074.23 1197.57 1075.06 1197.72 1075.96 1197.72 1076.94 1197.72 1076.94 1197.72 1077.85 1197.57 1078.75 1197.34 1079.66 1197.04 1080.49 1196.66 1081.32 1196.21 1082.07 1195.68 1082.75 1195.08 1083.43 1194.4 1084.03 1193.72 1084.56 1192.97 1085.01 1192.14 1085.39 1191.31 1085.69 1190.4 1085.92 1189.5 1086.07 1188.59 1086.07 1188.59 1086.07 1187.61 1086.07 1186.71 1085.92 1185.88 1085.69 1185.05 1085.39 1184.22 1085.01 1183.46 1084.56 1182.78 1084.03 1182.1 1083.43 1181.5 1082.75 1180.97 1082.07 1180.52 1081.32 1180.14 1080.49 1179.84 1079.66 1179.62 1078.75 1179.46 1077.85 1179.39 1076.94 1179.39 1076.94 1179.46 1075.96 1179.62 1075.06 1179.84 1074.23 1180.14 1073.4 1180.52 1072.57 1180.97 1071.81 1181.5 1071.06 1182.1 1070.45 1182.78 1069.85 1183.46 1069.32 1184.22 1068.87 1185.05 1068.49 1185.88 1068.19 1186.71 1067.96 1187.61 1067.81 1188.59 1067.74 1188.59 1067.74ZM1174.49 1124.39 1174.49 1124.39 1174.71 1128.69 1175.01 1132.99 1175.47 1137.14 1175.99 1141.29 1176.6 1145.37 1177.35 1149.29 1178.18 1153.21 1179.09 1156.98 1157.21 1156.98 1157.21 1156.98 1156.23 1155.1 1155.33 1153.21 1154.5 1151.33 1153.67 1149.36 1152.91 1147.4 1152.16 1145.44 1151.48 1143.41 1150.88 1141.37 1150.35 1139.33 1149.82 1137.29 1149.37 1135.18 1148.99 1133.07 1148.62 1130.88 1148.39 1128.77 1148.09 1126.58 1147.94 1124.39 1174.49 1124.39ZM1260.96 1193.8 1260.96 1193.8 1263.07 1191.08 1265.11 1188.22 1267.07 1185.12 1268.96 1181.96 1270.69 1178.64 1272.35 1175.17 1273.93 1171.47 1275.44 1167.7 1294.07 1167.7 1294.07 1167.7 1292.41 1169.81 1290.75 1171.85 1288.94 1173.88 1287.13 1175.77 1285.25 1177.66 1283.29 1179.47 1281.33 1181.2 1279.29 1182.86 1277.18 1184.52 1274.99 1186.03 1272.73 1187.54 1270.47 1188.9 1268.2 1190.25 1265.79 1191.46 1263.38 1192.67 1260.96 1193.8 1260.96 1193.8ZM1294.07 1070.38 1275.52 1070.38 1275.52 1070.38 1274.09 1066.61 1272.5 1062.99 1270.84 1059.52 1269.11 1056.2 1267.3 1053.03 1265.34 1050.01 1263.3 1047.14 1261.26 1044.43 1261.26 1044.43 1263.68 1045.56 1266.09 1046.69 1268.43 1047.97 1270.69 1049.26 1272.95 1050.69 1275.14 1052.12 1277.25 1053.71 1279.37 1055.29 1281.4 1056.95 1283.44 1058.69 1285.32 1060.5 1287.21 1062.31 1289.02 1064.27 1290.75 1066.23 1292.41 1068.27 1294.07 1070.38 1294.07 1070.38ZM1196.89 1044.43 1196.89 1044.43 1195.76 1045.78 1194.62 1047.29 1193.57 1048.8 1192.51 1050.31 1191.46 1051.9 1190.48 1053.56 1189.5 1055.29 1188.52 1057.03 1188.52 1057.03 1186.93 1057.1 1185.35 1057.25 1183.76 1057.63 1182.33 1058.01 1180.9 1058.61 1179.54 1059.21 1178.18 1059.97 1176.98 1060.8 1175.77 1061.7 1174.64 1062.76 1173.58 1063.82 1172.68 1065.02 1171.85 1066.23 1171.02 1067.59 1170.41 1068.95 1169.81 1070.38 1164 1070.38 1164 1070.38 1165.59 1068.27 1167.32 1066.23 1169.06 1064.27 1170.87 1062.31 1172.75 1060.5 1174.64 1058.69 1176.67 1056.95 1178.71 1055.29 1180.82 1053.63 1182.93 1052.12 1185.12 1050.69 1187.38 1049.26 1189.72 1047.9 1192.06 1046.69 1194.4 1045.48 1196.89 1044.43 1196.89 1044.43Z" fill-rule="evenodd"/></g></svg>