<svg width="96" height="96" xmlns="http://www.w3.org/2000/svg" xmlns:xlink="http://www.w3.org/1999/xlink" xml:space="preserve" overflow="hidden"><defs><linearGradient x1="50.1824" y1="228.039" x2="115.52" y2="162.702" gradientUnits="userSpaceOnUse" spreadMethod="pad" id="fill0"><stop offset="0" stop-color="#FF9F00"/><stop offset="0.05089" stop-color="#FE9900"/><stop offset="0.466323" stop-color="#FD7204"/><stop offset="0.797112" stop-color="#FD5907"/><stop offset="1" stop-color="#FD5108"/></linearGradient></defs><g transform="translate(-39 -145)"><path d="M72.6839 199.84 69.7737 200.83 59.8139 204.16 56.9639 205.12 56.4537 205.3 57.5639 206.26 61.5837 209.8 60.6237 210.91 47.6938 225.55 57.2037 233.95 70.0137 219.43 71.0937 218.2 75.8939 222.43 76.2237 222.73 76.2539 222.58 76.8539 219.61 77.1537 218.14 77.9639 214.09 81.4437 196.9 72.6839 199.84ZM75.7439 209.95 74.7839 214.66 74.3037 217.03 70.8539 213.97 69.5339 215.47 67.5537 217.72 56.9639 229.72 51.9239 225.31 62.5739 213.22 64.5837 210.97 65.8139 209.56 62.3337 206.47 70.4339 203.77 73.3139 202.78 77.4837 201.4 75.7439 209.95ZM121.734 198.79C118.464 209.02 110.334 217.15 100.044 220.45 106.194 214.48 110.364 203.26 110.634 190.06L121.584 190.06 123.294 187.09 123.294 187.06 110.604 187.06C110.364 173.83 106.194 162.61 100.014 156.67 113.064 160.87 122.664 172.78 123.324 187.03L123.324 187.06 126.294 187.06C126.294 186.7 126.294 186.37 126.264 186.04 124.944 167.08 109.014 152.05 89.6339 152.05 69.4137 152.05 52.9437 168.43 52.9437 188.56 52.9437 192.94 53.7237 197.11 55.1339 201.01L57.9837 200.05C56.8139 196.93 56.1237 193.57 55.9737 190.06L68.6339 190.06C68.6637 192.19 68.8139 194.29 69.0537 196.33L71.9639 195.34C71.7839 193.63 71.6637 191.86 71.6339 190.06L88.1339 190.06 88.1339 221.98C85.8539 221.62 83.6637 220.48 81.7139 218.68L81.2337 221.05 81.0237 222.01 80.6339 223.99C83.5137 224.71 86.5137 225.1 89.6339 225.1 109.074 225.1 125.034 210.01 126.264 190.96 126.294 190.66 126.324 190.36 126.294 190.06L123.324 190.06C123.174 193.09 122.634 196.03 121.734 198.79ZM68.6637 187.06 55.9737 187.06C56.6339 172.84 66.2037 160.9 79.2237 156.7 73.0739 162.67 68.9037 173.86 68.6637 187.06ZM88.1339 187.06 71.6339 187.06C72.0237 170.2 79.1637 156.55 88.1339 155.17L88.1339 187.06ZM91.1339 155.17C100.134 156.55 107.244 170.2 107.634 187.06L91.1339 187.06 91.1339 155.17ZM91.1339 221.98 91.1339 190.06 107.634 190.06C107.244 206.95 100.134 220.6 91.1339 221.98Z" fill="url(#fill0)"/></g></svg>