<svg width="251" height="251" xmlns="http://www.w3.org/2000/svg" xmlns:xlink="http://www.w3.org/1999/xlink" xml:space="preserve" overflow="hidden"><defs><clipPath id="clip0"><rect x="787" y="925" width="251" height="251"/></clipPath></defs><g clip-path="url(#clip0)" transform="translate(-787 -925)"><path d="M849.205 925.45 849.205 925 838.537 925 838.537 925.45 787 925.45 787 1176 1038 1176 1038 925.45 849.205 925.45ZM797.668 1165.35 797.668 936.172 838.537 936.172 838.537 998.332 810.59 1014.38 810.59 1049.69 821.333 1049.69 821.333 1020.6 843.871 1007.55 866.447 1020.6 866.447 1049.69 877.115 1049.69 877.115 1014.38 849.205 998.332 849.205 936.172 1027.33 936.172 1027.33 1126.29 1016.06 1126.29 1016.06 1082.5 961.708 1082.5 961.708 1126.29 952.317 1126.29 952.317 1082.5 897.925 1082.5 897.925 1126.29 865.32 1126.29 865.32 1137.01 1027.33 1137.01 1027.33 1165.35 797.668 1165.35ZM1005.85 1126.29 971.926 1126.29 971.926 1092.62 1005.85 1092.62 1005.85 1126.29ZM942.1 1126.29 908.067 1126.29 908.067 1092.62 942.1 1092.62 942.1 1126.29Z" fill="#FD5108" fill-rule="evenodd"/><path d="M843.982 1045 806 1083.48 843.982 1122 882 1083.48 843.982 1045ZM820.197 1083.48 843.982 1059.41 867.729 1083.48 843.982 1107.56 820.197 1083.48Z" fill="#FD5108" fill-rule="evenodd"/></g></svg>