<svg width="252" height="252" xmlns="http://www.w3.org/2000/svg" xmlns:xlink="http://www.w3.org/1999/xlink" xml:space="preserve" overflow="hidden"><defs><clipPath id="clip0"><rect x="820" y="1327" width="252" height="252"/></clipPath></defs><g clip-path="url(#clip0)" transform="translate(-820 -1327)"><path d="M820 1327 820 1579 1072 1579 1072 1327 820 1327ZM1061.28 1568.27 830.725 1568.27 830.725 1337.73 1061.28 1337.73 1061.28 1568.27Z" fill="#FD5108" fill-rule="evenodd"/><path d="M946.057 1545 946.057 1545 948.395 1545 950.733 1544.92 953.071 1544.77 955.409 1544.55 957.747 1544.32 960.01 1543.94 962.273 1543.57 964.536 1543.19 966.799 1542.66 968.986 1542.13 971.173 1541.53 973.361 1540.93 975.548 1540.17 977.66 1539.42 979.772 1538.66 981.808 1537.76 983.845 1536.93 985.881 1535.95 987.918 1534.97 989.879 1533.91 991.764 1532.85 993.725 1531.72 995.611 1530.52 997.421 1529.31 999.232 1528.03 1001.04 1526.74 1002.78 1525.39 1004.51 1524.03 1006.17 1522.59 1007.83 1521.09 1009.49 1519.58 1011.07 1518.07 1012.58 1516.48 1014.09 1514.82 1015.6 1513.24 1017.03 1511.5 1018.39 1509.77 1019.75 1508.03 1021.03 1506.22 1022.31 1504.41 1023.52 1502.6 1024.73 1500.72 1025.86 1498.75 1026.91 1496.87 1027.97 1494.91 1028.95 1492.87 1029.85 1490.83 1030.76 1488.8 1031.66 1486.76 1032.42 1484.65 1033.17 1482.54 1033.85 1480.35 1034.53 1478.16 1035.13 1475.97 1035.66 1473.78 1036.19 1471.52 1036.57 1469.33 1036.94 1466.99 1037.32 1464.73 1037.55 1462.39 1037.77 1460.13 1037.92 1457.79 1038 1455.38 1038 1453.04 1038 1453.04 1038 1450.62 1037.92 1448.28 1037.77 1445.95 1037.55 1443.61 1037.32 1441.34 1036.94 1439.01 1036.57 1436.74 1036.19 1434.48 1035.66 1432.29 1035.13 1430.03 1034.53 1427.84 1033.85 1425.73 1033.17 1423.54 1032.42 1421.43 1031.66 1419.32 1030.76 1417.28 1029.85 1415.17 1028.95 1413.2 1027.97 1411.17 1026.91 1409.21 1025.86 1407.25 1024.73 1405.36 1023.52 1403.47 1022.31 1401.66 1021.03 1399.78 1019.75 1398.04 1018.39 1396.23 1017.03 1394.57 1015.6 1392.84 1014.09 1391.18 1012.58 1389.59 1011.07 1388.01 1009.49 1386.5 1007.83 1384.99 1006.17 1383.48 1004.51 1382.05 1002.78 1380.69 1001.04 1379.33 999.232 1378.05 997.421 1376.77 995.611 1375.56 993.725 1374.35 991.764 1373.22 989.879 1372.17 987.918 1371.11 985.881 1370.13 983.845 1369.15 981.808 1368.24 979.772 1367.41 977.66 1366.66 975.548 1365.9 973.361 1365.15 971.173 1364.55 968.986 1363.94 966.799 1363.41 964.536 1362.89 962.273 1362.43 960.01 1362.06 957.747 1361.75 955.409 1361.53 953.071 1361.3 950.733 1361.15 948.395 1361.08 946.057 1361 946.057 1361 943.605 1361.08 941.267 1361.15 938.929 1361.3 936.591 1361.53 934.328 1361.75 931.99 1362.06 929.727 1362.43 927.464 1362.89 925.277 1363.41 923.014 1363.94 920.827 1364.55 918.715 1365.15 916.528 1365.9 914.416 1366.66 912.304 1367.41 910.267 1368.24 908.155 1369.15 906.194 1370.13 904.158 1371.11 902.197 1372.17 900.236 1373.22 898.35 1374.35 896.464 1375.56 894.579 1376.77 892.769 1378.05 891.034 1379.33 889.224 1380.69 887.564 1382.05 885.829 1383.48 884.17 1384.99 882.586 1386.5 881.002 1388.01 879.418 1389.59 877.91 1391.18 876.477 1392.84 875.044 1394.57 873.686 1396.23 872.328 1398.04 871.046 1399.78 869.764 1401.66 868.557 1403.47 867.35 1405.36 866.219 1407.25 865.163 1409.21 864.107 1411.17 863.126 1413.2 862.146 1415.17 861.241 1417.28 860.411 1419.32 859.581 1421.43 858.827 1423.54 858.148 1425.73 857.545 1427.84 856.941 1430.03 856.414 1432.29 855.885 1434.48 855.433 1436.74 855.056 1439.01 854.754 1441.34 854.528 1443.61 854.302 1445.95 854.151 1448.28 854.075 1450.62 854 1453.04 854 1453.04 854.075 1455.38 854.151 1457.79 854.302 1460.13 854.528 1462.39 854.754 1464.73 855.056 1466.99 855.433 1469.33 855.885 1471.52 856.414 1473.78 856.941 1475.97 857.545 1478.16 858.148 1480.35 858.827 1482.54 859.581 1484.65 860.411 1486.76 861.241 1488.8 862.146 1490.83 863.126 1492.87 864.107 1494.91 865.163 1496.87 866.219 1498.75 867.35 1500.72 868.557 1502.6 869.764 1504.41 871.046 1506.22 872.328 1508.03 873.686 1509.77 875.044 1511.5 876.477 1513.24 877.91 1514.82 879.418 1516.48 881.002 1518.07 882.586 1519.58 884.17 1521.09 885.829 1522.59 887.564 1524.03 889.224 1525.39 891.034 1526.74 892.769 1528.03 894.579 1529.31 896.464 1530.52 898.35 1531.72 900.236 1532.85 902.197 1533.91 904.158 1534.97 906.194 1535.95 908.155 1536.93 910.267 1537.76 912.304 1538.66 914.416 1539.42 916.528 1540.17 918.715 1540.93 920.827 1541.53 923.014 1542.13 925.277 1542.66 927.464 1543.19 929.727 1543.57 931.99 1543.94 934.328 1544.32 936.591 1544.55 938.929 1544.77 941.267 1544.92 943.605 1545 946.057 1545 946.057 1545ZM881.002 1501.7 899.481 1501.7 899.481 1501.7 900.914 1505.47 902.423 1509.01 904.082 1512.49 905.817 1515.8 907.627 1518.97 909.513 1521.99 911.549 1524.86 913.586 1527.57 913.586 1527.57 911.172 1526.44 908.834 1525.23 906.496 1524.03 904.233 1522.67 901.97 1521.31 899.783 1519.8 897.671 1518.29 895.559 1516.71 893.523 1515.05 891.562 1513.31 889.676 1511.5 887.79 1509.69 885.98 1507.81 884.245 1505.85 882.586 1503.81 881.002 1501.7 881.002 1501.7ZM886.131 1415.09 886.131 1415.09 886.584 1416.83 887.187 1418.56 887.941 1420.15 888.846 1421.65 889.902 1423.16 891.034 1424.45 892.316 1425.73 893.674 1426.86 893.674 1426.86 893.221 1429.35 892.844 1431.91 892.241 1437.12 891.788 1442.4 891.637 1445.04 891.562 1447.68 864.937 1447.68 864.937 1447.68 865.087 1445.49 865.389 1443.31 865.615 1441.12 865.992 1439.01 866.37 1436.89 866.822 1434.78 867.35 1432.74 867.878 1430.71 868.482 1428.67 869.16 1426.63 869.915 1424.67 870.669 1422.71 871.499 1420.75 872.328 1418.86 873.233 1416.98 874.214 1415.09 886.131 1415.09ZM1027.06 1447.68 1014.39 1447.68 1014.39 1447.68 1013.94 1446.47 1013.34 1445.34 1012.73 1444.21 1012.05 1443.16 1011.3 1442.17 1010.47 1441.19 1009.56 1440.29 1008.66 1439.46 1007.68 1438.63 1006.7 1437.95 1005.57 1437.27 1004.44 1436.67 1003.3 1436.14 1002.1 1435.69 1000.89 1435.31 999.609 1435.01 999.609 1435.01 999.307 1432.44 998.93 1429.8 998.477 1427.31 998.025 1424.75 997.572 1422.33 997.044 1419.84 996.516 1417.43 995.913 1415.09 1017.86 1415.09 1017.86 1415.09 1018.84 1416.98 1019.75 1418.86 1020.58 1420.75 1021.41 1422.71 1022.16 1424.67 1022.84 1426.63 1023.52 1428.67 1024.12 1430.71 1024.73 1432.74 1025.18 1434.78 1025.63 1436.89 1026.08 1439.01 1026.38 1441.12 1026.69 1443.31 1026.91 1445.49 1027.06 1447.68 1027.06 1447.68ZM925.051 1415.09 940.664 1415.09 940.664 1447.68 902.272 1447.68 902.272 1447.68 902.498 1443.38 902.8 1439.08 903.328 1434.93 903.856 1430.78 903.856 1430.78 905.591 1430.86 905.591 1430.86 907.326 1430.78 909.06 1430.56 910.72 1430.18 912.379 1429.65 913.963 1428.97 915.396 1428.22 916.829 1427.31 918.187 1426.33 919.394 1425.2 920.525 1423.99 921.581 1422.71 922.562 1421.35 923.316 1419.84 924.07 1418.33 924.598 1416.75 925.051 1415.09 925.051 1415.09ZM940.664 1458.39 940.664 1476.2 940.664 1476.2 939.381 1476.58 938.099 1477.1 936.968 1477.71 935.761 1478.39 934.705 1479.06 933.649 1479.89 932.669 1480.72 931.763 1481.71 930.858 1482.69 930.104 1483.74 929.35 1484.8 928.671 1485.93 928.143 1487.14 927.615 1488.42 927.163 1489.7 926.861 1490.98 907.401 1490.98 907.401 1490.98 906.345 1487.21 905.44 1483.36 904.61 1479.37 903.932 1475.37 903.328 1471.22 902.876 1466.99 902.498 1462.77 902.272 1458.39 940.664 1458.39ZM946.283 1504.41 946.283 1504.41 945.34 1504.41 944.435 1504.26 943.53 1504.04 942.7 1503.73 941.946 1503.36 941.192 1502.83 940.437 1502.3 939.834 1501.77 939.231 1501.09 938.703 1500.41 938.25 1499.66 937.797 1498.83 937.496 1498 937.27 1497.1 937.194 1496.19 937.119 1495.28 937.119 1495.28 937.194 1494.3 937.27 1493.4 937.496 1492.57 937.797 1491.66 938.25 1490.91 938.703 1490.15 939.231 1489.4 939.834 1488.8 940.437 1488.19 941.192 1487.67 941.946 1487.21 942.7 1486.84 943.53 1486.53 944.435 1486.31 945.34 1486.16 946.283 1486.08 946.283 1486.08 947.263 1486.16 948.168 1486.31 949.074 1486.53 949.903 1486.84 950.658 1487.21 951.412 1487.67 952.166 1488.19 952.769 1488.8 953.373 1489.4 953.901 1490.15 954.353 1490.91 954.806 1491.66 955.108 1492.57 955.334 1493.4 955.409 1494.3 955.485 1495.28 955.485 1495.28 955.409 1496.19 955.334 1497.1 955.108 1498 954.806 1498.83 954.353 1499.66 953.901 1500.41 953.373 1501.09 952.769 1501.77 952.166 1502.3 951.412 1502.83 950.658 1503.36 949.903 1503.73 949.074 1504.04 948.168 1504.26 947.263 1504.41 946.283 1504.41 946.283 1504.41ZM927.464 1501.7 927.464 1501.7 927.917 1502.83 928.369 1503.88 928.973 1504.94 929.576 1506 930.18 1506.98 930.934 1507.88 931.688 1508.79 932.518 1509.62 933.423 1510.37 934.328 1511.13 935.308 1511.81 936.289 1512.41 937.345 1513.01 938.401 1513.54 939.532 1513.99 940.664 1514.37 940.664 1533.61 940.664 1533.61 939.532 1533.38 938.401 1533.01 937.345 1532.63 936.289 1532.18 935.158 1531.65 934.102 1531.12 933.046 1530.52 931.99 1529.84 929.953 1528.4 927.992 1526.82 926.031 1525.01 924.07 1523.05 922.26 1520.86 920.45 1518.6 918.715 1516.11 917.056 1513.54 915.472 1510.75 913.963 1507.88 912.53 1504.87 911.172 1501.7 927.464 1501.7ZM951.412 1533.61 951.412 1514.45 951.412 1514.45 952.619 1514.14 953.75 1513.69 954.881 1513.24 955.937 1512.64 956.993 1512.03 957.974 1511.35 958.954 1510.6 959.859 1509.77 960.765 1508.94 961.519 1508.03 962.273 1507.13 962.952 1506.07 963.631 1505.09 964.159 1503.96 964.687 1502.9 965.139 1501.7 980.903 1501.7 980.903 1501.7 979.545 1504.87 978.037 1507.88 976.528 1510.83 974.945 1513.54 973.285 1516.18 971.55 1518.6 969.74 1520.86 967.854 1523.05 965.969 1525.01 964.008 1526.74 961.971 1528.4 959.935 1529.84 958.954 1530.44 957.898 1531.04 956.842 1531.57 955.711 1532.1 954.655 1532.55 953.599 1532.93 952.468 1533.31 951.412 1533.61 951.412 1533.61ZM965.743 1490.98 965.743 1490.98 965.365 1489.63 964.988 1488.34 964.46 1487.06 963.857 1485.85 963.178 1484.65 962.424 1483.59 961.594 1482.46 960.689 1481.48 959.709 1480.57 958.653 1479.67 957.597 1478.91 956.465 1478.16 955.258 1477.48 953.976 1476.95 952.694 1476.42 951.412 1476.05 951.412 1458.39 976.227 1458.39 976.227 1458.39 976.528 1459.68 976.906 1460.88 977.283 1462.02 977.811 1463.15 978.414 1464.28 979.017 1465.33 979.772 1466.39 980.526 1467.3 981.356 1468.28 982.185 1469.11 983.166 1469.94 984.146 1470.69 985.127 1471.37 986.183 1471.97 987.314 1472.58 988.446 1473.03 988.446 1473.03 987.767 1477.71 986.862 1482.31 985.806 1486.68 984.674 1490.98 965.743 1490.98ZM995.762 1445.34 995.762 1445.34 996.667 1445.42 997.572 1445.57 998.477 1445.8 999.307 1446.1 1000.14 1446.47 1000.89 1446.93 1001.57 1447.46 1002.25 1448.06 1002.85 1448.74 1003.38 1449.42 1003.83 1450.17 1004.21 1451 1004.51 1451.83 1004.74 1452.74 1004.89 1453.64 1004.89 1454.55 1004.89 1454.55 1004.89 1455.45 1004.74 1456.36 1004.51 1457.26 1004.21 1458.09 1003.83 1458.92 1003.38 1459.68 1002.85 1460.36 1002.25 1461.03 1001.57 1461.64 1000.89 1462.17 1000.14 1462.62 999.307 1463 998.477 1463.3 997.572 1463.52 996.667 1463.67 995.762 1463.75 995.762 1463.75 994.781 1463.67 993.876 1463.52 993.047 1463.3 992.141 1463 991.387 1462.62 990.633 1462.17 989.879 1461.64 989.275 1461.03 988.672 1460.36 988.144 1459.68 987.691 1458.92 987.314 1458.09 987.013 1457.26 986.786 1456.36 986.635 1455.45 986.56 1454.55 986.56 1454.55 986.635 1453.64 986.786 1452.74 987.013 1451.83 987.314 1451 987.691 1450.17 988.144 1449.42 988.672 1448.74 989.275 1448.06 989.879 1447.46 990.633 1446.93 991.387 1446.47 992.141 1446.1 993.047 1445.8 993.876 1445.57 994.781 1445.42 995.762 1445.34 995.762 1445.34ZM999.232 1474.16 999.232 1474.16 1000.66 1473.78 1002.17 1473.41 1003.53 1472.8 1004.89 1472.2 1006.17 1471.45 1007.45 1470.62 1008.58 1469.71 1009.64 1468.73 1010.7 1467.67 1011.6 1466.54 1012.43 1465.33 1013.26 1464.05 1013.86 1462.69 1014.47 1461.34 1014.92 1459.9 1015.3 1458.39 1027.06 1458.39 1027.06 1458.39 1026.91 1460.58 1026.69 1462.77 1026.38 1464.88 1026.08 1467.07 1025.63 1469.18 1025.18 1471.29 1024.73 1473.33 1024.12 1475.37 1023.52 1477.41 1022.84 1479.44 1022.16 1481.4 1021.41 1483.36 1020.58 1485.33 1019.75 1487.21 1018.84 1489.1 1017.86 1490.98 995.837 1490.98 995.837 1490.98 996.818 1486.91 997.723 1482.76 998.553 1478.46 999.232 1474.16 999.232 1474.16ZM988.898 1435.91 988.898 1435.91 987.842 1436.29 986.862 1436.74 985.957 1437.27 985.052 1437.8 984.146 1438.4 983.317 1439.08 982.487 1439.76 981.733 1440.51 980.979 1441.27 980.3 1442.1 979.621 1442.93 979.017 1443.83 978.49 1444.74 977.962 1445.64 977.509 1446.63 977.056 1447.68 951.412 1447.68 951.412 1415.09 984.75 1415.09 984.75 1415.09 985.429 1417.51 986.032 1419.99 986.635 1422.56 987.163 1425.12 987.691 1427.77 988.144 1430.41 988.521 1433.12 988.898 1435.91 988.898 1435.91ZM951.412 1404.38 951.412 1372.39 951.412 1372.39 952.543 1372.69 953.599 1373.07 954.731 1373.45 955.786 1373.9 956.842 1374.35 957.974 1374.88 959.03 1375.48 960.086 1376.16 962.122 1377.6 964.159 1379.18 966.12 1380.99 968.005 1382.95 969.891 1385.07 971.701 1387.4 973.436 1389.82 975.095 1392.46 976.679 1395.25 978.188 1398.12 979.621 1401.13 980.979 1404.38 951.412 1404.38ZM940.664 1372.39 940.664 1404.38 924.372 1404.38 924.372 1404.38 923.693 1402.79 922.939 1401.29 922.034 1399.85 921.053 1398.49 919.997 1397.21 918.79 1396.08 917.508 1395.02 916.075 1394.04 916.075 1394.04 917.433 1391.86 918.715 1389.82 920.148 1387.86 921.506 1385.97 923.014 1384.16 924.447 1382.58 925.956 1380.99 927.54 1379.56 929.124 1378.28 930.708 1377.07 932.291 1376.01 933.951 1375.03 935.61 1374.2 937.27 1373.45 938.929 1372.92 940.664 1372.39 940.664 1372.39ZM905.591 1401.74 905.591 1401.74 906.496 1401.81 907.401 1401.96 908.306 1402.19 909.136 1402.49 909.966 1402.87 910.72 1403.32 911.399 1403.85 912.077 1404.45 912.681 1405.06 913.209 1405.81 913.661 1406.57 914.039 1407.4 914.34 1408.23 914.566 1409.06 914.717 1409.96 914.717 1410.94 914.717 1410.94 914.717 1411.85 914.566 1412.75 914.34 1413.66 914.039 1414.49 913.661 1415.32 913.209 1416.07 912.681 1416.75 912.077 1417.43 911.399 1418.03 910.72 1418.56 909.966 1419.01 909.136 1419.39 908.306 1419.69 907.401 1419.92 906.496 1420.07 905.591 1420.07 905.591 1420.07 904.61 1420.07 903.705 1419.92 902.876 1419.69 902.046 1419.39 901.216 1419.01 900.462 1418.56 899.783 1418.03 899.104 1417.43 898.501 1416.75 897.973 1416.07 897.52 1415.32 897.143 1414.49 896.841 1413.66 896.615 1412.75 896.464 1411.85 896.389 1410.94 896.389 1410.94 896.464 1409.96 896.615 1409.06 896.841 1408.23 897.143 1407.4 897.52 1406.57 897.973 1405.81 898.501 1405.06 899.104 1404.45 899.783 1403.85 900.462 1403.32 901.216 1402.87 902.046 1402.49 902.876 1402.19 903.705 1401.96 904.61 1401.81 905.591 1401.74 905.591 1401.74ZM891.486 1458.39 891.486 1458.39 891.713 1462.69 892.014 1466.99 892.467 1471.14 892.995 1475.29 893.598 1479.37 894.352 1483.29 895.182 1487.21 896.087 1490.98 874.214 1490.98 874.214 1490.98 873.233 1489.1 872.328 1487.21 871.499 1485.33 870.669 1483.36 869.915 1481.4 869.16 1479.44 868.482 1477.41 867.878 1475.37 867.35 1473.33 866.822 1471.29 866.37 1469.18 865.992 1467.07 865.615 1464.88 865.389 1462.77 865.087 1460.58 864.937 1458.39 891.486 1458.39ZM977.962 1527.8 977.962 1527.8 980.073 1525.08 982.11 1522.22 984.071 1519.12 985.957 1515.96 987.691 1512.64 989.351 1509.17 990.935 1505.47 992.443 1501.7 1011.07 1501.7 1011.07 1501.7 1009.41 1503.81 1007.75 1505.85 1005.94 1507.88 1004.13 1509.77 1002.25 1511.66 1000.29 1513.47 998.326 1515.2 996.29 1516.86 994.178 1518.52 991.991 1520.03 989.728 1521.54 987.465 1522.9 985.202 1524.25 982.789 1525.46 980.375 1526.67 977.962 1527.8 977.962 1527.8ZM1011.07 1404.38 992.519 1404.38 992.519 1404.38 991.086 1400.61 989.502 1396.99 987.842 1393.51 986.107 1390.2 984.297 1387.03 982.336 1384.01 980.3 1381.14 978.263 1378.43 978.263 1378.43 980.677 1379.56 983.09 1380.69 985.429 1381.97 987.691 1383.25 989.954 1384.69 992.141 1386.12 994.253 1387.71 996.365 1389.29 998.402 1390.95 1000.44 1392.69 1002.32 1394.5 1004.21 1396.31 1006.02 1398.27 1007.75 1400.23 1009.41 1402.27 1011.07 1404.38 1011.07 1404.38ZM913.888 1378.43 913.888 1378.43 912.756 1379.78 911.625 1381.29 910.569 1382.8 909.513 1384.31 908.457 1385.9 907.477 1387.56 906.496 1389.29 905.515 1391.03 905.515 1391.03 903.932 1391.1 902.348 1391.25 900.764 1391.63 899.331 1392.01 897.897 1392.61 896.54 1393.21 895.182 1393.97 893.975 1394.8 892.769 1395.7 891.637 1396.76 890.581 1397.82 889.676 1399.02 888.846 1400.23 888.017 1401.59 887.413 1402.94 886.81 1404.38 881.002 1404.38 881.002 1404.38 882.586 1402.27 884.321 1400.23 886.056 1398.27 887.866 1396.31 889.752 1394.5 891.637 1392.69 893.674 1390.95 895.71 1389.29 897.822 1387.63 899.934 1386.12 902.121 1384.69 904.384 1383.25 906.722 1381.9 909.06 1380.69 911.399 1379.48 913.888 1378.43 913.888 1378.43Z" fill="#FD5108" fill-rule="evenodd"/></g></svg>