<svg width="96" height="96" xmlns="http://www.w3.org/2000/svg" xmlns:xlink="http://www.w3.org/1999/xlink" xml:space="preserve" overflow="hidden"><defs><linearGradient x1="61.2899" y1="217.885" x2="121.095" y2="158.08" gradientUnits="userSpaceOnUse" spreadMethod="pad" id="fill0"><stop offset="0" stop-color="#FF9F00"/><stop offset="0.05089" stop-color="#FE9900"/><stop offset="0.466323" stop-color="#FD7204"/><stop offset="0.797112" stop-color="#FD5907"/><stop offset="1" stop-color="#FD5108"/></linearGradient></defs><g transform="translate(-42 -145)"><path d="M115.2 172.975 115.2 152.185 55.4099 152.185 53.6999 155.185 112.2 155.185 112.2 169.975 108.84 166.615 83.37 166.615 83.37 185.995 83.3399 185.995 83.3399 188.995 83.37 188.995 83.37 197.275 83.3399 197.275 83.3399 200.275 83.37 200.275 83.37 205.765 75.57 205.765 75.57 200.275 78.8399 200.275 78.8399 197.275 50.22 197.275 50.22 188.995 78.8399 188.995 78.8399 185.995 50.22 185.995 50.22 152.185 47.22 152.185 47.22 200.275 72.57 200.275 72.57 205.825 62.82 205.825 57.9 214.495 83.37 214.495 83.37 227.905 87.57 227.905 89.3099 224.905 86.37 224.905 86.37 169.615 106.92 169.615 106.92 187.015 124.08 187.015 124.08 190.195 127.08 190.195 127.08 184.855 115.2 172.975ZM83.37 211.495 63.0599 211.495 64.5599 208.825 83.37 208.825 83.37 211.495ZM109.92 184.015 109.92 171.955 115.2 177.235 121.98 184.015 109.92 184.015ZM90.2699 194.695 90.2699 197.695 101.7 197.695 101.7 194.695 90.2699 194.695ZM90.2699 201.205 90.2699 204.205 101.7 204.205 101.7 201.205 90.2699 201.205ZM90.2699 207.595 90.2699 210.595 101.7 210.595 101.7 207.595 90.2699 207.595ZM132.78 220.405 132.78 194.695 106.35 194.695 106.35 227.905 131.04 227.905 132.78 224.905 109.35 224.905 109.35 197.695 129.78 197.695 129.78 220.405 132.78 220.405ZM113.22 214.045 113.22 217.045 126.06 217.045 126.06 214.045 113.22 214.045ZM113.22 207.595 113.22 210.595 126.06 210.595 126.06 207.595 113.22 207.595ZM113.22 201.145 113.22 204.145 126.06 204.145 126.06 201.145 113.22 201.145ZM103.11 226.405 102.78 224.905 102.63 224.275 100.98 216.715 90.6599 219.955 91.5599 222.835 96.6 221.245 94.86 224.275 94.65 224.635 94.5 224.905 93.6299 226.405 92.79 227.905 92.76 227.905 92.6999 228.055 92.6699 228.055 90.2399 232.315 92.82 233.815 96.15 228.055 96.2399 227.905 97.11 226.405 97.9799 224.905 98.3399 224.275 99.2399 222.715 99.57 224.275 99.72 224.905 100.38 227.905 103.29 227.245 103.11 226.405Z" fill="url(#fill0)"/></g></svg>