<svg width="252" height="297" xmlns="http://www.w3.org/2000/svg" xmlns:xlink="http://www.w3.org/1999/xlink" xml:space="preserve" overflow="hidden"><defs><clipPath id="clip0"><rect x="300" y="993" width="252" height="297"/></clipPath></defs><g clip-path="url(#clip0)" transform="translate(-300 -993)"><path d="M300 993 300 1244.86 334.568 1244.86 334.568 1290 379.694 1244.86 391.454 1244.86 391.454 1234.09 375.239 1234.09 345.215 1264.09 345.215 1234.09 310.78 1234.09 310.78 1003.77 541.22 1003.77 541.22 1073.62 552 1073.62 552 993 300 993Z" fill-rule="evenodd"/><rect x="347" y="1046" width="158" height="10"/><rect x="347" y="1091" width="45" height="11"/><rect x="347" y="1136" width="45" height="11"/><rect x="347" y="1182" width="45" height="10"/><rect x="454" y="1136" width="57.9997" height="11"/><rect x="454" y="1182" width="57.9997" height="10"/><path d="M416 1244.83 474.216 1244.83 519.357 1290 519.357 1244.83 552 1244.83 552 1091 416 1091 416 1244.83ZM426.629 1101.69 541.237 1101.69 541.237 1234.05 508.638 1234.05 508.638 1264.07 478.663 1234.05 426.629 1234.05 426.629 1101.69Z" fill-rule="evenodd"/></g></svg>