<svg width="96" height="96" xmlns="http://www.w3.org/2000/svg" xmlns:xlink="http://www.w3.org/1999/xlink" xml:space="preserve" overflow="hidden"><defs><linearGradient x1="775.071" y1="398.016" x2="832.528" y2="340.559" gradientUnits="userSpaceOnUse" spreadMethod="pad" id="fill0"><stop offset="0" stop-color="#FF9F00"/><stop offset="0.05089" stop-color="#FE9900"/><stop offset="0.466323" stop-color="#FD7204"/><stop offset="0.797112" stop-color="#FD5907"/><stop offset="1" stop-color="#FD5108"/></linearGradient></defs><g transform="translate(-755 -317)"><path d="M805.55 398.645 805.55 401.645 813.38 401.645 813.38 398.645 805.55 398.645ZM805.55 398.645 805.55 401.645 813.38 401.645 813.38 398.645 805.55 398.645ZM805.55 389.045 805.55 392.045 813.38 392.045 813.38 389.045 805.55 389.045ZM805.55 389.045 805.55 392.045 813.38 392.045 813.38 389.045 805.55 389.045ZM803.33 323.555C790.64 323.555 780.26 333.605 779.93 346.085 778.82 345.755 777.68 345.605 776.54 345.605 769.76 345.605 764.21 351.125 764.21 357.935 764.21 364.745 769.76 370.295 776.54 370.295L797.03 370.295 797.03 367.265 776.57 367.265 776.36 367.295C771.29 367.175 767.21 363.035 767.21 357.935 767.21 352.775 771.41 348.605 776.54 348.605 778.01 348.605 779.48 348.965 780.8 349.625L783.11 350.795 782.99 348.215C782.96 347.705 782.93 347.195 782.93 346.685 782.93 335.585 792.08 326.555 803.33 326.555 808.73 326.555 813.65 328.595 817.31 331.985L818.84 329.345C814.7 325.715 809.24 323.555 803.33 323.555ZM827.33 341.345C826.91 341.345 826.52 341.345 826.13 341.375 825.38 338.195 823.97 335.255 822.05 332.765L820.4 335.645C821.93 337.895 822.98 340.505 823.46 343.325L823.73 344.855 825.23 344.555C825.92 344.405 826.61 344.345 827.33 344.345 833.66 344.345 838.79 349.475 838.79 355.805 838.79 361.775 834.05 366.425 827.24 367.115 826.34 367.205 825.35 367.295 824.39 367.265L809.15 367.265 809.15 370.265 824.36 370.265C825.23 370.295 826.28 370.235 827.54 370.115 835.94 369.245 841.79 363.365 841.79 355.805 841.79 347.825 835.31 341.345 827.33 341.345ZM805.55 389.045 805.55 392.045 813.38 392.045 813.38 389.045 805.55 389.045ZM805.55 389.045 805.55 392.045 813.38 392.045 813.38 389.045 805.55 389.045ZM827.03 379.535 815.36 374.735C815.18 374.675 814.97 374.615 814.79 374.615L809.15 374.615 809.15 377.615 814.49 377.615 822.53 380.915 814.49 384.245 791.72 384.245 783.68 380.915 791.72 377.615 797.03 377.615 797.03 374.615 791.42 374.615C791.21 374.615 791.03 374.675 790.85 374.735L779.15 379.535C778.61 379.775 778.22 380.315 778.22 380.915L778.22 401.165 790.85 406.355 815.06 406.445 827.96 401.165 827.96 380.915C827.96 380.315 827.6 379.775 827.03 379.535ZM824.96 399.155 814.49 403.445 791.72 403.445 781.22 399.155 781.22 392.795 790.85 396.725 815.06 396.845 824.96 392.795 824.96 399.155ZM824.96 389.525 814.49 393.845 791.72 393.845 781.22 389.525 781.22 383.165 790.85 387.125C791.03 387.185 791.21 387.245 791.42 387.245L814.79 387.245C814.97 387.245 815.18 387.185 815.36 387.125L824.96 383.165 824.96 389.525ZM805.55 401.645 813.38 401.645 813.38 398.645 805.55 398.645 805.55 401.645ZM805.55 392.045 813.38 392.045 813.38 389.045 805.55 389.045 805.55 392.045ZM805.55 398.645 805.55 401.645 813.38 401.645 813.38 398.645 805.55 398.645ZM805.55 389.045 805.55 392.045 813.38 392.045 813.38 389.045 805.55 389.045ZM805.55 389.045 805.55 392.045 813.38 392.045 813.38 389.045 805.55 389.045ZM805.55 398.645 805.55 401.645 813.38 401.645 813.38 398.645 805.55 398.645ZM803.12 346.655 792.11 358.625 794.33 360.665 801.59 352.775 801.59 380.915 804.59 380.915 804.59 352.715 811.85 360.665 814.07 358.625 803.12 346.655Z" fill="url(#fill0)"/></g></svg>