<svg width="251" height="252" xmlns="http://www.w3.org/2000/svg" xmlns:xlink="http://www.w3.org/1999/xlink" xml:space="preserve" overflow="hidden"><defs><clipPath id="clip0"><rect x="254" y="1579" width="251" height="252"/></clipPath></defs><g clip-path="url(#clip0)" transform="translate(-254 -1579)"><path d="M254 1579 254 1831 505 1831 505 1579 254 1579ZM494.271 1820.3 264.729 1820.3 264.729 1589.7 494.271 1589.7 494.271 1820.3Z" fill="#FD5108" fill-rule="evenodd"/><path d="M314.675 1771 347.999 1771 347.999 1760.25 314.449 1760.25 314.449 1760.25 312.869 1760.17 311.29 1760.1 309.785 1759.87 308.281 1759.65 306.776 1759.27 305.347 1758.89 303.917 1758.37 302.488 1757.84 301.134 1757.24 299.78 1756.56 298.501 1755.81 297.298 1754.98 296.094 1754.16 294.89 1753.26 293.837 1752.28 292.709 1751.23 291.731 1750.17 290.753 1749.05 289.85 1747.92 288.948 1746.71 288.195 1745.44 287.443 1744.16 286.766 1742.88 286.164 1741.45 285.563 1740.1 285.111 1738.67 284.66 1737.24 284.359 1735.74 284.058 1734.23 283.908 1732.65 283.757 1731.15 283.757 1729.57 283.757 1729.57 283.757 1727.99 283.908 1726.41 284.058 1724.83 284.359 1723.33 284.66 1721.9 285.111 1720.4 285.563 1718.97 286.164 1717.62 286.766 1716.26 287.443 1714.91 288.195 1713.63 288.948 1712.35 289.85 1711.15 290.753 1710.02 291.731 1708.89 292.709 1707.84 293.837 1706.79 294.89 1705.89 296.094 1704.91 297.298 1704.08 298.501 1703.26 299.78 1702.58 301.134 1701.9 302.488 1701.23 303.917 1700.7 305.347 1700.25 306.776 1699.8 308.281 1699.5 309.785 1699.2 311.29 1698.97 312.869 1698.89 314.449 1698.82 314.449 1698.82 315.803 1698.89 317.082 1698.97 321.295 1699.35 322.649 1695.36 322.649 1695.36 323.326 1693.48 324.003 1691.68 324.83 1689.87 325.733 1688.14 326.635 1686.41 327.613 1684.76 328.667 1683.18 329.795 1681.6 330.999 1680.1 332.202 1678.59 333.481 1677.24 334.76 1675.89 336.189 1674.53 337.618 1673.33 339.048 1672.13 340.552 1671 342.132 1669.95 343.712 1668.89 345.367 1667.92 347.022 1667.09 348.752 1666.26 350.482 1665.44 352.287 1664.76 354.093 1664.16 355.898 1663.56 357.779 1663.11 359.659 1662.65 361.54 1662.35 363.496 1662.05 365.452 1661.9 367.408 1661.75 369.363 1661.75 369.363 1661.75 371.169 1661.75 372.899 1661.83 374.704 1661.98 376.435 1662.2 378.165 1662.5 379.857 1662.88 381.512 1663.26 383.242 1663.71 384.897 1664.23 386.477 1664.83 388.132 1665.44 389.712 1666.19 391.292 1666.94 392.796 1667.69 394.301 1668.59 395.805 1669.5 397.234 1670.4 398.664 1671.45 400.018 1672.5 401.372 1673.56 402.651 1674.68 403.929 1675.89 405.133 1677.17 406.261 1678.44 407.39 1679.72 408.518 1681.15 409.571 1682.5 410.549 1684.01 411.452 1685.44 412.355 1687.02 413.182 1688.59 414.01 1690.17 417.62 1697.99 423.037 1691.23 423.037 1691.23 423.638 1690.62 424.24 1689.95 424.842 1689.35 425.519 1688.82 426.196 1688.29 426.873 1687.84 427.625 1687.39 428.378 1687.02 429.13 1686.71 429.957 1686.41 430.71 1686.11 431.537 1685.89 432.44 1685.74 433.267 1685.59 434.095 1685.51 434.997 1685.51 434.997 1685.51 436.577 1685.59 438.082 1685.81 439.511 1686.19 440.94 1686.71 442.294 1687.39 443.573 1688.14 444.777 1689.05 445.83 1690.02 446.808 1691.08 447.71 1692.28 448.463 1693.56 449.14 1694.91 449.666 1696.26 450.042 1697.77 450.268 1699.27 450.343 1700.85 450.343 1700.85 450.268 1702.43 450.042 1703.93 449.591 1705.51 449.065 1706.94 445.98 1714.01 453.653 1714.46 453.653 1714.46 454.782 1714.53 455.91 1714.68 456.963 1714.91 458.092 1715.14 459.145 1715.44 460.123 1715.81 461.176 1716.19 462.154 1716.64 463.132 1717.09 464.034 1717.62 464.937 1718.22 465.84 1718.82 466.667 1719.42 467.495 1720.1 468.247 1720.85 468.999 1721.6 469.676 1722.35 470.353 1723.18 471.03 1724.08 471.632 1724.91 472.159 1725.81 472.685 1726.79 473.137 1727.77 473.588 1728.74 473.964 1729.72 474.265 1730.77 474.566 1731.83 474.792 1732.88 475.017 1733.93 475.168 1735.06 475.243 1736.19 475.243 1737.32 475.243 1737.32 475.243 1738.52 475.168 1739.65 475.017 1740.77 474.792 1741.9 474.491 1743.03 474.19 1744.16 473.889 1745.21 473.437 1746.26 472.986 1747.24 472.46 1748.22 471.933 1749.2 471.331 1750.1 470.654 1751 469.977 1751.9 469.3 1752.73 468.548 1753.56 467.72 1754.31 466.893 1754.98 465.99 1755.66 465.087 1756.34 464.185 1756.94 463.207 1757.47 462.229 1757.99 461.251 1758.44 460.198 1758.82 459.145 1759.2 458.016 1759.5 456.888 1759.8 455.76 1759.95 454.631 1760.1 453.503 1760.25 452.299 1760.25 415.138 1760.25 415.138 1771 452.299 1771 452.299 1771 454.029 1770.92 455.76 1770.77 457.414 1770.62 459.069 1770.32 460.724 1769.95 462.304 1769.5 463.884 1768.89 465.388 1768.29 466.893 1767.62 468.322 1766.94 469.751 1766.11 471.105 1765.21 472.46 1764.31 473.738 1763.26 474.942 1762.2 476.07 1761.08 477.199 1759.95 478.252 1758.74 479.305 1757.47 480.208 1756.11 481.11 1754.76 481.938 1753.33 482.69 1751.9 483.367 1750.4 483.969 1748.89 484.496 1747.32 484.947 1745.74 485.323 1744.08 485.624 1742.43 485.774 1740.77 485.925 1739.05 486 1737.32 486 1737.32 485.925 1735.89 485.85 1734.38 485.699 1733.03 485.473 1731.6 485.248 1730.25 484.872 1728.82 484.496 1727.54 484.119 1726.19 483.593 1724.91 483.066 1723.63 482.464 1722.35 481.863 1721.15 481.186 1719.95 480.433 1718.82 479.681 1717.69 478.854 1716.64 477.951 1715.59 477.048 1714.53 476.146 1713.56 475.168 1712.58 474.115 1711.68 473.061 1710.85 472.008 1710.02 470.88 1709.27 469.676 1708.52 468.473 1707.84 467.269 1707.17 466.065 1706.56 464.787 1706.04 463.433 1705.59 462.154 1705.14 460.8 1704.76 460.8 1704.76 460.95 1702.8 461.025 1700.85 461.025 1700.85 461.025 1699.5 460.95 1698.22 460.724 1696.86 460.499 1695.59 460.198 1694.38 459.897 1693.11 459.446 1691.9 458.994 1690.7 458.468 1689.57 457.941 1688.44 457.264 1687.32 456.587 1686.26 455.835 1685.29 455.083 1684.31 454.255 1683.33 453.428 1682.43 452.525 1681.6 451.547 1680.77 450.569 1679.95 449.591 1679.27 448.463 1678.59 447.41 1677.92 446.281 1677.39 445.153 1676.86 443.949 1676.41 442.746 1675.96 441.467 1675.59 440.263 1675.36 438.984 1675.06 437.63 1674.91 436.351 1674.83 434.997 1674.76 434.997 1674.76 433.042 1674.83 431.086 1675.06 429.13 1675.44 427.249 1675.96 425.444 1676.64 423.638 1677.39 421.908 1678.29 420.328 1679.35 420.328 1679.35 419.275 1677.69 418.147 1676.11 417.019 1674.61 415.815 1673.11 414.611 1671.68 413.333 1670.25 412.054 1668.89 410.7 1667.54 409.27 1666.26 407.841 1665.06 406.412 1663.86 404.907 1662.73 403.328 1661.6 401.748 1660.55 400.168 1659.57 398.513 1658.59 396.858 1657.77 395.203 1656.86 393.473 1656.11 391.743 1655.36 389.938 1654.68 388.207 1654.08 386.402 1653.48 384.521 1652.95 382.716 1652.5 380.835 1652.13 378.992 1651.75 377.112 1651.53 375.156 1651.3 373.275 1651.15 371.319 1651 369.363 1651 369.363 1651 367.107 1651 364.775 1651.15 362.593 1651.38 360.336 1651.68 358.155 1652.05 355.973 1652.5 353.792 1653.03 351.685 1653.63 349.579 1654.31 347.473 1655.06 345.442 1655.96 343.486 1656.86 341.53 1657.84 339.574 1658.89 337.769 1659.95 335.888 1661.15 334.083 1662.43 332.353 1663.71 330.698 1665.14 329.043 1666.56 327.463 1668.07 325.883 1669.57 324.454 1671.23 323.025 1672.88 321.595 1674.61 320.317 1676.41 319.113 1678.22 317.909 1680.1 316.781 1682.05 315.728 1684.01 314.75 1686.04 313.847 1688.14 313.847 1688.14 311.741 1688.22 309.71 1688.37 307.679 1688.67 305.648 1689.05 303.617 1689.5 301.736 1690.1 299.78 1690.77 297.975 1691.53 296.169 1692.35 294.364 1693.26 292.634 1694.31 290.979 1695.36 289.399 1696.56 287.895 1697.77 286.39 1699.05 284.961 1700.47 283.607 1701.9 282.328 1703.41 281.124 1704.91 279.996 1706.56 278.943 1708.22 277.89 1709.95 276.987 1711.75 276.235 1713.56 275.482 1715.44 274.805 1717.32 274.279 1719.27 273.827 1721.3 273.451 1723.26 273.226 1725.36 273.075 1727.47 273 1729.57 273 1729.57 273.075 1731.68 273.226 1733.78 273.451 1735.81 273.827 1737.92 274.279 1739.87 274.881 1741.83 275.482 1743.78 276.235 1745.66 277.062 1747.47 278.04 1749.27 279.018 1751 280.071 1752.73 281.275 1754.31 282.478 1755.89 283.832 1757.39 285.186 1758.82 286.616 1760.17 288.12 1761.53 289.7 1762.73 291.355 1763.86 293.01 1764.98 294.815 1765.96 296.621 1766.86 298.426 1767.69 300.307 1768.44 302.263 1769.12 304.294 1769.65 306.249 1770.1 308.356 1770.47 310.462 1770.77 312.568 1770.92 314.675 1771 314.675 1771Z" fill="#FD5108" fill-rule="evenodd"/><path d="M348 1744.43 355.561 1751.97 374.203 1733.38 374.203 1794 384.797 1794 384.797 1733.38 403.439 1751.97 411 1744.43 379.519 1713 348 1744.43Z" fill="#FD5108" fill-rule="evenodd"/></g></svg>