<svg width="600" height="480" viewBox="0 0 600 480" fill="none" xmlns="http://www.w3.org/2000/svg">
<rect width="600" height="480" rx="24" fill="white"/>
<rect x="24" y="36" width="32" height="32" rx="16" fill="#FD5108"/>
<path d="M44.6667 58V56.6667C44.6667 55.9594 44.3858 55.2811 43.8857 54.781C43.3856 54.281 42.7073 54 42 54H38C37.2928 54 36.6145 54.281 36.1144 54.781C35.6143 55.2811 35.3334 55.9594 35.3334 56.6667V58M42.6667 48.6667C42.6667 50.1394 41.4728 51.3333 40 51.3333C38.5273 51.3333 37.3334 50.1394 37.3334 48.6667C37.3334 47.1939 38.5273 46 40 46C41.4728 46 42.6667 47.1939 42.6667 48.6667Z" stroke="white" stroke-width="1.5" stroke-linecap="round" stroke-linejoin="round"/>
<g clip-path="url(#clip0_259_690)">
<rect x="72" y="36" width="504" height="80" rx="12" fill="#EEEFF1"/>
<path d="M94.672 64H95.984V66.528H94.672V64ZM88.8 63.536H101.872V64.624H88.8V63.536ZM95.328 66.128C96.8747 66.128 98.0853 66.3467 98.96 66.784C99.8347 67.2213 100.272 67.8507 100.272 68.672C100.272 69.4827 99.8347 70.1067 98.96 70.544C98.0853 70.992 96.8747 71.216 95.328 71.216C93.7813 71.216 92.5653 70.992 91.68 70.544C90.8053 70.1067 90.368 69.4827 90.368 68.672C90.368 67.8507 90.8053 67.2213 91.68 66.784C92.5653 66.3467 93.7813 66.128 95.328 66.128ZM95.328 67.168C94.5707 67.168 93.92 67.2267 93.376 67.344C92.8427 67.4613 92.432 67.632 92.144 67.856C91.856 68.08 91.712 68.352 91.712 68.672C91.712 68.992 91.856 69.264 92.144 69.488C92.432 69.712 92.8427 69.8827 93.376 70C93.92 70.128 94.5707 70.192 95.328 70.192C96.0853 70.192 96.7307 70.128 97.264 70C97.808 69.8827 98.224 69.712 98.512 69.488C98.8 69.264 98.944 68.992 98.944 68.672C98.944 68.352 98.8 68.08 98.512 67.856C98.224 67.632 97.808 67.4613 97.264 67.344C96.7307 67.2267 96.0853 67.168 95.328 67.168ZM94.48 57.968H95.648V58.4C95.648 58.8693 95.5467 59.3013 95.344 59.696C95.152 60.0907 94.88 60.4587 94.528 60.8C94.176 61.1307 93.76 61.424 93.28 61.68C92.8107 61.936 92.2987 62.1493 91.744 62.32C91.1893 62.48 90.608 62.5973 90 62.672L89.52 61.616C90.0427 61.5627 90.544 61.472 91.024 61.344C91.5147 61.2053 91.968 61.04 92.384 60.848C92.8107 60.6453 93.1787 60.416 93.488 60.16C93.7973 59.904 94.0373 59.6267 94.208 59.328C94.3893 59.0293 94.48 58.72 94.48 58.4V57.968ZM95.024 57.968H96.192V58.4C96.192 58.7307 96.2773 59.0453 96.448 59.344C96.6293 59.632 96.8747 59.904 97.184 60.16C97.4933 60.4053 97.856 60.6293 98.272 60.832C98.6987 61.024 99.152 61.1893 99.632 61.328C100.123 61.4667 100.629 61.5627 101.152 61.616L100.672 62.672C100.064 62.5973 99.4827 62.48 98.928 62.32C98.3733 62.1493 97.856 61.936 97.376 61.68C96.9067 61.424 96.496 61.1307 96.144 60.8C95.792 60.4693 95.5147 60.1013 95.312 59.696C95.12 59.2907 95.024 58.8587 95.024 58.4V57.968ZM90 57.44H100.688V58.512H90V57.44ZM103.519 68.256H116.639V69.376H103.519V68.256ZM109.359 64.752H110.671V68.624H109.359V64.752ZM109.311 57.728H110.479V58.848C110.479 59.4773 110.367 60.0693 110.143 60.624C109.929 61.168 109.631 61.68 109.247 62.16C108.863 62.6293 108.42 63.0507 107.919 63.424C107.428 63.7973 106.9 64.112 106.335 64.368C105.769 64.624 105.193 64.8107 104.607 64.928L104.031 63.824C104.543 63.7387 105.049 63.5893 105.551 63.376C106.063 63.152 106.543 62.8853 106.991 62.576C107.439 62.256 107.839 61.904 108.191 61.52C108.543 61.1253 108.815 60.704 109.007 60.256C109.209 59.7973 109.311 59.328 109.311 58.848V57.728ZM109.551 57.728H110.703V58.848C110.703 59.3387 110.804 59.808 111.007 60.256C111.209 60.704 111.487 61.1253 111.839 61.52C112.191 61.904 112.591 62.256 113.039 62.576C113.497 62.896 113.977 63.1627 114.479 63.376C114.991 63.5893 115.503 63.7387 116.015 63.824L115.439 64.928C114.852 64.8107 114.276 64.624 113.711 64.368C113.145 64.112 112.612 63.7973 112.111 63.424C111.609 63.0507 111.167 62.6293 110.783 62.16C110.399 61.68 110.095 61.1627 109.871 60.608C109.657 60.0533 109.551 59.4667 109.551 58.848V57.728ZM128.782 56.768H130.11V71.248H128.782V56.768ZM124.542 58.336H125.854C125.854 59.3813 125.726 60.3893 125.47 61.36C125.224 62.3307 124.835 63.2533 124.302 64.128C123.768 64.992 123.075 65.7973 122.222 66.544C121.368 67.2907 120.334 67.9573 119.118 68.544L118.414 67.472C119.811 66.8 120.963 66.016 121.87 65.12C122.776 64.224 123.448 63.2267 123.886 62.128C124.323 61.0187 124.542 59.824 124.542 58.544V58.336ZM119.086 58.336H125.102V59.408H119.086V58.336ZM140.22 60.224H144.108V61.312H140.22V60.224ZM136.908 57.44C137.623 57.44 138.258 57.584 138.812 57.872C139.378 58.1493 139.82 58.5387 140.14 59.04C140.46 59.5413 140.62 60.1227 140.62 60.784C140.62 61.4453 140.46 62.032 140.14 62.544C139.82 63.0453 139.378 63.44 138.812 63.728C138.258 64.0053 137.623 64.144 136.908 64.144C136.183 64.144 135.538 64.0053 134.972 63.728C134.418 63.44 133.98 63.0453 133.66 62.544C133.34 62.032 133.18 61.4453 133.18 60.784C133.18 60.1227 133.34 59.5413 133.66 59.04C133.98 58.5387 134.418 58.1493 134.972 57.872C135.538 57.584 136.183 57.44 136.908 57.44ZM136.908 58.56C136.428 58.56 136.002 58.656 135.628 58.848C135.266 59.0293 134.978 59.2907 134.764 59.632C134.551 59.9627 134.444 60.3467 134.444 60.784C134.444 61.2213 134.551 61.6107 134.764 61.952C134.978 62.2827 135.266 62.544 135.628 62.736C136.002 62.928 136.428 63.024 136.908 63.024C137.378 63.024 137.794 62.928 138.156 62.736C138.53 62.544 138.823 62.2827 139.036 61.952C139.25 61.6107 139.356 61.2213 139.356 60.784C139.356 60.3467 139.25 59.9627 139.036 59.632C138.823 59.2907 138.53 59.0293 138.156 58.848C137.794 58.656 137.378 58.56 136.908 58.56ZM143.532 56.768H144.86V64.544H143.532V56.768ZM135.596 65.264H136.908V67.072H143.532V65.264H144.86V71.056H135.596V65.264ZM136.908 68.128V69.968H143.532V68.128H136.908ZM158.203 56.784H159.531V67.344H158.203V56.784ZM150.235 69.84H159.979V70.928H150.235V69.84ZM150.235 66.272H151.563V70.208H150.235V66.272ZM151.771 57.792C152.496 57.792 153.142 57.9413 153.707 58.24C154.272 58.5387 154.72 58.96 155.051 59.504C155.382 60.0373 155.547 60.6507 155.547 61.344C155.547 62.0373 155.382 62.656 155.051 63.2C154.72 63.7333 154.272 64.1547 153.707 64.464C153.142 64.7627 152.496 64.912 151.771 64.912C151.056 64.912 150.411 64.7627 149.835 64.464C149.27 64.1547 148.822 63.7333 148.491 63.2C148.16 62.656 147.995 62.0373 147.995 61.344C147.995 60.6507 148.16 60.0373 148.491 59.504C148.822 58.96 149.27 58.5387 149.835 58.24C150.411 57.9413 151.056 57.792 151.771 57.792ZM151.771 58.944C151.302 58.944 150.88 59.0453 150.507 59.248C150.134 59.4507 149.835 59.7333 149.611 60.096C149.398 60.4587 149.291 60.8747 149.291 61.344C149.291 61.824 149.398 62.2453 149.611 62.608C149.835 62.96 150.134 63.2373 150.507 63.44C150.88 63.6427 151.302 63.744 151.771 63.744C152.24 63.744 152.662 63.6427 153.035 63.44C153.419 63.2373 153.718 62.96 153.931 62.608C154.144 62.2453 154.251 61.824 154.251 61.344C154.251 60.8747 154.144 60.4587 153.931 60.096C153.718 59.7333 153.419 59.4507 153.035 59.248C152.662 59.0453 152.24 58.944 151.771 58.944ZM169.492 57.52H170.58V58.992C170.58 59.92 170.415 60.784 170.084 61.584C169.764 62.384 169.305 63.0827 168.708 63.68C168.111 64.2667 167.412 64.7147 166.612 65.024L165.892 63.968C166.628 63.7013 167.263 63.3173 167.796 62.816C168.34 62.3147 168.756 61.7387 169.044 61.088C169.343 60.4267 169.492 59.728 169.492 58.992V57.52ZM169.732 57.52H170.804V59.104C170.804 59.584 170.889 60.0587 171.06 60.528C171.231 60.9867 171.471 61.4133 171.78 61.808C172.1 62.2027 172.473 62.5547 172.9 62.864C173.327 63.1627 173.801 63.4027 174.324 63.584L173.62 64.624C172.852 64.336 172.175 63.92 171.588 63.376C171.001 62.8213 170.543 62.1813 170.212 61.456C169.892 60.72 169.732 59.936 169.732 59.104V57.52ZM175.876 56.768H177.204V65.552H175.876V56.768ZM176.836 60.512H179.332V61.632H176.836V60.512ZM172.596 65.936C173.577 65.936 174.42 66.0427 175.124 66.256C175.839 66.4587 176.388 66.7573 176.772 67.152C177.156 67.5467 177.348 68.0213 177.348 68.576C177.348 69.1307 177.156 69.6053 176.772 70C176.388 70.3947 175.839 70.6933 175.124 70.896C174.42 71.1093 173.577 71.216 172.596 71.216C171.615 71.216 170.767 71.1093 170.052 70.896C169.337 70.6933 168.788 70.3947 168.404 70C168.02 69.6053 167.828 69.1307 167.828 68.576C167.828 68.0213 168.02 67.5467 168.404 67.152C168.788 66.7573 169.337 66.4587 170.052 66.256C170.767 66.0427 171.615 65.936 172.596 65.936ZM172.596 66.992C171.881 66.992 171.263 67.056 170.74 67.184C170.228 67.312 169.833 67.4933 169.556 67.728C169.279 67.9627 169.14 68.2453 169.14 68.576C169.14 68.9173 169.279 69.2053 169.556 69.44C169.833 69.6747 170.228 69.856 170.74 69.984C171.263 70.1013 171.881 70.16 172.596 70.16C173.311 70.16 173.924 70.1013 174.436 69.984C174.948 69.856 175.343 69.6747 175.62 69.44C175.897 69.2053 176.036 68.9173 176.036 68.576C176.036 68.2453 175.897 67.9627 175.62 67.728C175.343 67.4933 174.948 67.312 174.436 67.184C173.924 67.056 173.311 66.992 172.596 66.992ZM184.259 58.32H185.347V59.488C185.347 60.384 185.176 61.2107 184.835 61.968C184.504 62.7253 184.035 63.3867 183.427 63.952C182.829 64.5173 182.12 64.9493 181.299 65.248L180.627 64.192C181.352 63.936 181.987 63.5733 182.531 63.104C183.075 62.624 183.496 62.0747 183.795 61.456C184.104 60.8373 184.259 60.1813 184.259 59.488V58.32ZM184.499 58.32H185.587V59.488C185.587 60.1173 185.731 60.7147 186.019 61.28C186.307 61.8453 186.712 62.3413 187.235 62.768C187.757 63.1947 188.371 63.5307 189.075 63.776L188.451 64.816C187.64 64.5387 186.941 64.1387 186.355 63.616C185.768 63.0933 185.309 62.48 184.979 61.776C184.659 61.0613 184.499 60.2987 184.499 59.488V58.32ZM181.027 57.84H188.771V58.928H181.027V57.84ZM190.595 56.768H191.923V65.488H190.595V56.768ZM191.555 60.448H194.051V61.552H191.555V60.448ZM187.315 65.888C188.296 65.888 189.139 65.9947 189.843 66.208C190.557 66.4107 191.107 66.7093 191.491 67.104C191.875 67.4987 192.067 67.9787 192.067 68.544C192.067 69.1093 191.875 69.5893 191.491 69.984C191.107 70.3787 190.557 70.6827 189.843 70.896C189.139 71.1093 188.296 71.216 187.315 71.216C186.333 71.216 185.485 71.1093 184.771 70.896C184.056 70.6827 183.507 70.3787 183.123 69.984C182.739 69.5893 182.547 69.1093 182.547 68.544C182.547 67.9787 182.739 67.4987 183.123 67.104C183.507 66.7093 184.056 66.4107 184.771 66.208C185.485 65.9947 186.333 65.888 187.315 65.888ZM187.315 66.944C186.6 66.944 185.981 67.008 185.459 67.136C184.947 67.264 184.552 67.4453 184.275 67.68C183.997 67.9147 183.859 68.2027 183.859 68.544C183.859 68.8853 183.997 69.1787 184.275 69.424C184.552 69.6587 184.947 69.84 185.459 69.968C185.981 70.096 186.6 70.16 187.315 70.16C188.029 70.16 188.643 70.096 189.155 69.968C189.667 69.84 190.061 69.6587 190.339 69.424C190.616 69.1787 190.755 68.8853 190.755 68.544C190.755 68.2027 190.616 67.9147 190.339 67.68C190.061 67.4453 189.667 67.264 189.155 67.136C188.643 67.008 188.029 66.944 187.315 66.944ZM199.537 65.456H200.865V67.84H199.537V65.456ZM205.873 56.768H207.201V71.248H205.873V56.768ZM195.681 68.496L195.489 67.376C196.407 67.3653 197.399 67.3547 198.465 67.344C199.532 67.3333 200.62 67.296 201.729 67.232C202.839 67.168 203.911 67.0667 204.945 66.928L205.041 67.92C203.975 68.0907 202.892 68.2187 201.793 68.304C200.695 68.3787 199.623 68.432 198.577 68.464C197.532 68.4853 196.567 68.496 195.681 68.496ZM195.793 58.544H204.577V59.616H195.793V58.544ZM200.177 60.432C200.871 60.432 201.479 60.544 202.001 60.768C202.524 60.992 202.929 61.3067 203.217 61.712C203.516 62.1067 203.665 62.576 203.665 63.12C203.665 63.6533 203.516 64.1227 203.217 64.528C202.929 64.9333 202.524 65.248 202.001 65.472C201.479 65.6853 200.871 65.792 200.177 65.792C199.495 65.792 198.892 65.6853 198.369 65.472C197.847 65.248 197.441 64.9333 197.153 64.528C196.865 64.1227 196.721 63.6533 196.721 63.12C196.721 62.576 196.865 62.1067 197.153 61.712C197.441 61.3067 197.847 60.992 198.369 60.768C198.892 60.544 199.495 60.432 200.177 60.432ZM200.177 61.472C199.537 61.472 199.009 61.6213 198.593 61.92C198.177 62.2187 197.969 62.6187 197.969 63.12C197.969 63.6107 198.177 64.0053 198.593 64.304C199.009 64.6027 199.537 64.752 200.177 64.752C200.839 64.752 201.372 64.6027 201.777 64.304C202.193 64.0053 202.401 63.6107 202.401 63.12C202.401 62.6187 202.193 62.2187 201.777 61.92C201.372 61.6213 200.839 61.472 200.177 61.472ZM199.537 56.784H200.865V59.12H199.537V56.784ZM213.664 58.016H214.752V60.608C214.752 61.408 214.651 62.192 214.448 62.96C214.256 63.728 213.979 64.448 213.616 65.12C213.253 65.792 212.827 66.3893 212.336 66.912C211.845 67.4347 211.312 67.8507 210.736 68.16L209.92 67.088C210.453 66.8213 210.944 66.464 211.392 66.016C211.851 65.5573 212.251 65.0347 212.592 64.448C212.933 63.8613 213.195 63.2427 213.376 62.592C213.568 61.9307 213.664 61.2693 213.664 60.608V58.016ZM213.904 58.016H214.976V60.608C214.976 61.248 215.067 61.8827 215.248 62.512C215.44 63.1413 215.707 63.7333 216.048 64.288C216.389 64.8427 216.779 65.3387 217.216 65.776C217.664 66.2133 218.144 66.56 218.656 66.816L217.84 67.872C217.275 67.584 216.752 67.1893 216.272 66.688C215.803 66.1867 215.387 65.616 215.024 64.976C214.672 64.3253 214.395 63.632 214.192 62.896C214 62.1493 213.904 61.3867 213.904 60.608V58.016ZM219.92 56.768H221.248V71.248H219.92V56.768ZM220.944 62.624H223.616V63.76H220.944V62.624ZM229.535 57.824C230.292 57.824 230.959 57.968 231.535 58.256C232.122 58.5333 232.58 58.928 232.911 59.44C233.242 59.952 233.407 60.5493 233.407 61.232C233.407 61.904 233.242 62.5013 232.911 63.024C232.58 63.536 232.122 63.936 231.535 64.224C230.959 64.5013 230.292 64.64 229.535 64.64C228.788 64.64 228.122 64.5013 227.535 64.224C226.948 63.936 226.484 63.536 226.143 63.024C225.812 62.5013 225.647 61.904 225.647 61.232C225.647 60.5493 225.812 59.952 226.143 59.44C226.484 58.928 226.948 58.5333 227.535 58.256C228.122 57.968 228.788 57.824 229.535 57.824ZM229.535 58.976C229.044 58.976 228.602 59.072 228.207 59.264C227.823 59.4453 227.519 59.7067 227.295 60.048C227.071 60.3893 226.959 60.784 226.959 61.232C226.959 61.68 227.071 62.0747 227.295 62.416C227.519 62.7573 227.823 63.024 228.207 63.216C228.602 63.3973 229.044 63.488 229.535 63.488C230.036 63.488 230.479 63.3973 230.863 63.216C231.247 63.024 231.551 62.7573 231.775 62.416C231.999 62.0747 232.111 61.68 232.111 61.232C232.111 60.784 231.999 60.3893 231.775 60.048C231.551 59.7067 231.247 59.4453 230.863 59.264C230.479 59.072 230.036 58.976 229.535 58.976ZM235.311 56.768H236.639V71.264H235.311V56.768ZM225.103 68.096L224.927 66.976C225.812 66.976 226.783 66.9707 227.839 66.96C228.895 66.9387 229.983 66.896 231.103 66.832C232.234 66.7573 233.322 66.64 234.367 66.48L234.479 67.456C233.391 67.6587 232.287 67.808 231.167 67.904C230.058 67.9893 228.986 68.0427 227.951 68.064C226.916 68.0853 225.967 68.096 225.103 68.096ZM248.936 58.208H250.088V58.816C250.088 59.328 249.986 59.8133 249.784 60.272C249.581 60.7307 249.298 61.1573 248.936 61.552C248.573 61.936 248.152 62.2773 247.672 62.576C247.192 62.8747 246.674 63.1307 246.12 63.344C245.576 63.5467 245.01 63.696 244.424 63.792L243.912 62.736C244.424 62.672 244.92 62.5547 245.4 62.384C245.89 62.2027 246.349 61.9893 246.776 61.744C247.202 61.4987 247.576 61.2213 247.896 60.912C248.226 60.6027 248.482 60.272 248.664 59.92C248.845 59.5573 248.936 59.1893 248.936 58.816V58.208ZM249.272 58.208H250.424V58.816C250.424 59.1893 250.514 59.5573 250.696 59.92C250.877 60.272 251.128 60.6027 251.448 60.912C251.778 61.2213 252.157 61.4987 252.584 61.744C253.01 61.9893 253.464 62.2027 253.944 62.384C254.434 62.5547 254.936 62.672 255.448 62.736L254.952 63.792C254.365 63.696 253.794 63.5467 253.24 63.344C252.685 63.1307 252.168 62.8747 251.688 62.576C251.208 62.2773 250.786 61.936 250.424 61.552C250.061 61.1573 249.778 60.7307 249.576 60.272C249.373 59.8133 249.272 59.328 249.272 58.816V58.208ZM249 65.728H250.312V71.232H249V65.728ZM243.144 65.008H256.216V66.096H243.144V65.008ZM244.376 57.664H254.968V58.736H244.376V57.664ZM261.623 57.456H262.727V58.864C262.727 59.7813 262.556 60.64 262.215 61.44C261.884 62.24 261.409 62.9387 260.791 63.536C260.183 64.1227 259.473 64.5707 258.663 64.88L257.991 63.824C258.535 63.6213 259.025 63.3547 259.463 63.024C259.911 62.6827 260.295 62.2933 260.615 61.856C260.945 61.4187 261.196 60.944 261.367 60.432C261.537 59.92 261.623 59.3973 261.623 58.864V57.456ZM261.863 57.456H262.967V58.864C262.967 59.3867 263.052 59.888 263.223 60.368C263.404 60.848 263.655 61.296 263.975 61.712C264.295 62.128 264.673 62.496 265.111 62.816C265.559 63.136 266.049 63.3867 266.583 63.568L265.927 64.624C265.127 64.3253 264.417 63.8987 263.799 63.344C263.191 62.7787 262.716 62.112 262.375 61.344C262.033 60.576 261.863 59.7493 261.863 58.864V57.456ZM260.055 66.208H269.719V71.248H268.391V67.296H260.055V66.208ZM268.391 56.768H269.719V65.472H268.391V56.768ZM279.109 57.024C280.709 57.024 281.957 57.2427 282.853 57.68C283.749 58.1067 284.197 58.72 284.197 59.52C284.197 60.3307 283.749 60.9547 282.853 61.392C281.957 61.8187 280.709 62.032 279.109 62.032C277.52 62.032 276.272 61.8187 275.365 61.392C274.469 60.9547 274.021 60.3307 274.021 59.52C274.021 58.72 274.469 58.1067 275.365 57.68C276.272 57.2427 277.52 57.024 279.109 57.024ZM279.109 58.016C278.331 58.016 277.664 58.0747 277.109 58.192C276.555 58.3093 276.128 58.48 275.829 58.704C275.541 58.928 275.397 59.2 275.397 59.52C275.397 59.84 275.541 60.1173 275.829 60.352C276.128 60.576 276.555 60.7467 277.109 60.864C277.664 60.9707 278.331 61.024 279.109 61.024C279.899 61.024 280.571 60.9707 281.125 60.864C281.68 60.7467 282.101 60.576 282.389 60.352C282.688 60.1173 282.837 59.84 282.837 59.52C282.837 59.2 282.688 58.928 282.389 58.704C282.101 58.48 281.68 58.3093 281.125 58.192C280.571 58.0747 279.899 58.016 279.109 58.016ZM272.581 63.008H285.653V64.08H272.581V63.008ZM274.165 65.312H283.973V68.576H275.493V70.32H274.197V67.6H282.677V66.336H274.165V65.312ZM274.197 70.048H284.405V71.088H274.197V70.048ZM301.886 56.768H303.15V71.248H301.886V56.768ZM299.438 62.576H302.222V63.664H299.438V62.576ZM298.606 57.088H299.838V70.496H298.606V57.088ZM291.39 66.56H292.334C293.049 66.56 293.694 66.5547 294.27 66.544C294.857 66.5227 295.411 66.48 295.934 66.416C296.467 66.352 297.011 66.2613 297.566 66.144L297.694 67.248C297.118 67.3653 296.558 67.456 296.014 67.52C295.481 67.584 294.915 67.6267 294.318 67.648C293.731 67.6693 293.07 67.68 292.334 67.68H291.39V66.56ZM291.39 58.528H296.766V59.616H292.718V67.072H291.39V58.528ZM311.389 58.208H312.541V58.816C312.541 59.328 312.44 59.8133 312.237 60.272C312.034 60.7307 311.752 61.1573 311.389 61.552C311.026 61.936 310.605 62.2773 310.125 62.576C309.645 62.8747 309.128 63.1307 308.573 63.344C308.029 63.5467 307.464 63.696 306.877 63.792L306.365 62.736C306.877 62.672 307.373 62.5547 307.853 62.384C308.344 62.2027 308.802 61.9893 309.229 61.744C309.656 61.4987 310.029 61.2213 310.349 60.912C310.68 60.6027 310.936 60.272 311.117 59.92C311.298 59.5573 311.389 59.1893 311.389 58.816V58.208ZM311.725 58.208H312.877V58.816C312.877 59.1893 312.968 59.5573 313.149 59.92C313.33 60.272 313.581 60.6027 313.901 60.912C314.232 61.2213 314.61 61.4987 315.037 61.744C315.464 61.9893 315.917 62.2027 316.397 62.384C316.888 62.5547 317.389 62.672 317.901 62.736L317.405 63.792C316.818 63.696 316.248 63.5467 315.693 63.344C315.138 63.1307 314.621 62.8747 314.141 62.576C313.661 62.2773 313.24 61.936 312.877 61.552C312.514 61.1573 312.232 60.7307 312.029 60.272C311.826 59.8133 311.725 59.328 311.725 58.816V58.208ZM311.453 65.728H312.765V71.232H311.453V65.728ZM305.597 65.008H318.669V66.096H305.597V65.008ZM306.829 57.664H317.421V58.736H306.829V57.664ZM326.108 58.208H327.26V58.816C327.26 59.328 327.158 59.8133 326.956 60.272C326.753 60.7307 326.47 61.1573 326.108 61.552C325.745 61.936 325.324 62.2773 324.844 62.576C324.364 62.8747 323.846 63.1307 323.292 63.344C322.748 63.5467 322.182 63.696 321.596 63.792L321.084 62.736C321.596 62.672 322.092 62.5547 322.572 62.384C323.062 62.2027 323.521 61.9893 323.948 61.744C324.374 61.4987 324.748 61.2213 325.068 60.912C325.398 60.6027 325.654 60.272 325.836 59.92C326.017 59.5573 326.108 59.1893 326.108 58.816V58.208ZM326.444 58.208H327.596V58.816C327.596 59.1893 327.686 59.5573 327.868 59.92C328.049 60.272 328.3 60.6027 328.62 60.912C328.95 61.2213 329.329 61.4987 329.756 61.744C330.182 61.9893 330.636 62.2027 331.116 62.384C331.606 62.5547 332.108 62.672 332.62 62.736L332.124 63.792C331.537 63.696 330.966 63.5467 330.412 63.344C329.857 63.1307 329.34 62.8747 328.86 62.576C328.38 62.2773 327.958 61.936 327.596 61.552C327.233 61.1573 326.95 60.7307 326.748 60.272C326.545 59.8133 326.444 59.328 326.444 58.816V58.208ZM326.172 65.728H327.484V71.232H326.172V65.728ZM320.316 65.008H333.388V66.096H320.316V65.008ZM321.548 57.664H332.14V58.736H321.548V57.664ZM344.826 56.768H346.154V71.232H344.826V56.768ZM345.802 62.64H348.458V63.744H345.802V62.64ZM341.13 58.32H342.426C342.426 59.696 342.202 61.0133 341.754 62.272C341.306 63.52 340.602 64.6773 339.642 65.744C338.682 66.8 337.418 67.7173 335.85 68.496L335.114 67.472C336.458 66.8 337.573 66.016 338.458 65.12C339.354 64.2133 340.021 63.2107 340.458 62.112C340.906 61.0027 341.13 59.808 341.13 58.528V58.32ZM335.786 58.32H341.802V59.424H335.786V58.32ZM364.163 58.928H366.659V60.032H364.163V58.928ZM364.163 62.016H366.659V63.12H364.163V62.016ZM357.363 57.632C358.099 57.632 358.75 57.776 359.315 58.064C359.881 58.352 360.323 58.752 360.643 59.264C360.974 59.776 361.139 60.368 361.139 61.04C361.139 61.7227 360.974 62.32 360.643 62.832C360.323 63.3333 359.881 63.728 359.315 64.016C358.75 64.304 358.099 64.448 357.363 64.448C356.649 64.448 356.003 64.304 355.427 64.016C354.862 63.728 354.414 63.3333 354.083 62.832C353.753 62.32 353.587 61.7227 353.587 61.04C353.587 60.368 353.753 59.776 354.083 59.264C354.414 58.752 354.862 58.352 355.427 58.064C356.003 57.776 356.649 57.632 357.363 57.632ZM357.363 58.752C356.894 58.752 356.473 58.8533 356.099 59.056C355.726 59.248 355.427 59.5147 355.203 59.856C354.99 60.1973 354.883 60.592 354.883 61.04C354.883 61.4987 354.99 61.8987 355.203 62.24C355.427 62.5813 355.726 62.848 356.099 63.04C356.473 63.232 356.894 63.328 357.363 63.328C357.843 63.328 358.27 63.232 358.643 63.04C359.017 62.848 359.31 62.5813 359.523 62.24C359.747 61.8987 359.859 61.4987 359.859 61.04C359.859 60.592 359.747 60.1973 359.523 59.856C359.31 59.5147 359.017 59.248 358.643 59.056C358.27 58.8533 357.843 58.752 357.363 58.752ZM363.235 56.768H364.563V65.344H363.235V56.768ZM359.955 65.792C360.926 65.792 361.769 65.904 362.483 66.128C363.198 66.3413 363.747 66.6507 364.131 67.056C364.515 67.4507 364.707 67.936 364.707 68.512C364.707 69.0773 364.515 69.5627 364.131 69.968C363.747 70.3627 363.198 70.6667 362.483 70.88C361.769 71.104 360.926 71.216 359.955 71.216C358.974 71.216 358.126 71.104 357.411 70.88C356.697 70.6667 356.147 70.3627 355.763 69.968C355.379 69.5627 355.187 69.0773 355.187 68.512C355.187 67.936 355.379 67.4507 355.763 67.056C356.147 66.6507 356.697 66.3413 357.411 66.128C358.126 65.904 358.974 65.792 359.955 65.792ZM359.955 66.864C359.241 66.864 358.622 66.928 358.099 67.056C357.587 67.184 357.193 67.3707 356.915 67.616C356.638 67.8613 356.499 68.16 356.499 68.512C356.499 68.8533 356.638 69.1467 356.915 69.392C357.193 69.6373 357.587 69.824 358.099 69.952C358.622 70.08 359.241 70.144 359.955 70.144C360.67 70.144 361.283 70.08 361.795 69.952C362.307 69.824 362.702 69.6373 362.979 69.392C363.257 69.1467 363.395 68.8533 363.395 68.512C363.395 68.16 363.257 67.8613 362.979 67.616C362.702 67.3707 362.307 67.184 361.795 67.056C361.283 66.928 360.67 66.864 359.955 66.864ZM369.714 63.536H379.65V64.608H369.714V63.536ZM368.05 68.32H381.17V69.424H368.05V68.32ZM373.922 64H375.234V68.752H373.922V64ZM369.714 57.92H379.506V59.024H371.042V64.016H369.714V57.92ZM392.577 56.768H393.889V71.248H392.577V56.768ZM393.585 62.72H396.257V63.84H393.585V62.72ZM382.689 59.088H391.217V60.176H382.689V59.088ZM387.025 61.36C387.707 61.36 388.31 61.504 388.833 61.792C389.366 62.08 389.782 62.4747 390.081 62.976C390.39 63.4667 390.545 64.0373 390.545 64.688C390.545 65.3387 390.39 65.9147 390.081 66.416C389.782 66.9173 389.366 67.312 388.833 67.6C388.31 67.8773 387.707 68.016 387.025 68.016C386.342 68.016 385.734 67.8773 385.201 67.6C384.678 67.312 384.262 66.9173 383.953 66.416C383.643 65.9147 383.489 65.3387 383.489 64.688C383.489 64.0373 383.643 63.4667 383.953 62.976C384.262 62.4747 384.678 62.08 385.201 61.792C385.734 61.504 386.342 61.36 387.025 61.36ZM387.025 62.464C386.587 62.464 386.198 62.56 385.857 62.752C385.515 62.944 385.243 63.2053 385.041 63.536C384.849 63.8667 384.753 64.2507 384.753 64.688C384.753 65.1253 384.849 65.5147 385.041 65.856C385.243 66.1867 385.515 66.448 385.857 66.64C386.198 66.8213 386.587 66.912 387.025 66.912C387.451 66.912 387.835 66.8213 388.177 66.64C388.518 66.448 388.785 66.1867 388.977 65.856C389.179 65.5147 389.281 65.1253 389.281 64.688C389.281 64.2507 389.179 63.8667 388.977 63.536C388.785 63.2053 388.518 62.944 388.177 62.752C387.835 62.56 387.451 62.464 387.025 62.464ZM386.337 56.944H387.665V59.568H386.337V56.944ZM399.248 61.12H409.088V62.192H399.248V61.12ZM397.472 64.128H410.592V65.216H397.472V64.128ZM399.248 57.296H400.56V61.664H399.248V57.296ZM399.152 69.808H409.168V70.896H399.152V69.808ZM399.152 66.672H400.48V70.096H399.152V66.672ZM422.712 59.44H426.584V60.512H422.712V59.44ZM422.584 62.448H426.488V63.536H422.584V62.448ZM426.36 56.784H427.688V65.44H426.36V56.784ZM421.832 57.856H423.24C423.24 59.0933 422.968 60.208 422.424 61.2C421.891 62.192 421.118 63.0453 420.104 63.76C419.102 64.464 417.907 65.024 416.52 65.44L415.976 64.384C417.203 64.0213 418.254 63.552 419.128 62.976C420.003 62.3893 420.67 61.7173 421.128 60.96C421.598 60.192 421.832 59.3493 421.832 58.432V57.856ZM416.712 57.856H422.728V58.944H416.712V57.856ZM422.984 65.6C423.966 65.6 424.808 65.712 425.512 65.936C426.227 66.16 426.782 66.48 427.176 66.896C427.571 67.312 427.768 67.808 427.768 68.384C427.768 68.9707 427.571 69.472 427.176 69.888C426.782 70.2933 426.227 70.608 425.512 70.832C424.808 71.0667 423.966 71.184 422.984 71.184C422.014 71.184 421.166 71.0667 420.44 70.832C419.726 70.608 419.171 70.2933 418.776 69.888C418.382 69.472 418.184 68.9707 418.184 68.384C418.184 67.808 418.382 67.312 418.776 66.896C419.171 66.48 419.726 66.16 420.44 65.936C421.166 65.712 422.014 65.6 422.984 65.6ZM422.984 66.656C422.28 66.656 421.667 66.7253 421.144 66.864C420.622 67.0027 420.216 67.2 419.928 67.456C419.64 67.712 419.496 68.0213 419.496 68.384C419.496 68.7467 419.64 69.056 419.928 69.312C420.216 69.568 420.622 69.7653 421.144 69.904C421.667 70.0427 422.28 70.112 422.984 70.112C423.699 70.112 424.312 70.0427 424.824 69.904C425.336 69.7653 425.736 69.568 426.024 69.312C426.312 69.056 426.456 68.7467 426.456 68.384C426.456 68.0213 426.312 67.712 426.024 67.456C425.736 67.2 425.336 67.0027 424.824 66.864C424.312 66.7253 423.699 66.656 422.984 66.656ZM430.487 65.056H443.607V66.16H430.487V65.056ZM436.359 65.728H437.671V71.248H436.359V65.728ZM437.015 57.344C438.028 57.344 438.914 57.4773 439.671 57.744C440.428 58 441.02 58.368 441.447 58.848C441.874 59.3173 442.087 59.8773 442.087 60.528C442.087 61.168 441.874 61.728 441.447 62.208C441.02 62.688 440.428 63.056 439.671 63.312C438.914 63.568 438.028 63.696 437.015 63.696C436.023 63.696 435.143 63.568 434.375 63.312C433.618 63.056 433.026 62.688 432.599 62.208C432.172 61.728 431.959 61.168 431.959 60.528C431.959 59.8773 432.172 59.3173 432.599 58.848C433.026 58.368 433.618 58 434.375 57.744C435.143 57.4773 436.023 57.344 437.015 57.344ZM437.015 58.416C436.29 58.416 435.644 58.5013 435.079 58.672C434.524 58.8427 434.092 59.088 433.783 59.408C433.474 59.7173 433.319 60.0853 433.319 60.512C433.319 60.9493 433.474 61.328 433.783 61.648C434.092 61.9573 434.524 62.1973 435.079 62.368C435.644 62.5387 436.29 62.624 437.015 62.624C437.762 62.624 438.412 62.5387 438.967 62.368C439.522 62.1973 439.954 61.9573 440.263 61.648C440.572 61.328 440.727 60.9493 440.727 60.512C440.727 60.0853 440.572 59.7173 440.263 59.408C439.954 59.088 439.522 58.8427 438.967 58.672C438.412 58.5013 437.762 58.416 437.015 58.416ZM452.352 57.648H453.456V59.424C453.456 60.3733 453.291 61.248 452.96 62.048C452.629 62.8373 452.165 63.5253 451.568 64.112C450.971 64.6987 450.267 65.1467 449.456 65.456L448.736 64.4C449.472 64.144 450.112 63.7707 450.656 63.28C451.2 62.7787 451.616 62.1973 451.904 61.536C452.203 60.8747 452.352 60.1707 452.352 59.424V57.648ZM452.592 57.648H453.664V59.472C453.664 59.9627 453.749 60.4427 453.92 60.912C454.101 61.3813 454.347 61.824 454.656 62.24C454.976 62.6453 455.349 63.0027 455.776 63.312C456.213 63.6107 456.699 63.856 457.232 64.048L456.56 65.104C455.771 64.8053 455.077 64.3787 454.48 63.824C453.883 63.2693 453.419 62.6187 453.088 61.872C452.757 61.1253 452.592 60.3253 452.592 59.472V57.648ZM458.704 56.768H460.032V67.456H458.704V56.768ZM459.616 61.2H462.16V62.32H459.616V61.2ZM451.04 69.84H460.672V70.928H451.04V69.84ZM451.04 66.432H452.384V70.368H451.04V66.432ZM469.391 63.984H470.703V66.16H469.391V63.984ZM463.535 63.2H476.575V64.208H463.535V63.2ZM469.391 56.688H470.703V58.432H469.391V56.688ZM469.327 58.56H470.495V58.784C470.495 59.36 470.34 59.8667 470.031 60.304C469.721 60.7413 469.295 61.1147 468.751 61.424C468.207 61.7333 467.577 61.984 466.863 62.176C466.159 62.3573 465.407 62.48 464.607 62.544L464.207 61.536C464.921 61.4933 465.588 61.4027 466.207 61.264C466.825 61.1147 467.369 60.9227 467.839 60.688C468.308 60.4533 468.671 60.176 468.927 59.856C469.193 59.536 469.327 59.1787 469.327 58.784V58.56ZM469.615 58.56H470.767V58.784C470.767 59.1787 470.9 59.536 471.167 59.856C471.433 60.176 471.801 60.4533 472.271 60.688C472.74 60.9227 473.279 61.1147 473.887 61.264C474.505 61.4027 475.172 61.4933 475.887 61.536L475.487 62.544C474.687 62.48 473.929 62.3573 473.215 62.176C472.511 61.984 471.887 61.7333 471.343 61.424C470.809 61.1147 470.388 60.7413 470.079 60.304C469.769 59.8667 469.615 59.36 469.615 58.784V58.56ZM464.863 58.032H475.263V59.056H464.863V58.032ZM465.103 65.536H474.911V68.704H466.431V70.448H465.135V67.76H473.615V66.528H465.103V65.536ZM465.135 70.064H475.343V71.088H465.135V70.064ZM483.934 61.952H486.718V63.056H483.934V61.952ZM481.246 58.128H482.286V60.896C482.286 61.6427 482.206 62.3787 482.046 63.104C481.896 63.8293 481.672 64.512 481.374 65.152C481.086 65.792 480.734 66.368 480.318 66.88C479.902 67.392 479.432 67.808 478.91 68.128L478.078 67.136C478.568 66.8373 479.011 66.464 479.406 66.016C479.8 65.568 480.131 65.0667 480.398 64.512C480.675 63.9467 480.883 63.36 481.022 62.752C481.171 62.1333 481.246 61.5147 481.246 60.896V58.128ZM481.502 58.128H482.526V60.848C482.526 61.424 482.59 62.0053 482.718 62.592C482.856 63.168 483.048 63.7227 483.294 64.256C483.55 64.7787 483.864 65.2587 484.238 65.696C484.611 66.1333 485.032 66.496 485.502 66.784L484.75 67.808C484.227 67.488 483.763 67.0827 483.358 66.592C482.952 66.0907 482.611 65.5307 482.334 64.912C482.056 64.2827 481.848 63.6213 481.71 62.928C481.571 62.2347 481.502 61.5413 481.502 60.848V58.128ZM489.262 56.768H490.542V71.248H489.262V56.768ZM486.318 57.072H487.566V70.512H486.318V57.072ZM496.38 57.68C497.02 57.68 497.586 57.824 498.076 58.112C498.567 58.4 498.956 58.8053 499.244 59.328C499.532 59.84 499.676 60.432 499.676 61.104C499.676 61.776 499.532 62.368 499.244 62.88C498.956 63.392 498.567 63.792 498.076 64.08C497.586 64.3573 497.02 64.496 496.38 64.496C495.74 64.496 495.175 64.3573 494.684 64.08C494.194 63.792 493.804 63.392 493.516 62.88C493.239 62.368 493.1 61.776 493.1 61.104C493.1 60.432 493.239 59.84 493.516 59.328C493.804 58.8053 494.194 58.4 494.684 58.112C495.175 57.824 495.74 57.68 496.38 57.68ZM496.38 58.816C495.986 58.816 495.628 58.912 495.308 59.104C494.999 59.296 494.754 59.568 494.572 59.92C494.391 60.2613 494.3 60.656 494.3 61.104C494.3 61.552 494.391 61.9467 494.572 62.288C494.754 62.6293 494.999 62.9013 495.308 63.104C495.628 63.296 495.986 63.392 496.38 63.392C496.775 63.392 497.127 63.296 497.436 63.104C497.756 62.9013 498.007 62.6293 498.188 62.288C498.37 61.9467 498.46 61.552 498.46 61.104C498.46 60.656 498.37 60.2613 498.188 59.92C498.007 59.568 497.756 59.296 497.436 59.104C497.127 58.912 496.775 58.816 496.38 58.816ZM503.884 56.784H505.148V65.392H503.884V56.784ZM501.548 60.496H504.268V61.6H501.548V60.496ZM500.796 57.056H502.044V65.296H500.796V57.056ZM495.452 66.192H505.148V71.248H503.836V67.28H495.452V66.192ZM507.675 64.384H520.747V65.456H507.675V64.384ZM509.355 69.84H519.291V70.928H509.355V69.84ZM509.355 66.736H510.683V70.16H509.355V66.736ZM514.203 57.264C515.238 57.264 516.134 57.3813 516.891 57.616C517.659 57.84 518.251 58.1707 518.667 58.608C519.083 59.0347 519.291 59.5467 519.291 60.144C519.291 60.7413 519.083 61.2587 518.667 61.696C518.251 62.1333 517.659 62.4693 516.891 62.704C516.134 62.928 515.238 63.04 514.203 63.04C513.168 63.04 512.267 62.928 511.499 62.704C510.742 62.4693 510.155 62.1333 509.739 61.696C509.323 61.2587 509.115 60.7413 509.115 60.144C509.115 59.5467 509.323 59.0347 509.739 58.608C510.155 58.1707 510.742 57.84 511.499 57.616C512.267 57.3813 513.168 57.264 514.203 57.264ZM514.203 58.336C513.456 58.336 512.8 58.4107 512.235 58.56C511.68 58.6987 511.248 58.9067 510.939 59.184C510.63 59.4507 510.475 59.7707 510.475 60.144C510.475 60.5173 510.63 60.8427 510.939 61.12C511.248 61.3867 511.68 61.5947 512.235 61.744C512.8 61.8827 513.456 61.952 514.203 61.952C514.971 61.952 515.632 61.8827 516.187 61.744C516.742 61.5947 517.168 61.3867 517.467 61.12C517.776 60.8427 517.931 60.5173 517.931 60.144C517.931 59.7707 517.776 59.4507 517.467 59.184C517.168 58.9067 516.742 58.6987 516.187 58.56C515.632 58.4107 514.971 58.336 514.203 58.336ZM99.376 80.768H100.688V88.128H99.376V80.768ZM95.968 83.984H99.984V85.072H95.968V83.984ZM92.752 81.264C93.4667 81.264 94.1013 81.4027 94.656 81.68C95.2213 81.9573 95.664 82.3413 95.984 82.832C96.304 83.3227 96.464 83.8933 96.464 84.544C96.464 85.184 96.304 85.7547 95.984 86.256C95.664 86.7467 95.2213 87.136 94.656 87.424C94.1013 87.7013 93.4667 87.84 92.752 87.84C92.0267 87.84 91.3813 87.7013 90.816 87.424C90.2613 87.136 89.824 86.7467 89.504 86.256C89.184 85.7547 89.024 85.184 89.024 84.544C89.024 83.8933 89.184 83.3227 89.504 82.832C89.824 82.3413 90.2613 81.9573 90.816 81.68C91.3813 81.4027 92.0267 81.264 92.752 81.264ZM92.752 82.352C92.2827 82.352 91.8613 82.448 91.488 82.64C91.1147 82.8213 90.8213 83.0773 90.608 83.408C90.3947 83.7387 90.288 84.1173 90.288 84.544C90.288 84.9707 90.3947 85.3547 90.608 85.696C90.8213 86.0267 91.1147 86.288 91.488 86.48C91.8613 86.6613 92.2827 86.752 92.752 86.752C93.2213 86.752 93.6373 86.6613 94 86.48C94.3733 86.288 94.6667 86.0267 94.88 85.696C95.0933 85.3547 95.2 84.9707 95.2 84.544C95.2 84.1173 95.0933 83.7387 94.88 83.408C94.6667 83.0773 94.3733 82.8213 94 82.64C93.6373 82.448 93.2213 82.352 92.752 82.352ZM91.376 88.928H100.688V92.416H92.72V94.576H91.408V91.408H99.376V89.984H91.376V88.928ZM91.408 93.984H101.232V95.056H91.408V93.984ZM104.095 82.224H110.735V91.568H104.095V82.224ZM109.423 83.28H105.391V90.496H109.423V83.28ZM113.311 80.768H114.639V95.248H113.311V80.768ZM114.335 86.544H117.007V87.664H114.335V86.544ZM128.766 80.784H130.094V91.344H128.766V80.784ZM120.798 93.84H130.542V94.928H120.798V93.84ZM120.798 90.272H122.126V94.208H120.798V90.272ZM122.334 81.792C123.059 81.792 123.704 81.9413 124.27 82.24C124.835 82.5387 125.283 82.96 125.614 83.504C125.944 84.0373 126.11 84.6507 126.11 85.344C126.11 86.0373 125.944 86.656 125.614 87.2C125.283 87.7333 124.835 88.1547 124.27 88.464C123.704 88.7627 123.059 88.912 122.334 88.912C121.619 88.912 120.974 88.7627 120.398 88.464C119.832 88.1547 119.384 87.7333 119.054 87.2C118.723 86.656 118.558 86.0373 118.558 85.344C118.558 84.6507 118.723 84.0373 119.054 83.504C119.384 82.96 119.832 82.5387 120.398 82.24C120.974 81.9413 121.619 81.792 122.334 81.792ZM122.334 82.944C121.864 82.944 121.443 83.0453 121.07 83.248C120.696 83.4507 120.398 83.7333 120.174 84.096C119.96 84.4587 119.854 84.8747 119.854 85.344C119.854 85.824 119.96 86.2453 120.174 86.608C120.398 86.96 120.696 87.2373 121.07 87.44C121.443 87.6427 121.864 87.744 122.334 87.744C122.803 87.744 123.224 87.6427 123.598 87.44C123.982 87.2373 124.28 86.96 124.494 86.608C124.707 86.2453 124.814 85.824 124.814 85.344C124.814 84.8747 124.707 84.4587 124.494 84.096C124.28 83.7333 123.982 83.4507 123.598 83.248C123.224 83.0453 122.803 82.944 122.334 82.944ZM142.748 80.768H144.076V95.232H142.748V80.768ZM143.724 86.64H146.38V87.744H143.724V86.64ZM139.052 82.32H140.348C140.348 83.696 140.124 85.0133 139.676 86.272C139.228 87.52 138.524 88.6773 137.564 89.744C136.604 90.8 135.34 91.7173 133.772 92.496L133.036 91.472C134.38 90.8 135.495 90.016 136.38 89.12C137.276 88.2133 137.943 87.2107 138.38 86.112C138.828 85.0027 139.052 83.808 139.052 82.528V82.32ZM133.708 82.32H139.724V83.424H133.708V82.32ZM150.891 88.224H152.203V92.544H150.891V88.224ZM156.235 88.224H157.563V92.544H156.235V88.224ZM147.675 92.288H160.795V93.392H147.675V92.288ZM154.203 81.68C155.227 81.68 156.134 81.8347 156.923 82.144C157.712 82.4533 158.331 82.8853 158.779 83.44C159.238 83.9947 159.467 84.6507 159.467 85.408C159.467 86.1547 159.238 86.8107 158.779 87.376C158.331 87.9307 157.712 88.3627 156.923 88.672C156.134 88.9707 155.227 89.12 154.203 89.12C153.19 89.12 152.283 88.9707 151.483 88.672C150.694 88.3627 150.075 87.9307 149.627 87.376C149.179 86.8107 148.955 86.1547 148.955 85.408C148.955 84.6507 149.179 83.9947 149.627 83.44C150.075 82.8853 150.694 82.4533 151.483 82.144C152.283 81.8347 153.19 81.68 154.203 81.68ZM154.203 82.736C153.435 82.736 152.752 82.848 152.155 83.072C151.558 83.296 151.088 83.6107 150.747 84.016C150.406 84.4107 150.235 84.8747 150.235 85.408C150.235 85.9413 150.406 86.4107 150.747 86.816C151.088 87.2107 151.558 87.52 152.155 87.744C152.752 87.968 153.435 88.08 154.203 88.08C154.982 88.08 155.67 87.968 156.267 87.744C156.864 87.52 157.334 87.2107 157.675 86.816C158.016 86.4107 158.187 85.9413 158.187 85.408C158.187 84.8747 158.016 84.4107 157.675 84.016C157.334 83.6107 156.864 83.296 156.267 83.072C155.67 82.848 154.982 82.736 154.203 82.736ZM164.442 90.464C164.367 89.9093 164.399 89.4133 164.538 88.976C164.687 88.5387 164.89 88.144 165.146 87.792C165.402 87.44 165.663 87.104 165.93 86.784C166.207 86.464 166.436 86.144 166.618 85.824C166.81 85.4933 166.906 85.136 166.906 84.752C166.906 84.432 166.842 84.144 166.714 83.888C166.586 83.6213 166.394 83.4133 166.138 83.264C165.882 83.104 165.562 83.024 165.178 83.024C164.783 83.024 164.41 83.1147 164.058 83.296C163.706 83.4667 163.391 83.7173 163.114 84.048L162.282 83.28C162.655 82.8533 163.098 82.5013 163.61 82.224C164.122 81.9467 164.698 81.808 165.338 81.808C165.946 81.808 166.474 81.9253 166.922 82.16C167.37 82.384 167.716 82.7093 167.962 83.136C168.207 83.5627 168.33 84.0693 168.33 84.656C168.33 85.136 168.234 85.5627 168.042 85.936C167.85 86.3093 167.615 86.6613 167.338 86.992C167.06 87.3227 166.788 87.664 166.522 88.016C166.255 88.3573 166.042 88.7253 165.882 89.12C165.722 89.504 165.674 89.952 165.738 90.464H164.442ZM165.13 94.208C164.842 94.208 164.596 94.1067 164.394 93.904C164.191 93.6907 164.09 93.424 164.09 93.104C164.09 92.7627 164.191 92.4907 164.394 92.288C164.596 92.0853 164.842 91.984 165.13 91.984C165.428 91.984 165.679 92.0853 165.882 92.288C166.095 92.4907 166.202 92.7627 166.202 93.104C166.202 93.424 166.095 93.6907 165.882 93.904C165.679 94.1067 165.428 94.208 165.13 94.208Z" fill="black"/>
</g>
<rect x="24.5" y="140.5" width="551" height="79" rx="7.5" fill="white"/>
<rect x="24.5" y="140.5" width="551" height="79" rx="7.5" stroke="#EEEFF1"/>
<g clip-path="url(#clip1_259_690)">
<path d="M48 170.666V168M48 165.333H48.0067M54.6667 168C54.6667 171.682 51.6819 174.666 48 174.666C44.3181 174.666 41.3334 171.682 41.3334 168C41.3334 164.318 44.3181 161.333 48 161.333C51.6819 161.333 54.6667 164.318 54.6667 168Z" stroke="#FD5108" stroke-width="1.5" stroke-linecap="round" stroke-linejoin="round"/>
</g>
<path d="M75.632 162.928H78.128V164.032H75.632V162.928ZM75.632 166.016H78.128V167.12H75.632V166.016ZM68.832 161.632C69.568 161.632 70.2187 161.776 70.784 162.064C71.3493 162.352 71.792 162.752 72.112 163.264C72.4427 163.776 72.608 164.368 72.608 165.04C72.608 165.723 72.4427 166.32 72.112 166.832C71.792 167.333 71.3493 167.728 70.784 168.016C70.2187 168.304 69.568 168.448 68.832 168.448C68.1173 168.448 67.472 168.304 66.896 168.016C66.3307 167.728 65.8827 167.333 65.552 166.832C65.2213 166.32 65.056 165.723 65.056 165.04C65.056 164.368 65.2213 163.776 65.552 163.264C65.8827 162.752 66.3307 162.352 66.896 162.064C67.472 161.776 68.1173 161.632 68.832 161.632ZM68.832 162.752C68.3627 162.752 67.9413 162.853 67.568 163.056C67.1947 163.248 66.896 163.515 66.672 163.856C66.4587 164.197 66.352 164.592 66.352 165.04C66.352 165.499 66.4587 165.899 66.672 166.24C66.896 166.581 67.1947 166.848 67.568 167.04C67.9413 167.232 68.3627 167.328 68.832 167.328C69.312 167.328 69.7387 167.232 70.112 167.04C70.4853 166.848 70.7787 166.581 70.992 166.24C71.216 165.899 71.328 165.499 71.328 165.04C71.328 164.592 71.216 164.197 70.992 163.856C70.7787 163.515 70.4853 163.248 70.112 163.056C69.7387 162.853 69.312 162.752 68.832 162.752ZM74.704 160.768H76.032V169.344H74.704V160.768ZM71.424 169.792C72.3947 169.792 73.2373 169.904 73.952 170.128C74.6667 170.341 75.216 170.651 75.6 171.056C75.984 171.451 76.176 171.936 76.176 172.512C76.176 173.077 75.984 173.563 75.6 173.968C75.216 174.363 74.6667 174.667 73.952 174.88C73.2373 175.104 72.3947 175.216 71.424 175.216C70.4427 175.216 69.5947 175.104 68.88 174.88C68.1653 174.667 67.616 174.363 67.232 173.968C66.848 173.563 66.656 173.077 66.656 172.512C66.656 171.936 66.848 171.451 67.232 171.056C67.616 170.651 68.1653 170.341 68.88 170.128C69.5947 169.904 70.4427 169.792 71.424 169.792ZM71.424 170.864C70.7093 170.864 70.0907 170.928 69.568 171.056C69.056 171.184 68.6613 171.371 68.384 171.616C68.1067 171.861 67.968 172.16 67.968 172.512C67.968 172.853 68.1067 173.147 68.384 173.392C68.6613 173.637 69.056 173.824 69.568 173.952C70.0907 174.08 70.7093 174.144 71.424 174.144C72.1387 174.144 72.752 174.08 73.264 173.952C73.776 173.824 74.1707 173.637 74.448 173.392C74.7253 173.147 74.864 172.853 74.864 172.512C74.864 172.16 74.7253 171.861 74.448 171.616C74.1707 171.371 73.776 171.184 73.264 171.056C72.752 170.928 72.1387 170.864 71.424 170.864ZM81.1828 167.536H91.1188V168.608H81.1828V167.536ZM79.5188 172.32H92.6388V173.424H79.5188V172.32ZM85.3908 168H86.7028V172.752H85.3908V168ZM81.1828 161.92H90.9748V163.024H82.5108V168.016H81.1828V161.92ZM95.9015 161.536H105.214V162.624H95.9015V161.536ZM94.2375 166.864H107.358V167.952H94.2375V166.864ZM104.35 161.536H105.662V162.608C105.662 163.216 105.64 163.888 105.598 164.624C105.555 165.36 105.416 166.235 105.182 167.248L103.87 167.168C104.104 166.187 104.243 165.333 104.286 164.608C104.328 163.872 104.35 163.205 104.35 162.608V161.536ZM95.8535 169.92H105.71V175.056H95.8535V169.92ZM104.398 170.976H97.1495V173.968H104.398V170.976ZM112.38 161.68C113.02 161.68 113.586 161.824 114.076 162.112C114.567 162.4 114.956 162.805 115.244 163.328C115.532 163.84 115.676 164.432 115.676 165.104C115.676 165.776 115.532 166.368 115.244 166.88C114.956 167.392 114.567 167.792 114.076 168.08C113.586 168.357 113.02 168.496 112.38 168.496C111.74 168.496 111.175 168.357 110.684 168.08C110.194 167.792 109.804 167.392 109.516 166.88C109.239 166.368 109.1 165.776 109.1 165.104C109.1 164.432 109.239 163.84 109.516 163.328C109.804 162.805 110.194 162.4 110.684 162.112C111.175 161.824 111.74 161.68 112.38 161.68ZM112.38 162.816C111.986 162.816 111.628 162.912 111.308 163.104C110.999 163.296 110.754 163.568 110.572 163.92C110.391 164.261 110.3 164.656 110.3 165.104C110.3 165.552 110.391 165.947 110.572 166.288C110.754 166.629 110.999 166.901 111.308 167.104C111.628 167.296 111.986 167.392 112.38 167.392C112.775 167.392 113.127 167.296 113.436 167.104C113.756 166.901 114.007 166.629 114.188 166.288C114.37 165.947 114.46 165.552 114.46 165.104C114.46 164.656 114.37 164.261 114.188 163.92C114.007 163.568 113.756 163.296 113.436 163.104C113.127 162.912 112.775 162.816 112.38 162.816ZM119.884 160.784H121.148V169.392H119.884V160.784ZM117.548 164.496H120.268V165.6H117.548V164.496ZM116.796 161.056H118.044V169.296H116.796V161.056ZM111.452 170.192H121.148V175.248H119.836V171.28H111.452V170.192ZM127.253 167.648H140.341V168.752H127.253V167.648ZM128.901 165.2H138.805V166.288H128.901V165.2ZM128.901 161.344H138.709V162.432H130.213V165.712H128.901V161.344ZM133.781 170C135.328 170 136.538 170.229 137.413 170.688C138.288 171.147 138.725 171.787 138.725 172.608C138.725 173.44 138.288 174.08 137.413 174.528C136.538 174.987 135.328 175.216 133.781 175.216C132.234 175.216 131.018 174.987 130.133 174.528C129.258 174.08 128.821 173.44 128.821 172.608C128.821 171.787 129.258 171.147 130.133 170.688C131.018 170.229 132.234 170 133.781 170ZM133.765 171.04C133.018 171.04 132.373 171.104 131.829 171.232C131.296 171.349 130.885 171.525 130.597 171.76C130.309 171.995 130.165 172.277 130.165 172.608C130.165 172.949 130.309 173.237 130.597 173.472C130.885 173.696 131.296 173.872 131.829 174C132.373 174.117 133.018 174.176 133.765 174.176C134.533 174.176 135.184 174.117 135.717 174C136.261 173.872 136.677 173.696 136.965 173.472C137.253 173.237 137.397 172.949 137.397 172.608C137.397 172.277 137.253 171.995 136.965 171.76C136.677 171.525 136.261 171.349 135.717 171.232C135.184 171.104 134.533 171.04 133.765 171.04ZM145.47 162.464H152.798V163.52H145.47V162.464ZM149.15 164.256C149.758 164.256 150.291 164.363 150.75 164.576C151.219 164.789 151.582 165.088 151.838 165.472C152.105 165.845 152.238 166.288 152.238 166.8C152.238 167.312 152.105 167.76 151.838 168.144C151.582 168.528 151.219 168.827 150.75 169.04C150.291 169.253 149.758 169.36 149.15 169.36C148.553 169.36 148.019 169.253 147.55 169.04C147.081 168.827 146.718 168.528 146.462 168.144C146.206 167.76 146.078 167.312 146.078 166.8C146.078 166.288 146.206 165.845 146.462 165.472C146.718 165.088 147.081 164.789 147.55 164.576C148.019 164.363 148.553 164.256 149.15 164.256ZM149.15 165.264C148.595 165.264 148.142 165.408 147.79 165.696C147.438 165.973 147.262 166.347 147.262 166.816C147.262 167.275 147.433 167.648 147.774 167.936C148.126 168.213 148.585 168.352 149.15 168.352C149.715 168.352 150.169 168.213 150.51 167.936C150.862 167.648 151.038 167.275 151.038 166.816C151.038 166.347 150.862 165.973 150.51 165.696C150.169 165.408 149.715 165.264 149.15 165.264ZM148.494 160.848H149.806V163.248H148.494V160.848ZM156.478 160.784H157.742V169.792H156.478V160.784ZM154.11 164.832H156.846V165.92H154.11V164.832ZM153.406 161.024H154.67V169.68H153.406V161.024ZM148.046 170.624H157.742V175.248H156.43V171.712H148.046V170.624ZM170.797 160.784H172.125V168.992H170.797V160.784ZM162.781 169.824H172.125V175.056H162.781V169.824ZM170.829 170.896H164.077V173.968H170.829V170.896ZM164.029 161.344H165.133V162.752C165.133 163.648 164.962 164.491 164.621 165.28C164.279 166.059 163.799 166.736 163.181 167.312C162.573 167.888 161.858 168.331 161.037 168.64L160.381 167.584C160.925 167.392 161.421 167.131 161.869 166.8C162.317 166.469 162.701 166.091 163.021 165.664C163.351 165.237 163.602 164.779 163.773 164.288C163.943 163.787 164.029 163.275 164.029 162.752V161.344ZM164.269 161.344H165.373V162.752C165.373 163.264 165.458 163.755 165.629 164.224C165.81 164.693 166.061 165.131 166.381 165.536C166.711 165.931 167.095 166.283 167.533 166.592C167.981 166.901 168.471 167.147 169.005 167.328L168.349 168.352C167.751 168.149 167.202 167.867 166.701 167.504C166.199 167.141 165.767 166.715 165.405 166.224C165.042 165.733 164.759 165.195 164.557 164.608C164.365 164.021 164.269 163.403 164.269 162.752V161.344ZM186.294 164.528H189.542V165.632H186.294V164.528ZM189.142 160.768H190.47V169.392H189.142V160.768ZM185.702 169.84C186.704 169.84 187.563 169.947 188.278 170.16C189.003 170.373 189.558 170.683 189.942 171.088C190.326 171.483 190.518 171.968 190.518 172.544C190.518 173.397 190.086 174.059 189.222 174.528C188.368 174.997 187.195 175.232 185.702 175.232C184.208 175.232 183.03 174.997 182.166 174.528C181.312 174.059 180.886 173.397 180.886 172.544C180.886 171.968 181.078 171.483 181.462 171.088C181.856 170.683 182.411 170.373 183.126 170.16C183.851 169.947 184.71 169.84 185.702 169.84ZM185.702 170.88C184.976 170.88 184.352 170.944 183.83 171.072C183.307 171.2 182.902 171.387 182.614 171.632C182.336 171.877 182.198 172.181 182.198 172.544C182.198 172.885 182.336 173.179 182.614 173.424C182.902 173.669 183.307 173.861 183.83 174C184.352 174.128 184.976 174.192 185.702 174.192C186.438 174.192 187.062 174.128 187.574 174C188.096 173.861 188.496 173.669 188.774 173.424C189.062 173.179 189.206 172.885 189.206 172.544C189.206 172.181 189.062 171.877 188.774 171.632C188.496 171.387 188.096 171.2 187.574 171.072C187.062 170.944 186.438 170.88 185.702 170.88ZM182.246 162.24H183.334V163.408C183.334 164.293 183.163 165.125 182.822 165.904C182.491 166.672 182.022 167.349 181.414 167.936C180.806 168.512 180.102 168.955 179.302 169.264L178.614 168.208C179.158 168.016 179.648 167.755 180.086 167.424C180.534 167.093 180.918 166.715 181.238 166.288C181.568 165.861 181.819 165.403 181.99 164.912C182.16 164.421 182.246 163.92 182.246 163.408V162.24ZM182.502 162.24H183.59V163.392C183.59 164.011 183.734 164.613 184.022 165.2C184.31 165.787 184.72 166.304 185.254 166.752C185.787 167.2 186.4 167.552 187.094 167.808L186.422 168.864C185.632 168.576 184.944 168.16 184.358 167.616C183.771 167.061 183.312 166.421 182.982 165.696C182.662 164.971 182.502 164.203 182.502 163.392V162.24ZM179.03 161.824H186.758V162.912H179.03V161.824ZM193.284 172.304H206.404V173.408H193.284V172.304ZM199.156 168.832H200.468V172.624H199.156V168.832ZM194.82 161.792H196.148V164.368H203.508V161.792H204.82V169.2H194.82V161.792ZM196.148 165.456V168.112H203.508V165.456H196.148ZM217.795 160.768H219.123V175.232H217.795V160.768ZM218.771 166.64H221.427V167.744H218.771V166.64ZM214.099 162.32H215.395C215.395 163.696 215.171 165.013 214.723 166.272C214.275 167.52 213.571 168.677 212.611 169.744C211.651 170.8 210.387 171.717 208.819 172.496L208.083 171.472C209.427 170.8 210.542 170.016 211.427 169.12C212.323 168.213 212.99 167.211 213.427 166.112C213.875 165.003 214.099 163.808 214.099 162.528V162.32ZM208.755 162.32H214.771V163.424H208.755V162.32ZM226.284 169.344H239.404V170.416H226.284V169.344ZM232.156 169.84H233.468V175.248H232.156V169.84ZM227.948 161.36H229.26V163.344H236.412V161.36H237.74V167.616H227.948V161.36ZM229.26 164.416V166.528H236.412V164.416H229.26ZM246.699 161.92H247.867V162.368C247.867 162.827 247.765 163.264 247.563 163.68C247.371 164.085 247.099 164.459 246.747 164.8C246.395 165.131 245.979 165.424 245.499 165.68C245.029 165.925 244.517 166.133 243.963 166.304C243.408 166.475 242.832 166.597 242.235 166.672L241.739 165.616C242.261 165.563 242.763 165.467 243.243 165.328C243.733 165.189 244.187 165.024 244.603 164.832C245.029 164.629 245.397 164.4 245.707 164.144C246.016 163.888 246.256 163.611 246.427 163.312C246.608 163.013 246.699 162.699 246.699 162.368V161.92ZM247.243 161.92H248.411V162.368C248.411 162.688 248.496 163.003 248.667 163.312C248.848 163.611 249.093 163.888 249.403 164.144C249.723 164.389 250.091 164.613 250.507 164.816C250.923 165.019 251.371 165.189 251.851 165.328C252.341 165.467 252.848 165.563 253.371 165.616L252.875 166.672C252.277 166.597 251.701 166.475 251.147 166.304C250.592 166.133 250.075 165.92 249.595 165.664C249.125 165.408 248.715 165.115 248.363 164.784C248.011 164.443 247.733 164.069 247.531 163.664C247.339 163.259 247.243 162.827 247.243 162.368V161.92ZM242.219 161.36H252.907V162.432H242.219V161.36ZM241.019 168.032H254.123V169.12H241.019V168.032ZM246.891 165.856H248.203V168.56H246.891V165.856ZM242.475 170.544H252.475V175.248H251.147V171.616H242.475V170.544ZM265.546 160.768H266.858V175.248H265.546V160.768ZM266.554 166.72H269.226V167.84H266.554V166.72ZM255.658 163.088H264.186V164.176H255.658V163.088ZM259.994 165.36C260.676 165.36 261.279 165.504 261.802 165.792C262.335 166.08 262.751 166.475 263.05 166.976C263.359 167.467 263.514 168.037 263.514 168.688C263.514 169.339 263.359 169.915 263.05 170.416C262.751 170.917 262.335 171.312 261.802 171.6C261.279 171.877 260.676 172.016 259.994 172.016C259.311 172.016 258.703 171.877 258.17 171.6C257.647 171.312 257.231 170.917 256.922 170.416C256.612 169.915 256.458 169.339 256.458 168.688C256.458 168.037 256.612 167.467 256.922 166.976C257.231 166.475 257.647 166.08 258.17 165.792C258.703 165.504 259.311 165.36 259.994 165.36ZM259.994 166.464C259.556 166.464 259.167 166.56 258.826 166.752C258.484 166.944 258.212 167.205 258.01 167.536C257.818 167.867 257.722 168.251 257.722 168.688C257.722 169.125 257.818 169.515 258.01 169.856C258.212 170.187 258.484 170.448 258.826 170.64C259.167 170.821 259.556 170.912 259.994 170.912C260.42 170.912 260.804 170.821 261.146 170.64C261.487 170.448 261.754 170.187 261.946 169.856C262.148 169.515 262.25 169.125 262.25 168.688C262.25 168.251 262.148 167.867 261.946 167.536C261.754 167.205 261.487 166.944 261.146 166.752C260.804 166.56 260.42 166.464 259.994 166.464ZM259.306 160.944H260.634V163.568H259.306V160.944ZM276.968 164H281.352V165.088H276.968V164ZM276.968 168.576H281.352V169.664H276.968V168.576ZM274.312 161.888C275.016 161.888 275.64 162.096 276.184 162.512C276.728 162.917 277.15 163.499 277.448 164.256C277.758 165.013 277.912 165.904 277.912 166.928C277.912 167.952 277.758 168.843 277.448 169.6C277.15 170.357 276.728 170.944 276.184 171.36C275.64 171.776 275.016 171.984 274.312 171.984C273.619 171.984 272.995 171.776 272.44 171.36C271.896 170.944 271.47 170.357 271.16 169.6C270.862 168.843 270.712 167.952 270.712 166.928C270.712 165.904 270.862 165.013 271.16 164.256C271.47 163.499 271.896 162.917 272.44 162.512C272.995 162.096 273.619 161.888 274.312 161.888ZM274.312 163.072C273.854 163.072 273.448 163.232 273.096 163.552C272.744 163.861 272.467 164.309 272.264 164.896C272.072 165.472 271.976 166.149 271.976 166.928C271.976 167.707 272.072 168.389 272.264 168.976C272.467 169.552 272.744 170 273.096 170.32C273.448 170.64 273.854 170.8 274.312 170.8C274.782 170.8 275.192 170.64 275.544 170.32C275.896 170 276.168 169.552 276.36 168.976C276.563 168.389 276.664 167.707 276.664 166.928C276.664 166.149 276.563 165.472 276.36 164.896C276.168 164.309 275.896 163.861 275.544 163.552C275.192 163.232 274.782 163.072 274.312 163.072ZM281.048 160.768H282.36V175.264H281.048V160.768ZM292.305 161.648H293.409V163.424C293.409 164.373 293.244 165.248 292.913 166.048C292.582 166.837 292.118 167.525 291.521 168.112C290.924 168.699 290.22 169.147 289.409 169.456L288.689 168.4C289.425 168.144 290.065 167.771 290.609 167.28C291.153 166.779 291.569 166.197 291.857 165.536C292.156 164.875 292.305 164.171 292.305 163.424V161.648ZM292.545 161.648H293.617V163.472C293.617 163.963 293.702 164.443 293.873 164.912C294.054 165.381 294.3 165.824 294.609 166.24C294.929 166.645 295.302 167.003 295.729 167.312C296.166 167.611 296.652 167.856 297.185 168.048L296.513 169.104C295.724 168.805 295.03 168.379 294.433 167.824C293.836 167.269 293.372 166.619 293.041 165.872C292.71 165.125 292.545 164.325 292.545 163.472V161.648ZM298.657 160.768H299.985V171.456H298.657V160.768ZM299.569 165.2H302.113V166.32H299.569V165.2ZM290.993 173.84H300.625V174.928H290.993V173.84ZM290.993 170.432H292.337V174.368H290.993V170.432ZM309.344 167.984H310.656V170.16H309.344V167.984ZM303.488 167.2H316.528V168.208H303.488V167.2ZM309.344 160.688H310.656V162.432H309.344V160.688ZM309.28 162.56H310.448V162.784C310.448 163.36 310.293 163.867 309.984 164.304C309.675 164.741 309.248 165.115 308.704 165.424C308.16 165.733 307.531 165.984 306.816 166.176C306.112 166.357 305.36 166.48 304.56 166.544L304.16 165.536C304.875 165.493 305.541 165.403 306.16 165.264C306.779 165.115 307.323 164.923 307.792 164.688C308.261 164.453 308.624 164.176 308.88 163.856C309.147 163.536 309.28 163.179 309.28 162.784V162.56ZM309.568 162.56H310.72V162.784C310.72 163.179 310.853 163.536 311.12 163.856C311.387 164.176 311.755 164.453 312.224 164.688C312.693 164.923 313.232 165.115 313.84 165.264C314.459 165.403 315.125 165.493 315.84 165.536L315.44 166.544C314.64 166.48 313.883 166.357 313.168 166.176C312.464 165.984 311.84 165.733 311.296 165.424C310.763 165.115 310.341 164.741 310.032 164.304C309.723 163.867 309.568 163.36 309.568 162.784V162.56ZM304.816 162.032H315.216V163.056H304.816V162.032ZM305.056 169.536H314.864V172.704H306.384V174.448H305.088V171.76H313.568V170.528H305.056V169.536ZM305.088 174.064H315.296V175.088H305.088V174.064ZM323.887 165.952H326.671V167.056H323.887V165.952ZM321.199 162.128H322.239V164.896C322.239 165.643 322.159 166.379 321.999 167.104C321.849 167.829 321.625 168.512 321.327 169.152C321.039 169.792 320.687 170.368 320.271 170.88C319.855 171.392 319.385 171.808 318.863 172.128L318.031 171.136C318.521 170.837 318.964 170.464 319.359 170.016C319.753 169.568 320.084 169.067 320.351 168.512C320.628 167.947 320.836 167.36 320.975 166.752C321.124 166.133 321.199 165.515 321.199 164.896V162.128ZM321.455 162.128H322.479V164.848C322.479 165.424 322.543 166.005 322.671 166.592C322.809 167.168 323.001 167.723 323.247 168.256C323.503 168.779 323.817 169.259 324.191 169.696C324.564 170.133 324.985 170.496 325.455 170.784L324.703 171.808C324.18 171.488 323.716 171.083 323.311 170.592C322.905 170.091 322.564 169.531 322.287 168.912C322.009 168.283 321.801 167.621 321.663 166.928C321.524 166.235 321.455 165.541 321.455 164.848V162.128ZM329.215 160.768H330.495V175.248H329.215V160.768ZM326.271 161.072H327.519V174.512H326.271V161.072ZM336.333 161.68C336.973 161.68 337.539 161.824 338.029 162.112C338.52 162.4 338.909 162.805 339.197 163.328C339.485 163.84 339.629 164.432 339.629 165.104C339.629 165.776 339.485 166.368 339.197 166.88C338.909 167.392 338.52 167.792 338.029 168.08C337.539 168.357 336.973 168.496 336.333 168.496C335.693 168.496 335.128 168.357 334.637 168.08C334.147 167.792 333.757 167.392 333.469 166.88C333.192 166.368 333.053 165.776 333.053 165.104C333.053 164.432 333.192 163.84 333.469 163.328C333.757 162.805 334.147 162.4 334.637 162.112C335.128 161.824 335.693 161.68 336.333 161.68ZM336.333 162.816C335.939 162.816 335.581 162.912 335.261 163.104C334.952 163.296 334.707 163.568 334.525 163.92C334.344 164.261 334.253 164.656 334.253 165.104C334.253 165.552 334.344 165.947 334.525 166.288C334.707 166.629 334.952 166.901 335.261 167.104C335.581 167.296 335.939 167.392 336.333 167.392C336.728 167.392 337.08 167.296 337.389 167.104C337.709 166.901 337.96 166.629 338.141 166.288C338.323 165.947 338.413 165.552 338.413 165.104C338.413 164.656 338.323 164.261 338.141 163.92C337.96 163.568 337.709 163.296 337.389 163.104C337.08 162.912 336.728 162.816 336.333 162.816ZM343.837 160.784H345.101V169.392H343.837V160.784ZM341.501 164.496H344.221V165.6H341.501V164.496ZM340.749 161.056H341.997V169.296H340.749V161.056ZM335.405 170.192H345.101V175.248H343.789V171.28H335.405V170.192ZM356.822 164.784H360.022V165.872H356.822V164.784ZM356.71 168.416H359.99V169.504H356.71V168.416ZM362.23 160.768H363.51V175.248H362.23V160.768ZM359.318 161.152H360.582V174.512H359.318V161.152ZM356.102 162.608H357.382C357.382 163.867 357.201 165.077 356.838 166.24C356.476 167.392 355.894 168.469 355.094 169.472C354.305 170.464 353.265 171.349 351.974 172.128L351.19 171.168C352.321 170.485 353.249 169.717 353.974 168.864C354.7 168 355.233 167.067 355.574 166.064C355.926 165.051 356.102 163.979 356.102 162.848V162.608ZM351.83 162.608H356.614V163.696H351.83V162.608ZM369.477 161.648H370.581V163.424C370.581 164.373 370.416 165.248 370.085 166.048C369.754 166.837 369.29 167.525 368.693 168.112C368.096 168.699 367.392 169.147 366.581 169.456L365.861 168.4C366.597 168.144 367.237 167.771 367.781 167.28C368.325 166.779 368.741 166.197 369.029 165.536C369.328 164.875 369.477 164.171 369.477 163.424V161.648ZM369.717 161.648H370.789V163.472C370.789 163.963 370.874 164.443 371.045 164.912C371.226 165.381 371.472 165.824 371.781 166.24C372.101 166.645 372.474 167.003 372.901 167.312C373.338 167.611 373.824 167.856 374.357 168.048L373.685 169.104C372.896 168.805 372.202 168.379 371.605 167.824C371.008 167.269 370.544 166.619 370.213 165.872C369.882 165.125 369.717 164.325 369.717 163.472V161.648ZM375.829 160.768H377.157V171.456H375.829V160.768ZM376.741 165.2H379.285V166.32H376.741V165.2ZM368.165 173.84H377.797V174.928H368.165V173.84ZM368.165 170.432H369.509V174.368H368.165V170.432ZM387.172 161.024C388.772 161.024 390.02 161.243 390.916 161.68C391.812 162.107 392.26 162.72 392.26 163.52C392.26 164.331 391.812 164.955 390.916 165.392C390.02 165.819 388.772 166.032 387.172 166.032C385.582 166.032 384.334 165.819 383.428 165.392C382.532 164.955 382.084 164.331 382.084 163.52C382.084 162.72 382.532 162.107 383.428 161.68C384.334 161.243 385.582 161.024 387.172 161.024ZM387.172 162.016C386.393 162.016 385.726 162.075 385.172 162.192C384.617 162.309 384.19 162.48 383.892 162.704C383.604 162.928 383.46 163.2 383.46 163.52C383.46 163.84 383.604 164.117 383.892 164.352C384.19 164.576 384.617 164.747 385.172 164.864C385.726 164.971 386.393 165.024 387.172 165.024C387.961 165.024 388.633 164.971 389.188 164.864C389.742 164.747 390.164 164.576 390.452 164.352C390.75 164.117 390.9 163.84 390.9 163.52C390.9 163.2 390.75 162.928 390.452 162.704C390.164 162.48 389.742 162.309 389.188 162.192C388.633 162.075 387.961 162.016 387.172 162.016ZM380.644 167.008H393.716V168.08H380.644V167.008ZM382.228 169.312H392.036V172.576H383.556V174.32H382.26V171.6H390.74V170.336H382.228V169.312ZM382.26 174.048H392.468V175.088H382.26V174.048ZM403.661 161.456C404.386 161.456 405.026 161.584 405.581 161.84C406.135 162.085 406.567 162.432 406.877 162.88C407.197 163.317 407.357 163.835 407.357 164.432C407.357 165.008 407.197 165.525 406.877 165.984C406.567 166.432 406.135 166.784 405.581 167.04C405.026 167.285 404.386 167.408 403.661 167.408C402.957 167.408 402.327 167.285 401.773 167.04C401.218 166.784 400.781 166.432 400.461 165.984C400.141 165.525 399.981 165.008 399.981 164.432C399.981 163.835 400.141 163.317 400.461 162.88C400.781 162.432 401.218 162.085 401.773 161.84C402.327 161.584 402.957 161.456 403.661 161.456ZM403.661 162.544C403.202 162.544 402.791 162.624 402.429 162.784C402.066 162.944 401.778 163.168 401.565 163.456C401.362 163.733 401.261 164.059 401.261 164.432C401.261 164.795 401.362 165.12 401.565 165.408C401.778 165.685 402.066 165.904 402.429 166.064C402.791 166.224 403.202 166.304 403.661 166.304C404.141 166.304 404.562 166.224 404.925 166.064C405.287 165.904 405.57 165.685 405.773 165.408C405.986 165.12 406.093 164.795 406.093 164.432C406.093 164.059 405.986 163.733 405.773 163.456C405.57 163.168 405.287 162.944 404.925 162.784C404.562 162.624 404.141 162.544 403.661 162.544ZM403.085 169.024H404.413V174.8H403.085V169.024ZM409.485 160.784H410.797V175.248H409.485V160.784ZM399.085 169.744L398.909 168.624C399.805 168.624 400.786 168.613 401.853 168.592C402.93 168.571 404.034 168.523 405.165 168.448C406.306 168.373 407.399 168.256 408.445 168.096L408.541 169.088C407.463 169.291 406.365 169.44 405.245 169.536C404.125 169.621 403.037 169.675 401.981 169.696C400.935 169.717 399.97 169.733 399.085 169.744ZM413.627 163.248H420.811V164.336H413.627V163.248ZM417.227 165.296C417.835 165.296 418.369 165.435 418.827 165.712C419.297 165.989 419.665 166.379 419.931 166.88C420.198 167.371 420.331 167.941 420.331 168.592C420.331 169.243 420.198 169.819 419.931 170.32C419.665 170.811 419.297 171.2 418.827 171.488C418.369 171.765 417.835 171.904 417.227 171.904C416.63 171.904 416.097 171.765 415.627 171.488C415.158 171.2 414.79 170.811 414.523 170.32C414.257 169.819 414.123 169.243 414.123 168.592C414.123 167.941 414.257 167.371 414.523 166.88C414.79 166.389 415.158 166.005 415.627 165.728C416.097 165.44 416.63 165.296 417.227 165.296ZM417.227 166.416C416.865 166.416 416.534 166.512 416.235 166.704C415.947 166.885 415.718 167.141 415.547 167.472C415.387 167.792 415.307 168.165 415.307 168.592C415.307 169.019 415.387 169.397 415.547 169.728C415.718 170.059 415.947 170.315 416.235 170.496C416.534 170.677 416.865 170.768 417.227 170.768C417.601 170.768 417.931 170.677 418.219 170.496C418.507 170.315 418.731 170.059 418.891 169.728C419.062 169.397 419.147 169.019 419.147 168.592C419.147 168.165 419.062 167.792 418.891 167.472C418.731 167.141 418.507 166.885 418.219 166.704C417.931 166.512 417.601 166.416 417.227 166.416ZM424.635 160.768H425.899V175.248H424.635V160.768ZM422.315 166.864H425.051V167.952H422.315V166.864ZM421.531 161.104H422.779V174.544H421.531V161.104ZM416.571 161.2H417.883V163.904H416.571V161.2ZM437.828 169.968H439.14V175.264H437.828V169.968ZM431.956 169.52H445.028V170.624H431.956V169.52ZM437.828 163.264H438.996V163.632C438.996 164.123 438.895 164.592 438.692 165.04C438.49 165.477 438.207 165.883 437.844 166.256C437.482 166.629 437.055 166.965 436.564 167.264C436.084 167.552 435.562 167.797 434.996 168C434.442 168.192 433.86 168.331 433.252 168.416L432.772 167.36C433.295 167.285 433.802 167.168 434.292 167.008C434.794 166.848 435.252 166.651 435.668 166.416C436.095 166.181 436.468 165.92 436.788 165.632C437.119 165.333 437.375 165.019 437.556 164.688C437.738 164.347 437.828 163.995 437.828 163.632V163.264ZM437.988 163.264H439.156V163.632C439.156 163.984 439.247 164.331 439.428 164.672C439.61 165.003 439.86 165.317 440.18 165.616C440.5 165.904 440.868 166.171 441.284 166.416C441.711 166.651 442.17 166.848 442.66 167.008C443.162 167.168 443.674 167.285 444.196 167.36L443.716 168.416C443.108 168.331 442.522 168.192 441.956 168C441.402 167.797 440.879 167.552 440.388 167.264C439.908 166.965 439.487 166.629 439.124 166.256C438.772 165.883 438.495 165.477 438.292 165.04C438.09 164.592 437.988 164.123 437.988 163.632V163.264ZM433.22 162.56H443.764V163.632H433.22V162.56ZM437.828 160.768H439.14V162.928H437.828V160.768ZM456.467 160.768H457.795V175.232H456.467V160.768ZM457.443 166.64H460.099V167.744H457.443V166.64ZM452.771 162.32H454.067C454.067 163.696 453.843 165.013 453.395 166.272C452.947 167.52 452.243 168.677 451.283 169.744C450.323 170.8 449.059 171.717 447.491 172.496L446.755 171.472C448.099 170.8 449.214 170.016 450.099 169.12C450.995 168.213 451.662 167.211 452.099 166.112C452.547 165.003 452.771 163.808 452.771 162.528V162.32ZM447.427 162.32H453.443V163.424H447.427V162.32ZM468.764 167.568H470.076V169.408H468.764V167.568ZM474.86 160.784H476.188V170.48H474.86V160.784ZM475.628 165.152H478.3V166.256H475.628V165.152ZM465.052 170.064L464.892 168.992C465.756 168.992 466.7 168.987 467.724 168.976C468.759 168.955 469.815 168.912 470.892 168.848C471.969 168.784 473.004 168.683 473.996 168.544L474.092 169.488C473.068 169.669 472.017 169.803 470.94 169.888C469.873 169.963 468.833 170.011 467.82 170.032C466.817 170.053 465.895 170.064 465.052 170.064ZM466.668 171.216H476.188V175.248H474.86V172.272H466.668V171.216ZM465.26 162.08H473.564V163.088H465.26V162.08ZM469.404 163.632C470.428 163.632 471.244 163.824 471.852 164.208C472.471 164.592 472.78 165.115 472.78 165.776C472.78 166.437 472.471 166.96 471.852 167.344C471.244 167.728 470.428 167.92 469.404 167.92C468.391 167.92 467.575 167.728 466.956 167.344C466.337 166.96 466.028 166.437 466.028 165.776C466.028 165.115 466.337 164.592 466.956 164.208C467.575 163.824 468.391 163.632 469.404 163.632ZM469.404 164.56C468.764 164.56 468.252 164.667 467.868 164.88C467.484 165.093 467.292 165.392 467.292 165.776C467.292 166.139 467.484 166.437 467.868 166.672C468.252 166.896 468.764 167.008 469.404 167.008C470.044 167.008 470.556 166.896 470.94 166.672C471.324 166.437 471.516 166.139 471.516 165.776C471.516 165.392 471.324 165.093 470.94 164.88C470.556 164.667 470.044 164.56 469.404 164.56ZM468.764 160.656H470.076V162.576H468.764V160.656ZM490.219 160.784H491.547V171.344H490.219V160.784ZM482.251 173.84H491.995V174.928H482.251V173.84ZM482.251 170.272H483.579V174.208H482.251V170.272ZM483.787 161.792C484.512 161.792 485.157 161.941 485.723 162.24C486.288 162.539 486.736 162.96 487.067 163.504C487.397 164.037 487.563 164.651 487.563 165.344C487.563 166.037 487.397 166.656 487.067 167.2C486.736 167.733 486.288 168.155 485.723 168.464C485.157 168.763 484.512 168.912 483.787 168.912C483.072 168.912 482.427 168.763 481.851 168.464C481.285 168.155 480.837 167.733 480.507 167.2C480.176 166.656 480.011 166.037 480.011 165.344C480.011 164.651 480.176 164.037 480.507 163.504C480.837 162.96 481.285 162.539 481.851 162.24C482.427 161.941 483.072 161.792 483.787 161.792ZM483.787 162.944C483.317 162.944 482.896 163.045 482.523 163.248C482.149 163.451 481.851 163.733 481.627 164.096C481.413 164.459 481.307 164.875 481.307 165.344C481.307 165.824 481.413 166.245 481.627 166.608C481.851 166.96 482.149 167.237 482.523 167.44C482.896 167.643 483.317 167.744 483.787 167.744C484.256 167.744 484.677 167.643 485.051 167.44C485.435 167.237 485.733 166.96 485.947 166.608C486.16 166.245 486.267 165.824 486.267 165.344C486.267 164.875 486.16 164.459 485.947 164.096C485.733 163.733 485.435 163.451 485.051 163.248C484.677 163.045 484.256 162.944 483.787 162.944ZM504.921 160.768H506.249V175.264H504.921V160.768ZM498.617 161.888C499.332 161.888 499.961 162.096 500.505 162.512C501.06 162.917 501.492 163.499 501.801 164.256C502.121 165.013 502.281 165.904 502.281 166.928C502.281 167.952 502.121 168.843 501.801 169.6C501.492 170.357 501.06 170.944 500.505 171.36C499.961 171.776 499.332 171.984 498.617 171.984C497.903 171.984 497.268 171.776 496.713 171.36C496.159 170.944 495.721 170.357 495.401 169.6C495.092 168.843 494.937 167.952 494.937 166.928C494.937 165.904 495.092 165.013 495.401 164.256C495.721 163.499 496.159 162.917 496.713 162.512C497.268 162.096 497.903 161.888 498.617 161.888ZM498.617 163.072C498.137 163.072 497.716 163.232 497.353 163.552C497.001 163.861 496.724 164.309 496.521 164.896C496.319 165.472 496.217 166.149 496.217 166.928C496.217 167.707 496.319 168.389 496.521 168.976C496.724 169.552 497.001 170 497.353 170.32C497.716 170.64 498.137 170.8 498.617 170.8C499.087 170.8 499.497 170.64 499.849 170.32C500.212 170 500.495 169.552 500.697 168.976C500.9 168.389 501.001 167.707 501.001 166.928C501.001 166.149 500.9 165.472 500.697 164.896C500.495 164.309 500.212 163.861 499.849 163.552C499.497 163.232 499.087 163.072 498.617 163.072ZM75.344 184.768H76.672V192.272H75.344V184.768ZM67.248 192.976H76.672V196.448H68.592V198.624H67.28V195.472H75.36V194.032H67.248V192.976ZM67.28 198.016H77.2V199.088H67.28V198.016ZM65.44 185.76H73.216V186.8H65.44V185.76ZM65.2 191.776L65.04 190.688C65.904 190.677 66.8427 190.661 67.856 190.64C68.8693 190.619 69.8933 190.581 70.928 190.528C71.9733 190.464 72.9653 190.379 73.904 190.272L73.968 191.232C73.0187 191.381 72.0267 191.493 70.992 191.568C69.9573 191.643 68.944 191.696 67.952 191.728C66.9707 191.76 66.0533 191.776 65.2 191.776ZM66.864 186.24H68.144V191.152H66.864V186.24ZM70.496 186.24H71.792V191.152H70.496V186.24ZM82.7348 192.224H84.0468V196.544H82.7348V192.224ZM88.0788 192.224H89.4068V196.544H88.0788V192.224ZM79.5188 196.288H92.6388V197.392H79.5188V196.288ZM86.0468 185.68C87.0708 185.68 87.9774 185.835 88.7668 186.144C89.5561 186.453 90.1748 186.885 90.6228 187.44C91.0814 187.995 91.3108 188.651 91.3108 189.408C91.3108 190.155 91.0814 190.811 90.6228 191.376C90.1748 191.931 89.5561 192.363 88.7668 192.672C87.9774 192.971 87.0708 193.12 86.0468 193.12C85.0334 193.12 84.1268 192.971 83.3268 192.672C82.5374 192.363 81.9188 191.931 81.4708 191.376C81.0228 190.811 80.7988 190.155 80.7988 189.408C80.7988 188.651 81.0228 187.995 81.4708 187.44C81.9188 186.885 82.5374 186.453 83.3268 186.144C84.1268 185.835 85.0334 185.68 86.0468 185.68ZM86.0468 186.736C85.2788 186.736 84.5961 186.848 83.9988 187.072C83.4014 187.296 82.9321 187.611 82.5908 188.016C82.2494 188.411 82.0788 188.875 82.0788 189.408C82.0788 189.941 82.2494 190.411 82.5908 190.816C82.9321 191.211 83.4014 191.52 83.9988 191.744C84.5961 191.968 85.2788 192.08 86.0468 192.08C86.8254 192.08 87.5134 191.968 88.1108 191.744C88.7081 191.52 89.1774 191.211 89.5188 190.816C89.8601 190.411 90.0308 189.941 90.0308 189.408C90.0308 188.875 89.8601 188.411 89.5188 188.016C89.1774 187.611 88.7081 187.296 88.1108 187.072C87.5134 186.848 86.8254 186.736 86.0468 186.736ZM104.142 184.768H105.47V193.184H104.142V184.768ZM104.894 188.464H107.598V189.584H104.894V188.464ZM96.3655 193.824H97.6775V195.344H104.142V193.824H105.47V199.056H96.3655V193.824ZM97.6775 196.384V197.984H104.142V196.384H97.6775ZM94.2695 186.256H102.814V187.328H94.2695V186.256ZM98.5415 188C99.2348 188 99.8375 188.107 100.35 188.32C100.872 188.523 101.278 188.816 101.566 189.2C101.854 189.573 101.998 190.016 101.998 190.528C101.998 191.04 101.854 191.488 101.566 191.872C101.278 192.256 100.872 192.555 100.35 192.768C99.8375 192.971 99.2348 193.072 98.5415 193.072C97.8482 193.072 97.2402 192.971 96.7175 192.768C96.2055 192.555 95.8002 192.256 95.5015 191.872C95.2135 191.488 95.0695 191.04 95.0695 190.528C95.0695 190.016 95.2135 189.573 95.5015 189.2C95.8002 188.816 96.2055 188.523 96.7175 188.32C97.2402 188.107 97.8482 188 98.5415 188ZM98.5415 189.008C97.8802 189.008 97.3468 189.147 96.9415 189.424C96.5468 189.701 96.3495 190.069 96.3495 190.528C96.3495 190.997 96.5468 191.371 96.9415 191.648C97.3468 191.925 97.8802 192.064 98.5415 192.064C99.1922 192.064 99.7202 191.925 100.126 191.648C100.531 191.371 100.734 190.997 100.734 190.528C100.734 190.069 100.531 189.701 100.126 189.424C99.7308 189.147 99.2028 189.008 98.5415 189.008ZM97.8855 184.64H99.2135V186.832H97.8855V184.64ZM119.484 184.768H120.796V199.248H119.484V184.768ZM109.868 186.192H111.18V195.152H109.868V186.192ZM109.868 194.368H111.052C112.162 194.368 113.287 194.32 114.428 194.224C115.58 194.117 116.764 193.941 117.98 193.696L118.156 194.816C116.898 195.083 115.687 195.269 114.524 195.376C113.362 195.472 112.204 195.52 111.052 195.52H109.868V194.368ZM133.467 184.768H134.795V199.264H133.467V184.768ZM134.491 190.48H137.163V191.584H134.491V190.48ZM124.299 194.528H125.435C126.32 194.528 127.131 194.517 127.867 194.496C128.614 194.464 129.328 194.411 130.011 194.336C130.704 194.261 131.408 194.16 132.123 194.032L132.283 195.168C131.536 195.296 130.811 195.397 130.107 195.472C129.414 195.547 128.688 195.595 127.931 195.616C127.174 195.637 126.342 195.648 125.435 195.648H124.299V194.528ZM124.299 186.176H131.003V187.264H125.611V195.04H124.299V186.176ZM139.818 198.208C139.53 198.208 139.279 198.107 139.066 197.904C138.863 197.691 138.762 197.424 138.762 197.104C138.762 196.763 138.863 196.491 139.066 196.288C139.279 196.085 139.53 195.984 139.818 195.984C140.106 195.984 140.351 196.085 140.554 196.288C140.767 196.491 140.874 196.763 140.874 197.104C140.874 197.424 140.767 197.691 140.554 197.904C140.351 198.107 140.106 198.208 139.818 198.208Z" fill="black"/>
<g clip-path="url(#clip2_259_690)">
<path d="M39 248.667V251M41.4499 252.05L43.1416 250.359M42.5 254.5H44.8333M41.4499 256.95L43.1416 258.642M39 258V260.334M34.8583 258.642L36.55 256.95M33.1666 254.5H35.5M34.8583 250.359L36.55 252.05" stroke="url(#paint0_linear_259_690)" stroke-width="1.5" stroke-linecap="round" stroke-linejoin="round"/>
</g>
<path d="M59.366 248.422H60.528V255.17H59.366V248.422ZM60.206 251.39H62.39V252.356H60.206V251.39ZM51.288 253.784H52.268C53.136 253.784 53.8967 253.775 54.55 253.756C55.2033 253.737 55.8053 253.695 56.356 253.63C56.9067 253.565 57.462 253.476 58.022 253.364L58.162 254.316C57.574 254.428 56.9953 254.517 56.426 254.582C55.866 254.647 55.2547 254.694 54.592 254.722C53.9293 254.741 53.1547 254.75 52.268 254.75H51.288V253.784ZM51.288 249.262H56.846V250.2H52.436V254.442H51.288V249.262ZM52.548 255.856H53.696V257.41H59.366V255.856H60.528V260.882H52.548V255.856ZM53.696 258.348V259.93H59.366V258.348H53.696ZM69.6269 250.746H73.2669V251.698H69.6269V250.746ZM69.6269 253.476H73.2949V254.428H69.6269V253.476ZM72.8329 248.436H73.9949V257.802H72.8329V248.436ZM65.8609 259.86H74.2889V260.812H65.8609V259.86ZM65.8609 256.892H67.0229V260.336H65.8609V256.892ZM64.1949 249.276H65.3569V251.502H68.7729V249.276H69.9209V255.646H64.1949V249.276ZM65.3569 252.412V254.708H68.7729V252.412H65.3569ZM84.5587 249.626H85.5807V250.004C85.5807 250.536 85.45 251.026 85.1887 251.474C84.9273 251.922 84.568 252.323 84.1107 252.678C83.6627 253.023 83.1447 253.313 82.5567 253.546C81.978 253.77 81.362 253.929 80.7087 254.022L80.2747 253.098C80.7227 253.033 81.1567 252.935 81.5767 252.804C82.006 252.673 82.398 252.515 82.7527 252.328C83.1073 252.132 83.42 251.913 83.6907 251.67C83.9613 251.427 84.1713 251.166 84.3207 250.886C84.4793 250.606 84.5587 250.312 84.5587 250.004V249.626ZM85.0347 249.626H86.0567V250.004C86.0567 250.303 86.1313 250.592 86.2807 250.872C86.4393 251.152 86.654 251.418 86.9247 251.67C87.1953 251.913 87.508 252.132 87.8627 252.328C88.2267 252.515 88.6187 252.673 89.0387 252.804C89.4587 252.935 89.8927 253.033 90.3407 253.098L89.9067 254.022C89.2627 253.929 88.6467 253.77 88.0587 253.546C87.4707 253.313 86.9527 253.023 86.5047 252.678C86.0567 252.323 85.6973 251.922 85.4267 251.474C85.1653 251.026 85.0347 250.536 85.0347 250.004V249.626ZM80.6387 249.052H89.9907V249.99H80.6387V249.052ZM79.5747 254.932H91.0547V255.884H79.5747V254.932ZM84.8107 255.534H85.9727V258.446H84.8107V255.534ZM81.0307 259.86H89.7807V260.812H81.0307V259.86ZM81.0307 257.214H82.1927V260.21H81.0307V257.214ZM101.666 248.422H102.828V261.106H101.666V248.422ZM93.1816 249.5H94.3436V252.832H97.9976V249.5H99.1456V258.054H93.1816V249.5ZM94.3436 253.756V257.088H97.9976V253.756H94.3436ZM113.615 254.75H114.763V256.962H113.615V254.75ZM108.477 254.344H119.915V255.296H108.477V254.344ZM114.189 256.612C115.543 256.612 116.602 256.803 117.367 257.186C118.133 257.569 118.515 258.119 118.515 258.838C118.515 259.547 118.133 260.093 117.367 260.476C116.602 260.868 115.543 261.064 114.189 261.064C112.836 261.064 111.772 260.868 110.997 260.476C110.232 260.093 109.849 259.547 109.849 258.838C109.849 258.119 110.232 257.569 110.997 257.186C111.772 256.803 112.836 256.612 114.189 256.612ZM114.189 257.522C113.527 257.522 112.957 257.573 112.481 257.676C112.015 257.779 111.655 257.928 111.403 258.124C111.151 258.32 111.025 258.558 111.025 258.838C111.025 259.118 111.151 259.356 111.403 259.552C111.655 259.748 112.015 259.897 112.481 260C112.957 260.112 113.527 260.168 114.189 260.168C114.852 260.168 115.417 260.112 115.883 260C116.359 259.897 116.723 259.748 116.975 259.552C117.227 259.356 117.353 259.118 117.353 258.838C117.353 258.558 117.227 258.32 116.975 258.124C116.723 257.928 116.359 257.779 115.883 257.676C115.417 257.573 114.852 257.522 114.189 257.522ZM113.447 249.472H114.469V249.85C114.469 250.261 114.381 250.639 114.203 250.984C114.035 251.329 113.797 251.651 113.489 251.95C113.181 252.239 112.817 252.496 112.397 252.72C111.987 252.944 111.539 253.131 111.053 253.28C110.568 253.42 110.059 253.523 109.527 253.588L109.107 252.664C109.565 252.617 110.003 252.538 110.423 252.426C110.853 252.305 111.249 252.16 111.613 251.992C111.987 251.815 112.309 251.614 112.579 251.39C112.85 251.166 113.06 250.923 113.209 250.662C113.368 250.401 113.447 250.13 113.447 249.85V249.472ZM113.923 249.472H114.945V249.85C114.945 250.139 115.02 250.415 115.169 250.676C115.328 250.928 115.543 251.166 115.813 251.39C116.084 251.605 116.401 251.801 116.765 251.978C117.139 252.146 117.535 252.291 117.955 252.412C118.385 252.533 118.828 252.617 119.285 252.664L118.865 253.588C118.333 253.523 117.825 253.42 117.339 253.28C116.854 253.131 116.401 252.944 115.981 252.72C115.571 252.496 115.211 252.239 114.903 251.95C114.595 251.661 114.353 251.339 114.175 250.984C114.007 250.629 113.923 250.251 113.923 249.85V249.472ZM109.527 249.01H118.879V249.948H109.527V249.01ZM122.602 260.182C122.35 260.182 122.131 260.093 121.944 259.916C121.767 259.729 121.678 259.496 121.678 259.216C121.678 258.917 121.767 258.679 121.944 258.502C122.131 258.325 122.35 258.236 122.602 258.236C122.854 258.236 123.069 258.325 123.246 258.502C123.433 258.679 123.526 258.917 123.526 259.216C123.526 259.496 123.433 259.729 123.246 259.916C123.069 260.093 122.854 260.182 122.602 260.182ZM126.499 260.182C126.247 260.182 126.027 260.093 125.841 259.916C125.663 259.729 125.575 259.496 125.575 259.216C125.575 258.917 125.663 258.679 125.841 258.502C126.027 258.325 126.247 258.236 126.499 258.236C126.751 258.236 126.965 258.325 127.143 258.502C127.329 258.679 127.423 258.917 127.423 259.216C127.423 259.496 127.329 259.729 127.143 259.916C126.965 260.093 126.751 260.182 126.499 260.182ZM130.395 260.182C130.143 260.182 129.924 260.093 129.737 259.916C129.56 259.729 129.471 259.496 129.471 259.216C129.471 258.917 129.56 258.679 129.737 258.502C129.924 258.325 130.143 258.236 130.395 258.236C130.647 258.236 130.862 258.325 131.039 258.502C131.226 258.679 131.319 258.917 131.319 259.216C131.319 259.496 131.226 259.729 131.039 259.916C130.862 260.093 130.647 260.182 130.395 260.182Z" fill="#8B91A0"/>
<defs>
<linearGradient id="paint0_linear_259_690" x1="33.2439" y1="248.667" x2="44.7561" y2="260.334" gradientUnits="userSpaceOnUse">
<stop stop-color="#FD5108"/>
<stop offset="1" stop-color="#FFCDA8"/>
</linearGradient>
<clipPath id="clip0_259_690">
<rect x="72" y="36" width="504" height="80" rx="12" fill="white"/>
</clipPath>
<clipPath id="clip1_259_690">
<rect width="16" height="16" fill="white" transform="translate(40 160)"/>
</clipPath>
<clipPath id="clip2_259_690">
<rect width="14" height="14" fill="white" transform="translate(32 247.5)"/>
</clipPath>
</defs>
</svg>
