<svg width="600" height="480" viewBox="0 0 600 480" fill="none" xmlns="http://www.w3.org/2000/svg">
<rect width="600" height="480" rx="24" fill="white"/>
<rect x="24" y="36" width="32" height="32" rx="16" fill="#FD5108"/>
<path d="M44.6667 58V56.6667C44.6667 55.9594 44.3858 55.2811 43.8857 54.781C43.3856 54.281 42.7073 54 42 54H38C37.2928 54 36.6145 54.281 36.1144 54.781C35.6143 55.2811 35.3334 55.9594 35.3334 56.6667V58M42.6667 48.6667C42.6667 50.1394 41.4728 51.3333 40 51.3333C38.5273 51.3333 37.3334 50.1394 37.3334 48.6667C37.3334 47.1939 38.5273 46 40 46C41.4728 46 42.6667 47.1939 42.6667 48.6667Z" stroke="white" stroke-width="1.5" stroke-linecap="round" stroke-linejoin="round"/>
<rect x="72" y="36" width="504" height="80" rx="12" fill="#EEEFF1"/>
<path d="M94.672 64H95.984V66.528H94.672V64ZM88.8 63.536H101.872V64.624H88.8V63.536ZM95.328 66.128C96.8747 66.128 98.0853 66.3467 98.96 66.784C99.8347 67.2213 100.272 67.8507 100.272 68.672C100.272 69.4827 99.8347 70.1067 98.96 70.544C98.0853 70.992 96.8747 71.216 95.328 71.216C93.7813 71.216 92.5653 70.992 91.68 70.544C90.8053 70.1067 90.368 69.4827 90.368 68.672C90.368 67.8507 90.8053 67.2213 91.68 66.784C92.5653 66.3467 93.7813 66.128 95.328 66.128ZM95.328 67.168C94.5707 67.168 93.92 67.2267 93.376 67.344C92.8427 67.4613 92.432 67.632 92.144 67.856C91.856 68.08 91.712 68.352 91.712 68.672C91.712 68.992 91.856 69.264 92.144 69.488C92.432 69.712 92.8427 69.8827 93.376 70C93.92 70.128 94.5707 70.192 95.328 70.192C96.0853 70.192 96.7307 70.128 97.264 70C97.808 69.8827 98.224 69.712 98.512 69.488C98.8 69.264 98.944 68.992 98.944 68.672C98.944 68.352 98.8 68.08 98.512 67.856C98.224 67.632 97.808 67.4613 97.264 67.344C96.7307 67.2267 96.0853 67.168 95.328 67.168ZM94.48 57.968H95.648V58.4C95.648 58.8693 95.5467 59.3013 95.344 59.696C95.152 60.0907 94.88 60.4587 94.528 60.8C94.176 61.1307 93.76 61.424 93.28 61.68C92.8107 61.936 92.2987 62.1493 91.744 62.32C91.1893 62.48 90.608 62.5973 90 62.672L89.52 61.616C90.0427 61.5627 90.544 61.472 91.024 61.344C91.5147 61.2053 91.968 61.04 92.384 60.848C92.8107 60.6453 93.1787 60.416 93.488 60.16C93.7973 59.904 94.0373 59.6267 94.208 59.328C94.3893 59.0293 94.48 58.72 94.48 58.4V57.968ZM95.024 57.968H96.192V58.4C96.192 58.7307 96.2773 59.0453 96.448 59.344C96.6293 59.632 96.8747 59.904 97.184 60.16C97.4933 60.4053 97.856 60.6293 98.272 60.832C98.6987 61.024 99.152 61.1893 99.632 61.328C100.123 61.4667 100.629 61.5627 101.152 61.616L100.672 62.672C100.064 62.5973 99.4827 62.48 98.928 62.32C98.3733 62.1493 97.856 61.936 97.376 61.68C96.9067 61.424 96.496 61.1307 96.144 60.8C95.792 60.4693 95.5147 60.1013 95.312 59.696C95.12 59.2907 95.024 58.8587 95.024 58.4V57.968ZM90 57.44H100.688V58.512H90V57.44ZM103.519 68.256H116.639V69.376H103.519V68.256ZM109.359 64.752H110.671V68.624H109.359V64.752ZM109.311 57.728H110.479V58.848C110.479 59.4773 110.367 60.0693 110.143 60.624C109.929 61.168 109.631 61.68 109.247 62.16C108.863 62.6293 108.42 63.0507 107.919 63.424C107.428 63.7973 106.9 64.112 106.335 64.368C105.769 64.624 105.193 64.8107 104.607 64.928L104.031 63.824C104.543 63.7387 105.049 63.5893 105.551 63.376C106.063 63.152 106.543 62.8853 106.991 62.576C107.439 62.256 107.839 61.904 108.191 61.52C108.543 61.1253 108.815 60.704 109.007 60.256C109.209 59.7973 109.311 59.328 109.311 58.848V57.728ZM109.551 57.728H110.703V58.848C110.703 59.3387 110.804 59.808 111.007 60.256C111.209 60.704 111.487 61.1253 111.839 61.52C112.191 61.904 112.591 62.256 113.039 62.576C113.497 62.896 113.977 63.1627 114.479 63.376C114.991 63.5893 115.503 63.7387 116.015 63.824L115.439 64.928C114.852 64.8107 114.276 64.624 113.711 64.368C113.145 64.112 112.612 63.7973 112.111 63.424C111.609 63.0507 111.167 62.6293 110.783 62.16C110.399 61.68 110.095 61.1627 109.871 60.608C109.657 60.0533 109.551 59.4667 109.551 58.848V57.728ZM128.782 56.768H130.11V71.248H128.782V56.768ZM124.542 58.336H125.854C125.854 59.3813 125.726 60.3893 125.47 61.36C125.224 62.3307 124.835 63.2533 124.302 64.128C123.768 64.992 123.075 65.7973 122.222 66.544C121.368 67.2907 120.334 67.9573 119.118 68.544L118.414 67.472C119.811 66.8 120.963 66.016 121.87 65.12C122.776 64.224 123.448 63.2267 123.886 62.128C124.323 61.0187 124.542 59.824 124.542 58.544V58.336ZM119.086 58.336H125.102V59.408H119.086V58.336ZM140.22 60.224H144.108V61.312H140.22V60.224ZM136.908 57.44C137.623 57.44 138.258 57.584 138.812 57.872C139.378 58.1493 139.82 58.5387 140.14 59.04C140.46 59.5413 140.62 60.1227 140.62 60.784C140.62 61.4453 140.46 62.032 140.14 62.544C139.82 63.0453 139.378 63.44 138.812 63.728C138.258 64.0053 137.623 64.144 136.908 64.144C136.183 64.144 135.538 64.0053 134.972 63.728C134.418 63.44 133.98 63.0453 133.66 62.544C133.34 62.032 133.18 61.4453 133.18 60.784C133.18 60.1227 133.34 59.5413 133.66 59.04C133.98 58.5387 134.418 58.1493 134.972 57.872C135.538 57.584 136.183 57.44 136.908 57.44ZM136.908 58.56C136.428 58.56 136.002 58.656 135.628 58.848C135.266 59.0293 134.978 59.2907 134.764 59.632C134.551 59.9627 134.444 60.3467 134.444 60.784C134.444 61.2213 134.551 61.6107 134.764 61.952C134.978 62.2827 135.266 62.544 135.628 62.736C136.002 62.928 136.428 63.024 136.908 63.024C137.378 63.024 137.794 62.928 138.156 62.736C138.53 62.544 138.823 62.2827 139.036 61.952C139.25 61.6107 139.356 61.2213 139.356 60.784C139.356 60.3467 139.25 59.9627 139.036 59.632C138.823 59.2907 138.53 59.0293 138.156 58.848C137.794 58.656 137.378 58.56 136.908 58.56ZM143.532 56.768H144.86V64.544H143.532V56.768ZM135.596 65.264H136.908V67.072H143.532V65.264H144.86V71.056H135.596V65.264ZM136.908 68.128V69.968H143.532V68.128H136.908ZM158.203 56.784H159.531V67.344H158.203V56.784ZM150.235 69.84H159.979V70.928H150.235V69.84ZM150.235 66.272H151.563V70.208H150.235V66.272ZM151.771 57.792C152.496 57.792 153.142 57.9413 153.707 58.24C154.272 58.5387 154.72 58.96 155.051 59.504C155.382 60.0373 155.547 60.6507 155.547 61.344C155.547 62.0373 155.382 62.656 155.051 63.2C154.72 63.7333 154.272 64.1547 153.707 64.464C153.142 64.7627 152.496 64.912 151.771 64.912C151.056 64.912 150.411 64.7627 149.835 64.464C149.27 64.1547 148.822 63.7333 148.491 63.2C148.16 62.656 147.995 62.0373 147.995 61.344C147.995 60.6507 148.16 60.0373 148.491 59.504C148.822 58.96 149.27 58.5387 149.835 58.24C150.411 57.9413 151.056 57.792 151.771 57.792ZM151.771 58.944C151.302 58.944 150.88 59.0453 150.507 59.248C150.134 59.4507 149.835 59.7333 149.611 60.096C149.398 60.4587 149.291 60.8747 149.291 61.344C149.291 61.824 149.398 62.2453 149.611 62.608C149.835 62.96 150.134 63.2373 150.507 63.44C150.88 63.6427 151.302 63.744 151.771 63.744C152.24 63.744 152.662 63.6427 153.035 63.44C153.419 63.2373 153.718 62.96 153.931 62.608C154.144 62.2453 154.251 61.824 154.251 61.344C154.251 60.8747 154.144 60.4587 153.931 60.096C153.718 59.7333 153.419 59.4507 153.035 59.248C152.662 59.0453 152.24 58.944 151.771 58.944ZM169.492 57.52H170.58V58.992C170.58 59.92 170.415 60.784 170.084 61.584C169.764 62.384 169.305 63.0827 168.708 63.68C168.111 64.2667 167.412 64.7147 166.612 65.024L165.892 63.968C166.628 63.7013 167.263 63.3173 167.796 62.816C168.34 62.3147 168.756 61.7387 169.044 61.088C169.343 60.4267 169.492 59.728 169.492 58.992V57.52ZM169.732 57.52H170.804V59.104C170.804 59.584 170.889 60.0587 171.06 60.528C171.231 60.9867 171.471 61.4133 171.78 61.808C172.1 62.2027 172.473 62.5547 172.9 62.864C173.327 63.1627 173.801 63.4027 174.324 63.584L173.62 64.624C172.852 64.336 172.175 63.92 171.588 63.376C171.001 62.8213 170.543 62.1813 170.212 61.456C169.892 60.72 169.732 59.936 169.732 59.104V57.52ZM175.876 56.768H177.204V65.552H175.876V56.768ZM176.836 60.512H179.332V61.632H176.836V60.512ZM172.596 65.936C173.577 65.936 174.42 66.0427 175.124 66.256C175.839 66.4587 176.388 66.7573 176.772 67.152C177.156 67.5467 177.348 68.0213 177.348 68.576C177.348 69.1307 177.156 69.6053 176.772 70C176.388 70.3947 175.839 70.6933 175.124 70.896C174.42 71.1093 173.577 71.216 172.596 71.216C171.615 71.216 170.767 71.1093 170.052 70.896C169.337 70.6933 168.788 70.3947 168.404 70C168.02 69.6053 167.828 69.1307 167.828 68.576C167.828 68.0213 168.02 67.5467 168.404 67.152C168.788 66.7573 169.337 66.4587 170.052 66.256C170.767 66.0427 171.615 65.936 172.596 65.936ZM172.596 66.992C171.881 66.992 171.263 67.056 170.74 67.184C170.228 67.312 169.833 67.4933 169.556 67.728C169.279 67.9627 169.14 68.2453 169.14 68.576C169.14 68.9173 169.279 69.2053 169.556 69.44C169.833 69.6747 170.228 69.856 170.74 69.984C171.263 70.1013 171.881 70.16 172.596 70.16C173.311 70.16 173.924 70.1013 174.436 69.984C174.948 69.856 175.343 69.6747 175.62 69.44C175.897 69.2053 176.036 68.9173 176.036 68.576C176.036 68.2453 175.897 67.9627 175.62 67.728C175.343 67.4933 174.948 67.312 174.436 67.184C173.924 67.056 173.311 66.992 172.596 66.992ZM184.259 58.32H185.347V59.488C185.347 60.384 185.176 61.2107 184.835 61.968C184.504 62.7253 184.035 63.3867 183.427 63.952C182.829 64.5173 182.12 64.9493 181.299 65.248L180.627 64.192C181.352 63.936 181.987 63.5733 182.531 63.104C183.075 62.624 183.496 62.0747 183.795 61.456C184.104 60.8373 184.259 60.1813 184.259 59.488V58.32ZM184.499 58.32H185.587V59.488C185.587 60.1173 185.731 60.7147 186.019 61.28C186.307 61.8453 186.712 62.3413 187.235 62.768C187.757 63.1947 188.371 63.5307 189.075 63.776L188.451 64.816C187.64 64.5387 186.941 64.1387 186.355 63.616C185.768 63.0933 185.309 62.48 184.979 61.776C184.659 61.0613 184.499 60.2987 184.499 59.488V58.32ZM181.027 57.84H188.771V58.928H181.027V57.84ZM190.595 56.768H191.923V65.488H190.595V56.768ZM191.555 60.448H194.051V61.552H191.555V60.448ZM187.315 65.888C188.296 65.888 189.139 65.9947 189.843 66.208C190.557 66.4107 191.107 66.7093 191.491 67.104C191.875 67.4987 192.067 67.9787 192.067 68.544C192.067 69.1093 191.875 69.5893 191.491 69.984C191.107 70.3787 190.557 70.6827 189.843 70.896C189.139 71.1093 188.296 71.216 187.315 71.216C186.333 71.216 185.485 71.1093 184.771 70.896C184.056 70.6827 183.507 70.3787 183.123 69.984C182.739 69.5893 182.547 69.1093 182.547 68.544C182.547 67.9787 182.739 67.4987 183.123 67.104C183.507 66.7093 184.056 66.4107 184.771 66.208C185.485 65.9947 186.333 65.888 187.315 65.888ZM187.315 66.944C186.6 66.944 185.981 67.008 185.459 67.136C184.947 67.264 184.552 67.4453 184.275 67.68C183.997 67.9147 183.859 68.2027 183.859 68.544C183.859 68.8853 183.997 69.1787 184.275 69.424C184.552 69.6587 184.947 69.84 185.459 69.968C185.981 70.096 186.6 70.16 187.315 70.16C188.029 70.16 188.643 70.096 189.155 69.968C189.667 69.84 190.061 69.6587 190.339 69.424C190.616 69.1787 190.755 68.8853 190.755 68.544C190.755 68.2027 190.616 67.9147 190.339 67.68C190.061 67.4453 189.667 67.264 189.155 67.136C188.643 67.008 188.029 66.944 187.315 66.944ZM199.537 65.456H200.865V67.84H199.537V65.456ZM205.873 56.768H207.201V71.248H205.873V56.768ZM195.681 68.496L195.489 67.376C196.407 67.3653 197.399 67.3547 198.465 67.344C199.532 67.3333 200.62 67.296 201.729 67.232C202.839 67.168 203.911 67.0667 204.945 66.928L205.041 67.92C203.975 68.0907 202.892 68.2187 201.793 68.304C200.695 68.3787 199.623 68.432 198.577 68.464C197.532 68.4853 196.567 68.496 195.681 68.496ZM195.793 58.544H204.577V59.616H195.793V58.544ZM200.177 60.432C200.871 60.432 201.479 60.544 202.001 60.768C202.524 60.992 202.929 61.3067 203.217 61.712C203.516 62.1067 203.665 62.576 203.665 63.12C203.665 63.6533 203.516 64.1227 203.217 64.528C202.929 64.9333 202.524 65.248 202.001 65.472C201.479 65.6853 200.871 65.792 200.177 65.792C199.495 65.792 198.892 65.6853 198.369 65.472C197.847 65.248 197.441 64.9333 197.153 64.528C196.865 64.1227 196.721 63.6533 196.721 63.12C196.721 62.576 196.865 62.1067 197.153 61.712C197.441 61.3067 197.847 60.992 198.369 60.768C198.892 60.544 199.495 60.432 200.177 60.432ZM200.177 61.472C199.537 61.472 199.009 61.6213 198.593 61.92C198.177 62.2187 197.969 62.6187 197.969 63.12C197.969 63.6107 198.177 64.0053 198.593 64.304C199.009 64.6027 199.537 64.752 200.177 64.752C200.839 64.752 201.372 64.6027 201.777 64.304C202.193 64.0053 202.401 63.6107 202.401 63.12C202.401 62.6187 202.193 62.2187 201.777 61.92C201.372 61.6213 200.839 61.472 200.177 61.472ZM199.537 56.784H200.865V59.12H199.537V56.784ZM213.664 58.016H214.752V60.608C214.752 61.408 214.651 62.192 214.448 62.96C214.256 63.728 213.979 64.448 213.616 65.12C213.253 65.792 212.827 66.3893 212.336 66.912C211.845 67.4347 211.312 67.8507 210.736 68.16L209.92 67.088C210.453 66.8213 210.944 66.464 211.392 66.016C211.851 65.5573 212.251 65.0347 212.592 64.448C212.933 63.8613 213.195 63.2427 213.376 62.592C213.568 61.9307 213.664 61.2693 213.664 60.608V58.016ZM213.904 58.016H214.976V60.608C214.976 61.248 215.067 61.8827 215.248 62.512C215.44 63.1413 215.707 63.7333 216.048 64.288C216.389 64.8427 216.779 65.3387 217.216 65.776C217.664 66.2133 218.144 66.56 218.656 66.816L217.84 67.872C217.275 67.584 216.752 67.1893 216.272 66.688C215.803 66.1867 215.387 65.616 215.024 64.976C214.672 64.3253 214.395 63.632 214.192 62.896C214 62.1493 213.904 61.3867 213.904 60.608V58.016ZM219.92 56.768H221.248V71.248H219.92V56.768ZM220.944 62.624H223.616V63.76H220.944V62.624ZM229.535 57.824C230.292 57.824 230.959 57.968 231.535 58.256C232.122 58.5333 232.58 58.928 232.911 59.44C233.242 59.952 233.407 60.5493 233.407 61.232C233.407 61.904 233.242 62.5013 232.911 63.024C232.58 63.536 232.122 63.936 231.535 64.224C230.959 64.5013 230.292 64.64 229.535 64.64C228.788 64.64 228.122 64.5013 227.535 64.224C226.948 63.936 226.484 63.536 226.143 63.024C225.812 62.5013 225.647 61.904 225.647 61.232C225.647 60.5493 225.812 59.952 226.143 59.44C226.484 58.928 226.948 58.5333 227.535 58.256C228.122 57.968 228.788 57.824 229.535 57.824ZM229.535 58.976C229.044 58.976 228.602 59.072 228.207 59.264C227.823 59.4453 227.519 59.7067 227.295 60.048C227.071 60.3893 226.959 60.784 226.959 61.232C226.959 61.68 227.071 62.0747 227.295 62.416C227.519 62.7573 227.823 63.024 228.207 63.216C228.602 63.3973 229.044 63.488 229.535 63.488C230.036 63.488 230.479 63.3973 230.863 63.216C231.247 63.024 231.551 62.7573 231.775 62.416C231.999 62.0747 232.111 61.68 232.111 61.232C232.111 60.784 231.999 60.3893 231.775 60.048C231.551 59.7067 231.247 59.4453 230.863 59.264C230.479 59.072 230.036 58.976 229.535 58.976ZM235.311 56.768H236.639V71.264H235.311V56.768ZM225.103 68.096L224.927 66.976C225.812 66.976 226.783 66.9707 227.839 66.96C228.895 66.9387 229.983 66.896 231.103 66.832C232.234 66.7573 233.322 66.64 234.367 66.48L234.479 67.456C233.391 67.6587 232.287 67.808 231.167 67.904C230.058 67.9893 228.986 68.0427 227.951 68.064C226.916 68.0853 225.967 68.096 225.103 68.096ZM248.936 58.208H250.088V58.816C250.088 59.328 249.986 59.8133 249.784 60.272C249.581 60.7307 249.298 61.1573 248.936 61.552C248.573 61.936 248.152 62.2773 247.672 62.576C247.192 62.8747 246.674 63.1307 246.12 63.344C245.576 63.5467 245.01 63.696 244.424 63.792L243.912 62.736C244.424 62.672 244.92 62.5547 245.4 62.384C245.89 62.2027 246.349 61.9893 246.776 61.744C247.202 61.4987 247.576 61.2213 247.896 60.912C248.226 60.6027 248.482 60.272 248.664 59.92C248.845 59.5573 248.936 59.1893 248.936 58.816V58.208ZM249.272 58.208H250.424V58.816C250.424 59.1893 250.514 59.5573 250.696 59.92C250.877 60.272 251.128 60.6027 251.448 60.912C251.778 61.2213 252.157 61.4987 252.584 61.744C253.01 61.9893 253.464 62.2027 253.944 62.384C254.434 62.5547 254.936 62.672 255.448 62.736L254.952 63.792C254.365 63.696 253.794 63.5467 253.24 63.344C252.685 63.1307 252.168 62.8747 251.688 62.576C251.208 62.2773 250.786 61.936 250.424 61.552C250.061 61.1573 249.778 60.7307 249.576 60.272C249.373 59.8133 249.272 59.328 249.272 58.816V58.208ZM249 65.728H250.312V71.232H249V65.728ZM243.144 65.008H256.216V66.096H243.144V65.008ZM244.376 57.664H254.968V58.736H244.376V57.664ZM261.623 57.456H262.727V58.864C262.727 59.7813 262.556 60.64 262.215 61.44C261.884 62.24 261.409 62.9387 260.791 63.536C260.183 64.1227 259.473 64.5707 258.663 64.88L257.991 63.824C258.535 63.6213 259.025 63.3547 259.463 63.024C259.911 62.6827 260.295 62.2933 260.615 61.856C260.945 61.4187 261.196 60.944 261.367 60.432C261.537 59.92 261.623 59.3973 261.623 58.864V57.456ZM261.863 57.456H262.967V58.864C262.967 59.3867 263.052 59.888 263.223 60.368C263.404 60.848 263.655 61.296 263.975 61.712C264.295 62.128 264.673 62.496 265.111 62.816C265.559 63.136 266.049 63.3867 266.583 63.568L265.927 64.624C265.127 64.3253 264.417 63.8987 263.799 63.344C263.191 62.7787 262.716 62.112 262.375 61.344C262.033 60.576 261.863 59.7493 261.863 58.864V57.456ZM260.055 66.208H269.719V71.248H268.391V67.296H260.055V66.208ZM268.391 56.768H269.719V65.472H268.391V56.768ZM279.109 57.024C280.709 57.024 281.957 57.2427 282.853 57.68C283.749 58.1067 284.197 58.72 284.197 59.52C284.197 60.3307 283.749 60.9547 282.853 61.392C281.957 61.8187 280.709 62.032 279.109 62.032C277.52 62.032 276.272 61.8187 275.365 61.392C274.469 60.9547 274.021 60.3307 274.021 59.52C274.021 58.72 274.469 58.1067 275.365 57.68C276.272 57.2427 277.52 57.024 279.109 57.024ZM279.109 58.016C278.331 58.016 277.664 58.0747 277.109 58.192C276.555 58.3093 276.128 58.48 275.829 58.704C275.541 58.928 275.397 59.2 275.397 59.52C275.397 59.84 275.541 60.1173 275.829 60.352C276.128 60.576 276.555 60.7467 277.109 60.864C277.664 60.9707 278.331 61.024 279.109 61.024C279.899 61.024 280.571 60.9707 281.125 60.864C281.68 60.7467 282.101 60.576 282.389 60.352C282.688 60.1173 282.837 59.84 282.837 59.52C282.837 59.2 282.688 58.928 282.389 58.704C282.101 58.48 281.68 58.3093 281.125 58.192C280.571 58.0747 279.899 58.016 279.109 58.016ZM272.581 63.008H285.653V64.08H272.581V63.008ZM274.165 65.312H283.973V68.576H275.493V70.32H274.197V67.6H282.677V66.336H274.165V65.312ZM274.197 70.048H284.405V71.088H274.197V70.048ZM301.886 56.768H303.15V71.248H301.886V56.768ZM299.438 62.576H302.222V63.664H299.438V62.576ZM298.606 57.088H299.838V70.496H298.606V57.088ZM291.39 66.56H292.334C293.049 66.56 293.694 66.5547 294.27 66.544C294.857 66.5227 295.411 66.48 295.934 66.416C296.467 66.352 297.011 66.2613 297.566 66.144L297.694 67.248C297.118 67.3653 296.558 67.456 296.014 67.52C295.481 67.584 294.915 67.6267 294.318 67.648C293.731 67.6693 293.07 67.68 292.334 67.68H291.39V66.56ZM291.39 58.528H296.766V59.616H292.718V67.072H291.39V58.528ZM311.389 58.208H312.541V58.816C312.541 59.328 312.44 59.8133 312.237 60.272C312.034 60.7307 311.752 61.1573 311.389 61.552C311.026 61.936 310.605 62.2773 310.125 62.576C309.645 62.8747 309.128 63.1307 308.573 63.344C308.029 63.5467 307.464 63.696 306.877 63.792L306.365 62.736C306.877 62.672 307.373 62.5547 307.853 62.384C308.344 62.2027 308.802 61.9893 309.229 61.744C309.656 61.4987 310.029 61.2213 310.349 60.912C310.68 60.6027 310.936 60.272 311.117 59.92C311.298 59.5573 311.389 59.1893 311.389 58.816V58.208ZM311.725 58.208H312.877V58.816C312.877 59.1893 312.968 59.5573 313.149 59.92C313.33 60.272 313.581 60.6027 313.901 60.912C314.232 61.2213 314.61 61.4987 315.037 61.744C315.464 61.9893 315.917 62.2027 316.397 62.384C316.888 62.5547 317.389 62.672 317.901 62.736L317.405 63.792C316.818 63.696 316.248 63.5467 315.693 63.344C315.138 63.1307 314.621 62.8747 314.141 62.576C313.661 62.2773 313.24 61.936 312.877 61.552C312.514 61.1573 312.232 60.7307 312.029 60.272C311.826 59.8133 311.725 59.328 311.725 58.816V58.208ZM311.453 65.728H312.765V71.232H311.453V65.728ZM305.597 65.008H318.669V66.096H305.597V65.008ZM306.829 57.664H317.421V58.736H306.829V57.664ZM326.108 58.208H327.26V58.816C327.26 59.328 327.158 59.8133 326.956 60.272C326.753 60.7307 326.47 61.1573 326.108 61.552C325.745 61.936 325.324 62.2773 324.844 62.576C324.364 62.8747 323.846 63.1307 323.292 63.344C322.748 63.5467 322.182 63.696 321.596 63.792L321.084 62.736C321.596 62.672 322.092 62.5547 322.572 62.384C323.062 62.2027 323.521 61.9893 323.948 61.744C324.374 61.4987 324.748 61.2213 325.068 60.912C325.398 60.6027 325.654 60.272 325.836 59.92C326.017 59.5573 326.108 59.1893 326.108 58.816V58.208ZM326.444 58.208H327.596V58.816C327.596 59.1893 327.686 59.5573 327.868 59.92C328.049 60.272 328.3 60.6027 328.62 60.912C328.95 61.2213 329.329 61.4987 329.756 61.744C330.182 61.9893 330.636 62.2027 331.116 62.384C331.606 62.5547 332.108 62.672 332.62 62.736L332.124 63.792C331.537 63.696 330.966 63.5467 330.412 63.344C329.857 63.1307 329.34 62.8747 328.86 62.576C328.38 62.2773 327.958 61.936 327.596 61.552C327.233 61.1573 326.95 60.7307 326.748 60.272C326.545 59.8133 326.444 59.328 326.444 58.816V58.208ZM326.172 65.728H327.484V71.232H326.172V65.728ZM320.316 65.008H333.388V66.096H320.316V65.008ZM321.548 57.664H332.14V58.736H321.548V57.664ZM344.826 56.768H346.154V71.232H344.826V56.768ZM345.802 62.64H348.458V63.744H345.802V62.64ZM341.13 58.32H342.426C342.426 59.696 342.202 61.0133 341.754 62.272C341.306 63.52 340.602 64.6773 339.642 65.744C338.682 66.8 337.418 67.7173 335.85 68.496L335.114 67.472C336.458 66.8 337.573 66.016 338.458 65.12C339.354 64.2133 340.021 63.2107 340.458 62.112C340.906 61.0027 341.13 59.808 341.13 58.528V58.32ZM335.786 58.32H341.802V59.424H335.786V58.32ZM364.163 58.928H366.659V60.032H364.163V58.928ZM364.163 62.016H366.659V63.12H364.163V62.016ZM357.363 57.632C358.099 57.632 358.75 57.776 359.315 58.064C359.881 58.352 360.323 58.752 360.643 59.264C360.974 59.776 361.139 60.368 361.139 61.04C361.139 61.7227 360.974 62.32 360.643 62.832C360.323 63.3333 359.881 63.728 359.315 64.016C358.75 64.304 358.099 64.448 357.363 64.448C356.649 64.448 356.003 64.304 355.427 64.016C354.862 63.728 354.414 63.3333 354.083 62.832C353.753 62.32 353.587 61.7227 353.587 61.04C353.587 60.368 353.753 59.776 354.083 59.264C354.414 58.752 354.862 58.352 355.427 58.064C356.003 57.776 356.649 57.632 357.363 57.632ZM357.363 58.752C356.894 58.752 356.473 58.8533 356.099 59.056C355.726 59.248 355.427 59.5147 355.203 59.856C354.99 60.1973 354.883 60.592 354.883 61.04C354.883 61.4987 354.99 61.8987 355.203 62.24C355.427 62.5813 355.726 62.848 356.099 63.04C356.473 63.232 356.894 63.328 357.363 63.328C357.843 63.328 358.27 63.232 358.643 63.04C359.017 62.848 359.31 62.5813 359.523 62.24C359.747 61.8987 359.859 61.4987 359.859 61.04C359.859 60.592 359.747 60.1973 359.523 59.856C359.31 59.5147 359.017 59.248 358.643 59.056C358.27 58.8533 357.843 58.752 357.363 58.752ZM363.235 56.768H364.563V65.344H363.235V56.768ZM359.955 65.792C360.926 65.792 361.769 65.904 362.483 66.128C363.198 66.3413 363.747 66.6507 364.131 67.056C364.515 67.4507 364.707 67.936 364.707 68.512C364.707 69.0773 364.515 69.5627 364.131 69.968C363.747 70.3627 363.198 70.6667 362.483 70.88C361.769 71.104 360.926 71.216 359.955 71.216C358.974 71.216 358.126 71.104 357.411 70.88C356.697 70.6667 356.147 70.3627 355.763 69.968C355.379 69.5627 355.187 69.0773 355.187 68.512C355.187 67.936 355.379 67.4507 355.763 67.056C356.147 66.6507 356.697 66.3413 357.411 66.128C358.126 65.904 358.974 65.792 359.955 65.792ZM359.955 66.864C359.241 66.864 358.622 66.928 358.099 67.056C357.587 67.184 357.193 67.3707 356.915 67.616C356.638 67.8613 356.499 68.16 356.499 68.512C356.499 68.8533 356.638 69.1467 356.915 69.392C357.193 69.6373 357.587 69.824 358.099 69.952C358.622 70.08 359.241 70.144 359.955 70.144C360.67 70.144 361.283 70.08 361.795 69.952C362.307 69.824 362.702 69.6373 362.979 69.392C363.257 69.1467 363.395 68.8533 363.395 68.512C363.395 68.16 363.257 67.8613 362.979 67.616C362.702 67.3707 362.307 67.184 361.795 67.056C361.283 66.928 360.67 66.864 359.955 66.864ZM369.714 63.536H379.65V64.608H369.714V63.536ZM368.05 68.32H381.17V69.424H368.05V68.32ZM373.922 64H375.234V68.752H373.922V64ZM369.714 57.92H379.506V59.024H371.042V64.016H369.714V57.92ZM392.577 56.768H393.889V71.248H392.577V56.768ZM393.585 62.72H396.257V63.84H393.585V62.72ZM382.689 59.088H391.217V60.176H382.689V59.088ZM387.025 61.36C387.707 61.36 388.31 61.504 388.833 61.792C389.366 62.08 389.782 62.4747 390.081 62.976C390.39 63.4667 390.545 64.0373 390.545 64.688C390.545 65.3387 390.39 65.9147 390.081 66.416C389.782 66.9173 389.366 67.312 388.833 67.6C388.31 67.8773 387.707 68.016 387.025 68.016C386.342 68.016 385.734 67.8773 385.201 67.6C384.678 67.312 384.262 66.9173 383.953 66.416C383.643 65.9147 383.489 65.3387 383.489 64.688C383.489 64.0373 383.643 63.4667 383.953 62.976C384.262 62.4747 384.678 62.08 385.201 61.792C385.734 61.504 386.342 61.36 387.025 61.36ZM387.025 62.464C386.587 62.464 386.198 62.56 385.857 62.752C385.515 62.944 385.243 63.2053 385.041 63.536C384.849 63.8667 384.753 64.2507 384.753 64.688C384.753 65.1253 384.849 65.5147 385.041 65.856C385.243 66.1867 385.515 66.448 385.857 66.64C386.198 66.8213 386.587 66.912 387.025 66.912C387.451 66.912 387.835 66.8213 388.177 66.64C388.518 66.448 388.785 66.1867 388.977 65.856C389.179 65.5147 389.281 65.1253 389.281 64.688C389.281 64.2507 389.179 63.8667 388.977 63.536C388.785 63.2053 388.518 62.944 388.177 62.752C387.835 62.56 387.451 62.464 387.025 62.464ZM386.337 56.944H387.665V59.568H386.337V56.944ZM399.248 61.12H409.088V62.192H399.248V61.12ZM397.472 64.128H410.592V65.216H397.472V64.128ZM399.248 57.296H400.56V61.664H399.248V57.296ZM399.152 69.808H409.168V70.896H399.152V69.808ZM399.152 66.672H400.48V70.096H399.152V66.672ZM422.712 59.44H426.584V60.512H422.712V59.44ZM422.584 62.448H426.488V63.536H422.584V62.448ZM426.36 56.784H427.688V65.44H426.36V56.784ZM421.832 57.856H423.24C423.24 59.0933 422.968 60.208 422.424 61.2C421.891 62.192 421.118 63.0453 420.104 63.76C419.102 64.464 417.907 65.024 416.52 65.44L415.976 64.384C417.203 64.0213 418.254 63.552 419.128 62.976C420.003 62.3893 420.67 61.7173 421.128 60.96C421.598 60.192 421.832 59.3493 421.832 58.432V57.856ZM416.712 57.856H422.728V58.944H416.712V57.856ZM422.984 65.6C423.966 65.6 424.808 65.712 425.512 65.936C426.227 66.16 426.782 66.48 427.176 66.896C427.571 67.312 427.768 67.808 427.768 68.384C427.768 68.9707 427.571 69.472 427.176 69.888C426.782 70.2933 426.227 70.608 425.512 70.832C424.808 71.0667 423.966 71.184 422.984 71.184C422.014 71.184 421.166 71.0667 420.44 70.832C419.726 70.608 419.171 70.2933 418.776 69.888C418.382 69.472 418.184 68.9707 418.184 68.384C418.184 67.808 418.382 67.312 418.776 66.896C419.171 66.48 419.726 66.16 420.44 65.936C421.166 65.712 422.014 65.6 422.984 65.6ZM422.984 66.656C422.28 66.656 421.667 66.7253 421.144 66.864C420.622 67.0027 420.216 67.2 419.928 67.456C419.64 67.712 419.496 68.0213 419.496 68.384C419.496 68.7467 419.64 69.056 419.928 69.312C420.216 69.568 420.622 69.7653 421.144 69.904C421.667 70.0427 422.28 70.112 422.984 70.112C423.699 70.112 424.312 70.0427 424.824 69.904C425.336 69.7653 425.736 69.568 426.024 69.312C426.312 69.056 426.456 68.7467 426.456 68.384C426.456 68.0213 426.312 67.712 426.024 67.456C425.736 67.2 425.336 67.0027 424.824 66.864C424.312 66.7253 423.699 66.656 422.984 66.656ZM430.487 65.056H443.607V66.16H430.487V65.056ZM436.359 65.728H437.671V71.248H436.359V65.728ZM437.015 57.344C438.028 57.344 438.914 57.4773 439.671 57.744C440.428 58 441.02 58.368 441.447 58.848C441.874 59.3173 442.087 59.8773 442.087 60.528C442.087 61.168 441.874 61.728 441.447 62.208C441.02 62.688 440.428 63.056 439.671 63.312C438.914 63.568 438.028 63.696 437.015 63.696C436.023 63.696 435.143 63.568 434.375 63.312C433.618 63.056 433.026 62.688 432.599 62.208C432.172 61.728 431.959 61.168 431.959 60.528C431.959 59.8773 432.172 59.3173 432.599 58.848C433.026 58.368 433.618 58 434.375 57.744C435.143 57.4773 436.023 57.344 437.015 57.344ZM437.015 58.416C436.29 58.416 435.644 58.5013 435.079 58.672C434.524 58.8427 434.092 59.088 433.783 59.408C433.474 59.7173 433.319 60.0853 433.319 60.512C433.319 60.9493 433.474 61.328 433.783 61.648C434.092 61.9573 434.524 62.1973 435.079 62.368C435.644 62.5387 436.29 62.624 437.015 62.624C437.762 62.624 438.412 62.5387 438.967 62.368C439.522 62.1973 439.954 61.9573 440.263 61.648C440.572 61.328 440.727 60.9493 440.727 60.512C440.727 60.0853 440.572 59.7173 440.263 59.408C439.954 59.088 439.522 58.8427 438.967 58.672C438.412 58.5013 437.762 58.416 437.015 58.416ZM452.352 57.648H453.456V59.424C453.456 60.3733 453.291 61.248 452.96 62.048C452.629 62.8373 452.165 63.5253 451.568 64.112C450.971 64.6987 450.267 65.1467 449.456 65.456L448.736 64.4C449.472 64.144 450.112 63.7707 450.656 63.28C451.2 62.7787 451.616 62.1973 451.904 61.536C452.203 60.8747 452.352 60.1707 452.352 59.424V57.648ZM452.592 57.648H453.664V59.472C453.664 59.9627 453.749 60.4427 453.92 60.912C454.101 61.3813 454.347 61.824 454.656 62.24C454.976 62.6453 455.349 63.0027 455.776 63.312C456.213 63.6107 456.699 63.856 457.232 64.048L456.56 65.104C455.771 64.8053 455.077 64.3787 454.48 63.824C453.883 63.2693 453.419 62.6187 453.088 61.872C452.757 61.1253 452.592 60.3253 452.592 59.472V57.648ZM458.704 56.768H460.032V67.456H458.704V56.768ZM459.616 61.2H462.16V62.32H459.616V61.2ZM451.04 69.84H460.672V70.928H451.04V69.84ZM451.04 66.432H452.384V70.368H451.04V66.432ZM469.391 63.984H470.703V66.16H469.391V63.984ZM463.535 63.2H476.575V64.208H463.535V63.2ZM469.391 56.688H470.703V58.432H469.391V56.688ZM469.327 58.56H470.495V58.784C470.495 59.36 470.34 59.8667 470.031 60.304C469.721 60.7413 469.295 61.1147 468.751 61.424C468.207 61.7333 467.577 61.984 466.863 62.176C466.159 62.3573 465.407 62.48 464.607 62.544L464.207 61.536C464.921 61.4933 465.588 61.4027 466.207 61.264C466.825 61.1147 467.369 60.9227 467.839 60.688C468.308 60.4533 468.671 60.176 468.927 59.856C469.193 59.536 469.327 59.1787 469.327 58.784V58.56ZM469.615 58.56H470.767V58.784C470.767 59.1787 470.9 59.536 471.167 59.856C471.433 60.176 471.801 60.4533 472.271 60.688C472.74 60.9227 473.279 61.1147 473.887 61.264C474.505 61.4027 475.172 61.4933 475.887 61.536L475.487 62.544C474.687 62.48 473.929 62.3573 473.215 62.176C472.511 61.984 471.887 61.7333 471.343 61.424C470.809 61.1147 470.388 60.7413 470.079 60.304C469.769 59.8667 469.615 59.36 469.615 58.784V58.56ZM464.863 58.032H475.263V59.056H464.863V58.032ZM465.103 65.536H474.911V68.704H466.431V70.448H465.135V67.76H473.615V66.528H465.103V65.536ZM465.135 70.064H475.343V71.088H465.135V70.064ZM483.934 61.952H486.718V63.056H483.934V61.952ZM481.246 58.128H482.286V60.896C482.286 61.6427 482.206 62.3787 482.046 63.104C481.896 63.8293 481.672 64.512 481.374 65.152C481.086 65.792 480.734 66.368 480.318 66.88C479.902 67.392 479.432 67.808 478.91 68.128L478.078 67.136C478.568 66.8373 479.011 66.464 479.406 66.016C479.8 65.568 480.131 65.0667 480.398 64.512C480.675 63.9467 480.883 63.36 481.022 62.752C481.171 62.1333 481.246 61.5147 481.246 60.896V58.128ZM481.502 58.128H482.526V60.848C482.526 61.424 482.59 62.0053 482.718 62.592C482.856 63.168 483.048 63.7227 483.294 64.256C483.55 64.7787 483.864 65.2587 484.238 65.696C484.611 66.1333 485.032 66.496 485.502 66.784L484.75 67.808C484.227 67.488 483.763 67.0827 483.358 66.592C482.952 66.0907 482.611 65.5307 482.334 64.912C482.056 64.2827 481.848 63.6213 481.71 62.928C481.571 62.2347 481.502 61.5413 481.502 60.848V58.128ZM489.262 56.768H490.542V71.248H489.262V56.768ZM486.318 57.072H487.566V70.512H486.318V57.072ZM496.38 57.68C497.02 57.68 497.586 57.824 498.076 58.112C498.567 58.4 498.956 58.8053 499.244 59.328C499.532 59.84 499.676 60.432 499.676 61.104C499.676 61.776 499.532 62.368 499.244 62.88C498.956 63.392 498.567 63.792 498.076 64.08C497.586 64.3573 497.02 64.496 496.38 64.496C495.74 64.496 495.175 64.3573 494.684 64.08C494.194 63.792 493.804 63.392 493.516 62.88C493.239 62.368 493.1 61.776 493.1 61.104C493.1 60.432 493.239 59.84 493.516 59.328C493.804 58.8053 494.194 58.4 494.684 58.112C495.175 57.824 495.74 57.68 496.38 57.68ZM496.38 58.816C495.986 58.816 495.628 58.912 495.308 59.104C494.999 59.296 494.754 59.568 494.572 59.92C494.391 60.2613 494.3 60.656 494.3 61.104C494.3 61.552 494.391 61.9467 494.572 62.288C494.754 62.6293 494.999 62.9013 495.308 63.104C495.628 63.296 495.986 63.392 496.38 63.392C496.775 63.392 497.127 63.296 497.436 63.104C497.756 62.9013 498.007 62.6293 498.188 62.288C498.37 61.9467 498.46 61.552 498.46 61.104C498.46 60.656 498.37 60.2613 498.188 59.92C498.007 59.568 497.756 59.296 497.436 59.104C497.127 58.912 496.775 58.816 496.38 58.816ZM503.884 56.784H505.148V65.392H503.884V56.784ZM501.548 60.496H504.268V61.6H501.548V60.496ZM500.796 57.056H502.044V65.296H500.796V57.056ZM495.452 66.192H505.148V71.248H503.836V67.28H495.452V66.192ZM507.675 64.384H520.747V65.456H507.675V64.384ZM509.355 69.84H519.291V70.928H509.355V69.84ZM509.355 66.736H510.683V70.16H509.355V66.736ZM514.203 57.264C515.238 57.264 516.134 57.3813 516.891 57.616C517.659 57.84 518.251 58.1707 518.667 58.608C519.083 59.0347 519.291 59.5467 519.291 60.144C519.291 60.7413 519.083 61.2587 518.667 61.696C518.251 62.1333 517.659 62.4693 516.891 62.704C516.134 62.928 515.238 63.04 514.203 63.04C513.168 63.04 512.267 62.928 511.499 62.704C510.742 62.4693 510.155 62.1333 509.739 61.696C509.323 61.2587 509.115 60.7413 509.115 60.144C509.115 59.5467 509.323 59.0347 509.739 58.608C510.155 58.1707 510.742 57.84 511.499 57.616C512.267 57.3813 513.168 57.264 514.203 57.264ZM514.203 58.336C513.456 58.336 512.8 58.4107 512.235 58.56C511.68 58.6987 511.248 58.9067 510.939 59.184C510.63 59.4507 510.475 59.7707 510.475 60.144C510.475 60.5173 510.63 60.8427 510.939 61.12C511.248 61.3867 511.68 61.5947 512.235 61.744C512.8 61.8827 513.456 61.952 514.203 61.952C514.971 61.952 515.632 61.8827 516.187 61.744C516.742 61.5947 517.168 61.3867 517.467 61.12C517.776 60.8427 517.931 60.5173 517.931 60.144C517.931 59.7707 517.776 59.4507 517.467 59.184C517.168 58.9067 516.742 58.6987 516.187 58.56C515.632 58.4107 514.971 58.336 514.203 58.336ZM99.376 80.768H100.688V88.128H99.376V80.768ZM95.968 83.984H99.984V85.072H95.968V83.984ZM92.752 81.264C93.4667 81.264 94.1013 81.4027 94.656 81.68C95.2213 81.9573 95.664 82.3413 95.984 82.832C96.304 83.3227 96.464 83.8933 96.464 84.544C96.464 85.184 96.304 85.7547 95.984 86.256C95.664 86.7467 95.2213 87.136 94.656 87.424C94.1013 87.7013 93.4667 87.84 92.752 87.84C92.0267 87.84 91.3813 87.7013 90.816 87.424C90.2613 87.136 89.824 86.7467 89.504 86.256C89.184 85.7547 89.024 85.184 89.024 84.544C89.024 83.8933 89.184 83.3227 89.504 82.832C89.824 82.3413 90.2613 81.9573 90.816 81.68C91.3813 81.4027 92.0267 81.264 92.752 81.264ZM92.752 82.352C92.2827 82.352 91.8613 82.448 91.488 82.64C91.1147 82.8213 90.8213 83.0773 90.608 83.408C90.3947 83.7387 90.288 84.1173 90.288 84.544C90.288 84.9707 90.3947 85.3547 90.608 85.696C90.8213 86.0267 91.1147 86.288 91.488 86.48C91.8613 86.6613 92.2827 86.752 92.752 86.752C93.2213 86.752 93.6373 86.6613 94 86.48C94.3733 86.288 94.6667 86.0267 94.88 85.696C95.0933 85.3547 95.2 84.9707 95.2 84.544C95.2 84.1173 95.0933 83.7387 94.88 83.408C94.6667 83.0773 94.3733 82.8213 94 82.64C93.6373 82.448 93.2213 82.352 92.752 82.352ZM91.376 88.928H100.688V92.416H92.72V94.576H91.408V91.408H99.376V89.984H91.376V88.928ZM91.408 93.984H101.232V95.056H91.408V93.984ZM104.095 82.224H110.735V91.568H104.095V82.224ZM109.423 83.28H105.391V90.496H109.423V83.28ZM113.311 80.768H114.639V95.248H113.311V80.768ZM114.335 86.544H117.007V87.664H114.335V86.544ZM128.766 80.784H130.094V91.344H128.766V80.784ZM120.798 93.84H130.542V94.928H120.798V93.84ZM120.798 90.272H122.126V94.208H120.798V90.272ZM122.334 81.792C123.059 81.792 123.704 81.9413 124.27 82.24C124.835 82.5387 125.283 82.96 125.614 83.504C125.944 84.0373 126.11 84.6507 126.11 85.344C126.11 86.0373 125.944 86.656 125.614 87.2C125.283 87.7333 124.835 88.1547 124.27 88.464C123.704 88.7627 123.059 88.912 122.334 88.912C121.619 88.912 120.974 88.7627 120.398 88.464C119.832 88.1547 119.384 87.7333 119.054 87.2C118.723 86.656 118.558 86.0373 118.558 85.344C118.558 84.6507 118.723 84.0373 119.054 83.504C119.384 82.96 119.832 82.5387 120.398 82.24C120.974 81.9413 121.619 81.792 122.334 81.792ZM122.334 82.944C121.864 82.944 121.443 83.0453 121.07 83.248C120.696 83.4507 120.398 83.7333 120.174 84.096C119.96 84.4587 119.854 84.8747 119.854 85.344C119.854 85.824 119.96 86.2453 120.174 86.608C120.398 86.96 120.696 87.2373 121.07 87.44C121.443 87.6427 121.864 87.744 122.334 87.744C122.803 87.744 123.224 87.6427 123.598 87.44C123.982 87.2373 124.28 86.96 124.494 86.608C124.707 86.2453 124.814 85.824 124.814 85.344C124.814 84.8747 124.707 84.4587 124.494 84.096C124.28 83.7333 123.982 83.4507 123.598 83.248C123.224 83.0453 122.803 82.944 122.334 82.944ZM142.748 80.768H144.076V95.232H142.748V80.768ZM143.724 86.64H146.38V87.744H143.724V86.64ZM139.052 82.32H140.348C140.348 83.696 140.124 85.0133 139.676 86.272C139.228 87.52 138.524 88.6773 137.564 89.744C136.604 90.8 135.34 91.7173 133.772 92.496L133.036 91.472C134.38 90.8 135.495 90.016 136.38 89.12C137.276 88.2133 137.943 87.2107 138.38 86.112C138.828 85.0027 139.052 83.808 139.052 82.528V82.32ZM133.708 82.32H139.724V83.424H133.708V82.32ZM150.891 88.224H152.203V92.544H150.891V88.224ZM156.235 88.224H157.563V92.544H156.235V88.224ZM147.675 92.288H160.795V93.392H147.675V92.288ZM154.203 81.68C155.227 81.68 156.134 81.8347 156.923 82.144C157.712 82.4533 158.331 82.8853 158.779 83.44C159.238 83.9947 159.467 84.6507 159.467 85.408C159.467 86.1547 159.238 86.8107 158.779 87.376C158.331 87.9307 157.712 88.3627 156.923 88.672C156.134 88.9707 155.227 89.12 154.203 89.12C153.19 89.12 152.283 88.9707 151.483 88.672C150.694 88.3627 150.075 87.9307 149.627 87.376C149.179 86.8107 148.955 86.1547 148.955 85.408C148.955 84.6507 149.179 83.9947 149.627 83.44C150.075 82.8853 150.694 82.4533 151.483 82.144C152.283 81.8347 153.19 81.68 154.203 81.68ZM154.203 82.736C153.435 82.736 152.752 82.848 152.155 83.072C151.558 83.296 151.088 83.6107 150.747 84.016C150.406 84.4107 150.235 84.8747 150.235 85.408C150.235 85.9413 150.406 86.4107 150.747 86.816C151.088 87.2107 151.558 87.52 152.155 87.744C152.752 87.968 153.435 88.08 154.203 88.08C154.982 88.08 155.67 87.968 156.267 87.744C156.864 87.52 157.334 87.2107 157.675 86.816C158.016 86.4107 158.187 85.9413 158.187 85.408C158.187 84.8747 158.016 84.4107 157.675 84.016C157.334 83.6107 156.864 83.296 156.267 83.072C155.67 82.848 154.982 82.736 154.203 82.736ZM164.442 90.464C164.367 89.9093 164.399 89.4133 164.538 88.976C164.687 88.5387 164.89 88.144 165.146 87.792C165.402 87.44 165.663 87.104 165.93 86.784C166.207 86.464 166.436 86.144 166.618 85.824C166.81 85.4933 166.906 85.136 166.906 84.752C166.906 84.432 166.842 84.144 166.714 83.888C166.586 83.6213 166.394 83.4133 166.138 83.264C165.882 83.104 165.562 83.024 165.178 83.024C164.783 83.024 164.41 83.1147 164.058 83.296C163.706 83.4667 163.391 83.7173 163.114 84.048L162.282 83.28C162.655 82.8533 163.098 82.5013 163.61 82.224C164.122 81.9467 164.698 81.808 165.338 81.808C165.946 81.808 166.474 81.9253 166.922 82.16C167.37 82.384 167.716 82.7093 167.962 83.136C168.207 83.5627 168.33 84.0693 168.33 84.656C168.33 85.136 168.234 85.5627 168.042 85.936C167.85 86.3093 167.615 86.6613 167.338 86.992C167.06 87.3227 166.788 87.664 166.522 88.016C166.255 88.3573 166.042 88.7253 165.882 89.12C165.722 89.504 165.674 89.952 165.738 90.464H164.442ZM165.13 94.208C164.842 94.208 164.596 94.1067 164.394 93.904C164.191 93.6907 164.09 93.424 164.09 93.104C164.09 92.7627 164.191 92.4907 164.394 92.288C164.596 92.0853 164.842 91.984 165.13 91.984C165.428 91.984 165.679 92.0853 165.882 92.288C166.095 92.4907 166.202 92.7627 166.202 93.104C166.202 93.424 166.095 93.6907 165.882 93.904C165.679 94.1067 165.428 94.208 165.13 94.208Z" fill="black"/>
<g clip-path="url(#clip0_259_671)">
<path d="M39 144.667V147M41.4499 148.05L43.1416 146.359M42.5 150.5H44.8333M41.4499 152.95L43.1416 154.642M39 154V156.334M34.8583 154.642L36.55 152.95M33.1666 150.5H35.5M34.8583 146.359L36.55 148.05" stroke="url(#paint0_linear_259_671)" stroke-width="1.5" stroke-linecap="round" stroke-linejoin="round"/>
</g>
<path d="M59.366 144.422H60.528V151.17H59.366V144.422ZM60.206 147.39H62.39V148.356H60.206V147.39ZM51.288 149.784H52.268C53.136 149.784 53.8967 149.775 54.55 149.756C55.2033 149.737 55.8053 149.695 56.356 149.63C56.9067 149.565 57.462 149.476 58.022 149.364L58.162 150.316C57.574 150.428 56.9953 150.517 56.426 150.582C55.866 150.647 55.2547 150.694 54.592 150.722C53.9293 150.741 53.1547 150.75 52.268 150.75H51.288V149.784ZM51.288 145.262H56.846V146.2H52.436V150.442H51.288V145.262ZM52.548 151.856H53.696V153.41H59.366V151.856H60.528V156.882H52.548V151.856ZM53.696 154.348V155.93H59.366V154.348H53.696ZM69.6269 146.746H73.2669V147.698H69.6269V146.746ZM69.6269 149.476H73.2949V150.428H69.6269V149.476ZM72.8329 144.436H73.9949V153.802H72.8329V144.436ZM65.8609 155.86H74.2889V156.812H65.8609V155.86ZM65.8609 152.892H67.0229V156.336H65.8609V152.892ZM64.1949 145.276H65.3569V147.502H68.7729V145.276H69.9209V151.646H64.1949V145.276ZM65.3569 148.412V150.708H68.7729V148.412H65.3569ZM84.5587 145.626H85.5807V146.004C85.5807 146.536 85.45 147.026 85.1887 147.474C84.9273 147.922 84.568 148.323 84.1107 148.678C83.6627 149.023 83.1447 149.313 82.5567 149.546C81.978 149.77 81.362 149.929 80.7087 150.022L80.2747 149.098C80.7227 149.033 81.1567 148.935 81.5767 148.804C82.006 148.673 82.398 148.515 82.7527 148.328C83.1073 148.132 83.42 147.913 83.6907 147.67C83.9613 147.427 84.1713 147.166 84.3207 146.886C84.4793 146.606 84.5587 146.312 84.5587 146.004V145.626ZM85.0347 145.626H86.0567V146.004C86.0567 146.303 86.1313 146.592 86.2807 146.872C86.4393 147.152 86.654 147.418 86.9247 147.67C87.1953 147.913 87.508 148.132 87.8627 148.328C88.2267 148.515 88.6187 148.673 89.0387 148.804C89.4587 148.935 89.8927 149.033 90.3407 149.098L89.9067 150.022C89.2627 149.929 88.6467 149.77 88.0587 149.546C87.4707 149.313 86.9527 149.023 86.5047 148.678C86.0567 148.323 85.6973 147.922 85.4267 147.474C85.1653 147.026 85.0347 146.536 85.0347 146.004V145.626ZM80.6387 145.052H89.9907V145.99H80.6387V145.052ZM79.5747 150.932H91.0547V151.884H79.5747V150.932ZM84.8107 151.534H85.9727V154.446H84.8107V151.534ZM81.0307 155.86H89.7807V156.812H81.0307V155.86ZM81.0307 153.214H82.1927V156.21H81.0307V153.214ZM101.666 144.422H102.828V157.106H101.666V144.422ZM93.1816 145.5H94.3436V148.832H97.9976V145.5H99.1456V154.054H93.1816V145.5ZM94.3436 149.756V153.088H97.9976V149.756H94.3436ZM113.615 150.75H114.763V152.962H113.615V150.75ZM108.477 150.344H119.915V151.296H108.477V150.344ZM114.189 152.612C115.543 152.612 116.602 152.803 117.367 153.186C118.133 153.569 118.515 154.119 118.515 154.838C118.515 155.547 118.133 156.093 117.367 156.476C116.602 156.868 115.543 157.064 114.189 157.064C112.836 157.064 111.772 156.868 110.997 156.476C110.232 156.093 109.849 155.547 109.849 154.838C109.849 154.119 110.232 153.569 110.997 153.186C111.772 152.803 112.836 152.612 114.189 152.612ZM114.189 153.522C113.527 153.522 112.957 153.573 112.481 153.676C112.015 153.779 111.655 153.928 111.403 154.124C111.151 154.32 111.025 154.558 111.025 154.838C111.025 155.118 111.151 155.356 111.403 155.552C111.655 155.748 112.015 155.897 112.481 156C112.957 156.112 113.527 156.168 114.189 156.168C114.852 156.168 115.417 156.112 115.883 156C116.359 155.897 116.723 155.748 116.975 155.552C117.227 155.356 117.353 155.118 117.353 154.838C117.353 154.558 117.227 154.32 116.975 154.124C116.723 153.928 116.359 153.779 115.883 153.676C115.417 153.573 114.852 153.522 114.189 153.522ZM113.447 145.472H114.469V145.85C114.469 146.261 114.381 146.639 114.203 146.984C114.035 147.329 113.797 147.651 113.489 147.95C113.181 148.239 112.817 148.496 112.397 148.72C111.987 148.944 111.539 149.131 111.053 149.28C110.568 149.42 110.059 149.523 109.527 149.588L109.107 148.664C109.565 148.617 110.003 148.538 110.423 148.426C110.853 148.305 111.249 148.16 111.613 147.992C111.987 147.815 112.309 147.614 112.579 147.39C112.85 147.166 113.06 146.923 113.209 146.662C113.368 146.401 113.447 146.13 113.447 145.85V145.472ZM113.923 145.472H114.945V145.85C114.945 146.139 115.02 146.415 115.169 146.676C115.328 146.928 115.543 147.166 115.813 147.39C116.084 147.605 116.401 147.801 116.765 147.978C117.139 148.146 117.535 148.291 117.955 148.412C118.385 148.533 118.828 148.617 119.285 148.664L118.865 149.588C118.333 149.523 117.825 149.42 117.339 149.28C116.854 149.131 116.401 148.944 115.981 148.72C115.571 148.496 115.211 148.239 114.903 147.95C114.595 147.661 114.353 147.339 114.175 146.984C114.007 146.629 113.923 146.251 113.923 145.85V145.472ZM109.527 145.01H118.879V145.948H109.527V145.01ZM122.602 156.182C122.35 156.182 122.131 156.093 121.944 155.916C121.767 155.729 121.678 155.496 121.678 155.216C121.678 154.917 121.767 154.679 121.944 154.502C122.131 154.325 122.35 154.236 122.602 154.236C122.854 154.236 123.069 154.325 123.246 154.502C123.433 154.679 123.526 154.917 123.526 155.216C123.526 155.496 123.433 155.729 123.246 155.916C123.069 156.093 122.854 156.182 122.602 156.182ZM126.499 156.182C126.247 156.182 126.027 156.093 125.841 155.916C125.663 155.729 125.575 155.496 125.575 155.216C125.575 154.917 125.663 154.679 125.841 154.502C126.027 154.325 126.247 154.236 126.499 154.236C126.751 154.236 126.965 154.325 127.143 154.502C127.329 154.679 127.423 154.917 127.423 155.216C127.423 155.496 127.329 155.729 127.143 155.916C126.965 156.093 126.751 156.182 126.499 156.182ZM130.395 156.182C130.143 156.182 129.924 156.093 129.737 155.916C129.56 155.729 129.471 155.496 129.471 155.216C129.471 154.917 129.56 154.679 129.737 154.502C129.924 154.325 130.143 154.236 130.395 154.236C130.647 154.236 130.862 154.325 131.039 154.502C131.226 154.679 131.319 154.917 131.319 155.216C131.319 155.496 131.226 155.729 131.039 155.916C130.862 156.093 130.647 156.182 130.395 156.182Z" fill="#8B91A0"/>
<defs>
<linearGradient id="paint0_linear_259_671" x1="33.2439" y1="144.667" x2="44.7561" y2="156.334" gradientUnits="userSpaceOnUse">
<stop stop-color="#FD5108"/>
<stop offset="1" stop-color="#FFCDA8"/>
</linearGradient>
<clipPath id="clip0_259_671">
<rect width="14" height="14" fill="white" transform="translate(32 143.5)"/>
</clipPath>
</defs>
</svg>
