<svg width="600" height="480" viewBox="0 0 600 480" fill="none" xmlns="http://www.w3.org/2000/svg">
<rect width="600" height="480" rx="24" fill="white"/>
<rect x="24" y="36" width="32" height="32" rx="16" fill="#FD5108"/>
<path d="M44.6667 58V56.6667C44.6667 55.9594 44.3858 55.2811 43.8857 54.781C43.3856 54.281 42.7073 54 42 54H38C37.2928 54 36.6145 54.281 36.1144 54.781C35.6143 55.2811 35.3334 55.9594 35.3334 56.6667V58M42.6667 48.6667C42.6667 50.1394 41.4728 51.3333 40 51.3333C38.5273 51.3333 37.3334 50.1394 37.3334 48.6667C37.3334 47.1939 38.5273 46 40 46C41.4728 46 42.6667 47.1939 42.6667 48.6667Z" stroke="white" stroke-width="1.5" stroke-linecap="round" stroke-linejoin="round"/>
<rect x="72" y="36" width="504" height="104" rx="12" fill="#EEEFF1"/>
<path d="M88.064 70L92.032 58.272H93.68L97.664 70H96.096L94.048 63.44C93.8347 62.768 93.632 62.112 93.44 61.472C93.248 60.8213 93.056 60.1547 92.864 59.472H92.8C92.6187 60.1547 92.4267 60.8213 92.224 61.472C92.032 62.112 91.8347 62.768 91.632 63.44L89.552 70H88.064ZM90.128 66.416V65.248H95.536V66.416H90.128ZM109.078 56.768H110.406V71.248H109.078V56.768ZM104.838 58.336H106.15C106.15 59.3813 106.022 60.3893 105.766 61.36C105.521 62.3307 105.132 63.2533 104.598 64.128C104.065 64.992 103.372 65.7973 102.518 66.544C101.665 67.2907 100.63 67.9573 99.4144 68.544L98.7104 67.472C100.108 66.8 101.26 66.016 102.166 65.12C103.073 64.224 103.745 63.2267 104.182 62.128C104.62 61.0187 104.838 59.824 104.838 58.544V58.336ZM99.3824 58.336H105.398V59.408H99.3824V58.336ZM120.517 60.224H124.405V61.312H120.517V60.224ZM117.205 57.44C117.92 57.44 118.554 57.584 119.109 57.872C119.674 58.1493 120.117 58.5387 120.437 59.04C120.757 59.5413 120.917 60.1227 120.917 60.784C120.917 61.4453 120.757 62.032 120.437 62.544C120.117 63.0453 119.674 63.44 119.109 63.728C118.554 64.0053 117.92 64.144 117.205 64.144C116.48 64.144 115.834 64.0053 115.269 63.728C114.714 63.44 114.277 63.0453 113.957 62.544C113.637 62.032 113.477 61.4453 113.477 60.784C113.477 60.1227 113.637 59.5413 113.957 59.04C114.277 58.5387 114.714 58.1493 115.269 57.872C115.834 57.584 116.48 57.44 117.205 57.44ZM117.205 58.56C116.725 58.56 116.298 58.656 115.925 58.848C115.562 59.0293 115.274 59.2907 115.061 59.632C114.848 59.9627 114.741 60.3467 114.741 60.784C114.741 61.2213 114.848 61.6107 115.061 61.952C115.274 62.2827 115.562 62.544 115.925 62.736C116.298 62.928 116.725 63.024 117.205 63.024C117.674 63.024 118.09 62.928 118.453 62.736C118.826 62.544 119.12 62.2827 119.333 61.952C119.546 61.6107 119.653 61.2213 119.653 60.784C119.653 60.3467 119.546 59.9627 119.333 59.632C119.12 59.2907 118.826 59.0293 118.453 58.848C118.09 58.656 117.674 58.56 117.205 58.56ZM123.829 56.768H125.157V64.544H123.829V56.768ZM115.893 65.264H117.205V67.072H123.829V65.264H125.157V71.056H115.893V65.264ZM117.205 68.128V69.968H123.829V68.128H117.205ZM138.484 56.768H139.812V71.264H138.484V56.768ZM132.18 57.888C132.895 57.888 133.524 58.096 134.068 58.512C134.623 58.9173 135.055 59.4987 135.364 60.256C135.684 61.0133 135.844 61.904 135.844 62.928C135.844 63.952 135.684 64.8427 135.364 65.6C135.055 66.3573 134.623 66.944 134.068 67.36C133.524 67.776 132.895 67.984 132.18 67.984C131.465 67.984 130.831 67.776 130.276 67.36C129.721 66.944 129.284 66.3573 128.964 65.6C128.655 64.8427 128.5 63.952 128.5 62.928C128.5 61.904 128.655 61.0133 128.964 60.256C129.284 59.4987 129.721 58.9173 130.276 58.512C130.831 58.096 131.465 57.888 132.18 57.888ZM132.18 59.072C131.7 59.072 131.279 59.232 130.916 59.552C130.564 59.8613 130.287 60.3093 130.084 60.896C129.881 61.472 129.78 62.1493 129.78 62.928C129.78 63.7067 129.881 64.3893 130.084 64.976C130.287 65.552 130.564 66 130.916 66.32C131.279 66.64 131.7 66.8 132.18 66.8C132.649 66.8 133.06 66.64 133.412 66.32C133.775 66 134.057 65.552 134.26 64.976C134.463 64.3893 134.564 63.7067 134.564 62.928C134.564 62.1493 134.463 61.472 134.26 60.896C134.057 60.3093 133.775 59.8613 133.412 59.552C133.06 59.232 132.649 59.072 132.18 59.072ZM149.837 58.848H150.909V61.184C150.909 61.9413 150.802 62.6933 150.589 63.44C150.375 64.176 150.077 64.8747 149.693 65.536C149.319 66.1867 148.887 66.768 148.397 67.28C147.906 67.7813 147.378 68.176 146.813 68.464L146.029 67.408C146.551 67.152 147.037 66.8053 147.485 66.368C147.943 65.92 148.349 65.4133 148.701 64.848C149.053 64.272 149.33 63.6747 149.533 63.056C149.735 62.4267 149.837 61.8027 149.837 61.184V58.848ZM150.093 58.848H151.149V61.184C151.149 61.76 151.239 62.3413 151.421 62.928C151.613 63.5147 151.879 64.0747 152.221 64.608C152.562 65.1413 152.957 65.6213 153.405 66.048C153.863 66.464 154.349 66.8 154.861 67.056L154.109 68.112C153.543 67.824 153.015 67.44 152.525 66.96C152.034 66.4693 151.607 65.9147 151.245 65.296C150.882 64.6773 150.599 64.016 150.397 63.312C150.194 62.608 150.093 61.8987 150.093 61.184V58.848ZM146.541 58.256H154.349V59.36H146.541V58.256ZM156.061 56.768H157.389V71.248H156.061V56.768ZM157.085 62.608H159.757V63.728H157.085V62.608ZM164.54 57.648H165.644V59.424C165.644 60.3733 165.478 61.248 165.148 62.048C164.817 62.8373 164.353 63.5253 163.756 64.112C163.158 64.6987 162.454 65.1467 161.644 65.456L160.924 64.4C161.66 64.144 162.3 63.7707 162.844 63.28C163.388 62.7787 163.804 62.1973 164.092 61.536C164.39 60.8747 164.54 60.1707 164.54 59.424V57.648ZM164.78 57.648H165.852V59.472C165.852 59.9627 165.937 60.4427 166.108 60.912C166.289 61.3813 166.534 61.824 166.844 62.24C167.164 62.6453 167.537 63.0027 167.964 63.312C168.401 63.6107 168.886 63.856 169.42 64.048L168.748 65.104C167.958 64.8053 167.265 64.3787 166.668 63.824C166.07 63.2693 165.606 62.6187 165.276 61.872C164.945 61.1253 164.78 60.3253 164.78 59.472V57.648ZM170.892 56.768H172.22V67.456H170.892V56.768ZM171.804 61.2H174.348V62.32H171.804V61.2ZM163.228 69.84H172.86V70.928H163.228V69.84ZM163.228 66.432H164.572V70.368H163.228V66.432ZM182.234 57.024C183.834 57.024 185.082 57.2427 185.978 57.68C186.874 58.1067 187.322 58.72 187.322 59.52C187.322 60.3307 186.874 60.9547 185.978 61.392C185.082 61.8187 183.834 62.032 182.234 62.032C180.645 62.032 179.397 61.8187 178.49 61.392C177.594 60.9547 177.146 60.3307 177.146 59.52C177.146 58.72 177.594 58.1067 178.49 57.68C179.397 57.2427 180.645 57.024 182.234 57.024ZM182.234 58.016C181.456 58.016 180.789 58.0747 180.234 58.192C179.68 58.3093 179.253 58.48 178.954 58.704C178.666 58.928 178.522 59.2 178.522 59.52C178.522 59.84 178.666 60.1173 178.954 60.352C179.253 60.576 179.68 60.7467 180.234 60.864C180.789 60.9707 181.456 61.024 182.234 61.024C183.024 61.024 183.696 60.9707 184.25 60.864C184.805 60.7467 185.226 60.576 185.514 60.352C185.813 60.1173 185.962 59.84 185.962 59.52C185.962 59.2 185.813 58.928 185.514 58.704C185.226 58.48 184.805 58.3093 184.25 58.192C183.696 58.0747 183.024 58.016 182.234 58.016ZM175.706 63.008H188.778V64.08H175.706V63.008ZM177.29 65.312H187.098V68.576H178.618V70.32H177.322V67.6H185.802V66.336H177.29V65.312ZM177.322 70.048H187.53V71.088H177.322V70.048ZM194.819 70V58.272H198.291C199.091 58.272 199.79 58.368 200.387 58.56C200.995 58.752 201.47 59.056 201.811 59.472C202.152 59.888 202.323 60.4427 202.323 61.136C202.323 61.52 202.254 61.888 202.115 62.24C201.987 62.5813 201.795 62.88 201.539 63.136C201.283 63.3813 200.974 63.5627 200.611 63.68V63.76C201.304 63.888 201.875 64.1867 202.323 64.656C202.771 65.1253 202.995 65.76 202.995 66.56C202.995 67.328 202.803 67.968 202.419 68.48C202.046 68.9813 201.523 69.36 200.851 69.616C200.19 69.872 199.422 70 198.547 70H194.819ZM196.291 63.248H198.035C199.048 63.248 199.774 63.0773 200.211 62.736C200.648 62.3947 200.867 61.9253 200.867 61.328C200.867 60.6347 200.632 60.1493 200.163 59.872C199.704 59.584 199.016 59.44 198.099 59.44H196.291V63.248ZM196.291 68.816H198.339C199.342 68.816 200.126 68.6293 200.691 68.256C201.256 67.8827 201.539 67.3013 201.539 66.512C201.539 65.776 201.262 65.2427 200.707 64.912C200.152 64.5707 199.363 64.4 198.339 64.4H196.291V68.816ZM215.063 56.768H216.391V71.248H215.063V56.768ZM210.823 58.336H212.135C212.135 59.3813 212.007 60.3893 211.751 61.36C211.505 62.3307 211.116 63.2533 210.583 64.128C210.049 64.992 209.356 65.7973 208.503 66.544C207.649 67.2907 206.615 67.9573 205.399 68.544L204.695 67.472C206.092 66.8 207.244 66.016 208.151 65.12C209.057 64.224 209.729 63.2267 210.167 62.128C210.604 61.0187 210.823 59.824 210.823 58.544V58.336ZM205.367 58.336H211.383V59.408H205.367V58.336ZM226.502 60.224H230.39V61.312H226.502V60.224ZM223.19 57.44C223.904 57.44 224.539 57.584 225.094 57.872C225.659 58.1493 226.102 58.5387 226.422 59.04C226.742 59.5413 226.902 60.1227 226.902 60.784C226.902 61.4453 226.742 62.032 226.422 62.544C226.102 63.0453 225.659 63.44 225.094 63.728C224.539 64.0053 223.904 64.144 223.19 64.144C222.464 64.144 221.819 64.0053 221.254 63.728C220.699 63.44 220.262 63.0453 219.942 62.544C219.622 62.032 219.462 61.4453 219.462 60.784C219.462 60.1227 219.622 59.5413 219.942 59.04C220.262 58.5387 220.699 58.1493 221.254 57.872C221.819 57.584 222.464 57.44 223.19 57.44ZM223.19 58.56C222.71 58.56 222.283 58.656 221.91 58.848C221.547 59.0293 221.259 59.2907 221.046 59.632C220.832 59.9627 220.726 60.3467 220.726 60.784C220.726 61.2213 220.832 61.6107 221.046 61.952C221.259 62.2827 221.547 62.544 221.91 62.736C222.283 62.928 222.71 63.024 223.19 63.024C223.659 63.024 224.075 62.928 224.438 62.736C224.811 62.544 225.104 62.2827 225.318 61.952C225.531 61.6107 225.638 61.2213 225.638 60.784C225.638 60.3467 225.531 59.9627 225.318 59.632C225.104 59.2907 224.811 59.0293 224.438 58.848C224.075 58.656 223.659 58.56 223.19 58.56ZM229.814 56.768H231.142V64.544H229.814V56.768ZM221.878 65.264H223.19V67.072H229.814V65.264H231.142V71.056H221.878V65.264ZM223.19 68.128V69.968H229.814V68.128H223.19ZM239.828 62.4H242.548V63.488H239.828V62.4ZM244.98 56.768H246.26V71.248H244.98V56.768ZM242.1 57.072H243.364V70.512H242.1V57.072ZM237.204 57.984C237.834 57.984 238.378 58.1867 238.836 58.592C239.306 58.9973 239.668 59.5787 239.924 60.336C240.18 61.0933 240.308 61.984 240.308 63.008C240.308 64.0427 240.18 64.9387 239.924 65.696C239.668 66.4533 239.306 67.04 238.836 67.456C238.378 67.8613 237.834 68.064 237.204 68.064C236.596 68.064 236.058 67.8613 235.588 67.456C235.13 67.04 234.772 66.4533 234.516 65.696C234.26 64.9387 234.132 64.0427 234.132 63.008C234.132 61.984 234.26 61.0933 234.516 60.336C234.772 59.5787 235.13 58.9973 235.588 58.592C236.058 58.1867 236.596 57.984 237.204 57.984ZM237.204 59.216C236.831 59.216 236.506 59.3707 236.228 59.68C235.951 59.9893 235.738 60.4267 235.588 60.992C235.439 61.5573 235.364 62.2293 235.364 63.008C235.364 63.7867 235.439 64.464 235.588 65.04C235.738 65.6053 235.951 66.0427 236.228 66.352C236.506 66.6613 236.831 66.816 237.204 66.816C237.588 66.816 237.919 66.6613 238.196 66.352C238.484 66.0427 238.703 65.6053 238.852 65.04C239.002 64.464 239.076 63.7867 239.076 63.008C239.076 62.2293 239.002 61.5573 238.852 60.992C238.703 60.4267 238.484 59.9893 238.196 59.68C237.919 59.3707 237.588 59.216 237.204 59.216ZM252.685 58.112H260.429V59.216H252.685V58.112ZM252.445 65.28L252.285 64.176C253.128 64.1653 254.05 64.1547 255.053 64.144C256.066 64.1227 257.09 64.0853 258.125 64.032C259.16 63.9787 260.152 63.8933 261.101 63.776L261.197 64.768C260.237 64.9173 259.24 65.0293 258.205 65.104C257.17 65.1787 256.157 65.2267 255.165 65.248C254.184 65.2693 253.277 65.28 252.445 65.28ZM254.125 58.944H255.405V64.4H254.125V58.944ZM257.709 58.944H258.989V64.4H257.709V58.944ZM262.157 56.784H263.485V67.44H262.157V56.784ZM263.069 61.168H265.613V62.288H263.069V61.168ZM254.477 69.84H264.125V70.928H254.477V69.84ZM254.477 66.432H255.789V70.128H254.477V66.432ZM277.996 56.768H279.276V71.248H277.996V56.768ZM275.692 62.496H278.476V63.6H275.692V62.496ZM274.78 57.072H276.044V70.512H274.78V57.072ZM267.484 58.448H273.004V67.36H267.484V58.448ZM271.756 59.504H268.732V66.304H271.756V59.504ZM291.595 56.784H292.923V67.632H291.595V56.784ZM292.507 61.536H295.051V62.64H292.507V61.536ZM281.723 58.544H290.267V59.616H281.723V58.544ZM285.995 60.4C286.677 60.4 287.28 60.5173 287.803 60.752C288.325 60.976 288.731 61.2907 289.019 61.696C289.307 62.0907 289.451 62.56 289.451 63.104C289.451 63.648 289.307 64.1227 289.019 64.528C288.731 64.9227 288.325 65.232 287.803 65.456C287.28 65.68 286.677 65.792 285.995 65.792C285.312 65.792 284.709 65.68 284.187 65.456C283.664 65.232 283.253 64.9227 282.955 64.528C282.667 64.1227 282.523 63.648 282.523 63.104C282.523 62.56 282.667 62.0907 282.955 61.696C283.253 61.2907 283.664 60.976 284.187 60.752C284.709 60.5173 285.312 60.4 285.995 60.4ZM285.995 61.44C285.344 61.44 284.816 61.5947 284.411 61.904C284.005 62.2027 283.803 62.6027 283.803 63.104C283.803 63.6053 284.005 64.0053 284.411 64.304C284.816 64.6027 285.344 64.752 285.995 64.752C286.656 64.752 287.184 64.6027 287.579 64.304C287.984 64.0053 288.187 63.6053 288.187 63.104C288.187 62.6027 287.984 62.2027 287.579 61.904C287.184 61.5947 286.656 61.44 285.995 61.44ZM285.339 56.784H286.667V59.088H285.339V56.784ZM283.915 69.84H293.563V70.928H283.915V69.84ZM283.915 66.768H285.227V70.288H283.915V66.768ZM300.676 58.416H312.308V59.504H300.676V58.416ZM299.988 66.16H313.108V67.248H299.988V66.16ZM305.86 67.04H307.172V71.264H305.86V67.04ZM306.516 60.336C307.988 60.336 309.14 60.544 309.972 60.96C310.804 61.376 311.22 61.9733 311.22 62.752C311.22 63.5093 310.804 64.1013 309.972 64.528C309.14 64.944 307.988 65.152 306.516 65.152C305.044 65.152 303.892 64.944 303.06 64.528C302.228 64.1013 301.812 63.5093 301.812 62.752C301.812 61.9733 302.228 61.376 303.06 60.96C303.892 60.544 305.044 60.336 306.516 60.336ZM306.516 61.344C305.46 61.344 304.638 61.4667 304.052 61.712C303.476 61.9467 303.188 62.2933 303.188 62.752C303.188 63.1893 303.476 63.5307 304.052 63.776C304.638 64.0213 305.46 64.144 306.516 64.144C307.572 64.144 308.388 64.0213 308.964 63.776C309.55 63.5307 309.844 63.1893 309.844 62.752C309.844 62.2933 309.55 61.9467 308.964 61.712C308.388 61.4667 307.572 61.344 306.516 61.344ZM305.86 56.688H307.172V59.136H305.86V56.688ZM328.076 56.768H329.404V71.264H328.076V56.768ZM329.1 62.48H331.772V63.584H329.1V62.48ZM318.908 66.528H320.044C320.93 66.528 321.74 66.5173 322.476 66.496C323.223 66.464 323.938 66.4107 324.62 66.336C325.314 66.2613 326.018 66.16 326.732 66.032L326.892 67.168C326.146 67.296 325.42 67.3973 324.716 67.472C324.023 67.5467 323.298 67.5947 322.54 67.616C321.783 67.6373 320.951 67.648 320.044 67.648H318.908V66.528ZM318.908 58.176H325.612V59.264H320.22V67.04H318.908V58.176ZM336.811 58.016H337.915V60.608C337.915 61.44 337.808 62.2507 337.595 63.04C337.392 63.8187 337.099 64.5493 336.715 65.232C336.342 65.904 335.899 66.5013 335.387 67.024C334.886 67.536 334.336 67.9413 333.739 68.24L332.923 67.136C333.467 66.8907 333.974 66.5387 334.443 66.08C334.912 65.6213 335.323 65.104 335.675 64.528C336.027 63.9413 336.304 63.312 336.507 62.64C336.71 61.968 336.811 61.2907 336.811 60.608V58.016ZM337.035 58.016H338.139V60.608C338.139 61.2693 338.235 61.92 338.427 62.56C338.63 63.2 338.907 63.808 339.259 64.384C339.622 64.9493 340.032 65.4507 340.491 65.888C340.96 66.3147 341.462 66.6507 341.995 66.896L341.195 67.952C340.608 67.6747 340.064 67.2853 339.563 66.784C339.062 66.2827 338.619 65.7067 338.235 65.056C337.862 64.4053 337.568 63.7013 337.355 62.944C337.142 62.1867 337.035 61.408 337.035 60.608V58.016ZM343.515 56.768H344.843V71.264H343.515V56.768ZM352.116 70V58.272H355.588C356.388 58.272 357.087 58.368 357.684 58.56C358.292 58.752 358.767 59.056 359.108 59.472C359.449 59.888 359.62 60.4427 359.62 61.136C359.62 61.52 359.551 61.888 359.412 62.24C359.284 62.5813 359.092 62.88 358.836 63.136C358.58 63.3813 358.271 63.5627 357.908 63.68V63.76C358.601 63.888 359.172 64.1867 359.62 64.656C360.068 65.1253 360.292 65.76 360.292 66.56C360.292 67.328 360.1 67.968 359.716 68.48C359.343 68.9813 358.82 69.36 358.148 69.616C357.487 69.872 356.719 70 355.844 70H352.116ZM353.588 63.248H355.332C356.345 63.248 357.071 63.0773 357.508 62.736C357.945 62.3947 358.164 61.9253 358.164 61.328C358.164 60.6347 357.929 60.1493 357.46 59.872C357.001 59.584 356.313 59.44 355.396 59.44H353.588V63.248ZM353.588 68.816H355.636C356.639 68.816 357.423 68.6293 357.988 68.256C358.553 67.8827 358.836 67.3013 358.836 66.512C358.836 65.776 358.559 65.2427 358.004 64.912C357.449 64.5707 356.66 64.4 355.636 64.4H353.588V68.816ZM372.36 56.768H373.688V71.248H372.36V56.768ZM368.12 58.336H369.432C369.432 59.3813 369.304 60.3893 369.048 61.36C368.802 62.3307 368.413 63.2533 367.88 64.128C367.346 64.992 366.653 65.7973 365.8 66.544C364.946 67.2907 363.912 67.9573 362.696 68.544L361.992 67.472C363.389 66.8 364.541 66.016 365.448 65.12C366.354 64.224 367.026 63.2267 367.464 62.128C367.901 61.0187 368.12 59.824 368.12 58.544V58.336ZM362.664 58.336H368.68V59.408H362.664V58.336ZM383.798 60.224H387.686V61.312H383.798V60.224ZM380.486 57.44C381.201 57.44 381.836 57.584 382.39 57.872C382.956 58.1493 383.398 58.5387 383.718 59.04C384.038 59.5413 384.198 60.1227 384.198 60.784C384.198 61.4453 384.038 62.032 383.718 62.544C383.398 63.0453 382.956 63.44 382.39 63.728C381.836 64.0053 381.201 64.144 380.486 64.144C379.761 64.144 379.116 64.0053 378.55 63.728C377.996 63.44 377.558 63.0453 377.238 62.544C376.918 62.032 376.758 61.4453 376.758 60.784C376.758 60.1227 376.918 59.5413 377.238 59.04C377.558 58.5387 377.996 58.1493 378.55 57.872C379.116 57.584 379.761 57.44 380.486 57.44ZM380.486 58.56C380.006 58.56 379.58 58.656 379.206 58.848C378.844 59.0293 378.556 59.2907 378.342 59.632C378.129 59.9627 378.022 60.3467 378.022 60.784C378.022 61.2213 378.129 61.6107 378.342 61.952C378.556 62.2827 378.844 62.544 379.206 62.736C379.58 62.928 380.006 63.024 380.486 63.024C380.956 63.024 381.372 62.928 381.734 62.736C382.108 62.544 382.401 62.2827 382.614 61.952C382.828 61.6107 382.934 61.2213 382.934 60.784C382.934 60.3467 382.828 59.9627 382.614 59.632C382.401 59.2907 382.108 59.0293 381.734 58.848C381.372 58.656 380.956 58.56 380.486 58.56ZM387.11 56.768H388.438V64.544H387.11V56.768ZM379.174 65.264H380.486V67.072H387.11V65.264H388.438V71.056H379.174V65.264ZM380.486 68.128V69.968H387.11V68.128H380.486ZM397.781 57.696C398.794 57.696 399.696 57.8613 400.485 58.192C401.274 58.5227 401.898 58.9867 402.357 59.584C402.816 60.1813 403.045 60.88 403.045 61.68C403.045 62.4907 402.816 63.1947 402.357 63.792C401.898 64.3893 401.274 64.8533 400.485 65.184C399.696 65.5147 398.794 65.68 397.781 65.68C396.789 65.68 395.893 65.5147 395.093 65.184C394.304 64.8533 393.68 64.3893 393.221 63.792C392.762 63.1947 392.533 62.4907 392.533 61.68C392.533 60.88 392.762 60.1813 393.221 59.584C393.68 58.9867 394.304 58.5227 395.093 58.192C395.893 57.8613 396.789 57.696 397.781 57.696ZM397.781 58.768C397.024 58.768 396.346 58.8907 395.749 59.136C395.152 59.3813 394.677 59.7227 394.325 60.16C393.973 60.5867 393.797 61.0933 393.797 61.68C393.797 62.256 393.973 62.7627 394.325 63.2C394.677 63.6373 395.152 63.9787 395.749 64.224C396.346 64.4693 397.024 64.592 397.781 64.592C398.549 64.592 399.232 64.4693 399.829 64.224C400.426 63.9787 400.896 63.6373 401.237 63.2C401.589 62.7627 401.765 62.256 401.765 61.68C401.765 61.0933 401.589 60.5867 401.237 60.16C400.896 59.7227 400.426 59.3813 399.829 59.136C399.232 58.8907 398.549 58.768 397.781 58.768ZM391.253 68.224H404.373V69.328H391.253V68.224ZM405.972 68.352H419.092V69.456H405.972V68.352ZM411.844 65.264H413.156V68.816H411.844V65.264ZM407.572 57.84H417.46V62.224H408.916V65.12H407.604V61.168H416.148V58.928H407.572V57.84ZM407.604 64.56H417.796V65.648H407.604V64.56ZM420.675 65.344H433.795V66.416H420.675V65.344ZM426.547 65.84H427.859V71.248H426.547V65.84ZM422.339 57.36H423.651V59.344H430.803V57.36H432.131V63.616H422.339V57.36ZM423.651 60.416V62.528H430.803V60.416H423.651ZM446.001 56.768H447.313V71.264H446.001V56.768ZM443.009 62.224H446.209V63.312H443.009V62.224ZM436.081 66.688H437.169C438.087 66.688 438.903 66.6773 439.617 66.656C440.332 66.6347 441.009 66.592 441.649 66.528C442.3 66.464 442.961 66.3733 443.633 66.256L443.777 67.344C443.084 67.4613 442.407 67.552 441.745 67.616C441.084 67.68 440.385 67.728 439.649 67.76C438.924 67.7813 438.097 67.792 437.169 67.792H436.081V66.688ZM436.081 58.096H442.769V59.184H437.393V67.056H436.081V58.096ZM437.057 62.16H442.129V63.232H437.057V62.16ZM453.674 59.248H460.858V60.336H453.674V59.248ZM457.274 61.296C457.882 61.296 458.416 61.4347 458.874 61.712C459.344 61.9893 459.712 62.3787 459.978 62.88C460.245 63.3707 460.378 63.9413 460.378 64.592C460.378 65.2427 460.245 65.8187 459.978 66.32C459.712 66.8107 459.344 67.2 458.874 67.488C458.416 67.7653 457.882 67.904 457.274 67.904C456.677 67.904 456.144 67.7653 455.674 67.488C455.205 67.2 454.837 66.8107 454.57 66.32C454.304 65.8187 454.17 65.2427 454.17 64.592C454.17 63.9413 454.304 63.3707 454.57 62.88C454.837 62.3893 455.205 62.0053 455.674 61.728C456.144 61.44 456.677 61.296 457.274 61.296ZM457.274 62.416C456.912 62.416 456.581 62.512 456.282 62.704C455.994 62.8853 455.765 63.1413 455.594 63.472C455.434 63.792 455.354 64.1653 455.354 64.592C455.354 65.0187 455.434 65.3973 455.594 65.728C455.765 66.0587 455.994 66.3147 456.282 66.496C456.581 66.6773 456.912 66.768 457.274 66.768C457.648 66.768 457.978 66.6773 458.266 66.496C458.554 66.3147 458.778 66.0587 458.938 65.728C459.109 65.3973 459.194 65.0187 459.194 64.592C459.194 64.1653 459.109 63.792 458.938 63.472C458.778 63.1413 458.554 62.8853 458.266 62.704C457.978 62.512 457.648 62.416 457.274 62.416ZM464.682 56.768H465.946V71.248H464.682V56.768ZM462.362 62.864H465.098V63.952H462.362V62.864ZM461.578 57.104H462.826V70.544H461.578V57.104ZM456.618 57.2H457.93V59.904H456.618V57.2ZM478.329 56.768H479.673V65.376H478.329V56.768ZM479.289 60.528H481.785V61.632H479.289V60.528ZM475.049 65.68C476.02 65.68 476.857 65.792 477.561 66.016C478.276 66.2293 478.825 66.544 479.209 66.96C479.604 67.3653 479.801 67.8613 479.801 68.448C479.801 69.024 479.604 69.52 479.209 69.936C478.825 70.352 478.276 70.6667 477.561 70.88C476.857 71.104 476.02 71.216 475.049 71.216C474.068 71.216 473.22 71.104 472.505 70.88C471.79 70.6667 471.241 70.352 470.857 69.936C470.473 69.52 470.281 69.024 470.281 68.448C470.281 67.8613 470.473 67.3653 470.857 66.96C471.241 66.544 471.79 66.2293 472.505 66.016C473.22 65.792 474.068 65.68 475.049 65.68ZM475.049 66.752C474.334 66.752 473.716 66.8213 473.193 66.96C472.681 67.088 472.281 67.28 471.993 67.536C471.716 67.7813 471.577 68.0853 471.577 68.448C471.577 68.8 471.716 69.104 471.993 69.36C472.281 69.616 472.681 69.8133 473.193 69.952C473.716 70.08 474.334 70.144 475.049 70.144C475.753 70.144 476.366 70.08 476.889 69.952C477.412 69.8133 477.812 69.616 478.089 69.36C478.366 69.104 478.505 68.8 478.505 68.448C478.505 68.0853 478.366 67.7813 478.089 67.536C477.812 67.28 477.412 67.088 476.889 66.96C476.366 66.8213 475.753 66.752 475.049 66.752ZM469.065 63.136H470.185C471.198 63.136 472.078 63.1253 472.825 63.104C473.572 63.0827 474.26 63.0347 474.889 62.96C475.518 62.8853 476.158 62.784 476.809 62.656L476.953 63.744C476.292 63.872 475.636 63.9733 474.985 64.048C474.345 64.112 473.641 64.16 472.873 64.192C472.105 64.2133 471.209 64.224 470.185 64.224H469.065V63.136ZM469.065 57.872H475.449V58.96H470.377V63.856H469.065V57.872ZM490.29 58.848H491.362V61.184C491.362 61.9413 491.255 62.6933 491.042 63.44C490.829 64.176 490.53 64.8747 490.146 65.536C489.773 66.1867 489.341 66.768 488.85 67.28C488.359 67.7813 487.831 68.176 487.266 68.464L486.482 67.408C487.005 67.152 487.49 66.8053 487.938 66.368C488.397 65.92 488.802 65.4133 489.154 64.848C489.506 64.272 489.783 63.6747 489.986 63.056C490.189 62.4267 490.29 61.8027 490.29 61.184V58.848ZM490.546 58.848H491.602V61.184C491.602 61.76 491.693 62.3413 491.874 62.928C492.066 63.5147 492.333 64.0747 492.674 64.608C493.015 65.1413 493.41 65.6213 493.858 66.048C494.317 66.464 494.802 66.8 495.314 67.056L494.562 68.112C493.997 67.824 493.469 67.44 492.978 66.96C492.487 66.4693 492.061 65.9147 491.698 65.296C491.335 64.6773 491.053 64.016 490.85 63.312C490.647 62.608 490.546 61.8987 490.546 61.184V58.848ZM486.994 58.256H494.802V59.36H486.994V58.256ZM496.514 56.768H497.842V71.248H496.514V56.768ZM497.538 62.608H500.21V63.728H497.538V62.608ZM504.993 57.648H506.097V59.424C506.097 60.3733 505.931 61.248 505.601 62.048C505.27 62.8373 504.806 63.5253 504.209 64.112C503.611 64.6987 502.907 65.1467 502.097 65.456L501.377 64.4C502.113 64.144 502.753 63.7707 503.297 63.28C503.841 62.7787 504.257 62.1973 504.545 61.536C504.843 60.8747 504.993 60.1707 504.993 59.424V57.648ZM505.233 57.648H506.305V59.472C506.305 59.9627 506.39 60.4427 506.561 60.912C506.742 61.3813 506.987 61.824 507.297 62.24C507.617 62.6453 507.99 63.0027 508.417 63.312C508.854 63.6107 509.339 63.856 509.873 64.048L509.201 65.104C508.411 64.8053 507.718 64.3787 507.121 63.824C506.523 63.2693 506.059 62.6187 505.729 61.872C505.398 61.1253 505.233 60.3253 505.233 59.472V57.648ZM511.345 56.768H512.673V67.456H511.345V56.768ZM512.257 61.2H514.801V62.32H512.257V61.2ZM503.681 69.84H513.313V70.928H503.681V69.84ZM503.681 66.432H505.025V70.368H503.681V66.432ZM522.687 57.024C524.287 57.024 525.535 57.2427 526.431 57.68C527.327 58.1067 527.775 58.72 527.775 59.52C527.775 60.3307 527.327 60.9547 526.431 61.392C525.535 61.8187 524.287 62.032 522.687 62.032C521.098 62.032 519.85 61.8187 518.943 61.392C518.047 60.9547 517.599 60.3307 517.599 59.52C517.599 58.72 518.047 58.1067 518.943 57.68C519.85 57.2427 521.098 57.024 522.687 57.024ZM522.687 58.016C521.909 58.016 521.242 58.0747 520.687 58.192C520.133 58.3093 519.706 58.48 519.407 58.704C519.119 58.928 518.975 59.2 518.975 59.52C518.975 59.84 519.119 60.1173 519.407 60.352C519.706 60.576 520.133 60.7467 520.687 60.864C521.242 60.9707 521.909 61.024 522.687 61.024C523.477 61.024 524.149 60.9707 524.703 60.864C525.258 60.7467 525.679 60.576 525.967 60.352C526.266 60.1173 526.415 59.84 526.415 59.52C526.415 59.2 526.266 58.928 525.967 58.704C525.679 58.48 525.258 58.3093 524.703 58.192C524.149 58.0747 523.477 58.016 522.687 58.016ZM516.159 63.008H529.231V64.08H516.159V63.008ZM517.743 65.312H527.551V68.576H519.071V70.32H517.775V67.6H526.255V66.336H517.743V65.312ZM517.775 70.048H527.983V71.088H517.775V70.048ZM99.328 80.784H100.656V89.04H99.328V80.784ZM91.312 89.824H100.656V95.056H91.312V89.824ZM99.36 90.896H92.608V93.968H99.36V90.896ZM92.896 81.536C93.632 81.536 94.2827 81.68 94.848 81.968C95.4133 82.256 95.856 82.656 96.176 83.168C96.5067 83.6693 96.672 84.256 96.672 84.928C96.672 85.5893 96.5067 86.176 96.176 86.688C95.856 87.1893 95.4133 87.584 94.848 87.872C94.2827 88.16 93.632 88.304 92.896 88.304C92.1707 88.304 91.52 88.16 90.944 87.872C90.3787 87.584 89.9307 87.1893 89.6 86.688C89.28 86.176 89.12 85.5893 89.12 84.928C89.12 84.256 89.28 83.6693 89.6 83.168C89.9307 82.656 90.3787 82.256 90.944 81.968C91.52 81.68 92.1707 81.536 92.896 81.536ZM92.896 82.656C92.4267 82.656 92.0053 82.752 91.632 82.944C91.2587 83.136 90.96 83.4027 90.736 83.744C90.5227 84.0747 90.416 84.4693 90.416 84.928C90.416 85.3653 90.5227 85.7547 90.736 86.096C90.96 86.4373 91.2587 86.704 91.632 86.896C92.0053 87.088 92.4267 87.184 92.896 87.184C93.376 87.184 93.8027 87.088 94.176 86.896C94.5493 86.704 94.8427 86.4373 95.056 86.096C95.2693 85.7547 95.376 85.3653 95.376 84.928C95.376 84.4693 95.2693 84.0747 95.056 83.744C94.8427 83.4027 94.5493 83.136 94.176 82.944C93.8027 82.752 93.376 82.656 92.896 82.656ZM107.039 84.208H108.095V85.456C108.095 86.2133 107.993 86.9547 107.791 87.68C107.599 88.3947 107.321 89.0613 106.959 89.68C106.607 90.2987 106.191 90.848 105.711 91.328C105.231 91.7973 104.703 92.1707 104.127 92.448L103.375 91.424C103.908 91.168 104.399 90.832 104.847 90.416C105.295 90 105.679 89.5253 105.999 88.992C106.329 88.4587 106.585 87.8933 106.767 87.296C106.948 86.688 107.039 86.0747 107.039 85.456V84.208ZM107.295 84.208H108.335V85.456C108.335 86.032 108.42 86.608 108.591 87.184C108.772 87.7493 109.017 88.288 109.327 88.8C109.636 89.3013 110.004 89.76 110.431 90.176C110.868 90.5813 111.348 90.912 111.871 91.168L111.119 92.176C110.553 91.8987 110.036 91.5307 109.567 91.072C109.108 90.6027 108.708 90.0747 108.367 89.488C108.025 88.8907 107.759 88.2507 107.567 87.568C107.385 86.8747 107.295 86.1707 107.295 85.456V84.208ZM103.775 83.28H111.551V84.352H103.775V83.28ZM107.023 81.04H108.351V83.872H107.023V81.04ZM113.311 80.768H114.639V95.248H113.311V80.768ZM114.335 86.704H117.007V87.824H114.335V86.704ZM128.046 80.768H129.358V95.248H128.046V80.768ZM129.054 86.72H131.726V87.84H129.054V86.72ZM118.158 83.088H126.686V84.176H118.158V83.088ZM122.494 85.36C123.176 85.36 123.779 85.504 124.302 85.792C124.835 86.08 125.251 86.4747 125.55 86.976C125.859 87.4667 126.014 88.0373 126.014 88.688C126.014 89.3387 125.859 89.9147 125.55 90.416C125.251 90.9173 124.835 91.312 124.302 91.6C123.779 91.8773 123.176 92.016 122.494 92.016C121.811 92.016 121.203 91.8773 120.67 91.6C120.147 91.312 119.731 90.9173 119.422 90.416C119.112 89.9147 118.958 89.3387 118.958 88.688C118.958 88.0373 119.112 87.4667 119.422 86.976C119.731 86.4747 120.147 86.08 120.67 85.792C121.203 85.504 121.811 85.36 122.494 85.36ZM122.494 86.464C122.056 86.464 121.667 86.56 121.326 86.752C120.984 86.944 120.712 87.2053 120.51 87.536C120.318 87.8667 120.222 88.2507 120.222 88.688C120.222 89.1253 120.318 89.5147 120.51 89.856C120.712 90.1867 120.984 90.448 121.326 90.64C121.667 90.8213 122.056 90.912 122.494 90.912C122.92 90.912 123.304 90.8213 123.646 90.64C123.987 90.448 124.254 90.1867 124.446 89.856C124.648 89.5147 124.75 89.1253 124.75 88.688C124.75 88.2507 124.648 87.8667 124.446 87.536C124.254 87.2053 123.987 86.944 123.646 86.752C123.304 86.56 122.92 86.464 122.494 86.464ZM121.806 80.944H123.134V83.568H121.806V80.944ZM134.716 85.12H144.556V86.192H134.716V85.12ZM132.94 88.128H146.06V89.216H132.94V88.128ZM134.716 81.296H136.028V85.664H134.716V81.296ZM134.62 93.808H144.636V94.896H134.62V93.808ZM134.62 90.672H135.948V94.096H134.62V90.672ZM151.685 82.112H159.429V83.216H151.685V82.112ZM151.445 89.28L151.285 88.176C152.128 88.1653 153.05 88.1547 154.053 88.144C155.066 88.1227 156.09 88.0853 157.125 88.032C158.16 87.9787 159.152 87.8933 160.101 87.776L160.197 88.768C159.237 88.9173 158.24 89.0293 157.205 89.104C156.17 89.1787 155.157 89.2267 154.165 89.248C153.184 89.2693 152.277 89.28 151.445 89.28ZM153.125 82.944H154.405V88.4H153.125V82.944ZM156.709 82.944H157.989V88.4H156.709V82.944ZM161.157 80.784H162.485V91.44H161.157V80.784ZM162.069 85.168H164.613V86.288H162.069V85.168ZM153.477 93.84H163.125V94.928H153.477V93.84ZM153.477 90.432H154.789V94.128H153.477V90.432ZM176.996 80.768H178.276V95.248H176.996V80.768ZM174.692 86.496H177.476V87.6H174.692V86.496ZM173.78 81.072H175.044V94.512H173.78V81.072ZM166.484 82.448H172.004V91.36H166.484V82.448ZM170.756 83.504H167.732V90.304H170.756V83.504ZM181.379 82.416H193.011V83.504H181.379V82.416ZM180.691 90.16H193.811V91.248H180.691V90.16ZM186.563 91.04H187.875V95.264H186.563V91.04ZM187.219 84.336C188.691 84.336 189.843 84.544 190.675 84.96C191.507 85.376 191.923 85.9733 191.923 86.752C191.923 87.5093 191.507 88.1013 190.675 88.528C189.843 88.944 188.691 89.152 187.219 89.152C185.747 89.152 184.595 88.944 183.763 88.528C182.931 88.1013 182.515 87.5093 182.515 86.752C182.515 85.9733 182.931 85.376 183.763 84.96C184.595 84.544 185.747 84.336 187.219 84.336ZM187.219 85.344C186.163 85.344 185.341 85.4667 184.755 85.712C184.179 85.9467 183.891 86.2933 183.891 86.752C183.891 87.1893 184.179 87.5307 184.755 87.776C185.341 88.0213 186.163 88.144 187.219 88.144C188.275 88.144 189.091 88.0213 189.667 87.776C190.253 87.5307 190.547 87.1893 190.547 86.752C190.547 86.2933 190.253 85.9467 189.667 85.712C189.091 85.4667 188.275 85.344 187.219 85.344ZM186.563 80.688H187.875V83.136H186.563V80.688ZM205.953 80.768H207.265V95.264H205.953V80.768ZM196.241 90.656H197.441C198.263 90.656 199.052 90.6453 199.809 90.624C200.577 90.592 201.351 90.5387 202.129 90.464C202.919 90.3893 203.74 90.2827 204.593 90.144L204.721 91.232C203.42 91.4453 202.193 91.5893 201.041 91.664C199.889 91.728 198.689 91.76 197.441 91.76H196.241V90.656ZM196.209 82.112H202.897V87.28H197.585V91.072H196.241V86.208H201.553V83.2H196.209V82.112ZM215.92 81.76H217.088V82.88C217.088 83.5093 216.976 84.1067 216.752 84.672C216.539 85.2373 216.24 85.7653 215.856 86.256C215.483 86.736 215.045 87.168 214.544 87.552C214.053 87.936 213.525 88.2613 212.96 88.528C212.405 88.7947 211.84 88.9973 211.264 89.136L210.672 88.032C211.173 87.9253 211.675 87.76 212.176 87.536C212.688 87.312 213.168 87.04 213.616 86.72C214.064 86.3893 214.459 86.0213 214.8 85.616C215.152 85.2107 215.424 84.7787 215.616 84.32C215.819 83.8507 215.92 83.3707 215.92 82.88V81.76ZM216.176 81.76H217.312V82.88C217.312 83.3707 217.413 83.8507 217.616 84.32C217.819 84.7787 218.091 85.2107 218.432 85.616C218.784 86.0213 219.184 86.3893 219.632 86.72C220.08 87.04 220.555 87.3173 221.056 87.552C221.568 87.776 222.08 87.936 222.592 88.032L221.984 89.136C221.408 88.9973 220.843 88.7947 220.288 88.528C219.733 88.2613 219.205 87.936 218.704 87.552C218.213 87.168 217.776 86.736 217.392 86.256C217.008 85.7653 216.709 85.2373 216.496 84.672C216.283 84.1067 216.176 83.5093 216.176 82.88V81.76ZM210.128 92.192H223.248V93.296H210.128V92.192ZM239.001 80.768H240.313V95.248H239.001V80.768ZM235.625 86.576H239.593V87.68H235.625V86.576ZM234.361 82.336H235.657C235.657 83.36 235.54 84.3573 235.305 85.328C235.081 86.288 234.713 87.2 234.201 88.064C233.7 88.928 233.033 89.7333 232.201 90.48C231.369 91.2267 230.35 91.8987 229.145 92.496L228.409 91.456C229.465 90.944 230.366 90.368 231.113 89.728C231.87 89.088 232.489 88.3947 232.969 87.648C233.449 86.8907 233.801 86.0907 234.025 85.248C234.249 84.3947 234.361 83.4933 234.361 82.544V82.336ZM229.049 82.336H235.049V83.408H229.049V82.336ZM243.624 90.672H244.568C245.453 90.672 246.317 90.6507 247.16 90.608C248.002 90.5547 248.909 90.448 249.88 90.288L250.008 91.376C249.005 91.5573 248.072 91.6747 247.208 91.728C246.354 91.7707 245.474 91.792 244.568 91.792H243.624V90.672ZM243.592 82.336H249V87.424H244.904V91.088H243.624V86.336H247.72V83.44H243.592V82.336ZM254.152 80.768H255.416V95.248H254.152V80.768ZM251.704 86.48H254.488V87.568H251.704V86.48ZM250.872 81.088H252.104V94.496H250.872V81.088ZM262.551 81.824C263.308 81.824 263.975 81.968 264.551 82.256C265.137 82.5333 265.596 82.928 265.927 83.44C266.257 83.952 266.423 84.5493 266.423 85.232C266.423 85.904 266.257 86.5013 265.927 87.024C265.596 87.536 265.137 87.936 264.551 88.224C263.975 88.5013 263.308 88.64 262.551 88.64C261.804 88.64 261.137 88.5013 260.551 88.224C259.964 87.936 259.5 87.536 259.159 87.024C258.828 86.5013 258.663 85.904 258.663 85.232C258.663 84.5493 258.828 83.952 259.159 83.44C259.5 82.928 259.964 82.5333 260.551 82.256C261.137 81.968 261.804 81.824 262.551 81.824ZM262.551 82.976C262.06 82.976 261.617 83.072 261.223 83.264C260.839 83.4453 260.535 83.7067 260.311 84.048C260.087 84.3893 259.975 84.784 259.975 85.232C259.975 85.68 260.087 86.0747 260.311 86.416C260.535 86.7573 260.839 87.024 261.223 87.216C261.617 87.3973 262.06 87.488 262.551 87.488C263.052 87.488 263.495 87.3973 263.879 87.216C264.263 87.024 264.567 86.7573 264.791 86.416C265.015 86.0747 265.127 85.68 265.127 85.232C265.127 84.784 265.015 84.3893 264.791 84.048C264.567 83.7067 264.263 83.4453 263.879 83.264C263.495 83.072 263.052 82.976 262.551 82.976ZM268.327 80.768H269.655V95.264H268.327V80.768ZM258.118 92.096L257.943 90.976C258.828 90.976 259.799 90.9707 260.855 90.96C261.911 90.9387 262.999 90.896 264.119 90.832C265.249 90.7573 266.337 90.64 267.383 90.48L267.495 91.456C266.407 91.6587 265.303 91.808 264.183 91.904C263.073 91.9893 262.001 92.0427 260.967 92.064C259.932 92.0853 258.982 92.096 258.118 92.096ZM283.087 83.44H286.959V84.512H283.087V83.44ZM282.959 86.448H286.863V87.536H282.959V86.448ZM286.735 80.784H288.063V89.44H286.735V80.784ZM282.207 81.856H283.615C283.615 83.0933 283.343 84.208 282.799 85.2C282.266 86.192 281.493 87.0453 280.479 87.76C279.477 88.464 278.282 89.024 276.895 89.44L276.351 88.384C277.578 88.0213 278.629 87.552 279.503 86.976C280.378 86.3893 281.045 85.7173 281.503 84.96C281.973 84.192 282.207 83.3493 282.207 82.432V81.856ZM277.087 81.856H283.103V82.944H277.087V81.856ZM283.359 89.6C284.341 89.6 285.183 89.712 285.887 89.936C286.602 90.16 287.157 90.48 287.551 90.896C287.946 91.312 288.143 91.808 288.143 92.384C288.143 92.9707 287.946 93.472 287.551 93.888C287.157 94.2933 286.602 94.608 285.887 94.832C285.183 95.0667 284.341 95.184 283.359 95.184C282.389 95.184 281.541 95.0667 280.815 94.832C280.101 94.608 279.546 94.2933 279.151 93.888C278.757 93.472 278.559 92.9707 278.559 92.384C278.559 91.808 278.757 91.312 279.151 90.896C279.546 90.48 280.101 90.16 280.815 89.936C281.541 89.712 282.389 89.6 283.359 89.6ZM283.359 90.656C282.655 90.656 282.042 90.7253 281.519 90.864C280.997 91.0027 280.591 91.2 280.303 91.456C280.015 91.712 279.871 92.0213 279.871 92.384C279.871 92.7467 280.015 93.056 280.303 93.312C280.591 93.568 280.997 93.7653 281.519 93.904C282.042 94.0427 282.655 94.112 283.359 94.112C284.074 94.112 284.687 94.0427 285.199 93.904C285.711 93.7653 286.111 93.568 286.399 93.312C286.687 93.056 286.831 92.7467 286.831 92.384C286.831 92.0213 286.687 91.712 286.399 91.456C286.111 91.2 285.711 91.0027 285.199 90.864C284.687 90.7253 284.074 90.656 283.359 90.656ZM290.862 89.056H303.982V90.16H290.862V89.056ZM296.734 89.728H298.046V95.248H296.734V89.728ZM297.39 81.344C298.403 81.344 299.289 81.4773 300.046 81.744C300.803 82 301.395 82.368 301.822 82.848C302.249 83.3173 302.462 83.8773 302.462 84.528C302.462 85.168 302.249 85.728 301.822 86.208C301.395 86.688 300.803 87.056 300.046 87.312C299.289 87.568 298.403 87.696 297.39 87.696C296.398 87.696 295.518 87.568 294.75 87.312C293.993 87.056 293.401 86.688 292.974 86.208C292.547 85.728 292.334 85.168 292.334 84.528C292.334 83.8773 292.547 83.3173 292.974 82.848C293.401 82.368 293.993 82 294.75 81.744C295.518 81.4773 296.398 81.344 297.39 81.344ZM297.39 82.416C296.665 82.416 296.019 82.5013 295.454 82.672C294.899 82.8427 294.467 83.088 294.158 83.408C293.849 83.7173 293.694 84.0853 293.694 84.512C293.694 84.9493 293.849 85.328 294.158 85.648C294.467 85.9573 294.899 86.1973 295.454 86.368C296.019 86.5387 296.665 86.624 297.39 86.624C298.137 86.624 298.787 86.5387 299.342 86.368C299.897 86.1973 300.329 85.9573 300.638 85.648C300.947 85.328 301.102 84.9493 301.102 84.512C301.102 84.0853 300.947 83.7173 300.638 83.408C300.329 83.088 299.897 82.8427 299.342 82.672C298.787 82.5013 298.137 82.416 297.39 82.416ZM305.997 97.04L305.645 96.176C306.146 95.952 306.541 95.648 306.829 95.264C307.117 94.88 307.256 94.4427 307.245 93.952L307.085 92.64L307.805 93.712C307.698 93.8293 307.581 93.9147 307.453 93.968C307.336 94.0107 307.208 94.032 307.069 94.032C306.781 94.032 306.53 93.9413 306.317 93.76C306.104 93.5787 305.997 93.328 305.997 93.008C305.997 92.688 306.104 92.4373 306.317 92.256C306.541 92.0747 306.802 91.984 307.101 91.984C307.485 91.984 307.784 92.1387 307.997 92.448C308.221 92.7467 308.333 93.1627 308.333 93.696C308.333 94.464 308.12 95.136 307.693 95.712C307.277 96.288 306.712 96.7307 305.997 97.04ZM319.324 85.952H322.108V87.056H319.324V85.952ZM316.636 82.128H317.676V84.896C317.676 85.6427 317.596 86.3787 317.436 87.104C317.287 87.8293 317.063 88.512 316.764 89.152C316.476 89.792 316.124 90.368 315.708 90.88C315.292 91.392 314.823 91.808 314.3 92.128L313.468 91.136C313.959 90.8373 314.401 90.464 314.796 90.016C315.191 89.568 315.521 89.0667 315.788 88.512C316.065 87.9467 316.273 87.36 316.412 86.752C316.561 86.1333 316.636 85.5147 316.636 84.896V82.128ZM316.892 82.128H317.916V84.848C317.916 85.424 317.98 86.0053 318.108 86.592C318.247 87.168 318.439 87.7227 318.684 88.256C318.94 88.7787 319.255 89.2587 319.628 89.696C320.001 90.1333 320.423 90.496 320.892 90.784L320.14 91.808C319.617 91.488 319.153 91.0827 318.748 90.592C318.343 90.0907 318.001 89.5307 317.724 88.912C317.447 88.2827 317.239 87.6213 317.1 86.928C316.961 86.2347 316.892 85.5413 316.892 84.848V82.128ZM324.652 80.768H325.932V95.248H324.652V80.768ZM321.708 81.072H322.956V94.512H321.708V81.072ZM330.011 81.536H339.323V82.624H330.011V81.536ZM328.347 86.864H341.467V87.952H328.347V86.864ZM338.459 81.536H339.771V82.608C339.771 83.216 339.75 83.888 339.707 84.624C339.664 85.36 339.526 86.2347 339.291 87.248L337.979 87.168C338.214 86.1867 338.352 85.3333 338.395 84.608C338.438 83.872 338.459 83.2053 338.459 82.608V81.536ZM329.963 89.92H339.819V95.056H329.963V89.92ZM338.507 90.976H331.259V93.968H338.507V90.976ZM348.682 84.784H351.882V85.872H348.682V84.784ZM348.57 88.416H351.85V89.504H348.57V88.416ZM354.09 80.768H355.37V95.248H354.09V80.768ZM351.178 81.152H352.442V94.512H351.178V81.152ZM347.962 82.608H349.242C349.242 83.8667 349.06 85.0773 348.698 86.24C348.335 87.392 347.754 88.4693 346.954 89.472C346.164 90.464 345.124 91.3493 343.834 92.128L343.05 91.168C344.18 90.4853 345.108 89.7173 345.834 88.864C346.559 88 347.092 87.0667 347.434 86.064C347.786 85.0507 347.962 83.9787 347.962 82.848V82.608ZM343.69 82.608H348.474V83.696H343.69V82.608ZM361.336 81.648H362.44V83.424C362.44 84.3733 362.275 85.248 361.944 86.048C361.614 86.8373 361.15 87.5253 360.552 88.112C359.955 88.6987 359.251 89.1467 358.44 89.456L357.72 88.4C358.456 88.144 359.096 87.7707 359.64 87.28C360.184 86.7787 360.6 86.1973 360.888 85.536C361.187 84.8747 361.336 84.1707 361.336 83.424V81.648ZM361.576 81.648H362.648V83.472C362.648 83.9627 362.734 84.4427 362.904 84.912C363.086 85.3813 363.331 85.824 363.64 86.24C363.96 86.6453 364.334 87.0027 364.76 87.312C365.198 87.6107 365.683 87.856 366.216 88.048L365.544 89.104C364.755 88.8053 364.062 88.3787 363.464 87.824C362.867 87.2693 362.403 86.6187 362.072 85.872C361.742 85.1253 361.576 84.3253 361.576 83.472V81.648ZM367.688 80.768H369.016V91.456H367.688V80.768ZM368.6 85.2H371.144V86.32H368.6V85.2ZM360.024 93.84H369.656V94.928H360.024V93.84ZM360.024 90.432H361.368V94.368H360.024V90.432ZM379.735 85.68H383.751V86.768H379.735V85.68ZM376.231 82.016H377.319V84.608C377.319 85.408 377.218 86.1973 377.015 86.976C376.823 87.7547 376.546 88.48 376.183 89.152C375.82 89.824 375.394 90.4213 374.903 90.944C374.423 91.4667 373.895 91.8827 373.319 92.192L372.487 91.12C373.02 90.864 373.511 90.5067 373.959 90.048C374.418 89.5893 374.818 89.0667 375.159 88.48C375.5 87.8827 375.762 87.2587 375.943 86.608C376.135 85.9467 376.231 85.28 376.231 84.608V82.016ZM376.503 82.016H377.575V84.608C377.575 85.2587 377.666 85.904 377.847 86.544C378.039 87.184 378.306 87.7867 378.647 88.352C378.988 88.9067 379.383 89.4027 379.831 89.84C380.29 90.2773 380.78 90.6187 381.303 90.864L380.503 91.936C379.927 91.6373 379.394 91.2373 378.903 90.736C378.412 90.2347 377.986 89.6587 377.623 89.008C377.271 88.3573 376.994 87.6587 376.791 86.912C376.599 86.1653 376.503 85.3973 376.503 84.608V82.016ZM383.095 80.768H384.407V95.264H383.095V80.768ZM391.392 81.376H392.704V83.44H396.784V81.376H398.096V87.68H391.392V81.376ZM392.704 84.48V86.608H396.784V84.48H392.704ZM400.704 80.768H402.032V88.24H400.704V80.768ZM401.44 83.888H404.16V84.976H401.44V83.888ZM392.832 88.928H402.032V92.448H394.176V94.608H392.88V91.456H400.72V89.984H392.832V88.928ZM392.88 94.016H402.544V95.088H392.88V94.016ZM407.215 89.056H408.527V90.96H415.615V89.056H416.927V95.056H407.215V89.056ZM408.527 92V93.968H415.615V92H408.527ZM407.183 81.424H416.495V82.512H407.183V81.424ZM405.519 86.672H418.639V87.776H405.519V86.672ZM415.631 81.424H416.943V82.496C416.943 83.0827 416.921 83.7333 416.879 84.448C416.836 85.1627 416.703 86.0053 416.479 86.976L415.167 86.992C415.401 86.0107 415.535 85.1627 415.567 84.448C415.609 83.7333 415.631 83.0827 415.631 82.496V81.424ZM427.624 82.016H428.728V84.608C428.728 85.44 428.621 86.2507 428.408 87.04C428.205 87.8187 427.912 88.5493 427.528 89.232C427.154 89.904 426.712 90.5013 426.2 91.024C425.698 91.536 425.149 91.9413 424.552 92.24L423.736 91.136C424.28 90.8907 424.786 90.5387 425.256 90.08C425.725 89.6213 426.136 89.104 426.488 88.528C426.84 87.9413 427.117 87.312 427.32 86.64C427.522 85.968 427.624 85.2907 427.624 84.608V82.016ZM427.848 82.016H428.952V84.608C428.952 85.2693 429.048 85.92 429.24 86.56C429.442 87.2 429.72 87.808 430.072 88.384C430.434 88.9493 430.845 89.4507 431.304 89.888C431.773 90.3147 432.274 90.6507 432.808 90.896L432.008 91.952C431.421 91.6747 430.877 91.2853 430.376 90.784C429.874 90.2827 429.432 89.7067 429.048 89.056C428.674 88.4053 428.381 87.7013 428.168 86.944C427.954 86.1867 427.848 85.408 427.848 84.608V82.016ZM434.328 80.768H435.656V95.264H434.328V80.768ZM448.593 89.904C449.627 89.904 450.518 90.0107 451.265 90.224C452.022 90.4373 452.603 90.7413 453.009 91.136C453.425 91.5307 453.633 92.0107 453.633 92.576C453.633 93.12 453.425 93.5947 453.009 94C452.603 94.3947 452.022 94.6933 451.265 94.896C450.518 95.1093 449.627 95.216 448.593 95.216C447.569 95.216 446.678 95.1093 445.921 94.896C445.163 94.6933 444.582 94.3947 444.177 94C443.771 93.5947 443.569 93.12 443.569 92.576C443.569 92.0107 443.771 91.5307 444.177 91.136C444.582 90.7413 445.163 90.4373 445.921 90.224C446.678 90.0107 447.569 89.904 448.593 89.904ZM448.593 90.928C447.835 90.928 447.179 90.9973 446.625 91.136C446.07 91.264 445.638 91.4507 445.329 91.696C445.03 91.9413 444.881 92.2347 444.881 92.576C444.881 92.896 445.03 93.1787 445.329 93.424C445.638 93.6693 446.07 93.856 446.625 93.984C447.179 94.112 447.835 94.176 448.593 94.176C449.361 94.176 450.022 94.112 450.577 93.984C451.131 93.856 451.558 93.6693 451.857 93.424C452.166 93.1787 452.321 92.896 452.321 92.576C452.321 92.2347 452.166 91.9413 451.857 91.696C451.558 91.4507 451.131 91.264 450.577 91.136C450.022 90.9973 449.361 90.928 448.593 90.928ZM443.664 81.504H452.977V82.576H443.664V81.504ZM442.129 87.504H455.169V88.592H442.129V87.504ZM447.489 84.72H448.801V87.824H447.489V84.72ZM452.209 81.504H453.521V82.72C453.521 83.3067 453.505 83.9093 453.473 84.528C453.441 85.136 453.323 85.8133 453.121 86.56L451.825 86.416C452.017 85.6693 452.129 85.008 452.161 84.432C452.193 83.856 452.209 83.2853 452.209 82.72V81.504ZM458.527 89.056H459.839V90.96H466.927V89.056H468.239V95.056H458.527V89.056ZM459.839 92V93.968H466.927V92H459.839ZM458.495 81.424H467.807V82.512H458.495V81.424ZM456.831 86.672H469.951V87.776H456.831V86.672ZM466.943 81.424H468.255V82.496C468.255 83.0827 468.234 83.7333 468.191 84.448C468.149 85.1627 468.015 86.0053 467.791 86.976L466.479 86.992C466.714 86.0107 466.847 85.1627 466.879 84.448C466.922 83.7333 466.943 83.0827 466.943 82.496V81.424ZM475.118 82.848H476.19V85.184C476.19 85.9413 476.083 86.6933 475.87 87.44C475.657 88.176 475.358 88.8747 474.974 89.536C474.601 90.1867 474.169 90.768 473.678 91.28C473.187 91.7813 472.659 92.176 472.094 92.464L471.31 91.408C471.833 91.152 472.318 90.8053 472.766 90.368C473.225 89.92 473.63 89.4133 473.982 88.848C474.334 88.272 474.611 87.6747 474.814 87.056C475.017 86.4267 475.118 85.8027 475.118 85.184V82.848ZM475.374 82.848H476.43V85.184C476.43 85.76 476.521 86.3413 476.702 86.928C476.894 87.5147 477.161 88.0747 477.502 88.608C477.843 89.1413 478.238 89.6213 478.686 90.048C479.145 90.464 479.63 90.8 480.142 91.056L479.39 92.112C478.825 91.824 478.297 91.44 477.806 90.96C477.315 90.4693 476.889 89.9147 476.526 89.296C476.163 88.6773 475.881 88.016 475.678 87.312C475.475 86.608 475.374 85.8987 475.374 85.184V82.848ZM471.822 82.256H479.63V83.36H471.822V82.256ZM481.342 80.768H482.67V95.248H481.342V80.768ZM482.366 86.608H485.038V87.728H482.366V86.608ZM489.933 88.08H491.261V91.52H489.933V88.08ZM490.589 81.712C491.325 81.712 491.981 81.856 492.557 82.144C493.133 82.4213 493.586 82.816 493.917 83.328C494.247 83.84 494.413 84.4373 494.413 85.12C494.413 85.7813 494.247 86.3733 493.917 86.896C493.586 87.408 493.133 87.808 492.557 88.096C491.981 88.3733 491.325 88.512 490.589 88.512C489.842 88.512 489.181 88.3733 488.605 88.096C488.029 87.808 487.575 87.408 487.245 86.896C486.914 86.3733 486.749 85.7813 486.749 85.12C486.749 84.4373 486.914 83.84 487.245 83.328C487.575 82.816 488.029 82.4213 488.605 82.144C489.181 81.856 489.842 81.712 490.589 81.712ZM490.589 82.848C490.098 82.848 489.661 82.944 489.277 83.136C488.893 83.3173 488.589 83.5787 488.365 83.92C488.151 84.2613 488.045 84.6613 488.045 85.12C488.045 85.568 488.151 85.9627 488.365 86.304C488.589 86.6453 488.893 86.912 489.277 87.104C489.661 87.296 490.098 87.392 490.589 87.392C491.079 87.392 491.511 87.296 491.885 87.104C492.269 86.912 492.567 86.6453 492.781 86.304C493.005 85.9627 493.117 85.568 493.117 85.12C493.117 84.6613 493.005 84.2613 492.781 83.92C492.567 83.5787 492.269 83.3173 491.885 83.136C491.511 82.944 491.079 82.848 490.589 82.848ZM496.061 80.768H497.373V95.248H496.061V80.768ZM497.005 86.736H499.677V87.856H497.005V86.736ZM486.301 92.112L486.093 91.008C486.967 90.9973 487.917 90.9867 488.941 90.976C489.975 90.9653 491.021 90.928 492.077 90.864C493.143 90.8 494.167 90.704 495.149 90.576L495.245 91.568C494.231 91.7387 493.197 91.8667 492.141 91.952C491.085 92.0267 490.055 92.0747 489.053 92.096C488.061 92.1067 487.143 92.112 486.301 92.112ZM511.046 89.904C512.08 89.904 512.971 90.0107 513.718 90.224C514.475 90.4373 515.056 90.7413 515.462 91.136C515.878 91.5307 516.086 92.0107 516.086 92.576C516.086 93.12 515.878 93.5947 515.462 94C515.056 94.3947 514.475 94.6933 513.718 94.896C512.971 95.1093 512.08 95.216 511.046 95.216C510.022 95.216 509.131 95.1093 508.374 94.896C507.616 94.6933 507.035 94.3947 506.63 94C506.224 93.5947 506.022 93.12 506.022 92.576C506.022 92.0107 506.224 91.5307 506.63 91.136C507.035 90.7413 507.616 90.4373 508.374 90.224C509.131 90.0107 510.022 89.904 511.046 89.904ZM511.046 90.928C510.288 90.928 509.632 90.9973 509.078 91.136C508.523 91.264 508.091 91.4507 507.782 91.696C507.483 91.9413 507.334 92.2347 507.334 92.576C507.334 92.896 507.483 93.1787 507.782 93.424C508.091 93.6693 508.523 93.856 509.078 93.984C509.632 94.112 510.288 94.176 511.046 94.176C511.814 94.176 512.475 94.112 513.03 93.984C513.584 93.856 514.011 93.6693 514.31 93.424C514.619 93.1787 514.774 92.896 514.774 92.576C514.774 92.2347 514.619 91.9413 514.31 91.696C514.011 91.4507 513.584 91.264 513.03 91.136C512.475 90.9973 511.814 90.928 511.046 90.928ZM506.118 81.504H515.43V82.576H506.118V81.504ZM504.582 87.504H517.622V88.592H504.582V87.504ZM509.942 84.72H511.254V87.824H509.942V84.72ZM514.662 81.504H515.974V82.72C515.974 83.3067 515.958 83.9093 515.926 84.528C515.894 85.136 515.776 85.8133 515.574 86.56L514.278 86.416C514.47 85.6693 514.582 85.008 514.614 84.432C514.646 83.856 514.662 83.2853 514.662 82.72V81.504ZM520.98 89.056H522.292V90.96H529.38V89.056H530.692V95.056H520.98V89.056ZM522.292 92V93.968H529.38V92H522.292ZM520.948 81.424H530.26V82.512H520.948V81.424ZM519.284 86.672H532.404V87.776H519.284V86.672ZM529.396 81.424H530.708V82.496C530.708 83.0827 530.687 83.7333 530.644 84.448C530.602 85.1627 530.468 86.0053 530.244 86.976L528.932 86.992C529.167 86.0107 529.3 85.1627 529.332 84.448C529.375 83.7333 529.396 83.0827 529.396 82.496V81.424ZM543.907 80.768H545.235V89.232H543.907V80.768ZM544.867 84.256H547.363V85.36H544.867V84.256ZM534.595 81.584H535.907V83.792H539.987V81.584H541.299V88.336H534.595V81.584ZM535.907 84.848V87.264H539.987V84.848H535.907ZM536.179 90.032H545.347V91.104H537.507V94.736H536.179V90.032ZM536.179 93.968H545.619V95.04H536.179V93.968ZM550.482 85.12H560.322V86.192H550.482V85.12ZM548.706 88.128H561.826V89.216H548.706V88.128ZM550.482 81.296H551.794V85.664H550.482V81.296ZM550.386 93.808H560.402V94.896H550.386V93.808ZM550.386 90.672H551.714V94.096H550.386V90.672ZM92.368 106.848H93.44V109.184C93.44 109.941 93.3333 110.693 93.12 111.44C92.9067 112.176 92.608 112.875 92.224 113.536C91.8507 114.187 91.4187 114.768 90.928 115.28C90.4373 115.781 89.9093 116.176 89.344 116.464L88.56 115.408C89.0827 115.152 89.568 114.805 90.016 114.368C90.4747 113.92 90.88 113.413 91.232 112.848C91.584 112.272 91.8613 111.675 92.064 111.056C92.2667 110.427 92.368 109.803 92.368 109.184V106.848ZM92.624 106.848H93.68V109.184C93.68 109.76 93.7707 110.341 93.952 110.928C94.144 111.515 94.4107 112.075 94.752 112.608C95.0933 113.141 95.488 113.621 95.936 114.048C96.3947 114.464 96.88 114.8 97.392 115.056L96.64 116.112C96.0747 115.824 95.5467 115.44 95.056 114.96C94.5653 114.469 94.1387 113.915 93.776 113.296C93.4133 112.677 93.1307 112.016 92.928 111.312C92.7253 110.608 92.624 109.899 92.624 109.184V106.848ZM89.072 106.256H96.88V107.36H89.072V106.256ZM98.592 104.768H99.92V119.248H98.592V104.768ZM99.616 110.608H102.288V111.728H99.616V110.608ZM103.503 111.488H116.623V112.512H103.503V111.488ZM105.071 113.664H114.991V116.752H106.415V118.448H105.103V115.84H113.679V114.624H105.071V113.664ZM105.103 118.096H115.455V119.056H105.103V118.096ZM105.167 105.2H114.943V108.208H106.511V109.776H105.199V107.312H113.631V106.144H105.167V105.2ZM105.199 109.456H115.199V110.416H105.199V109.456ZM131.72 104.768H133.048V113.248H131.72V104.768ZM132.68 108.432H135.176V109.552H132.68V108.432ZM127.704 105.696H129.096C129.096 106.912 128.824 108.011 128.28 108.992C127.746 109.963 126.973 110.795 125.96 111.488C124.946 112.181 123.736 112.72 122.328 113.104L121.784 112.064C123.032 111.723 124.098 111.275 124.984 110.72C125.869 110.155 126.541 109.499 127 108.752C127.469 107.995 127.704 107.173 127.704 106.288V105.696ZM122.44 105.696H128.456V106.768H122.44V105.696ZM123.64 113.92H133.048V119.248H131.72V115.008H123.64V113.92ZM146.438 104.768H147.766V113.248H146.438V104.768ZM147.398 108.432H149.894V109.552H147.398V108.432ZM142.422 105.696H143.814C143.814 106.912 143.542 108.011 142.998 108.992C142.465 109.963 141.692 110.795 140.678 111.488C139.665 112.181 138.454 112.72 137.046 113.104L136.502 112.064C137.75 111.723 138.817 111.275 139.702 110.72C140.588 110.155 141.26 109.499 141.718 108.752C142.188 107.995 142.422 107.173 142.422 106.288V105.696ZM137.158 105.696H143.174V106.768H137.158V105.696ZM138.358 113.92H147.766V119.248H146.438V115.008H138.358V113.92ZM156.511 109.632H166.431V110.72H156.511V109.632ZM154.831 112.88H167.951V113.984H154.831V112.88ZM160.671 113.472H161.999V119.248H160.671V113.472ZM156.511 105.504H157.839V110.16H156.511V105.504ZM171.182 105.712H180.238V106.784H171.182V105.712ZM169.55 111.92H182.622V113.024H169.55V111.92ZM175.39 112.656H176.718V119.264H175.39V112.656ZM179.598 105.712H180.91V106.976C180.91 107.477 180.899 108.005 180.878 108.56C180.867 109.115 180.825 109.728 180.75 110.4C180.675 111.061 180.547 111.797 180.366 112.608L179.038 112.432C179.326 111.269 179.491 110.251 179.534 109.376C179.577 108.501 179.598 107.701 179.598 106.976V105.712ZM184.269 116.352H197.389V117.456H184.269V116.352ZM190.141 113.264H191.453V116.816H190.141V113.264ZM185.869 105.84H195.757V110.224H187.213V113.12H185.901V109.168H194.445V106.928H185.869V105.84ZM185.901 112.56H196.093V113.648H185.901V112.56ZM202.534 107.248H209.718V108.336H202.534V107.248ZM206.134 109.296C206.742 109.296 207.275 109.435 207.734 109.712C208.203 109.989 208.571 110.379 208.838 110.88C209.104 111.371 209.238 111.941 209.238 112.592C209.238 113.243 209.104 113.819 208.838 114.32C208.571 114.811 208.203 115.2 207.734 115.488C207.275 115.765 206.742 115.904 206.134 115.904C205.536 115.904 205.003 115.765 204.534 115.488C204.064 115.2 203.696 114.811 203.43 114.32C203.163 113.819 203.03 113.243 203.03 112.592C203.03 111.941 203.163 111.371 203.43 110.88C203.696 110.389 204.064 110.005 204.534 109.728C205.003 109.44 205.536 109.296 206.134 109.296ZM206.134 110.416C205.771 110.416 205.44 110.512 205.142 110.704C204.854 110.885 204.624 111.141 204.454 111.472C204.294 111.792 204.214 112.165 204.214 112.592C204.214 113.019 204.294 113.397 204.454 113.728C204.624 114.059 204.854 114.315 205.142 114.496C205.44 114.677 205.771 114.768 206.134 114.768C206.507 114.768 206.838 114.677 207.126 114.496C207.414 114.315 207.638 114.059 207.798 113.728C207.968 113.397 208.054 113.019 208.054 112.592C208.054 112.165 207.968 111.792 207.798 111.472C207.638 111.141 207.414 110.885 207.126 110.704C206.838 110.512 206.507 110.416 206.134 110.416ZM213.542 104.768H214.806V119.248H213.542V104.768ZM211.222 110.864H213.958V111.952H211.222V110.864ZM210.438 105.104H211.686V118.544H210.438V105.104ZM205.478 105.2H206.79V107.904H205.478V105.2ZM221.124 105.888C221.839 105.888 222.468 106.096 223.012 106.512C223.556 106.917 223.983 107.499 224.292 108.256C224.602 109.013 224.756 109.904 224.756 110.928C224.756 111.952 224.602 112.843 224.292 113.6C223.983 114.357 223.556 114.944 223.012 115.36C222.468 115.776 221.839 115.984 221.124 115.984C220.42 115.984 219.791 115.776 219.236 115.36C218.692 114.944 218.266 114.357 217.956 113.6C217.647 112.843 217.492 111.952 217.492 110.928C217.492 109.904 217.647 109.013 217.956 108.256C218.266 107.499 218.692 106.917 219.236 106.512C219.791 106.096 220.42 105.888 221.124 105.888ZM221.124 107.072C220.666 107.072 220.255 107.232 219.892 107.552C219.54 107.861 219.263 108.309 219.06 108.896C218.858 109.472 218.756 110.149 218.756 110.928C218.756 111.707 218.858 112.389 219.06 112.976C219.263 113.552 219.54 114 219.892 114.32C220.255 114.64 220.671 114.8 221.14 114.8C221.599 114.8 222.004 114.64 222.356 114.32C222.719 114 222.996 113.552 223.188 112.976C223.391 112.389 223.492 111.707 223.492 110.928C223.492 110.149 223.391 109.472 223.188 108.896C222.996 108.309 222.719 107.861 222.356 107.552C222.004 107.232 221.594 107.072 221.124 107.072ZM228.036 108.4H230.708V109.52H228.036V108.4ZM228.036 112.72H230.708V113.824H228.036V112.72ZM227.076 104.768H228.404V119.248H227.076V104.768ZM245.389 104.768H246.701V119.248H245.389V104.768ZM246.397 110.72H249.069V111.84H246.397V110.72ZM235.501 107.088H244.029V108.176H235.501V107.088ZM239.837 109.36C240.52 109.36 241.123 109.504 241.645 109.792C242.179 110.08 242.595 110.475 242.893 110.976C243.203 111.467 243.357 112.037 243.357 112.688C243.357 113.339 243.203 113.915 242.893 114.416C242.595 114.917 242.179 115.312 241.645 115.6C241.123 115.877 240.52 116.016 239.837 116.016C239.155 116.016 238.547 115.877 238.013 115.6C237.491 115.312 237.075 114.917 236.765 114.416C236.456 113.915 236.301 113.339 236.301 112.688C236.301 112.037 236.456 111.467 236.765 110.976C237.075 110.475 237.491 110.08 238.013 109.792C238.547 109.504 239.155 109.36 239.837 109.36ZM239.837 110.464C239.4 110.464 239.011 110.56 238.669 110.752C238.328 110.944 238.056 111.205 237.853 111.536C237.661 111.867 237.565 112.251 237.565 112.688C237.565 113.125 237.661 113.515 237.853 113.856C238.056 114.187 238.328 114.448 238.669 114.64C239.011 114.821 239.4 114.912 239.837 114.912C240.264 114.912 240.648 114.821 240.989 114.64C241.331 114.448 241.597 114.187 241.789 113.856C241.992 113.515 242.093 113.125 242.093 112.688C242.093 112.251 241.992 111.867 241.789 111.536C241.597 111.205 241.331 110.944 240.989 110.752C240.648 110.56 240.264 110.464 239.837 110.464ZM239.149 104.944H240.477V107.568H239.149V104.944ZM261.068 110.544H263.724V111.648H261.068V110.544ZM260.092 104.768H261.42V119.232H260.092V104.768ZM250.876 106.192H252.188V115.152H250.876V106.192ZM250.876 114.464H252.028C253.084 114.464 254.167 114.416 255.276 114.32C256.396 114.224 257.553 114.053 258.748 113.808L258.908 114.928C257.671 115.173 256.487 115.344 255.356 115.44C254.236 115.525 253.127 115.568 252.028 115.568H250.876V114.464ZM268.235 112.224H269.547V116.544H268.235V112.224ZM273.579 112.224H274.907V116.544H273.579V112.224ZM265.019 116.288H278.139V117.392H265.019V116.288ZM271.547 105.68C272.571 105.68 273.477 105.835 274.267 106.144C275.056 106.453 275.675 106.885 276.123 107.44C276.581 107.995 276.811 108.651 276.811 109.408C276.811 110.155 276.581 110.811 276.123 111.376C275.675 111.931 275.056 112.363 274.267 112.672C273.477 112.971 272.571 113.12 271.547 113.12C270.533 113.12 269.627 112.971 268.827 112.672C268.037 112.363 267.419 111.931 266.971 111.376C266.523 110.811 266.299 110.155 266.299 109.408C266.299 108.651 266.523 107.995 266.971 107.44C267.419 106.885 268.037 106.453 268.827 106.144C269.627 105.835 270.533 105.68 271.547 105.68ZM271.547 106.736C270.779 106.736 270.096 106.848 269.499 107.072C268.901 107.296 268.432 107.611 268.091 108.016C267.749 108.411 267.579 108.875 267.579 109.408C267.579 109.941 267.749 110.411 268.091 110.816C268.432 111.211 268.901 111.52 269.499 111.744C270.096 111.968 270.779 112.08 271.547 112.08C272.325 112.08 273.013 111.968 273.611 111.744C274.208 111.52 274.677 111.211 275.019 110.816C275.36 110.411 275.531 109.941 275.531 109.408C275.531 108.875 275.36 108.411 275.019 108.016C274.677 107.611 274.208 107.296 273.611 107.072C273.013 106.848 272.325 106.736 271.547 106.736ZM281.786 114.464C281.711 113.909 281.743 113.413 281.882 112.976C282.031 112.539 282.234 112.144 282.49 111.792C282.746 111.44 283.007 111.104 283.274 110.784C283.551 110.464 283.78 110.144 283.962 109.824C284.154 109.493 284.25 109.136 284.25 108.752C284.25 108.432 284.186 108.144 284.058 107.888C283.93 107.621 283.738 107.413 283.482 107.264C283.226 107.104 282.906 107.024 282.522 107.024C282.127 107.024 281.754 107.115 281.402 107.296C281.05 107.467 280.735 107.717 280.458 108.048L279.626 107.28C279.999 106.853 280.442 106.501 280.954 106.224C281.466 105.947 282.042 105.808 282.682 105.808C283.29 105.808 283.818 105.925 284.266 106.16C284.714 106.384 285.06 106.709 285.306 107.136C285.551 107.563 285.674 108.069 285.674 108.656C285.674 109.136 285.578 109.563 285.386 109.936C285.194 110.309 284.959 110.661 284.682 110.992C284.404 111.323 284.132 111.664 283.866 112.016C283.599 112.357 283.386 112.725 283.226 113.12C283.066 113.504 283.018 113.952 283.082 114.464H281.786ZM282.474 118.208C282.186 118.208 281.94 118.107 281.738 117.904C281.535 117.691 281.434 117.424 281.434 117.104C281.434 116.763 281.535 116.491 281.738 116.288C281.94 116.085 282.186 115.984 282.474 115.984C282.772 115.984 283.023 116.085 283.226 116.288C283.439 116.491 283.546 116.763 283.546 117.104C283.546 117.424 283.439 117.691 283.226 117.904C283.023 118.107 282.772 118.208 282.474 118.208Z" fill="black"/>
<g clip-path="url(#clip0_259_1051)">
<path d="M39 168.667V171M41.4499 172.05L43.1416 170.359M42.5 174.5H44.8333M41.4499 176.95L43.1416 178.642M39 178V180.334M34.8583 178.642L36.55 176.95M33.1666 174.5H35.5M34.8583 170.359L36.55 172.05" stroke="url(#paint0_linear_259_1051)" stroke-width="1.5" stroke-linecap="round" stroke-linejoin="round"/>
</g>
<path d="M59.366 168.422H60.528V175.17H59.366V168.422ZM60.206 171.39H62.39V172.356H60.206V171.39ZM51.288 173.784H52.268C53.136 173.784 53.8967 173.775 54.55 173.756C55.2033 173.737 55.8053 173.695 56.356 173.63C56.9067 173.565 57.462 173.476 58.022 173.364L58.162 174.316C57.574 174.428 56.9953 174.517 56.426 174.582C55.866 174.647 55.2547 174.694 54.592 174.722C53.9293 174.741 53.1547 174.75 52.268 174.75H51.288V173.784ZM51.288 169.262H56.846V170.2H52.436V174.442H51.288V169.262ZM52.548 175.856H53.696V177.41H59.366V175.856H60.528V180.882H52.548V175.856ZM53.696 178.348V179.93H59.366V178.348H53.696ZM69.6269 170.746H73.2669V171.698H69.6269V170.746ZM69.6269 173.476H73.2949V174.428H69.6269V173.476ZM72.8329 168.436H73.9949V177.802H72.8329V168.436ZM65.8609 179.86H74.2889V180.812H65.8609V179.86ZM65.8609 176.892H67.0229V180.336H65.8609V176.892ZM64.1949 169.276H65.3569V171.502H68.7729V169.276H69.9209V175.646H64.1949V169.276ZM65.3569 172.412V174.708H68.7729V172.412H65.3569ZM84.5587 169.626H85.5807V170.004C85.5807 170.536 85.45 171.026 85.1887 171.474C84.9273 171.922 84.568 172.323 84.1107 172.678C83.6627 173.023 83.1447 173.313 82.5567 173.546C81.978 173.77 81.362 173.929 80.7087 174.022L80.2747 173.098C80.7227 173.033 81.1567 172.935 81.5767 172.804C82.006 172.673 82.398 172.515 82.7527 172.328C83.1073 172.132 83.42 171.913 83.6907 171.67C83.9613 171.427 84.1713 171.166 84.3207 170.886C84.4793 170.606 84.5587 170.312 84.5587 170.004V169.626ZM85.0347 169.626H86.0567V170.004C86.0567 170.303 86.1313 170.592 86.2807 170.872C86.4393 171.152 86.654 171.418 86.9247 171.67C87.1953 171.913 87.508 172.132 87.8627 172.328C88.2267 172.515 88.6187 172.673 89.0387 172.804C89.4587 172.935 89.8927 173.033 90.3407 173.098L89.9067 174.022C89.2627 173.929 88.6467 173.77 88.0587 173.546C87.4707 173.313 86.9527 173.023 86.5047 172.678C86.0567 172.323 85.6973 171.922 85.4267 171.474C85.1653 171.026 85.0347 170.536 85.0347 170.004V169.626ZM80.6387 169.052H89.9907V169.99H80.6387V169.052ZM79.5747 174.932H91.0547V175.884H79.5747V174.932ZM84.8107 175.534H85.9727V178.446H84.8107V175.534ZM81.0307 179.86H89.7807V180.812H81.0307V179.86ZM81.0307 177.214H82.1927V180.21H81.0307V177.214ZM101.666 168.422H102.828V181.106H101.666V168.422ZM93.1816 169.5H94.3436V172.832H97.9976V169.5H99.1456V178.054H93.1816V169.5ZM94.3436 173.756V177.088H97.9976V173.756H94.3436ZM113.615 174.75H114.763V176.962H113.615V174.75ZM108.477 174.344H119.915V175.296H108.477V174.344ZM114.189 176.612C115.543 176.612 116.602 176.803 117.367 177.186C118.133 177.569 118.515 178.119 118.515 178.838C118.515 179.547 118.133 180.093 117.367 180.476C116.602 180.868 115.543 181.064 114.189 181.064C112.836 181.064 111.772 180.868 110.997 180.476C110.232 180.093 109.849 179.547 109.849 178.838C109.849 178.119 110.232 177.569 110.997 177.186C111.772 176.803 112.836 176.612 114.189 176.612ZM114.189 177.522C113.527 177.522 112.957 177.573 112.481 177.676C112.015 177.779 111.655 177.928 111.403 178.124C111.151 178.32 111.025 178.558 111.025 178.838C111.025 179.118 111.151 179.356 111.403 179.552C111.655 179.748 112.015 179.897 112.481 180C112.957 180.112 113.527 180.168 114.189 180.168C114.852 180.168 115.417 180.112 115.883 180C116.359 179.897 116.723 179.748 116.975 179.552C117.227 179.356 117.353 179.118 117.353 178.838C117.353 178.558 117.227 178.32 116.975 178.124C116.723 177.928 116.359 177.779 115.883 177.676C115.417 177.573 114.852 177.522 114.189 177.522ZM113.447 169.472H114.469V169.85C114.469 170.261 114.381 170.639 114.203 170.984C114.035 171.329 113.797 171.651 113.489 171.95C113.181 172.239 112.817 172.496 112.397 172.72C111.987 172.944 111.539 173.131 111.053 173.28C110.568 173.42 110.059 173.523 109.527 173.588L109.107 172.664C109.565 172.617 110.003 172.538 110.423 172.426C110.853 172.305 111.249 172.16 111.613 171.992C111.987 171.815 112.309 171.614 112.579 171.39C112.85 171.166 113.06 170.923 113.209 170.662C113.368 170.401 113.447 170.13 113.447 169.85V169.472ZM113.923 169.472H114.945V169.85C114.945 170.139 115.02 170.415 115.169 170.676C115.328 170.928 115.543 171.166 115.813 171.39C116.084 171.605 116.401 171.801 116.765 171.978C117.139 172.146 117.535 172.291 117.955 172.412C118.385 172.533 118.828 172.617 119.285 172.664L118.865 173.588C118.333 173.523 117.825 173.42 117.339 173.28C116.854 173.131 116.401 172.944 115.981 172.72C115.571 172.496 115.211 172.239 114.903 171.95C114.595 171.661 114.353 171.339 114.175 170.984C114.007 170.629 113.923 170.251 113.923 169.85V169.472ZM109.527 169.01H118.879V169.948H109.527V169.01ZM122.602 180.182C122.35 180.182 122.131 180.093 121.944 179.916C121.767 179.729 121.678 179.496 121.678 179.216C121.678 178.917 121.767 178.679 121.944 178.502C122.131 178.325 122.35 178.236 122.602 178.236C122.854 178.236 123.069 178.325 123.246 178.502C123.433 178.679 123.526 178.917 123.526 179.216C123.526 179.496 123.433 179.729 123.246 179.916C123.069 180.093 122.854 180.182 122.602 180.182ZM126.499 180.182C126.247 180.182 126.027 180.093 125.841 179.916C125.663 179.729 125.575 179.496 125.575 179.216C125.575 178.917 125.663 178.679 125.841 178.502C126.027 178.325 126.247 178.236 126.499 178.236C126.751 178.236 126.965 178.325 127.143 178.502C127.329 178.679 127.423 178.917 127.423 179.216C127.423 179.496 127.329 179.729 127.143 179.916C126.965 180.093 126.751 180.182 126.499 180.182ZM130.395 180.182C130.143 180.182 129.924 180.093 129.737 179.916C129.56 179.729 129.471 179.496 129.471 179.216C129.471 178.917 129.56 178.679 129.737 178.502C129.924 178.325 130.143 178.236 130.395 178.236C130.647 178.236 130.862 178.325 131.039 178.502C131.226 178.679 131.319 178.917 131.319 179.216C131.319 179.496 131.226 179.729 131.039 179.916C130.862 180.093 130.647 180.182 130.395 180.182Z" fill="#8B91A0"/>
<defs>
<linearGradient id="paint0_linear_259_1051" x1="33.2439" y1="168.667" x2="44.7561" y2="180.334" gradientUnits="userSpaceOnUse">
<stop stop-color="#FD5108"/>
<stop offset="1" stop-color="#FFCDA8"/>
</linearGradient>
<clipPath id="clip0_259_1051">
<rect width="14" height="14" fill="white" transform="translate(32 167.5)"/>
</clipPath>
</defs>
</svg>
