<svg width="600" height="480" viewBox="0 0 600 480" fill="none" xmlns="http://www.w3.org/2000/svg">
<rect width="600" height="480" rx="24" fill="white"/>
<rect x="24" y="36" width="32" height="32" rx="16" fill="#FD5108"/>
<path d="M44.6667 58V56.6667C44.6667 55.9594 44.3858 55.2811 43.8857 54.781C43.3856 54.281 42.7073 54 42 54H38C37.2928 54 36.6145 54.281 36.1144 54.781C35.6143 55.2811 35.3334 55.9594 35.3334 56.6667V58M42.6667 48.6667C42.6667 50.1394 41.4728 51.3333 40 51.3333C38.5273 51.3333 37.3334 50.1394 37.3334 48.6667C37.3334 47.1939 38.5273 46 40 46C41.4728 46 42.6667 47.1939 42.6667 48.6667Z" stroke="white" stroke-width="1.5" stroke-linecap="round" stroke-linejoin="round"/>
<rect x="72" y="36" width="504" height="104" rx="12" fill="#EEEFF1"/>
<path d="M89.408 70V68.784H92.032V60.032H89.936V59.104C90.4587 59.008 90.912 58.8907 91.296 58.752C91.6907 58.6133 92.048 58.4533 92.368 58.272H93.488V68.784H95.84V70H89.408ZM99.099 70.208C98.811 70.208 98.5603 70.1067 98.347 69.904C98.1443 69.6907 98.043 69.424 98.043 69.104C98.043 68.7627 98.1443 68.4907 98.347 68.288C98.5603 68.0853 98.811 67.984 99.099 67.984C99.387 67.984 99.6323 68.0853 99.835 68.288C100.048 68.4907 100.155 68.7627 100.155 69.104C100.155 69.424 100.048 69.6907 99.835 69.904C99.6323 70.1067 99.387 70.208 99.099 70.208ZM105.706 68.304H118.826V69.408H105.706V68.304ZM111.578 64.832H112.89V68.624H111.578V64.832ZM107.242 57.792H108.57V60.368H115.93V57.792H117.242V65.2H107.242V57.792ZM108.57 61.456V64.112H115.93V61.456H108.57ZM120.409 64.432H133.497V65.504H120.409V64.432ZM126.281 62.56H127.609V64.88H126.281V62.56ZM122.137 61.984H131.961V63.024H122.137V61.984ZM122.137 57.184H131.881V58.24H123.465V62.544H122.137V57.184ZM123.065 59.568H131.497V60.576H123.065V59.568ZM126.953 66.576C128.521 66.576 129.737 66.7733 130.601 67.168C131.465 67.5627 131.897 68.1387 131.897 68.896C131.897 69.6533 131.465 70.2293 130.601 70.624C129.737 71.0187 128.521 71.216 126.953 71.216C125.374 71.216 124.153 71.0187 123.289 70.624C122.425 70.2293 121.993 69.6533 121.993 68.896C121.993 68.1387 122.425 67.5627 123.289 67.168C124.153 66.7733 125.374 66.576 126.953 66.576ZM126.937 67.584C125.785 67.584 124.894 67.696 124.265 67.92C123.636 68.144 123.321 68.4693 123.321 68.896C123.321 69.3333 123.636 69.664 124.265 69.888C124.894 70.1013 125.785 70.208 126.937 70.208C128.11 70.208 129.006 70.1013 129.625 69.888C130.254 69.664 130.569 69.3333 130.569 68.896C130.569 68.4693 130.254 68.144 129.625 67.92C129.006 67.696 128.11 67.584 126.937 67.584ZM140.936 58.208H142.088V58.816C142.088 59.328 141.986 59.8133 141.784 60.272C141.581 60.7307 141.298 61.1573 140.936 61.552C140.573 61.936 140.152 62.2773 139.672 62.576C139.192 62.8747 138.674 63.1307 138.12 63.344C137.576 63.5467 137.01 63.696 136.424 63.792L135.912 62.736C136.424 62.672 136.92 62.5547 137.4 62.384C137.89 62.2027 138.349 61.9893 138.776 61.744C139.202 61.4987 139.576 61.2213 139.896 60.912C140.226 60.6027 140.482 60.272 140.664 59.92C140.845 59.5573 140.936 59.1893 140.936 58.816V58.208ZM141.272 58.208H142.424V58.816C142.424 59.1893 142.514 59.5573 142.696 59.92C142.877 60.272 143.128 60.6027 143.448 60.912C143.778 61.2213 144.157 61.4987 144.584 61.744C145.01 61.9893 145.464 62.2027 145.944 62.384C146.434 62.5547 146.936 62.672 147.448 62.736L146.952 63.792C146.365 63.696 145.794 63.5467 145.24 63.344C144.685 63.1307 144.168 62.8747 143.688 62.576C143.208 62.2773 142.786 61.936 142.424 61.552C142.061 61.1573 141.778 60.7307 141.576 60.272C141.373 59.8133 141.272 59.328 141.272 58.816V58.208ZM141 65.728H142.312V71.232H141V65.728ZM135.144 65.008H148.216V66.096H135.144V65.008ZM136.376 57.664H146.968V58.736H136.376V57.664ZM154.049 70V68.784H156.673V60.032H154.577V59.104C155.099 59.008 155.553 58.8907 155.937 58.752C156.331 58.6133 156.689 58.4533 157.009 58.272H158.129V68.784H160.481V70H154.049ZM165.964 70.208C165.228 70.208 164.582 69.984 164.028 69.536C163.484 69.088 163.062 68.4107 162.764 67.504C162.465 66.5973 162.316 65.4613 162.316 64.096C162.316 62.7307 162.465 61.6053 162.764 60.72C163.062 59.824 163.484 59.1573 164.028 58.72C164.582 58.2827 165.228 58.064 165.964 58.064C166.71 58.064 167.356 58.288 167.9 58.736C168.444 59.1733 168.865 59.8347 169.164 60.72C169.462 61.6053 169.612 62.7307 169.612 64.096C169.612 65.4613 169.462 66.5973 169.164 67.504C168.865 68.4107 168.444 69.088 167.9 69.536C167.356 69.984 166.71 70.208 165.964 70.208ZM165.964 69.024C166.412 69.024 166.801 68.8533 167.132 68.512C167.473 68.1707 167.734 67.6373 167.916 66.912C168.108 66.176 168.204 65.2373 168.204 64.096C168.204 62.9547 168.108 62.0267 167.916 61.312C167.734 60.5867 167.473 60.0587 167.132 59.728C166.801 59.3867 166.412 59.216 165.964 59.216C165.526 59.216 165.137 59.3867 164.796 59.728C164.454 60.0587 164.188 60.5867 163.996 61.312C163.814 62.0267 163.724 62.9547 163.724 64.096C163.724 65.2373 163.814 66.176 163.996 66.912C164.188 67.6373 164.454 68.1707 164.796 68.512C165.137 68.8533 165.526 69.024 165.964 69.024ZM174.839 70.208C174.103 70.208 173.457 69.984 172.903 69.536C172.359 69.088 171.937 68.4107 171.639 67.504C171.34 66.5973 171.191 65.4613 171.191 64.096C171.191 62.7307 171.34 61.6053 171.639 60.72C171.937 59.824 172.359 59.1573 172.903 58.72C173.457 58.2827 174.103 58.064 174.839 58.064C175.585 58.064 176.231 58.288 176.775 58.736C177.319 59.1733 177.74 59.8347 178.039 60.72C178.337 61.6053 178.487 62.7307 178.487 64.096C178.487 65.4613 178.337 66.5973 178.039 67.504C177.74 68.4107 177.319 69.088 176.775 69.536C176.231 69.984 175.585 70.208 174.839 70.208ZM174.839 69.024C175.287 69.024 175.676 68.8533 176.007 68.512C176.348 68.1707 176.609 67.6373 176.791 66.912C176.983 66.176 177.079 65.2373 177.079 64.096C177.079 62.9547 176.983 62.0267 176.791 61.312C176.609 60.5867 176.348 60.0587 176.007 59.728C175.676 59.3867 175.287 59.216 174.839 59.216C174.401 59.216 174.012 59.3867 173.671 59.728C173.329 60.0587 173.063 60.5867 172.871 61.312C172.689 62.0267 172.599 62.9547 172.599 64.096C172.599 65.2373 172.689 66.176 172.871 66.912C173.063 67.6373 173.329 68.1707 173.671 68.512C174.012 68.8533 174.401 69.024 174.839 69.024ZM183.714 70.208C182.978 70.208 182.332 69.984 181.778 69.536C181.234 69.088 180.812 68.4107 180.514 67.504C180.215 66.5973 180.066 65.4613 180.066 64.096C180.066 62.7307 180.215 61.6053 180.514 60.72C180.812 59.824 181.234 59.1573 181.778 58.72C182.332 58.2827 182.978 58.064 183.714 58.064C184.46 58.064 185.106 58.288 185.65 58.736C186.194 59.1733 186.615 59.8347 186.914 60.72C187.212 61.6053 187.362 62.7307 187.362 64.096C187.362 65.4613 187.212 66.5973 186.914 67.504C186.615 68.4107 186.194 69.088 185.65 69.536C185.106 69.984 184.46 70.208 183.714 70.208ZM183.714 69.024C184.162 69.024 184.551 68.8533 184.882 68.512C185.223 68.1707 185.484 67.6373 185.666 66.912C185.858 66.176 185.954 65.2373 185.954 64.096C185.954 62.9547 185.858 62.0267 185.666 61.312C185.484 60.5867 185.223 60.0587 184.882 59.728C184.551 59.3867 184.162 59.216 183.714 59.216C183.276 59.216 182.887 59.3867 182.546 59.728C182.204 60.0587 181.938 60.5867 181.746 61.312C181.564 62.0267 181.474 62.9547 181.474 64.096C181.474 65.2373 181.564 66.176 181.746 66.912C181.938 67.6373 182.204 68.1707 182.546 68.512C182.887 68.8533 183.276 69.024 183.714 69.024ZM192.589 70.208C191.853 70.208 191.207 69.984 190.653 69.536C190.109 69.088 189.687 68.4107 189.389 67.504C189.09 66.5973 188.941 65.4613 188.941 64.096C188.941 62.7307 189.09 61.6053 189.389 60.72C189.687 59.824 190.109 59.1573 190.653 58.72C191.207 58.2827 191.853 58.064 192.589 58.064C193.335 58.064 193.981 58.288 194.525 58.736C195.069 59.1733 195.49 59.8347 195.789 60.72C196.087 61.6053 196.237 62.7307 196.237 64.096C196.237 65.4613 196.087 66.5973 195.789 67.504C195.49 68.4107 195.069 69.088 194.525 69.536C193.981 69.984 193.335 70.208 192.589 70.208ZM192.589 69.024C193.037 69.024 193.426 68.8533 193.757 68.512C194.098 68.1707 194.359 67.6373 194.541 66.912C194.733 66.176 194.829 65.2373 194.829 64.096C194.829 62.9547 194.733 62.0267 194.541 61.312C194.359 60.5867 194.098 60.0587 193.757 59.728C193.426 59.3867 193.037 59.216 192.589 59.216C192.151 59.216 191.762 59.3867 191.421 59.728C191.079 60.0587 190.813 60.5867 190.621 61.312C190.439 62.0267 190.349 62.9547 190.349 64.096C190.349 65.2373 190.439 66.176 190.621 66.912C190.813 67.6373 191.079 68.1707 191.421 68.512C191.762 68.8533 192.151 69.024 192.589 69.024ZM203.608 58.208H204.76V58.816C204.76 59.328 204.658 59.8133 204.456 60.272C204.253 60.7307 203.97 61.1573 203.608 61.552C203.245 61.936 202.824 62.2773 202.344 62.576C201.864 62.8747 201.346 63.1307 200.792 63.344C200.248 63.5467 199.682 63.696 199.096 63.792L198.584 62.736C199.096 62.672 199.592 62.5547 200.072 62.384C200.562 62.2027 201.021 61.9893 201.448 61.744C201.874 61.4987 202.248 61.2213 202.568 60.912C202.898 60.6027 203.154 60.272 203.336 59.92C203.517 59.5573 203.608 59.1893 203.608 58.816V58.208ZM203.944 58.208H205.096V58.816C205.096 59.1893 205.186 59.5573 205.368 59.92C205.549 60.272 205.8 60.6027 206.12 60.912C206.45 61.2213 206.829 61.4987 207.256 61.744C207.682 61.9893 208.136 62.2027 208.616 62.384C209.106 62.5547 209.608 62.672 210.12 62.736L209.624 63.792C209.037 63.696 208.466 63.5467 207.912 63.344C207.357 63.1307 206.84 62.8747 206.36 62.576C205.88 62.2773 205.458 61.936 205.096 61.552C204.733 61.1573 204.45 60.7307 204.248 60.272C204.045 59.8133 203.944 59.328 203.944 58.816V58.208ZM203.672 65.728H204.984V71.232H203.672V65.728ZM197.816 65.008H210.888V66.096H197.816V65.008ZM199.048 57.664H209.64V58.736H199.048V57.664ZM88.704 94V93.136C89.9307 92.0587 90.9387 91.0773 91.728 90.192C92.528 89.3067 93.12 88.4853 93.504 87.728C93.888 86.96 94.08 86.24 94.08 85.568C94.08 85.12 94 84.72 93.84 84.368C93.6907 84.016 93.456 83.744 93.136 83.552C92.816 83.3493 92.4107 83.248 91.92 83.248C91.44 83.248 90.992 83.376 90.576 83.632C90.1707 83.888 89.808 84.2133 89.488 84.608L88.64 83.776C89.1093 83.2533 89.616 82.8373 90.16 82.528C90.704 82.2187 91.3493 82.064 92.096 82.064C92.8 82.064 93.4027 82.208 93.904 82.496C94.416 82.7733 94.8107 83.1733 95.088 83.696C95.376 84.208 95.52 84.8107 95.52 85.504C95.52 86.2827 95.3227 87.072 94.928 87.872C94.544 88.672 94.0053 89.488 93.312 90.32C92.6293 91.1413 91.8293 91.984 90.912 92.848C91.2213 92.8267 91.5413 92.8053 91.872 92.784C92.2133 92.752 92.5333 92.736 92.832 92.736H96.08V94H88.704ZM99.099 94.208C98.811 94.208 98.5603 94.1067 98.347 93.904C98.1443 93.6907 98.043 93.424 98.043 93.104C98.043 92.7627 98.1443 92.4907 98.347 92.288C98.5603 92.0853 98.811 91.984 99.099 91.984C99.387 91.984 99.6323 92.0853 99.835 92.288C100.048 92.4907 100.155 92.7627 100.155 93.104C100.155 93.424 100.048 93.6907 99.835 93.904C99.6323 94.1067 99.387 94.208 99.099 94.208ZM105.61 94V93.136C106.837 92.0587 107.845 91.0773 108.634 90.192C109.434 89.3067 110.026 88.4853 110.41 87.728C110.794 86.96 110.986 86.24 110.986 85.568C110.986 85.12 110.906 84.72 110.746 84.368C110.597 84.016 110.362 83.744 110.042 83.552C109.722 83.3493 109.317 83.248 108.826 83.248C108.346 83.248 107.898 83.376 107.482 83.632C107.077 83.888 106.714 84.2133 106.394 84.608L105.546 83.776C106.016 83.2533 106.522 82.8373 107.066 82.528C107.61 82.2187 108.256 82.064 109.002 82.064C109.706 82.064 110.309 82.208 110.81 82.496C111.322 82.7733 111.717 83.1733 111.994 83.696C112.282 84.208 112.426 84.8107 112.426 85.504C112.426 86.2827 112.229 87.072 111.834 87.872C111.45 88.672 110.912 89.488 110.218 90.32C109.536 91.1413 108.736 91.984 107.818 92.848C108.128 92.8267 108.448 92.8053 108.778 92.784C109.12 92.752 109.44 92.736 109.738 92.736H112.986V94H105.61ZM118.229 94.208C117.493 94.208 116.848 93.984 116.293 93.536C115.749 93.088 115.328 92.4107 115.029 91.504C114.731 90.5973 114.581 89.4613 114.581 88.096C114.581 86.7307 114.731 85.6053 115.029 84.72C115.328 83.824 115.749 83.1573 116.293 82.72C116.848 82.2827 117.493 82.064 118.229 82.064C118.976 82.064 119.621 82.288 120.165 82.736C120.709 83.1733 121.131 83.8347 121.429 84.72C121.728 85.6053 121.877 86.7307 121.877 88.096C121.877 89.4613 121.728 90.5973 121.429 91.504C121.131 92.4107 120.709 93.088 120.165 93.536C119.621 93.984 118.976 94.208 118.229 94.208ZM118.229 93.024C118.677 93.024 119.067 92.8533 119.397 92.512C119.739 92.1707 120 91.6373 120.181 90.912C120.373 90.176 120.469 89.2373 120.469 88.096C120.469 86.9547 120.373 86.0267 120.181 85.312C120 84.5867 119.739 84.0587 119.397 83.728C119.067 83.3867 118.677 83.216 118.229 83.216C117.792 83.216 117.403 83.3867 117.061 83.728C116.72 84.0587 116.453 84.5867 116.261 85.312C116.08 86.0267 115.989 86.9547 115.989 88.096C115.989 89.2373 116.08 90.176 116.261 90.912C116.453 91.6373 116.72 92.1707 117.061 92.512C117.403 92.8533 117.792 93.024 118.229 93.024ZM123.36 94V93.136C124.587 92.0587 125.595 91.0773 126.384 90.192C127.184 89.3067 127.776 88.4853 128.16 87.728C128.544 86.96 128.736 86.24 128.736 85.568C128.736 85.12 128.656 84.72 128.496 84.368C128.347 84.016 128.112 83.744 127.792 83.552C127.472 83.3493 127.067 83.248 126.576 83.248C126.096 83.248 125.648 83.376 125.232 83.632C124.827 83.888 124.464 84.2133 124.144 84.608L123.296 83.776C123.766 83.2533 124.272 82.8373 124.816 82.528C125.36 82.2187 126.006 82.064 126.752 82.064C127.456 82.064 128.059 82.208 128.56 82.496C129.072 82.7733 129.467 83.1733 129.744 83.696C130.032 84.208 130.176 84.8107 130.176 85.504C130.176 86.2827 129.979 87.072 129.584 87.872C129.2 88.672 128.662 89.488 127.968 90.32C127.286 91.1413 126.486 91.984 125.568 92.848C125.878 92.8267 126.198 92.8053 126.528 92.784C126.87 92.752 127.19 92.736 127.488 92.736H130.736V94H123.36ZM135.723 94.208C135.115 94.208 134.577 94.1333 134.107 93.984C133.649 93.8347 133.243 93.6427 132.891 93.408C132.55 93.1733 132.241 92.9227 131.963 92.656L132.699 91.696C132.923 91.92 133.169 92.1333 133.435 92.336C133.713 92.528 134.027 92.688 134.379 92.816C134.731 92.9333 135.131 92.992 135.579 92.992C136.038 92.992 136.454 92.88 136.827 92.656C137.211 92.432 137.515 92.112 137.739 91.696C137.963 91.28 138.075 90.7893 138.075 90.224C138.075 89.392 137.851 88.7413 137.403 88.272C136.966 87.792 136.379 87.552 135.643 87.552C135.259 87.552 134.923 87.6107 134.635 87.728C134.347 87.8453 134.033 88.016 133.691 88.24L132.907 87.744L133.291 82.272H138.987V83.52H134.571L134.267 86.912C134.523 86.7627 134.79 86.6507 135.067 86.576C135.355 86.4907 135.675 86.448 136.027 86.448C136.678 86.448 137.27 86.5813 137.803 86.848C138.337 87.104 138.763 87.5093 139.083 88.064C139.403 88.6187 139.563 89.328 139.563 90.192C139.563 91.0453 139.377 91.7707 139.003 92.368C138.641 92.9653 138.166 93.424 137.579 93.744C136.993 94.0533 136.374 94.208 135.723 94.208ZM151.782 80.784H153.11V91.504H151.782V80.784ZM147.686 82.656H152.278V83.728H147.686V82.656ZM143.846 93.84H153.494V94.928H143.846V93.84ZM143.846 90.576H145.174V94.32H143.846V90.576ZM142.054 81.824H143.366V88.656H142.054V81.824ZM142.054 88.24H143.142C144.166 88.24 145.18 88.2027 146.182 88.128C147.196 88.0533 148.262 87.9147 149.382 87.712L149.526 88.816C148.374 89.0293 147.286 89.1733 146.262 89.248C145.238 89.312 144.198 89.344 143.142 89.344H142.054V88.24ZM147.686 85.424H152.278V86.496H147.686V85.424ZM162.911 94.208C162.303 94.208 161.764 94.1333 161.295 93.984C160.836 93.8347 160.431 93.6373 160.079 93.392C159.727 93.1467 159.423 92.88 159.167 92.592L159.919 91.648C160.26 92 160.66 92.3147 161.119 92.592C161.588 92.8587 162.154 92.992 162.815 92.992C163.284 92.992 163.695 92.9067 164.047 92.736C164.41 92.5547 164.692 92.304 164.895 91.984C165.098 91.6533 165.199 91.264 165.199 90.816C165.199 90.3467 165.082 89.936 164.847 89.584C164.623 89.232 164.244 88.96 163.711 88.768C163.178 88.5653 162.458 88.464 161.551 88.464V87.344C162.362 87.344 163.002 87.248 163.471 87.056C163.94 86.8533 164.276 86.5813 164.479 86.24C164.692 85.8987 164.799 85.52 164.799 85.104C164.799 84.5387 164.623 84.0907 164.271 83.76C163.919 83.4187 163.434 83.248 162.815 83.248C162.346 83.248 161.903 83.3547 161.487 83.568C161.082 83.7813 160.714 84.0533 160.383 84.384L159.599 83.456C160.047 83.0507 160.532 82.72 161.055 82.464C161.588 82.1973 162.191 82.064 162.863 82.064C163.524 82.064 164.111 82.1813 164.623 82.416C165.146 82.64 165.551 82.9707 165.839 83.408C166.138 83.8453 166.287 84.3733 166.287 84.992C166.287 85.7067 166.095 86.2987 165.711 86.768C165.327 87.2373 164.826 87.584 164.207 87.808V87.888C164.666 87.9947 165.082 88.1813 165.455 88.448C165.828 88.7147 166.127 89.0507 166.351 89.456C166.575 89.8613 166.687 90.3307 166.687 90.864C166.687 91.5573 166.516 92.1547 166.175 92.656C165.834 93.1573 165.38 93.5413 164.815 93.808C164.25 94.0747 163.615 94.208 162.911 94.208ZM172.266 86.752H173.578V89.344H172.266V86.752ZM178.89 80.784H180.218V89.296H178.89V80.784ZM168.49 87.2L168.33 86.224C169.258 86.224 170.25 86.2187 171.306 86.208C172.373 86.1867 173.455 86.1547 174.554 86.112C175.653 86.0587 176.719 85.9733 177.754 85.856L177.834 86.72C176.778 86.8693 175.701 86.9813 174.602 87.056C173.514 87.12 172.447 87.1627 171.402 87.184C170.367 87.1947 169.397 87.2 168.49 87.2ZM170.522 89.824H180.218V92.832H171.866V94.464H170.57V91.936H178.906V90.768H170.522V89.824ZM170.57 94.112H180.698V95.088H170.57V94.112ZM176.01 87.664H179.322V88.528H176.01V87.664ZM173.002 81.056C173.717 81.056 174.341 81.1413 174.874 81.312C175.407 81.4827 175.823 81.7333 176.122 82.064C176.421 82.3947 176.57 82.784 176.57 83.232C176.57 83.6693 176.421 84.0533 176.122 84.384C175.823 84.704 175.407 84.9547 174.874 85.136C174.341 85.3067 173.717 85.392 173.002 85.392C172.287 85.392 171.658 85.3067 171.114 85.136C170.581 84.9547 170.165 84.704 169.866 84.384C169.578 84.0533 169.434 83.6693 169.434 83.232C169.434 82.784 169.578 82.3947 169.866 82.064C170.165 81.7333 170.581 81.4827 171.114 81.312C171.658 81.1413 172.287 81.056 173.002 81.056ZM173.002 81.968C172.298 81.968 171.733 82.08 171.306 82.304C170.89 82.528 170.682 82.8373 170.682 83.232C170.682 83.6053 170.89 83.9093 171.306 84.144C171.733 84.368 172.298 84.48 173.002 84.48C173.706 84.48 174.266 84.368 174.682 84.144C175.109 83.9093 175.322 83.6053 175.322 83.232C175.322 82.8373 175.109 82.528 174.682 82.304C174.266 82.08 173.706 81.968 173.002 81.968ZM190.083 94.208C189.475 94.208 188.936 94.1333 188.467 93.984C188.008 93.8347 187.603 93.6373 187.251 93.392C186.899 93.1467 186.595 92.88 186.339 92.592L187.091 91.648C187.432 92 187.832 92.3147 188.291 92.592C188.76 92.8587 189.326 92.992 189.987 92.992C190.456 92.992 190.867 92.9067 191.219 92.736C191.582 92.5547 191.864 92.304 192.067 91.984C192.27 91.6533 192.371 91.264 192.371 90.816C192.371 90.3467 192.254 89.936 192.019 89.584C191.795 89.232 191.416 88.96 190.883 88.768C190.35 88.5653 189.63 88.464 188.723 88.464V87.344C189.534 87.344 190.174 87.248 190.643 87.056C191.112 86.8533 191.448 86.5813 191.651 86.24C191.864 85.8987 191.971 85.52 191.971 85.104C191.971 84.5387 191.795 84.0907 191.443 83.76C191.091 83.4187 190.606 83.248 189.987 83.248C189.518 83.248 189.075 83.3547 188.659 83.568C188.254 83.7813 187.886 84.0533 187.555 84.384L186.771 83.456C187.219 83.0507 187.704 82.72 188.227 82.464C188.76 82.1973 189.363 82.064 190.035 82.064C190.696 82.064 191.283 82.1813 191.795 82.416C192.318 82.64 192.723 82.9707 193.011 83.408C193.31 83.8453 193.459 84.3733 193.459 84.992C193.459 85.7067 193.267 86.2987 192.883 86.768C192.499 87.2373 191.998 87.584 191.379 87.808V87.888C191.838 87.9947 192.254 88.1813 192.627 88.448C193 88.7147 193.299 89.0507 193.523 89.456C193.747 89.8613 193.859 90.3307 193.859 90.864C193.859 91.5573 193.688 92.1547 193.347 92.656C193.006 93.1573 192.552 93.5413 191.987 93.808C191.422 94.0747 190.787 94.208 190.083 94.208ZM199.198 94.208C198.462 94.208 197.817 93.984 197.262 93.536C196.718 93.088 196.297 92.4107 195.998 91.504C195.699 90.5973 195.55 89.4613 195.55 88.096C195.55 86.7307 195.699 85.6053 195.998 84.72C196.297 83.824 196.718 83.1573 197.262 82.72C197.817 82.2827 198.462 82.064 199.198 82.064C199.945 82.064 200.59 82.288 201.134 82.736C201.678 83.1733 202.099 83.8347 202.398 84.72C202.697 85.6053 202.846 86.7307 202.846 88.096C202.846 89.4613 202.697 90.5973 202.398 91.504C202.099 92.4107 201.678 93.088 201.134 93.536C200.59 93.984 199.945 94.208 199.198 94.208ZM199.198 93.024C199.646 93.024 200.035 92.8533 200.366 92.512C200.707 92.1707 200.969 91.6373 201.15 90.912C201.342 90.176 201.438 89.2373 201.438 88.096C201.438 86.9547 201.342 86.0267 201.15 85.312C200.969 84.5867 200.707 84.0587 200.366 83.728C200.035 83.3867 199.646 83.216 199.198 83.216C198.761 83.216 198.371 83.3867 198.03 83.728C197.689 84.0587 197.422 84.5867 197.23 85.312C197.049 86.0267 196.958 86.9547 196.958 88.096C196.958 89.2373 197.049 90.176 197.23 90.912C197.422 91.6373 197.689 92.1707 198.03 92.512C198.371 92.8533 198.761 93.024 199.198 93.024ZM208.489 81.296C209.214 81.296 209.854 81.4347 210.409 81.712C210.974 81.9787 211.417 82.352 211.737 82.832C212.057 83.312 212.217 83.872 212.217 84.512C212.217 85.1413 212.057 85.7013 211.737 86.192C211.417 86.672 210.974 87.0453 210.409 87.312C209.854 87.5787 209.214 87.712 208.489 87.712C207.774 87.712 207.134 87.5787 206.569 87.312C206.004 87.0453 205.556 86.672 205.225 86.192C204.905 85.7013 204.745 85.1413 204.745 84.512C204.745 83.872 204.905 83.312 205.225 82.832C205.556 82.352 206.004 81.9787 206.569 81.712C207.134 81.4347 207.774 81.296 208.489 81.296ZM208.489 82.4C208.02 82.4 207.598 82.4907 207.225 82.672C206.862 82.8427 206.574 83.088 206.361 83.408C206.148 83.728 206.041 84.096 206.041 84.512C206.041 84.928 206.148 85.296 206.361 85.616C206.574 85.9253 206.862 86.1707 207.225 86.352C207.598 86.5333 208.02 86.624 208.489 86.624C208.958 86.624 209.374 86.5333 209.737 86.352C210.11 86.1707 210.404 85.9253 210.617 85.616C210.83 85.296 210.937 84.928 210.937 84.512C210.937 84.096 210.83 83.728 210.617 83.408C210.404 83.088 210.11 82.8427 209.737 82.672C209.374 82.4907 208.958 82.4 208.489 82.4ZM214.953 80.768H216.281V88.176H214.953V80.768ZM206.921 88.896H216.281V92.4H208.249V94.576H206.969V91.408H214.969V89.952H206.921V88.896ZM206.969 93.984H216.777V95.056H206.969V93.984ZM90.224 118.208C89.936 118.208 89.6853 118.107 89.472 117.904C89.2693 117.691 89.168 117.424 89.168 117.104C89.168 116.763 89.2693 116.491 89.472 116.288C89.6853 116.085 89.936 115.984 90.224 115.984C90.512 115.984 90.7573 116.085 90.96 116.288C91.1733 116.491 91.28 116.763 91.28 117.104C91.28 117.424 91.1733 117.691 90.96 117.904C90.7573 118.107 90.512 118.208 90.224 118.208ZM94.6771 118.208C94.3891 118.208 94.1385 118.107 93.9251 117.904C93.7225 117.691 93.6211 117.424 93.6211 117.104C93.6211 116.763 93.7225 116.491 93.9251 116.288C94.1385 116.085 94.3891 115.984 94.6771 115.984C94.9651 115.984 95.2105 116.085 95.4131 116.288C95.6265 116.491 95.7331 116.763 95.7331 117.104C95.7331 117.424 95.6265 117.691 95.4131 117.904C95.2105 118.107 94.9651 118.208 94.6771 118.208ZM99.1303 118.208C98.8423 118.208 98.5916 118.107 98.3783 117.904C98.1756 117.691 98.0743 117.424 98.0743 117.104C98.0743 116.763 98.1756 116.491 98.3783 116.288C98.5916 116.085 98.8423 115.984 99.1303 115.984C99.4183 115.984 99.6636 116.085 99.8663 116.288C100.08 116.491 100.186 116.763 100.186 117.104C100.186 117.424 100.08 117.691 99.8663 117.904C99.6636 118.107 99.4183 118.208 99.1303 118.208Z" fill="black"/>
<rect x="24.5" y="164.5" width="551" height="55" rx="7.5" fill="white"/>
<rect x="24.5" y="164.5" width="551" height="55" rx="7.5" stroke="#EEEFF1"/>
<g clip-path="url(#clip0_259_922)">
<path d="M48 194.666V192M48 189.333H48.0067M54.6667 192C54.6667 195.682 51.6819 198.666 48 198.666C44.3181 198.666 41.3334 195.682 41.3334 192C41.3334 188.318 44.3181 185.333 48 185.333C51.6819 185.333 54.6667 188.318 54.6667 192Z" stroke="#FD5108" stroke-width="1.5" stroke-linecap="round" stroke-linejoin="round"/>
</g>
<path d="M75.344 184.768H76.672V192.272H75.344V184.768ZM67.248 192.976H76.672V196.448H68.592V198.624H67.28V195.472H75.36V194.032H67.248V192.976ZM67.28 198.016H77.2V199.088H67.28V198.016ZM65.44 185.76H73.216V186.8H65.44V185.76ZM65.2 191.776L65.04 190.688C65.904 190.677 66.8427 190.661 67.856 190.64C68.8693 190.619 69.8933 190.581 70.928 190.528C71.9733 190.464 72.9653 190.379 73.904 190.272L73.968 191.232C73.0187 191.381 72.0267 191.493 70.992 191.568C69.9573 191.643 68.944 191.696 67.952 191.728C66.9707 191.76 66.0533 191.776 65.2 191.776ZM66.864 186.24H68.144V191.152H66.864V186.24ZM70.496 186.24H71.792V191.152H70.496V186.24ZM85.3748 185.28H86.5428V186.096C86.5428 186.651 86.4361 187.173 86.2228 187.664C86.0094 188.144 85.7161 188.587 85.3428 188.992C84.9801 189.397 84.5534 189.76 84.0628 190.08C83.5721 190.4 83.0388 190.667 82.4628 190.88C81.8974 191.093 81.3161 191.248 80.7188 191.344L80.1748 190.272C80.7081 190.197 81.2254 190.069 81.7268 189.888C82.2388 189.707 82.7134 189.488 83.1508 189.232C83.5881 188.965 83.9721 188.667 84.3028 188.336C84.6441 188.005 84.9054 187.653 85.0868 187.28C85.2788 186.896 85.3748 186.501 85.3748 186.096V185.28ZM85.5988 185.28H86.7508V186.096C86.7508 186.501 86.8468 186.891 87.0388 187.264C87.2308 187.637 87.4921 187.989 87.8228 188.32C88.1641 188.651 88.5534 188.949 88.9908 189.216C89.4281 189.483 89.8974 189.707 90.3988 189.888C90.9108 190.069 91.4281 190.197 91.9508 190.272L91.4228 191.344C90.8254 191.248 90.2441 191.093 89.6788 190.88C89.1134 190.656 88.5801 190.384 88.0788 190.064C87.5881 189.744 87.1561 189.381 86.7828 188.976C86.4201 188.571 86.1321 188.128 85.9188 187.648C85.7054 187.157 85.5988 186.64 85.5988 186.096V185.28ZM85.3748 193.744H86.6868V199.248H85.3748V193.744ZM79.5188 192.912H92.5908V194.016H79.5188V192.912ZM101.352 186.016H102.44V188.608C102.44 189.408 102.338 190.192 102.136 190.96C101.944 191.728 101.666 192.448 101.304 193.12C100.941 193.792 100.514 194.389 100.024 194.912C99.533 195.435 98.9996 195.851 98.4236 196.16L97.6076 195.088C98.141 194.821 98.6316 194.464 99.0796 194.016C99.5383 193.557 99.9383 193.035 100.28 192.448C100.621 191.861 100.882 191.243 101.064 190.592C101.256 189.931 101.352 189.269 101.352 188.608V186.016ZM101.592 186.016H102.664V188.608C102.664 189.248 102.754 189.883 102.936 190.512C103.128 191.141 103.394 191.733 103.736 192.288C104.077 192.843 104.466 193.339 104.904 193.776C105.352 194.213 105.832 194.56 106.344 194.816L105.528 195.872C104.962 195.584 104.44 195.189 103.96 194.688C103.49 194.187 103.074 193.616 102.712 192.976C102.36 192.325 102.082 191.632 101.88 190.896C101.688 190.149 101.592 189.387 101.592 188.608V186.016ZM107.608 184.768H108.936V199.248H107.608V184.768ZM108.632 190.624H111.304V191.76H108.632V190.624ZM123.062 184.768H124.39V192.256H123.062V184.768ZM115.03 192.992H124.39V196.48H116.358V198.464H115.078V195.472H123.078V194.048H115.03V192.992ZM115.078 198.016H124.886V199.088H115.078V198.016ZM116.294 185.184H117.398V186.288C117.398 187.184 117.228 188.021 116.886 188.8C116.545 189.579 116.065 190.256 115.446 190.832C114.828 191.397 114.113 191.829 113.302 192.128L112.63 191.072C113.174 190.88 113.67 190.624 114.118 190.304C114.566 189.984 114.95 189.616 115.27 189.2C115.601 188.773 115.852 188.315 116.022 187.824C116.204 187.333 116.294 186.821 116.294 186.288V185.184ZM116.534 185.184H117.638V186.288C117.638 186.789 117.724 187.275 117.894 187.744C118.076 188.213 118.326 188.645 118.646 189.04C118.977 189.435 119.366 189.787 119.814 190.096C120.262 190.395 120.753 190.635 121.286 190.816L120.63 191.856C120.022 191.643 119.468 191.36 118.966 191.008C118.465 190.645 118.033 190.224 117.67 189.744C117.308 189.253 117.025 188.72 116.822 188.144C116.63 187.557 116.534 186.939 116.534 186.288V185.184ZM137.765 184.768H139.093V199.264H137.765V184.768ZM131.461 185.888C132.176 185.888 132.805 186.096 133.349 186.512C133.904 186.917 134.336 187.499 134.645 188.256C134.965 189.013 135.125 189.904 135.125 190.928C135.125 191.952 134.965 192.843 134.645 193.6C134.336 194.357 133.904 194.944 133.349 195.36C132.805 195.776 132.176 195.984 131.461 195.984C130.746 195.984 130.112 195.776 129.557 195.36C129.002 194.944 128.565 194.357 128.245 193.6C127.936 192.843 127.781 191.952 127.781 190.928C127.781 189.904 127.936 189.013 128.245 188.256C128.565 187.499 129.002 186.917 129.557 186.512C130.112 186.096 130.746 185.888 131.461 185.888ZM131.461 187.072C130.981 187.072 130.56 187.232 130.197 187.552C129.845 187.861 129.568 188.309 129.365 188.896C129.162 189.472 129.061 190.149 129.061 190.928C129.061 191.707 129.162 192.389 129.365 192.976C129.568 193.552 129.845 194 130.197 194.32C130.56 194.64 130.981 194.8 131.461 194.8C131.93 194.8 132.341 194.64 132.693 194.32C133.056 194 133.338 193.552 133.541 192.976C133.744 192.389 133.845 191.707 133.845 190.928C133.845 190.149 133.744 189.472 133.541 188.896C133.338 188.309 133.056 187.861 132.693 187.552C132.341 187.232 131.93 187.072 131.461 187.072ZM145.55 196.288H158.67V197.392H145.55V196.288ZM151.422 192.544H152.734V196.592H151.422V192.544ZM147.086 185.968H157.07V192.784H147.086V185.968ZM155.774 187.04H148.382V191.728H155.774V187.04ZM162.061 190.144H171.725V191.232H162.061V190.144ZM160.253 193.12H173.373V194.208H160.253V193.12ZM166.125 193.728H167.437V199.2H166.125V193.728ZM162.061 185.616H171.533V186.704H163.405V190.672H162.061V185.616ZM184.438 192.608H185.75V194.784H184.438V192.608ZM178.566 191.904H191.638V192.976H178.566V191.904ZM184.438 184.736H185.75V186.688H184.438V184.736ZM184.374 186.848H185.542V187.072C185.542 187.669 185.387 188.203 185.078 188.672C184.779 189.141 184.358 189.547 183.814 189.888C183.28 190.229 182.662 190.507 181.958 190.72C181.264 190.923 180.523 191.067 179.734 191.152L179.318 190.128C180.022 190.064 180.678 189.947 181.286 189.776C181.894 189.605 182.427 189.392 182.886 189.136C183.355 188.869 183.718 188.565 183.974 188.224C184.24 187.872 184.374 187.488 184.374 187.072V186.848ZM184.662 186.848H185.814V187.072C185.814 187.488 185.942 187.872 186.198 188.224C186.464 188.565 186.827 188.869 187.286 189.136C187.755 189.392 188.294 189.605 188.902 189.776C189.51 189.947 190.166 190.064 190.87 190.128L190.47 191.152C189.68 191.067 188.934 190.923 188.23 190.72C187.536 190.507 186.918 190.229 186.374 189.888C185.84 189.547 185.419 189.141 185.11 188.672C184.811 188.203 184.662 187.669 184.662 187.072V186.848ZM179.91 186.176H190.31V187.248H179.91V186.176ZM185.094 194.416C186.651 194.416 187.862 194.624 188.726 195.04C189.6 195.445 190.038 196.037 190.038 196.816C190.038 197.595 189.6 198.187 188.726 198.592C187.862 199.008 186.651 199.216 185.094 199.216C183.536 199.216 182.32 199.008 181.446 198.592C180.571 198.187 180.134 197.595 180.134 196.816C180.134 196.037 180.571 195.445 181.446 195.04C182.32 194.624 183.536 194.416 185.094 194.416ZM185.094 195.424C183.942 195.424 183.051 195.547 182.422 195.792C181.792 196.027 181.478 196.368 181.478 196.816C181.478 197.264 181.792 197.611 182.422 197.856C183.051 198.091 183.942 198.208 185.094 198.208C186.235 198.208 187.12 198.091 187.75 197.856C188.39 197.611 188.71 197.264 188.71 196.816C188.71 196.368 188.39 196.027 187.75 195.792C187.12 195.547 186.235 195.424 185.094 195.424ZM198.964 185.92H200.132V186.368C200.132 186.827 200.031 187.264 199.828 187.68C199.636 188.085 199.364 188.459 199.012 188.8C198.66 189.131 198.244 189.424 197.764 189.68C197.295 189.925 196.783 190.133 196.228 190.304C195.674 190.475 195.098 190.597 194.5 190.672L194.004 189.616C194.527 189.563 195.028 189.467 195.508 189.328C195.999 189.189 196.452 189.024 196.868 188.832C197.295 188.629 197.663 188.4 197.972 188.144C198.282 187.888 198.522 187.611 198.692 187.312C198.874 187.013 198.964 186.699 198.964 186.368V185.92ZM199.508 185.92H200.676V186.368C200.676 186.688 200.762 187.003 200.932 187.312C201.114 187.611 201.359 187.888 201.668 188.144C201.988 188.389 202.356 188.613 202.772 188.816C203.188 189.019 203.636 189.189 204.116 189.328C204.607 189.467 205.114 189.563 205.636 189.616L205.14 190.672C204.543 190.597 203.967 190.475 203.412 190.304C202.858 190.133 202.34 189.92 201.86 189.664C201.391 189.408 200.98 189.115 200.628 188.784C200.276 188.443 199.999 188.069 199.796 187.664C199.604 187.259 199.508 186.827 199.508 186.368V185.92ZM194.484 185.36H205.172V186.432H194.484V185.36ZM193.284 192.032H206.388V193.12H193.284V192.032ZM199.156 189.856H200.468V192.56H199.156V189.856ZM194.74 194.544H204.74V199.248H203.412V195.616H194.74V194.544ZM209.155 191.008H216.547V192.096H209.155V191.008ZM212.115 191.872H213.443V195.2H212.115V191.872ZM209.155 186.144H216.483V187.216H210.467V191.392H209.155V186.144ZM218.467 184.768H219.795V199.264H218.467V184.768ZM208.259 196.128L208.083 195.008C209.032 195.008 210.04 195.003 211.107 194.992C212.174 194.971 213.256 194.933 214.355 194.88C215.454 194.816 216.51 194.725 217.523 194.608L217.635 195.584C216.579 195.744 215.502 195.867 214.403 195.952C213.315 196.027 212.248 196.075 211.203 196.096C210.168 196.117 209.187 196.128 208.259 196.128ZM226.578 185.888C227.282 185.888 227.906 186.096 228.45 186.512C228.994 186.917 229.415 187.499 229.714 188.256C230.023 189.013 230.178 189.904 230.178 190.928C230.178 191.952 230.023 192.843 229.714 193.6C229.415 194.357 228.994 194.944 228.45 195.36C227.906 195.776 227.282 195.984 226.578 195.984C225.885 195.984 225.261 195.776 224.706 195.36C224.162 194.944 223.735 194.357 223.426 193.6C223.127 192.843 222.978 191.952 222.978 190.928C222.978 189.904 223.127 189.013 223.426 188.256C223.735 187.499 224.162 186.917 224.706 186.512C225.261 186.096 225.885 185.888 226.578 185.888ZM226.578 187.072C226.119 187.072 225.714 187.232 225.362 187.552C225.01 187.861 224.733 188.309 224.53 188.896C224.338 189.472 224.242 190.149 224.242 190.928C224.242 191.707 224.338 192.389 224.53 192.976C224.733 193.552 225.01 194 225.362 194.32C225.714 194.64 226.119 194.8 226.578 194.8C227.047 194.8 227.458 194.64 227.81 194.32C228.162 194 228.434 193.552 228.626 192.976C228.829 192.389 228.93 191.707 228.93 190.928C228.93 190.149 228.829 189.472 228.626 188.896C228.434 188.309 228.162 187.861 227.81 187.552C227.458 187.232 227.047 187.072 226.578 187.072ZM233.314 184.768H234.626V199.264H233.314V184.768ZM229.746 190.288H233.906V191.36H229.746V190.288ZM244.571 185.648H245.675V187.424C245.675 188.373 245.509 189.248 245.179 190.048C244.848 190.837 244.384 191.525 243.787 192.112C243.189 192.699 242.485 193.147 241.675 193.456L240.955 192.4C241.691 192.144 242.331 191.771 242.875 191.28C243.419 190.779 243.835 190.197 244.123 189.536C244.421 188.875 244.571 188.171 244.571 187.424V185.648ZM244.811 185.648H245.883V187.472C245.883 187.963 245.968 188.443 246.139 188.912C246.32 189.381 246.565 189.824 246.875 190.24C247.195 190.645 247.568 191.003 247.995 191.312C248.432 191.611 248.917 191.856 249.451 192.048L248.779 193.104C247.989 192.805 247.296 192.379 246.699 191.824C246.101 191.269 245.637 190.619 245.307 189.872C244.976 189.125 244.811 188.325 244.811 187.472V185.648ZM250.923 184.768H252.251V195.456H250.923V184.768ZM251.835 189.2H254.379V190.32H251.835V189.2ZM243.259 197.84H252.891V198.928H243.259V197.84ZM243.259 194.432H244.603V198.368H243.259V194.432ZM261.61 191.984H262.922V194.16H261.61V191.984ZM255.754 191.2H268.794V192.208H255.754V191.2ZM261.61 184.688H262.922V186.432H261.61V184.688ZM261.546 186.56H262.714V186.784C262.714 187.36 262.559 187.867 262.25 188.304C261.94 188.741 261.514 189.115 260.97 189.424C260.426 189.733 259.796 189.984 259.082 190.176C258.378 190.357 257.626 190.48 256.826 190.544L256.426 189.536C257.14 189.493 257.807 189.403 258.426 189.264C259.044 189.115 259.588 188.923 260.058 188.688C260.527 188.453 260.89 188.176 261.146 187.856C261.412 187.536 261.546 187.179 261.546 186.784V186.56ZM261.834 186.56H262.986V186.784C262.986 187.179 263.119 187.536 263.385 187.856C263.652 188.176 264.02 188.453 264.49 188.688C264.959 188.923 265.498 189.115 266.106 189.264C266.724 189.403 267.391 189.493 268.106 189.536L267.706 190.544C266.906 190.48 266.148 190.357 265.434 190.176C264.73 189.984 264.106 189.733 263.562 189.424C263.028 189.115 262.607 188.741 262.298 188.304C261.988 187.867 261.834 187.36 261.834 186.784V186.56ZM257.082 186.032H267.482V187.056H257.082V186.032ZM257.322 193.536H267.13V196.704H258.65V198.448H257.354V195.76H265.834V194.528H257.322V193.536ZM257.354 198.064H267.562V199.088H257.354V198.064ZM276.152 189.952H278.936V191.056H276.152V189.952ZM273.464 186.128H274.504V188.896C274.504 189.643 274.424 190.379 274.264 191.104C274.115 191.829 273.891 192.512 273.592 193.152C273.304 193.792 272.952 194.368 272.536 194.88C272.12 195.392 271.651 195.808 271.128 196.128L270.296 195.136C270.787 194.837 271.23 194.464 271.624 194.016C272.019 193.568 272.35 193.067 272.616 192.512C272.894 191.947 273.102 191.36 273.24 190.752C273.39 190.133 273.464 189.515 273.464 188.896V186.128ZM273.72 186.128H274.744V188.848C274.744 189.424 274.808 190.005 274.936 190.592C275.075 191.168 275.267 191.723 275.512 192.256C275.768 192.779 276.083 193.259 276.456 193.696C276.83 194.133 277.251 194.496 277.72 194.784L276.968 195.808C276.446 195.488 275.982 195.083 275.576 194.592C275.171 194.091 274.83 193.531 274.552 192.912C274.275 192.283 274.067 191.621 273.928 190.928C273.79 190.235 273.72 189.541 273.72 188.848V186.128ZM281.48 184.768H282.76V199.248H281.48V184.768ZM278.536 185.072H279.784V198.512H278.536V185.072ZM288.599 185.68C289.239 185.68 289.804 185.824 290.295 186.112C290.786 186.4 291.175 186.805 291.463 187.328C291.751 187.84 291.895 188.432 291.895 189.104C291.895 189.776 291.751 190.368 291.463 190.88C291.175 191.392 290.786 191.792 290.295 192.08C289.804 192.357 289.239 192.496 288.599 192.496C287.959 192.496 287.394 192.357 286.903 192.08C286.412 191.792 286.023 191.392 285.735 190.88C285.458 190.368 285.319 189.776 285.319 189.104C285.319 188.432 285.458 187.84 285.735 187.328C286.023 186.805 286.412 186.4 286.903 186.112C287.394 185.824 287.959 185.68 288.599 185.68ZM288.599 186.816C288.204 186.816 287.847 186.912 287.527 187.104C287.218 187.296 286.972 187.568 286.791 187.92C286.61 188.261 286.519 188.656 286.519 189.104C286.519 189.552 286.61 189.947 286.791 190.288C286.972 190.629 287.218 190.901 287.527 191.104C287.847 191.296 288.204 191.392 288.599 191.392C288.994 191.392 289.346 191.296 289.655 191.104C289.975 190.901 290.226 190.629 290.407 190.288C290.588 189.947 290.679 189.552 290.679 189.104C290.679 188.656 290.588 188.261 290.407 187.92C290.226 187.568 289.975 187.296 289.655 187.104C289.346 186.912 288.994 186.816 288.599 186.816ZM296.103 184.784H297.367V193.392H296.103V184.784ZM293.767 188.496H296.487V189.6H293.767V188.496ZM293.015 185.056H294.263V193.296H293.015V185.056ZM287.671 194.192H297.367V199.248H296.055V195.28H287.671V194.192ZM306.422 185.024C308.022 185.024 309.27 185.243 310.166 185.68C311.062 186.107 311.51 186.72 311.51 187.52C311.51 188.331 311.062 188.955 310.166 189.392C309.27 189.819 308.022 190.032 306.422 190.032C304.832 190.032 303.584 189.819 302.678 189.392C301.782 188.955 301.334 188.331 301.334 187.52C301.334 186.72 301.782 186.107 302.678 185.68C303.584 185.243 304.832 185.024 306.422 185.024ZM306.422 186.016C305.643 186.016 304.976 186.075 304.422 186.192C303.867 186.309 303.44 186.48 303.142 186.704C302.854 186.928 302.71 187.2 302.71 187.52C302.71 187.84 302.854 188.117 303.142 188.352C303.44 188.576 303.867 188.747 304.422 188.864C304.976 188.971 305.643 189.024 306.422 189.024C307.211 189.024 307.883 188.971 308.438 188.864C308.992 188.747 309.414 188.576 309.702 188.352C310 188.117 310.15 187.84 310.15 187.52C310.15 187.2 310 186.928 309.702 186.704C309.414 186.48 308.992 186.309 308.438 186.192C307.883 186.075 307.211 186.016 306.422 186.016ZM299.894 191.008H312.966V192.08H299.894V191.008ZM301.478 193.312H311.286V196.576H302.806V198.32H301.51V195.6H309.99V194.336H301.478V193.312ZM301.51 198.048H311.718V199.088H301.51V198.048ZM323.807 188.784H327.007V189.872H323.807V188.784ZM323.695 192.416H326.975V193.504H323.695V192.416ZM329.215 184.768H330.495V199.248H329.215V184.768ZM326.303 185.152H327.567V198.512H326.303V185.152ZM323.087 186.608H324.367C324.367 187.867 324.185 189.077 323.823 190.24C323.46 191.392 322.879 192.469 322.079 193.472C321.289 194.464 320.249 195.349 318.959 196.128L318.175 195.168C319.305 194.485 320.233 193.717 320.959 192.864C321.684 192 322.217 191.067 322.559 190.064C322.911 189.051 323.087 187.979 323.087 186.848V186.608ZM318.815 186.608H323.599V187.696H318.815V186.608ZM336.461 185.648H337.565V187.424C337.565 188.373 337.4 189.248 337.069 190.048C336.739 190.837 336.275 191.525 335.677 192.112C335.08 192.699 334.376 193.147 333.565 193.456L332.845 192.4C333.581 192.144 334.221 191.771 334.765 191.28C335.309 190.779 335.725 190.197 336.013 189.536C336.312 188.875 336.461 188.171 336.461 187.424V185.648ZM336.701 185.648H337.773V187.472C337.773 187.963 337.859 188.443 338.029 188.912C338.211 189.381 338.456 189.824 338.765 190.24C339.085 190.645 339.459 191.003 339.885 191.312C340.323 191.611 340.808 191.856 341.341 192.048L340.669 193.104C339.88 192.805 339.187 192.379 338.589 191.824C337.992 191.269 337.528 190.619 337.197 189.872C336.867 189.125 336.701 188.325 336.701 187.472V185.648ZM342.813 184.768H344.141V195.456H342.813V184.768ZM343.725 189.2H346.269V190.32H343.725V189.2ZM335.149 197.84H344.781V198.928H335.149V197.84ZM335.149 194.432H336.493V198.368H335.149V194.432ZM357.532 184.768H358.86V193.184H357.532V184.768ZM358.284 188.464H360.988V189.584H358.284V188.464ZM349.756 193.824H351.068V195.344H357.532V193.824H358.86V199.056H349.756V193.824ZM351.068 196.384V197.984H357.532V196.384H351.068ZM347.66 186.256H356.204V187.328H347.66V186.256ZM351.932 188C352.625 188 353.228 188.107 353.74 188.32C354.263 188.523 354.668 188.816 354.956 189.2C355.244 189.573 355.388 190.016 355.388 190.528C355.388 191.04 355.244 191.488 354.956 191.872C354.668 192.256 354.263 192.555 353.74 192.768C353.228 192.971 352.625 193.072 351.932 193.072C351.239 193.072 350.631 192.971 350.108 192.768C349.596 192.555 349.191 192.256 348.892 191.872C348.604 191.488 348.46 191.04 348.46 190.528C348.46 190.016 348.604 189.573 348.892 189.2C349.191 188.816 349.596 188.523 350.108 188.32C350.631 188.107 351.239 188 351.932 188ZM351.932 189.008C351.271 189.008 350.737 189.147 350.332 189.424C349.937 189.701 349.74 190.069 349.74 190.528C349.74 190.997 349.937 191.371 350.332 191.648C350.737 191.925 351.271 192.064 351.932 192.064C352.583 192.064 353.111 191.925 353.516 191.648C353.921 191.371 354.124 190.997 354.124 190.528C354.124 190.069 353.921 189.701 353.516 189.424C353.121 189.147 352.593 189.008 351.932 189.008ZM351.276 184.64H352.604V186.832H351.276V184.64ZM372.875 184.768H374.187V199.248H372.875V184.768ZM363.259 186.192H364.571V195.152H363.259V186.192ZM363.259 194.368H364.443C365.552 194.368 366.678 194.32 367.819 194.224C368.971 194.117 370.155 193.941 371.371 193.696L371.547 194.816C370.288 195.083 369.078 195.269 367.915 195.376C366.752 195.472 365.595 195.52 364.443 195.52H363.259V194.368ZM386.858 184.768H388.186V199.264H386.858V184.768ZM387.882 190.48H390.554V191.584H387.882V190.48ZM377.69 194.528H378.826C379.711 194.528 380.522 194.517 381.258 194.496C382.004 194.464 382.719 194.411 383.402 194.336C384.095 194.261 384.799 194.16 385.514 194.032L385.674 195.168C384.927 195.296 384.202 195.397 383.498 195.472C382.804 195.547 382.079 195.595 381.322 195.616C380.564 195.637 379.732 195.648 378.826 195.648H377.69V194.528ZM377.69 186.176H384.394V187.264H379.002V195.04H377.69V186.176ZM393.208 198.208C392.92 198.208 392.67 198.107 392.456 197.904C392.254 197.691 392.152 197.424 392.152 197.104C392.152 196.763 392.254 196.491 392.456 196.288C392.67 196.085 392.92 195.984 393.208 195.984C393.496 195.984 393.742 196.085 393.944 196.288C394.158 196.491 394.264 196.763 394.264 197.104C394.264 197.424 394.158 197.691 393.944 197.904C393.742 198.107 393.496 198.208 393.208 198.208Z" fill="black"/>
<g clip-path="url(#clip1_259_922)">
<path d="M39 248.667V251M41.4499 252.05L43.1416 250.359M42.5 254.5H44.8333M41.4499 256.95L43.1416 258.642M39 258V260.334M34.8583 258.642L36.55 256.95M33.1666 254.5H35.5M34.8583 250.359L36.55 252.05" stroke="url(#paint0_linear_259_922)" stroke-width="1.5" stroke-linecap="round" stroke-linejoin="round"/>
</g>
<path d="M59.366 248.422H60.528V255.17H59.366V248.422ZM60.206 251.39H62.39V252.356H60.206V251.39ZM51.288 253.784H52.268C53.136 253.784 53.8967 253.775 54.55 253.756C55.2033 253.737 55.8053 253.695 56.356 253.63C56.9067 253.565 57.462 253.476 58.022 253.364L58.162 254.316C57.574 254.428 56.9953 254.517 56.426 254.582C55.866 254.647 55.2547 254.694 54.592 254.722C53.9293 254.741 53.1547 254.75 52.268 254.75H51.288V253.784ZM51.288 249.262H56.846V250.2H52.436V254.442H51.288V249.262ZM52.548 255.856H53.696V257.41H59.366V255.856H60.528V260.882H52.548V255.856ZM53.696 258.348V259.93H59.366V258.348H53.696ZM69.6269 250.746H73.2669V251.698H69.6269V250.746ZM69.6269 253.476H73.2949V254.428H69.6269V253.476ZM72.8329 248.436H73.9949V257.802H72.8329V248.436ZM65.8609 259.86H74.2889V260.812H65.8609V259.86ZM65.8609 256.892H67.0229V260.336H65.8609V256.892ZM64.1949 249.276H65.3569V251.502H68.7729V249.276H69.9209V255.646H64.1949V249.276ZM65.3569 252.412V254.708H68.7729V252.412H65.3569ZM84.5587 249.626H85.5807V250.004C85.5807 250.536 85.45 251.026 85.1887 251.474C84.9273 251.922 84.568 252.323 84.1107 252.678C83.6627 253.023 83.1447 253.313 82.5567 253.546C81.978 253.77 81.362 253.929 80.7087 254.022L80.2747 253.098C80.7227 253.033 81.1567 252.935 81.5767 252.804C82.006 252.673 82.398 252.515 82.7527 252.328C83.1073 252.132 83.42 251.913 83.6907 251.67C83.9613 251.427 84.1713 251.166 84.3207 250.886C84.4793 250.606 84.5587 250.312 84.5587 250.004V249.626ZM85.0347 249.626H86.0567V250.004C86.0567 250.303 86.1313 250.592 86.2807 250.872C86.4393 251.152 86.654 251.418 86.9247 251.67C87.1953 251.913 87.508 252.132 87.8627 252.328C88.2267 252.515 88.6187 252.673 89.0387 252.804C89.4587 252.935 89.8927 253.033 90.3407 253.098L89.9067 254.022C89.2627 253.929 88.6467 253.77 88.0587 253.546C87.4707 253.313 86.9527 253.023 86.5047 252.678C86.0567 252.323 85.6973 251.922 85.4267 251.474C85.1653 251.026 85.0347 250.536 85.0347 250.004V249.626ZM80.6387 249.052H89.9907V249.99H80.6387V249.052ZM79.5747 254.932H91.0547V255.884H79.5747V254.932ZM84.8107 255.534H85.9727V258.446H84.8107V255.534ZM81.0307 259.86H89.7807V260.812H81.0307V259.86ZM81.0307 257.214H82.1927V260.21H81.0307V257.214ZM101.666 248.422H102.828V261.106H101.666V248.422ZM93.1816 249.5H94.3436V252.832H97.9976V249.5H99.1456V258.054H93.1816V249.5ZM94.3436 253.756V257.088H97.9976V253.756H94.3436ZM113.615 254.75H114.763V256.962H113.615V254.75ZM108.477 254.344H119.915V255.296H108.477V254.344ZM114.189 256.612C115.543 256.612 116.602 256.803 117.367 257.186C118.133 257.569 118.515 258.119 118.515 258.838C118.515 259.547 118.133 260.093 117.367 260.476C116.602 260.868 115.543 261.064 114.189 261.064C112.836 261.064 111.772 260.868 110.997 260.476C110.232 260.093 109.849 259.547 109.849 258.838C109.849 258.119 110.232 257.569 110.997 257.186C111.772 256.803 112.836 256.612 114.189 256.612ZM114.189 257.522C113.527 257.522 112.957 257.573 112.481 257.676C112.015 257.779 111.655 257.928 111.403 258.124C111.151 258.32 111.025 258.558 111.025 258.838C111.025 259.118 111.151 259.356 111.403 259.552C111.655 259.748 112.015 259.897 112.481 260C112.957 260.112 113.527 260.168 114.189 260.168C114.852 260.168 115.417 260.112 115.883 260C116.359 259.897 116.723 259.748 116.975 259.552C117.227 259.356 117.353 259.118 117.353 258.838C117.353 258.558 117.227 258.32 116.975 258.124C116.723 257.928 116.359 257.779 115.883 257.676C115.417 257.573 114.852 257.522 114.189 257.522ZM113.447 249.472H114.469V249.85C114.469 250.261 114.381 250.639 114.203 250.984C114.035 251.329 113.797 251.651 113.489 251.95C113.181 252.239 112.817 252.496 112.397 252.72C111.987 252.944 111.539 253.131 111.053 253.28C110.568 253.42 110.059 253.523 109.527 253.588L109.107 252.664C109.565 252.617 110.003 252.538 110.423 252.426C110.853 252.305 111.249 252.16 111.613 251.992C111.987 251.815 112.309 251.614 112.579 251.39C112.85 251.166 113.06 250.923 113.209 250.662C113.368 250.401 113.447 250.13 113.447 249.85V249.472ZM113.923 249.472H114.945V249.85C114.945 250.139 115.02 250.415 115.169 250.676C115.328 250.928 115.543 251.166 115.813 251.39C116.084 251.605 116.401 251.801 116.765 251.978C117.139 252.146 117.535 252.291 117.955 252.412C118.385 252.533 118.828 252.617 119.285 252.664L118.865 253.588C118.333 253.523 117.825 253.42 117.339 253.28C116.854 253.131 116.401 252.944 115.981 252.72C115.571 252.496 115.211 252.239 114.903 251.95C114.595 251.661 114.353 251.339 114.175 250.984C114.007 250.629 113.923 250.251 113.923 249.85V249.472ZM109.527 249.01H118.879V249.948H109.527V249.01ZM122.602 260.182C122.35 260.182 122.131 260.093 121.944 259.916C121.767 259.729 121.678 259.496 121.678 259.216C121.678 258.917 121.767 258.679 121.944 258.502C122.131 258.325 122.35 258.236 122.602 258.236C122.854 258.236 123.069 258.325 123.246 258.502C123.433 258.679 123.526 258.917 123.526 259.216C123.526 259.496 123.433 259.729 123.246 259.916C123.069 260.093 122.854 260.182 122.602 260.182ZM126.499 260.182C126.247 260.182 126.027 260.093 125.841 259.916C125.663 259.729 125.575 259.496 125.575 259.216C125.575 258.917 125.663 258.679 125.841 258.502C126.027 258.325 126.247 258.236 126.499 258.236C126.751 258.236 126.965 258.325 127.143 258.502C127.329 258.679 127.423 258.917 127.423 259.216C127.423 259.496 127.329 259.729 127.143 259.916C126.965 260.093 126.751 260.182 126.499 260.182ZM130.395 260.182C130.143 260.182 129.924 260.093 129.737 259.916C129.56 259.729 129.471 259.496 129.471 259.216C129.471 258.917 129.56 258.679 129.737 258.502C129.924 258.325 130.143 258.236 130.395 258.236C130.647 258.236 130.862 258.325 131.039 258.502C131.226 258.679 131.319 258.917 131.319 259.216C131.319 259.496 131.226 259.729 131.039 259.916C130.862 260.093 130.647 260.182 130.395 260.182Z" fill="#8B91A0"/>
<defs>
<linearGradient id="paint0_linear_259_922" x1="33.2439" y1="248.667" x2="44.7561" y2="260.334" gradientUnits="userSpaceOnUse">
<stop stop-color="#FD5108"/>
<stop offset="1" stop-color="#FFCDA8"/>
</linearGradient>
<clipPath id="clip0_259_922">
<rect width="16" height="16" fill="white" transform="translate(40 184)"/>
</clipPath>
<clipPath id="clip1_259_922">
<rect width="14" height="14" fill="white" transform="translate(32 247.5)"/>
</clipPath>
</defs>
</svg>
