<svg width="110" height="94" viewBox="0 0 110 94" fill="none" xmlns="http://www.w3.org/2000/svg">
<path d="M27.937 93.75L0.874023 46.875L27.937 0H82.063L89.2437 12.4377L55.83 70.3125H50.4203L37.9718 48.75H42.2988L53.125 67.5025L78.4202 23.6902L73.4022 15H36.5978L18.1922 46.875L36.6203 78.75L34.43 82.5L13.8635 46.875L34.43 11.25H75.57L80.586 19.9388L84.9143 12.4422L79.895 3.75H30.105L5.20264 46.875L30.105 90H40.1387L46.6233 78.75H73.4022L91.8078 46.875L83.8327 33.0637L85.998 29.3132L96.1365 46.875L75.57 82.5H48.797L44.4662 90H79.895L104.797 46.875L90.327 21.8157L92.4925 18.0647L109.126 46.875L82.063 93.75H27.937Z" fill="url(#paint0_linear_324_2018)"/>
<defs>
<linearGradient id="paint0_linear_324_2018" x1="18.031" y1="83.844" x2="91.969" y2="9.90599" gradientUnits="userSpaceOnUse">
<stop stop-color="#FF9F00"/>
<stop offset="0.05089" stop-color="#FE9900"/>
<stop offset="0.466323" stop-color="#FD7204"/>
<stop offset="0.797112" stop-color="#FD5907"/>
<stop offset="1" stop-color="#FD5108"/>
</linearGradient>
</defs>
</svg>
