<svg width="96" height="102" viewBox="0 0 96 102" fill="none" xmlns="http://www.w3.org/2000/svg">
<path d="M69.4122 49.125H86.5875L95.1587 34.125L86.5875 19.125L84.4205 22.8892L90.841 34.125L84.4122 45.375H71.5875L65.1587 34.125L71.5875 22.875H77.9485L80.0914 19.125H69.4122L60.841 34.125L63.9767 39.6127L59.9729 41.9247L56.5875 36H51.2812V30.375H56.5875L65.1587 15.375L56.5875 0.375L54.4205 4.13918L60.841 15.375L54.4122 26.625H41.5875L35.1587 15.375L41.5875 4.125H47.9485L50.0914 0.375H39.4122L30.841 15.375L39.4122 30.375H47.5312V39.75H54.4122L60.841 51L54.4122 62.25H41.5875L35.1587 51L41.5875 39.75L43.7319 36H39.4122L36.0269 41.9247L32.023 39.6127L35.1587 34.125L26.5875 19.125H9.41221L0.841064 34.125L9.41221 49.125H26.5875L30.1639 42.8665L34.1677 45.1783L30.841 51L34.1677 56.8217L30.1639 59.1335L26.5875 52.875H9.41221L0.841064 67.875L9.41221 82.875H26.5875L35.1587 67.875L32.023 62.3873L36.0269 60.0753L39.4122 66H47.5312V71.625H39.4122L30.841 86.625L39.4122 101.625H56.5875L65.1587 86.625L56.5875 71.625H51.2812V66H56.5875L59.9729 60.0753L64.0251 62.4153L60.7147 68.2083L69.2859 83.2083H86.4612L95.0324 68.2083L86.4612 53.2083H69.2859L65.8842 59.1615L61.832 56.8217L65.1587 51L61.832 45.1783L65.8359 42.8665L69.4122 49.125ZM24.4122 45.375H11.5875L5.15871 34.125L11.5875 22.875H24.4122L30.841 34.125L24.4122 45.375ZM24.4122 79.125H11.5875L5.15871 67.875L11.5875 56.625H24.4122L30.841 67.875L24.4122 79.125ZM60.841 86.625L54.4122 97.875H41.5875L35.1587 86.625L41.5875 75.375H54.4122L60.841 86.625ZM71.4612 56.9583H84.2859L90.7147 68.2083L84.2859 79.4583H71.4612L65.0324 68.2083L71.4612 56.9583Z" fill="url(#paint0_linear_324_1816)"/>
<defs>
<linearGradient id="paint0_linear_324_1816" x1="12.8202" y1="86.283" x2="83.2829" y2="15.8203" gradientUnits="userSpaceOnUse">
<stop stop-color="#FF9F00"/>
<stop offset="0.05089" stop-color="#FE9900"/>
<stop offset="0.466323" stop-color="#FD7204"/>
<stop offset="0.797112" stop-color="#FD5907"/>
<stop offset="1" stop-color="#FD5108"/>
</linearGradient>
</defs>
</svg>
