<svg width="120" height="120" viewBox="0 0 120 120" fill="none" xmlns="http://www.w3.org/2000/svg">
<path d="M3.75 69.375C3.75 59.211 11.6933 50.625 21.0938 50.625C22.8532 50.625 24.5362 50.9089 26.2444 51.504C26.6415 41.1923 34.848 18.75 60 18.75C75.912 18.75 90.0713 30 93.7665 45.2363C102.779 43.4884 116.25 51.042 116.25 65.625C116.25 77.1116 107.058 86.25 96.0938 86.25H90.1076L91.3016 89.9051H87.3581L80.5811 69.153L72.4916 82.5H81.3337L79.0657 86.25H70.2191L56.5684 108.774H52.1816L77.2417 67.4243L52.7227 72.6473V68.8118L82.3519 62.5031L88.8829 82.5H96.0938C99.279 82.5 112.5 79.9163 112.5 65.625C112.5 55.1014 102.574 45.5074 90.9008 50.1746C86.028 22.7318 61.8251 22.5 60 22.5C50.3974 22.5 28.9054 28.6725 30.1373 57.5573C26.6389 55.7115 24.5231 54.375 21.0938 54.375C13.8517 54.375 7.5 61.3841 7.5 69.375C7.5 76.8566 13.3447 82.5 21.0938 82.5H61.5709L59.3029 86.25H21.0938C11.2061 86.25 3.75 78.9953 3.75 69.375Z" fill="url(#paint0_linear_324_1887)"/>
<defs>
<linearGradient id="paint0_linear_324_1887" x1="27.4436" y1="100.152" x2="93.4538" y2="34.1419" gradientUnits="userSpaceOnUse">
<stop stop-color="#FF9F00"/>
<stop offset="0.0509" stop-color="#FE9900"/>
<stop offset="0.4663" stop-color="#FD7204"/>
<stop offset="0.7971" stop-color="#FD5907"/>
<stop offset="1" stop-color="#FD5108"/>
</linearGradient>
</defs>
</svg>
