<svg width="52" height="68" viewBox="0 0 52 68" fill="none" xmlns="http://www.w3.org/2000/svg">
<g filter="url(#filter0_d_272_1437)">
<path d="M43.5 64.5V4.5H25.5V49.8782L43.5 64.5Z" fill="#FD5108"/>
<path d="M8 64.5V4.5H26V49.8782L8 64.5Z" fill="#FD5108"/>
</g>
<path d="M18.488 25.07H20.35V29.76H18.488V25.07ZM13.574 24.538H25.306V26.05H13.574V24.538ZM18.474 19.106H20.112V19.414C20.112 19.8433 20.0373 20.2633 19.888 20.674C19.748 21.0753 19.5333 21.4533 19.244 21.808C18.9547 22.1533 18.5953 22.4707 18.166 22.76C17.7367 23.04 17.242 23.278 16.682 23.474C16.122 23.6607 15.5013 23.796 14.82 23.88L14.162 22.41C14.75 22.3447 15.2727 22.2373 15.73 22.088C16.1967 21.9387 16.6027 21.7613 16.948 21.556C17.2933 21.3507 17.578 21.1313 17.802 20.898C18.0353 20.6553 18.2033 20.408 18.306 20.156C18.418 19.8947 18.474 19.6473 18.474 19.414V19.106ZM18.726 19.106H20.35V19.414C20.35 19.638 20.406 19.8807 20.518 20.142C20.6393 20.394 20.812 20.6413 21.036 20.884C21.26 21.1173 21.5447 21.3413 21.89 21.556C22.2353 21.7613 22.6367 21.9387 23.094 22.088C23.5607 22.2373 24.0833 22.3447 24.662 22.41L24.018 23.88C23.3273 23.8053 22.702 23.67 22.142 23.474C21.5913 23.2687 21.1013 23.026 20.672 22.746C20.2427 22.466 19.8833 22.1487 19.594 21.794C19.3047 21.43 19.0853 21.0473 18.936 20.646C18.796 20.2447 18.726 19.834 18.726 19.414V19.106ZM14.624 18.252H24.228V19.722H14.624V18.252ZM18.488 16.81H20.35V18.756H18.488V16.81ZM29.3509 19.316H30.8769V19.806C30.8769 20.5993 30.7462 21.346 30.4849 22.046C30.2236 22.746 29.8269 23.3573 29.2949 23.88C28.7629 24.4027 28.0862 24.7993 27.2649 25.07L26.3549 23.614C27.0549 23.39 27.6242 23.082 28.0629 22.69C28.5109 22.2887 28.8376 21.8407 29.0429 21.346C29.2482 20.842 29.3509 20.3287 29.3509 19.806V19.316ZM29.7009 19.316H31.2129V19.806C31.2129 20.2913 31.3156 20.772 31.5209 21.248C31.7356 21.7147 32.0669 22.1393 32.5149 22.522C32.9629 22.8953 33.5322 23.1847 34.2229 23.39L33.3409 24.846C32.5196 24.6033 31.8382 24.2347 31.2969 23.74C30.7649 23.236 30.3636 22.648 30.0929 21.976C29.8316 21.2947 29.7009 20.5713 29.7009 19.806V19.316ZM26.8029 18.308H33.7749V19.764H26.8029V18.308ZM29.3509 16.866H31.2129V18.854H29.3509V16.866ZM33.3549 20.548H36.3649V22.06H33.3549V20.548ZM35.4269 16.782H37.3029V26.372H35.4269V16.782ZM28.7349 28.024H37.5969V29.522H28.7349V28.024ZM28.7349 25.574H30.5969V29.004H28.7349V25.574Z" fill="white"/>
<defs>
<filter id="filter0_d_272_1437" x="6" y="3.5" width="39.5" height="64" filterUnits="userSpaceOnUse" color-interpolation-filters="sRGB">
<feFlood flood-opacity="0" result="BackgroundImageFix"/>
<feColorMatrix in="SourceAlpha" type="matrix" values="0 0 0 0 0 0 0 0 0 0 0 0 0 0 0 0 0 0 127 0" result="hardAlpha"/>
<feOffset dy="1"/>
<feGaussianBlur stdDeviation="1"/>
<feComposite in2="hardAlpha" operator="out"/>
<feColorMatrix type="matrix" values="0 0 0 0 0 0 0 0 0 0 0 0 0 0 0 0 0 0 0.2 0"/>
<feBlend mode="normal" in2="BackgroundImageFix" result="effect1_dropShadow_272_1437"/>
<feBlend mode="normal" in="SourceGraphic" in2="effect1_dropShadow_272_1437" result="shape"/>
</filter>
</defs>
</svg>
