<svg viewBox="0 0 554.12 270" xmlns="http://www.w3.org/2000/svg" xmlns:xlink="http://www.w3.org/1999/xlink" id="Layer_1" overflow="hidden"><defs></defs><path d="M410.2 113.89C390.7 117.04 380.74 131.44 380.74 156.78 380.74 182.12 394.02 199.33 414.37 199.33 423.84 199.33 432.45 196.18 450.54 187.31L450.54 207.94C428.83 217.9 416.05 220.98 398.55 220.98 379.61 220.98 366.28 215.95 355.4 204.86 344.25 193.7 338.67 178.97 338.67 162.56 338.67 126.06 365.69 101.37 405.15 101.37 431.36 101.37 449.39 113.35 449.39 130.93 449.39 142.25 441 150.05 428.55 150.05 422.16 150.05 416.91 148.38 410.19 144.48L410.19 113.88 410.19 113.88ZM313.98 162.57C331.46 140.53 337.63 131.65 337.63 120.83 337.63 110.01 329.08 101.38 317.65 101.38 310.61 101.38 304.28 104.7 301.18 108.16L301.18 153.05 272.54 191.21 272.54 104.2 245.31 104.2 200.04 179.25 200.04 104.2 184.39 104.2 143.3 114.22 143.3 124.72 165.71 126.99 165.71 219.03 194.68 219.03 238.1 147.68 238.1 219.03 269.83 219.03 313.97 162.56 313.97 162.56ZM56.79 127.6C63.45 126.79 66.75 126.41 69.9 126.41 88.79 126.41 99.03 138.97 99.03 162.58 99.03 190.47 86.52 205.02 63.18 205.02 61.23 205.02 59.88 205.02 56.79 204.87L56.79 127.6 56.79 127.6ZM56.79 217.91C64.32 218.77 71.62 219.04 76.02 219.04 114.84 219.04 139.47 194.2 139.47 157.27 139.47 125.33 121.01 102.26 95.99 102.26 85.16 102.26 77.9 104.48 56.79 117.05L56.79 101.67 45.09 101.67 0 115.36 0 126.4 18.67 126.4 18.67 255.16 1.87 259.34 1.87 270 75.57 270 75.57 259.34C75.57 259.34 56.78 255.16 56.78 255.16L56.78 217.91 56.78 217.91Z"/><path d="M389.24 69.47 266.27 69.47 287.22 34.74 410.19 34.74 389.24 69.47ZM554.12 0 431.15 0 410.2 34.73 533.17 34.73 554.12 0Z" fill="#FD5108"/></svg>