<svg width="230" height="20" viewBox="0 0 230 20" fill="none" xmlns="http://www.w3.org/2000/svg">
<path d="M25.9739 7.99509C24.7771 8.19343 24.1659 9.10011 24.1659 10.6956C24.1659 12.2911 24.9809 13.3746 26.2298 13.3746C26.811 13.3746 27.3394 13.1763 28.4496 12.6178V13.9168C27.1172 14.5439 26.3329 14.7378 25.2589 14.7378C24.0965 14.7378 23.2784 14.4211 22.6107 13.7228C21.9264 13.0202 21.584 12.0927 21.584 11.0595C21.584 8.76134 23.2422 7.20679 25.6639 7.20679C27.2725 7.20679 28.379 7.96111 28.379 9.06799C28.379 9.78073 27.8641 10.2718 27.1001 10.2718C26.7079 10.2718 26.3857 10.1667 25.9733 9.92112L25.9739 7.99509ZM20.0687 11.0601C21.1415 9.67242 21.5201 9.11332 21.5201 8.43205C21.5201 7.75081 20.9954 7.20744 20.2939 7.20744C19.8619 7.20744 19.4734 7.41646 19.2832 7.6343V10.4607L17.5255 12.8634V7.38497H15.8543L13.076 12.1103V7.38497H12.1156L9.5938 8.01587V8.67699L10.9691 8.81991V14.615H12.7471L15.4118 10.1226V14.615H17.3592L20.0687 11.0601ZM4.28454 8.85832C4.6933 8.80732 4.89582 8.7834 5.08912 8.7834C6.24843 8.7834 6.87689 9.5742 6.87689 11.0607C6.87689 12.8168 6.10912 13.7329 4.67672 13.7329C4.55702 13.7329 4.47419 13.7329 4.28454 13.7235V8.85832ZM4.28454 14.5445C4.74668 14.5987 5.19469 14.6157 5.46471 14.6157C7.84716 14.6157 9.35876 13.0516 9.35876 10.7264C9.35876 8.7154 8.22583 7.26283 6.69031 7.26283C6.02565 7.26283 5.5801 7.4026 4.28454 8.19405V7.2257H3.5665L0.799255 8.08764V8.78278H1.94506V16.8899L0.91402 17.1531V17.8242H5.43711V17.1531L4.28393 16.8899L4.28454 14.5445Z" fill="black"/>
<path d="M24.6875 5.19825H17.1406L18.4264 3.01155H25.9732L24.6875 5.19825ZM34.8064 0.824219H27.2596L25.9739 3.01092H33.5208L34.8064 0.824219Z" fill="#FD5108"/>
<path d="M130.436 14.3827C129.889 14.5471 129.402 14.6635 128.978 14.7319C128.567 14.8004 128.142 14.8347 127.704 14.8347C126.924 14.8347 126.376 14.684 126.061 14.3827C125.759 14.0814 125.609 13.5404 125.609 12.7598V6.12432H124.315V5.48748L125.67 4.89172L126.554 2.9812H127.314V5.15879H130.436V6.12432H127.314V11.5477C127.314 11.986 127.341 12.3489 127.396 12.6365C127.451 12.9104 127.54 13.1364 127.663 13.3145C127.8 13.4925 127.971 13.6158 128.177 13.6842C128.396 13.7527 128.663 13.787 128.978 13.787C129.211 13.787 129.444 13.7801 129.676 13.7664C129.923 13.739 130.176 13.6911 130.436 13.6226V14.3827Z" fill="black"/>
<path d="M112.741 14.0335L113.851 13.9308L114.2 13.6021V6.16548H112.741V5.52864L115.124 4.78908H115.905V5.91896C116.357 5.67244 116.747 5.47386 117.076 5.32321C117.405 5.17256 117.692 5.0493 117.939 4.95343C118.199 4.85756 118.432 4.79593 118.637 4.76854C118.856 4.72745 119.082 4.70691 119.315 4.70691C120.178 4.70691 120.835 4.98082 121.287 5.52864C121.753 6.06276 121.986 6.82286 121.986 7.80894V13.6021L122.335 13.9308L123.444 14.0335V14.7731H118.945V14.0335L119.931 13.9308L120.281 13.6021V8.15818C120.281 7.41862 120.123 6.88449 119.808 6.5558C119.507 6.22711 119.014 6.06276 118.329 6.06276C117.946 6.06276 117.583 6.1107 117.24 6.20657C116.898 6.28874 116.453 6.45993 115.905 6.72015V13.6021L116.254 13.9308L117.24 14.0335V14.7731H112.741V14.0335Z" fill="black"/>
<path d="M111.237 13.7254C110.553 14.1637 109.909 14.4787 109.306 14.6704C108.704 14.8621 108.074 14.958 107.416 14.958C106.731 14.958 106.101 14.8416 105.526 14.6088C104.965 14.3622 104.479 14.0199 104.068 13.5816C103.671 13.1296 103.356 12.5955 103.123 11.9792C102.904 11.3629 102.794 10.6781 102.794 9.9249C102.794 9.15795 102.91 8.45948 103.143 7.82948C103.376 7.1858 103.705 6.63113 104.129 6.16548C104.554 5.69983 105.054 5.34375 105.629 5.09723C106.204 4.83702 106.841 4.70691 107.539 4.70691C108.69 4.70691 109.594 5.06299 110.251 5.77516C110.909 6.47363 111.237 7.44601 111.237 8.6923C111.237 8.76078 111.237 8.85665 111.237 8.97991C111.237 9.08947 111.23 9.21958 111.217 9.37023H104.561C104.561 9.60305 104.561 9.80848 104.561 9.98653C104.574 10.1646 104.588 10.3358 104.602 10.5001C104.629 10.6508 104.657 10.7946 104.684 10.9315C104.725 11.0685 104.766 11.2191 104.807 11.3835C105.04 12.1504 105.43 12.7462 105.978 13.1707C106.54 13.5816 107.211 13.787 107.991 13.787C108.252 13.787 108.498 13.7665 108.731 13.7254C108.964 13.6843 109.204 13.6227 109.45 13.5405C109.71 13.4446 109.984 13.3214 110.272 13.1707C110.559 13.0201 110.881 12.8283 111.237 12.5955V13.7254ZM109.409 8.50741C109.409 8.02807 109.388 7.65829 109.347 7.39808C109.306 7.13786 109.231 6.89134 109.121 6.65852C108.738 5.96005 108.135 5.61081 107.314 5.61081C106.574 5.61081 105.971 5.86418 105.506 6.37091C105.054 6.87765 104.773 7.58981 104.663 8.50741H109.409Z" fill="black"/>
<path d="M97.9697 13.068C99.2297 13.2598 100.127 13.5474 100.661 13.9308C101.195 14.3143 101.462 14.8484 101.462 15.5332C101.462 16.0399 101.318 16.5193 101.031 16.9712C100.757 17.4232 100.373 17.8135 99.8803 18.1422C99.4009 18.4846 98.8394 18.7516 98.1957 18.9434C97.552 19.1488 96.8673 19.2515 96.1414 19.2515C94.9773 19.2515 94.0665 19.0119 93.4091 18.5325C92.7655 18.0669 92.4436 17.4232 92.4436 16.6015C92.4436 15.9304 92.6353 15.3757 93.0188 14.9375C93.416 14.4992 93.9638 14.2047 94.6623 14.0541C94.5253 13.7254 94.4568 13.4309 94.4568 13.1707C94.4568 12.8831 94.5322 12.5887 94.6828 12.2874C94.8335 11.9861 95.0868 11.6163 95.4429 11.178C94.6212 10.9589 93.9912 10.5823 93.5529 10.0482C93.1147 9.51403 92.8956 8.85665 92.8956 8.076C92.8956 7.58297 92.9914 7.13101 93.1832 6.72015C93.3749 6.29559 93.642 5.9395 93.9843 5.6519C94.3404 5.3506 94.7581 5.11777 95.2375 4.95343C95.7168 4.78908 96.251 4.70691 96.8399 4.70691C97.2644 4.70691 97.6616 4.75484 98.0314 4.85071C98.4012 4.93288 98.7915 5.06984 99.2023 5.26158H102.14V6.22711H99.8803C100.072 6.54211 100.216 6.85026 100.312 7.15156C100.408 7.43916 100.455 7.76101 100.455 8.11709C100.455 8.61013 100.36 9.05523 100.168 9.4524C99.9761 9.84957 99.7091 10.192 99.3667 10.4796C99.0243 10.7535 98.6066 10.9726 98.1135 11.1369C97.6205 11.2876 97.0795 11.3629 96.4906 11.3629C96.4358 11.3629 96.3879 11.3629 96.3468 11.3629C96.3057 11.3629 96.251 11.3561 96.1825 11.3424C96.0318 11.6437 95.9565 11.9587 95.9565 12.2874C95.9565 12.3558 95.9565 12.4243 95.9565 12.4928C95.9565 12.5476 95.9702 12.6366 95.9976 12.7599L97.9697 13.068ZM96.6344 5.5081C96.0318 5.5081 95.5525 5.74092 95.1964 6.20657C94.8403 6.65852 94.6623 7.26112 94.6623 8.01437C94.6623 8.78132 94.8403 9.39762 95.1964 9.86327C95.5662 10.3152 96.0592 10.5412 96.6755 10.5412C97.2918 10.5412 97.778 10.3152 98.1341 9.86327C98.5039 9.39762 98.6888 8.78817 98.6888 8.03492C98.6888 7.25427 98.5039 6.63798 98.1341 6.18602C97.7643 5.73407 97.2644 5.5081 96.6344 5.5081ZM95.8538 14.1568C94.676 14.5814 94.0871 15.2593 94.0871 16.1906C94.0871 16.8206 94.3473 17.3273 94.8677 17.7108C95.3881 18.108 96.0592 18.3065 96.8809 18.3065C97.3192 18.3065 97.7232 18.2518 98.093 18.1422C98.4628 18.0326 98.7846 17.8751 99.0585 17.6697C99.3324 17.478 99.5447 17.2451 99.6954 16.9712C99.8597 16.6973 99.9419 16.4029 99.9419 16.0879C99.9419 15.855 99.9077 15.6565 99.8392 15.4921C99.7844 15.3278 99.6748 15.184 99.5105 15.0607C99.3598 14.9511 99.1476 14.8553 98.8736 14.7731C98.5997 14.6909 98.2573 14.6088 97.8465 14.5266L95.8538 14.1568Z" fill="black"/>
<path d="M78.2569 13.9308L79.4484 13.6843L84.2555 0.824219H85.6114L90.5418 13.6843L91.7744 13.9308V14.7731H87.111V13.9308L88.3847 13.8281L88.5285 13.5405L87.0494 9.61673H82.2012L80.7426 13.5405L80.9481 13.8281L82.2834 13.9308V14.7731H78.2569V13.9308ZM86.7002 8.67174L84.5842 2.98126L82.5504 8.67174H86.7002Z" fill="black"/>
<path d="M63.7819 14.0129L64.9529 13.8486L67.9111 9.88374L65.1583 5.8778L63.9052 5.63128V4.89172H68.322V5.63128L67.377 5.77508L67.2743 5.98052L68.9999 8.67168L70.8693 6.04215L70.705 5.77508L69.7189 5.63128V4.89172H73.4167V5.63128L72.2663 5.85726L69.5546 9.45233L72.5744 13.8486L73.807 14.0129V14.773H69.4313V14.0129L70.2941 13.8691L70.3969 13.7048L68.4863 10.6438L66.3909 13.6226L66.4936 13.8691L67.6646 14.0129V14.773H63.7819V14.0129Z" fill="black"/>
<path d="M60.025 13.5816C59.2717 14.0746 58.6418 14.4239 58.135 14.6293C57.642 14.821 57.1421 14.9169 56.6354 14.9169C55.8547 14.9169 55.2247 14.6772 54.7454 14.1979C54.266 13.7186 54.0264 13.0886 54.0264 12.3079C54.0264 11.6916 54.1907 11.178 54.5194 10.7672C54.8481 10.3426 55.3685 9.98653 56.0807 9.69892C56.3272 9.60305 56.5532 9.52088 56.7586 9.4524C56.9777 9.37023 57.2243 9.28806 57.4982 9.20588C57.7721 9.12371 58.1076 9.03469 58.5048 8.93882C58.902 8.82926 59.4087 8.69915 60.025 8.5485V7.89111C60.025 7.04199 59.888 6.45309 59.6141 6.12439C59.3402 5.78201 58.8609 5.61081 58.1761 5.61081C57.9022 5.61081 57.642 5.6382 57.3955 5.69298C57.1626 5.73407 56.8887 5.8094 56.5737 5.91896V7.64459H55.1562C54.9234 7.64459 54.7591 7.60351 54.6632 7.52133C54.5673 7.43916 54.5194 7.28166 54.5194 7.04884C54.5194 6.70645 54.6153 6.39146 54.807 6.10385C55.0124 5.81624 55.2932 5.56973 55.6493 5.36429C56.0191 5.15886 56.4573 5.00136 56.9641 4.8918C57.4708 4.76854 58.0255 4.70691 58.6281 4.70691C59.7237 4.70691 60.5112 4.93973 60.9905 5.40538C61.4836 5.87103 61.7301 6.61743 61.7301 7.64459V13.6021L62.0793 13.9308L63.1681 14.0335V14.7731H60.2921L60.025 13.5816ZM60.025 9.26751C59.5867 9.39077 59.2238 9.50034 58.9362 9.5962C58.6623 9.67838 58.4295 9.7537 58.2377 9.82218C58.046 9.87696 57.8748 9.93859 57.7242 10.0071C57.5872 10.0619 57.4297 10.1303 57.2517 10.2125C56.7586 10.4453 56.3957 10.7124 56.1629 11.0137C55.9437 11.315 55.8342 11.6779 55.8342 12.1025C55.8342 12.6229 55.978 13.0406 56.2656 13.3556C56.5669 13.6569 56.9572 13.8076 57.4365 13.8076C57.7926 13.8076 58.1556 13.7391 58.5253 13.6021C58.9088 13.4652 59.4087 13.2255 60.025 12.8831V9.26751Z" fill="black"/>
<path d="M45.9218 13.9308L47.2982 13.8281L47.6475 13.5405V1.93352H44.5043L44.2167 2.24166L43.9291 4.15219H42.7993V0.988525H54.4062V4.15219H53.2763L52.9887 2.24166L52.7011 1.93352H49.558V13.5405L49.9072 13.8281L51.2836 13.9308V14.7731H45.9218V13.9308Z" fill="black"/>
<path d="M140.68 16.2938L141.388 16.1498L141.508 16.0178L142.768 9.03384L141.832 8.91384V8.61384L143.536 8.25384H143.848L143.704 8.98584C144.104 8.71384 144.44 8.52184 144.712 8.40984C144.992 8.29784 145.268 8.24184 145.54 8.24184C146.012 8.24184 146.38 8.42584 146.644 8.79384C146.908 9.16184 147.04 9.66984 147.04 10.3178C147.04 11.3898 146.7 12.2898 146.02 13.0178C145.7 13.3538 145.344 13.6178 144.952 13.8098C144.56 13.9938 144.164 14.0858 143.764 14.0858C143.596 14.0858 143.444 14.0698 143.308 14.0378C143.172 14.0058 143.008 13.9458 142.816 13.8578L142.42 16.0898L143.56 16.2938V16.6538H140.68V16.2938ZM142.936 13.2338C143.136 13.3458 143.316 13.4298 143.476 13.4858C143.636 13.5338 143.8 13.5578 143.968 13.5578C144.232 13.5578 144.48 13.4938 144.712 13.3658C144.952 13.2378 145.156 13.0578 145.324 12.8258C145.556 12.4898 145.736 12.1058 145.864 11.6738C145.992 11.2418 146.056 10.7978 146.056 10.3418C146.056 9.90984 145.956 9.55784 145.756 9.28584C145.564 9.01384 145.312 8.87784 145 8.87784C144.8 8.87784 144.6 8.92584 144.4 9.02184C144.208 9.10984 143.948 9.27384 143.62 9.51384L142.936 13.2338ZM150.995 8.24184C151.307 8.24184 151.587 8.29784 151.835 8.40984C152.083 8.52184 152.295 8.68184 152.471 8.88984C152.647 9.08984 152.783 9.33384 152.879 9.62184C152.975 9.90184 153.023 10.2178 153.023 10.5698C153.023 11.0578 152.939 11.5218 152.771 11.9618C152.611 12.3938 152.391 12.7738 152.111 13.1018C151.839 13.4218 151.515 13.6778 151.139 13.8698C150.763 14.0538 150.367 14.1458 149.951 14.1458C149.639 14.1458 149.355 14.0938 149.099 13.9898C148.851 13.8778 148.635 13.7258 148.451 13.5338C148.275 13.3338 148.139 13.0938 148.043 12.8138C147.947 12.5338 147.899 12.2218 147.899 11.8778C147.899 11.3738 147.979 10.9018 148.139 10.4618C148.299 10.0138 148.519 9.62584 148.799 9.29784C149.079 8.96984 149.407 8.71384 149.783 8.52984C150.159 8.33784 150.563 8.24184 150.995 8.24184ZM150.803 8.72184C150.539 8.72184 150.291 8.80584 150.059 8.97384C149.835 9.13384 149.639 9.35384 149.471 9.63384C149.303 9.91384 149.167 10.2418 149.063 10.6178C148.967 10.9938 148.919 11.3978 148.919 11.8298C148.919 12.4138 149.019 12.8658 149.219 13.1858C149.419 13.5058 149.703 13.6658 150.071 13.6658C150.343 13.6658 150.595 13.5858 150.827 13.4258C151.059 13.2658 151.263 13.0458 151.439 12.7658C151.615 12.4778 151.751 12.1458 151.847 11.7698C151.951 11.3858 152.003 10.9778 152.003 10.5458C152.003 9.95384 151.899 9.50184 151.691 9.18984C151.491 8.87784 151.195 8.72184 150.803 8.72184ZM154.801 13.7738L154.477 9.02184L153.589 8.91384V8.62584L154.969 8.21784L155.389 8.24184L155.653 12.9698C155.869 12.5538 156.061 12.1858 156.229 11.8658C156.397 11.5458 156.545 11.2578 156.673 11.0018C156.809 10.7458 156.929 10.5138 157.033 10.3058C157.137 10.0978 157.233 9.90184 157.321 9.71784C157.409 9.52584 157.497 9.33384 157.585 9.14184C157.673 8.94984 157.765 8.74184 157.861 8.51784L158.581 8.43384C158.597 8.80984 158.613 9.17384 158.629 9.52584C158.653 9.86984 158.677 10.2258 158.701 10.5938C158.733 10.9538 158.765 11.3418 158.797 11.7578C158.829 12.1738 158.865 12.6338 158.905 13.1378C159.041 12.9538 159.149 12.8098 159.229 12.7058C159.309 12.5938 159.397 12.4698 159.493 12.3338C159.845 11.8298 160.129 11.3818 160.345 10.9898C160.569 10.5978 160.737 10.2378 160.849 9.90984L160.609 8.50584C160.705 8.40984 160.797 8.34184 160.885 8.30184C160.981 8.26184 161.089 8.24184 161.209 8.24184C161.401 8.24184 161.553 8.30184 161.665 8.42184C161.785 8.53384 161.845 8.68584 161.845 8.87784C161.845 9.09384 161.797 9.33384 161.701 9.59784C161.613 9.85384 161.449 10.1778 161.209 10.5698C160.977 10.9618 160.661 11.4378 160.261 11.9978C159.869 12.5498 159.369 13.2298 158.761 14.0378H158.065L157.777 9.84984C157.641 10.1218 157.505 10.3898 157.369 10.6538C157.241 10.9098 157.089 11.1978 156.913 11.5178C156.737 11.8298 156.533 12.1898 156.301 12.5978C156.077 12.9978 155.805 13.4778 155.485 14.0378H154.705L154.801 13.7738ZM166.359 13.0658C165.951 13.4418 165.563 13.7178 165.195 13.8938C164.827 14.0618 164.439 14.1458 164.031 14.1458C163.455 14.1458 163.007 13.9578 162.687 13.5818C162.367 13.1978 162.207 12.6658 162.207 11.9858C162.207 11.3618 162.335 10.7778 162.591 10.2338C162.855 9.68184 163.219 9.22584 163.683 8.86584C163.939 8.66584 164.203 8.51384 164.475 8.40984C164.755 8.29784 165.023 8.24184 165.279 8.24184C165.647 8.24184 165.943 8.34984 166.167 8.56584C166.391 8.78184 166.503 9.06984 166.503 9.42984C166.503 9.98184 166.223 10.4218 165.663 10.7498C165.103 11.0778 164.291 11.2858 163.227 11.3738C163.203 11.5658 163.191 11.7378 163.191 11.8898C163.191 12.3858 163.299 12.7778 163.515 13.0658C163.731 13.3458 164.027 13.4858 164.403 13.4858C164.707 13.4858 165.011 13.4098 165.315 13.2578C165.619 13.1058 165.967 12.8538 166.359 12.5018V13.0658ZM163.287 10.9658C163.671 10.9338 163.987 10.8858 164.235 10.8218C164.483 10.7498 164.711 10.6458 164.919 10.5098C165.399 10.2058 165.639 9.83784 165.639 9.40584C165.639 9.22184 165.579 9.06584 165.459 8.93784C165.339 8.80984 165.187 8.74584 165.003 8.74584C164.635 8.74584 164.299 8.94184 163.995 9.33384C163.699 9.71784 163.463 10.2618 163.287 10.9658ZM168.422 9.12984L167.438 8.94984V8.64984L169.214 8.25384H169.454L169.07 9.89784C169.502 9.31384 169.886 8.89384 170.222 8.63784C170.566 8.37384 170.906 8.24184 171.242 8.24184C171.426 8.24184 171.578 8.30584 171.698 8.43384C171.818 8.55384 171.878 8.70584 171.878 8.88984C171.878 9.12184 171.802 9.30984 171.65 9.45384C171.498 9.58984 171.298 9.65784 171.05 9.65784H170.99L170.678 9.00984C170.398 9.12184 170.158 9.24184 169.958 9.36984C169.766 9.49784 169.602 9.64984 169.466 9.82584C169.33 9.99384 169.218 10.1938 169.13 10.4258C169.05 10.6498 168.982 10.9138 168.926 11.2178L168.434 14.0378H167.426L168.422 9.12984ZM176.121 13.0658C175.713 13.4418 175.325 13.7178 174.957 13.8938C174.589 14.0618 174.201 14.1458 173.793 14.1458C173.217 14.1458 172.769 13.9578 172.449 13.5818C172.129 13.1978 171.969 12.6658 171.969 11.9858C171.969 11.3618 172.097 10.7778 172.353 10.2338C172.617 9.68184 172.981 9.22584 173.445 8.86584C173.701 8.66584 173.965 8.51384 174.237 8.40984C174.517 8.29784 174.785 8.24184 175.041 8.24184C175.409 8.24184 175.705 8.34984 175.929 8.56584C176.153 8.78184 176.265 9.06984 176.265 9.42984C176.265 9.98184 175.985 10.4218 175.425 10.7498C174.865 11.0778 174.053 11.2858 172.989 11.3738C172.965 11.5658 172.953 11.7378 172.953 11.8898C172.953 12.3858 173.061 12.7778 173.277 13.0658C173.493 13.3458 173.789 13.4858 174.165 13.4858C174.469 13.4858 174.773 13.4098 175.077 13.2578C175.381 13.1058 175.729 12.8538 176.121 12.5018V13.0658ZM173.049 10.9658C173.433 10.9338 173.749 10.8858 173.997 10.8218C174.245 10.7498 174.473 10.6458 174.681 10.5098C175.161 10.2058 175.401 9.83784 175.401 9.40584C175.401 9.22184 175.341 9.06584 175.221 8.93784C175.101 8.80984 174.949 8.74584 174.765 8.74584C174.397 8.74584 174.061 8.94184 173.757 9.33384C173.461 9.71784 173.225 10.2618 173.049 10.9658ZM182.767 13.7738C182.415 13.8938 182.123 13.9818 181.891 14.0378C181.659 14.0938 181.451 14.1218 181.267 14.1218C180.747 14.1218 180.487 13.8298 180.487 13.2458C180.487 13.2058 180.487 13.1738 180.487 13.1498C180.487 13.1258 180.491 13.0858 180.499 13.0298C179.907 13.7738 179.279 14.1458 178.615 14.1458C178.127 14.1458 177.743 13.9578 177.463 13.5818C177.191 13.1978 177.055 12.6738 177.055 12.0098C177.055 11.4018 177.163 10.8458 177.379 10.3418C177.603 9.83784 177.927 9.40184 178.351 9.03384C178.647 8.77784 178.967 8.58184 179.311 8.44584C179.655 8.30984 180.003 8.24184 180.355 8.24184C180.523 8.24184 180.679 8.25384 180.823 8.27784C180.967 8.30184 181.127 8.34584 181.303 8.40984L181.723 5.99784L180.667 5.90184V5.56584L182.503 5.20584H182.815L181.531 12.3938C181.507 12.5458 181.487 12.6738 181.471 12.7778C181.463 12.8738 181.459 12.9658 181.459 13.0538C181.459 13.3738 181.627 13.5338 181.963 13.5338C182.075 13.5338 182.187 13.5258 182.299 13.5098C182.411 13.4938 182.567 13.4618 182.767 13.4138V13.7738ZM181.123 9.42984L180.547 8.74584C180.459 8.72984 180.391 8.72184 180.343 8.72184C180.303 8.71384 180.263 8.70984 180.223 8.70984C179.935 8.70984 179.659 8.79784 179.395 8.97384C179.139 9.14984 178.907 9.38584 178.699 9.68184C178.499 9.97784 178.339 10.3218 178.219 10.7138C178.099 11.0978 178.039 11.5018 178.039 11.9258C178.039 12.4058 178.127 12.7818 178.303 13.0538C178.479 13.3258 178.719 13.4618 179.023 13.4618C179.279 13.4618 179.531 13.3818 179.779 13.2218C180.035 13.0618 180.307 12.8018 180.595 12.4418L181.123 9.42984ZM187.379 6.05784L186.335 5.87784V5.56584L188.159 5.20584H188.555C188.499 5.38184 188.447 5.56984 188.399 5.76984C188.351 5.96184 188.311 6.14184 188.279 6.30984L187.763 9.12984C188.155 8.80984 188.487 8.58184 188.759 8.44584C189.039 8.30984 189.303 8.24184 189.551 8.24184C189.783 8.24184 189.991 8.29384 190.175 8.39784C190.367 8.49384 190.531 8.63384 190.667 8.81784C190.803 9.00184 190.907 9.22184 190.979 9.47784C191.059 9.72584 191.099 10.0058 191.099 10.3178C191.099 10.8538 191.011 11.3578 190.835 11.8298C190.667 12.2938 190.431 12.6978 190.127 13.0418C189.831 13.3858 189.479 13.6578 189.071 13.8578C188.663 14.0498 188.227 14.1458 187.763 14.1458C187.443 14.1458 187.147 14.1058 186.875 14.0258C186.611 13.9458 186.311 13.8098 185.975 13.6178L187.379 6.05784ZM186.995 13.1738C187.179 13.3498 187.351 13.4738 187.511 13.5458C187.679 13.6178 187.859 13.6538 188.051 13.6538C188.315 13.6538 188.571 13.5658 188.819 13.3898C189.067 13.2058 189.287 12.9658 189.479 12.6698C189.671 12.3658 189.823 12.0218 189.935 11.6378C190.055 11.2458 190.115 10.8378 190.115 10.4138C190.115 9.96584 190.023 9.61384 189.839 9.35784C189.663 9.10184 189.419 8.97384 189.107 8.97384C188.923 8.97384 188.727 9.02184 188.519 9.11784C188.311 9.20584 188.031 9.36584 187.679 9.59784L186.995 13.1738ZM191.78 15.8978C192.14 15.8738 192.48 15.6978 192.8 15.3698C193.128 15.0498 193.476 14.5418 193.844 13.8458L193.1 10.1978C193.044 9.91784 192.976 9.68184 192.896 9.48984C192.824 9.28984 192.732 9.10984 192.62 8.94984L191.6 8.86584V8.60184L192.776 8.21784C192.816 8.20984 192.868 8.20584 192.932 8.20584C193.244 8.20584 193.476 8.37384 193.628 8.70984C193.66 8.78984 193.688 8.86184 193.712 8.92584C193.744 8.98984 193.776 9.08984 193.808 9.22584C193.84 9.36184 193.88 9.54984 193.928 9.78984C193.976 10.0298 194.044 10.3618 194.132 10.7858L194.528 12.8138C194.72 12.3418 194.884 11.9298 195.02 11.5778C195.164 11.2258 195.304 10.8858 195.44 10.5578C195.576 10.2298 195.72 9.88984 195.872 9.53784C196.024 9.17784 196.204 8.74984 196.412 8.25384H196.64L197.588 8.56584V8.81784L196.976 9.17784C196.856 9.31384 196.752 9.44584 196.664 9.57384C196.576 9.70184 196.48 9.85384 196.376 10.0298C196.28 10.1978 196.172 10.4058 196.052 10.6538C195.932 10.9018 195.784 11.2178 195.608 11.6018C195.424 12.0098 195.252 12.3778 195.092 12.7058C194.94 13.0258 194.792 13.3178 194.648 13.5818C194.504 13.8458 194.36 14.0898 194.216 14.3138C194.072 14.5378 193.924 14.7578 193.772 14.9738C193.372 15.5258 192.976 15.9418 192.584 16.2218C192.192 16.5018 191.804 16.6418 191.42 16.6418C191.14 16.6418 190.904 16.5618 190.712 16.4018C190.52 16.2498 190.424 16.0658 190.424 15.8498C190.424 15.4978 190.64 15.2778 191.072 15.1898L191.78 15.8978ZM200.487 11.7218H201.111L200.991 13.1018L201.111 13.2578C201.383 13.3858 201.619 13.4778 201.819 13.5338C202.027 13.5818 202.247 13.6058 202.479 13.6058C202.775 13.6058 203.043 13.5658 203.283 13.4858C203.531 13.3978 203.743 13.2778 203.919 13.1258C204.103 12.9738 204.243 12.7938 204.339 12.5858C204.443 12.3778 204.495 12.1498 204.495 11.9018C204.495 11.5178 204.371 11.2218 204.123 11.0138C204.075 10.9738 204.031 10.9418 203.991 10.9178C203.951 10.8938 203.899 10.8618 203.835 10.8218C203.771 10.7818 203.675 10.7338 203.547 10.6778C203.427 10.6138 203.259 10.5258 203.043 10.4138C202.675 10.2298 202.367 10.0578 202.119 9.89784C201.879 9.73784 201.687 9.57784 201.543 9.41784C201.399 9.25784 201.295 9.09384 201.231 8.92584C201.175 8.74984 201.147 8.55384 201.147 8.33784C201.147 7.97784 201.223 7.64584 201.375 7.34184C201.527 7.03784 201.735 6.77384 201.999 6.54984C202.263 6.32584 202.575 6.15384 202.935 6.03384C203.303 5.90584 203.703 5.84184 204.135 5.84184C204.487 5.84184 204.807 5.86984 205.095 5.92584C205.391 5.98184 205.731 6.07384 206.115 6.20184L205.731 8.02584H205.203L205.251 6.83784L205.107 6.62184C204.907 6.53384 204.727 6.47384 204.567 6.44184C204.407 6.40984 204.235 6.39384 204.051 6.39384C203.779 6.39384 203.527 6.43784 203.295 6.52584C203.071 6.60584 202.875 6.71784 202.707 6.86184C202.539 7.00584 202.407 7.17784 202.311 7.37784C202.215 7.56984 202.167 7.78184 202.167 8.01384C202.167 8.42984 202.327 8.75784 202.647 8.99784C202.703 9.03784 202.751 9.07384 202.791 9.10584C202.839 9.12984 202.899 9.16184 202.971 9.20184C203.043 9.24184 203.143 9.29384 203.271 9.35784C203.407 9.41384 203.591 9.49784 203.823 9.60984C204.143 9.75384 204.411 9.89784 204.627 10.0418C204.851 10.1858 205.031 10.3378 205.167 10.4978C205.303 10.6578 205.399 10.8298 205.455 11.0138C205.519 11.1898 205.551 11.3858 205.551 11.6018C205.551 11.9778 205.471 12.3258 205.311 12.6458C205.151 12.9578 204.927 13.2298 204.639 13.4618C204.351 13.6858 204.007 13.8618 203.607 13.9898C203.207 14.1178 202.771 14.1818 202.299 14.1818C201.891 14.1818 201.519 14.1418 201.183 14.0618C200.847 13.9818 200.483 13.8378 200.091 13.6298L200.487 11.7218ZM212.333 13.7258C211.933 13.8858 211.625 13.9938 211.409 14.0498C211.193 14.1138 210.997 14.1458 210.821 14.1458C210.573 14.1458 210.393 14.0698 210.281 13.9178C210.177 13.7578 210.125 13.4978 210.125 13.1378C209.773 13.4978 209.457 13.7578 209.177 13.9178C208.897 14.0698 208.605 14.1458 208.301 14.1458C207.797 14.1458 207.401 13.9578 207.113 13.5818C206.825 13.2058 206.681 12.6938 206.681 12.0458C206.681 11.5178 206.765 11.0218 206.933 10.5578C207.109 10.0938 207.345 9.69384 207.641 9.35784C207.937 9.01384 208.285 8.74184 208.685 8.54184C209.093 8.34184 209.525 8.24184 209.981 8.24184C210.205 8.24184 210.405 8.26184 210.581 8.30184C210.757 8.34184 210.949 8.41384 211.157 8.51784L211.397 8.25384H212.021C211.885 8.54184 211.733 9.11384 211.565 9.96984L211.133 12.0938C211.085 12.3258 211.053 12.5018 211.037 12.6218C211.021 12.7338 211.013 12.8418 211.013 12.9458C211.013 13.3058 211.217 13.4858 211.625 13.4858C211.697 13.4858 211.781 13.4778 211.877 13.4618C211.973 13.4458 212.125 13.4138 212.333 13.3658V13.7258ZM210.761 9.45384L210.281 8.72184C210.241 8.71384 210.205 8.70984 210.173 8.70984C210.141 8.70984 210.113 8.70984 210.089 8.70984C209.745 8.70984 209.425 8.79384 209.129 8.96184C208.833 9.12184 208.577 9.34984 208.361 9.64584C208.145 9.93384 207.973 10.2778 207.845 10.6778C207.725 11.0698 207.665 11.4978 207.665 11.9618C207.665 12.9298 208.009 13.4138 208.697 13.4138C208.817 13.4138 208.933 13.4018 209.045 13.3778C209.157 13.3458 209.269 13.3018 209.381 13.2458C209.493 13.1818 209.609 13.1018 209.729 13.0058C209.857 12.9018 209.993 12.7738 210.137 12.6218L210.761 9.45384ZM214.148 9.12984L213.164 8.94984V8.64984L214.94 8.25384H215.24L215.024 9.39384C215.536 8.98584 215.972 8.69384 216.332 8.51784C216.692 8.33384 217.024 8.24184 217.328 8.24184C217.904 8.24184 218.216 8.60984 218.264 9.34584C218.736 8.96184 219.144 8.68184 219.488 8.50584C219.84 8.32984 220.168 8.24184 220.472 8.24184C220.76 8.24184 220.992 8.33784 221.168 8.52984C221.352 8.72184 221.444 8.96984 221.444 9.27384C221.444 9.39384 221.432 9.53384 221.408 9.69384C221.384 9.85384 221.348 10.0498 221.3 10.2818L220.892 12.1418C220.836 12.3978 220.8 12.5738 220.784 12.6698C220.768 12.7658 220.76 12.8538 220.76 12.9338C220.76 13.1178 220.812 13.2618 220.916 13.3658C221.028 13.4698 221.176 13.5218 221.36 13.5218C221.528 13.5218 221.756 13.4858 222.044 13.4138V13.7378C221.676 13.8818 221.38 13.9818 221.156 14.0378C220.94 14.0938 220.736 14.1218 220.544 14.1218C220.288 14.1218 220.088 14.0618 219.944 13.9418C219.8 13.8218 219.728 13.6458 219.728 13.4138C219.728 13.3338 219.736 13.2338 219.752 13.1138C219.768 12.9858 219.792 12.8618 219.824 12.7418L220.34 10.5218C220.38 10.3538 220.408 10.2098 220.424 10.0898C220.44 9.96184 220.448 9.84184 220.448 9.72984C220.448 9.23384 220.248 8.98584 219.848 8.98584C219.36 8.98584 218.82 9.30984 218.228 9.95784L217.448 14.0378H216.452L217.172 10.5218C217.244 10.1538 217.28 9.87784 217.28 9.69384C217.28 9.48584 217.224 9.31784 217.112 9.18984C217 9.05384 216.852 8.98584 216.668 8.98584C216.46 8.98584 216.212 9.06584 215.924 9.22584C215.644 9.38584 215.308 9.63384 214.916 9.96984L214.16 14.0378H213.152L214.148 9.12984ZM224.954 5.58984C225.13 5.58984 225.282 5.65784 225.41 5.79384C225.538 5.92184 225.602 6.07384 225.602 6.24984C225.602 6.42584 225.538 6.57784 225.41 6.70584C225.282 6.82584 225.126 6.88584 224.942 6.88584C224.758 6.88584 224.606 6.82584 224.486 6.70584C224.366 6.58584 224.306 6.43384 224.306 6.24984C224.306 6.06584 224.366 5.90984 224.486 5.78184C224.614 5.65384 224.77 5.58984 224.954 5.58984ZM225.59 13.7018C225.23 13.8458 224.914 13.9538 224.642 14.0258C224.378 14.0898 224.13 14.1218 223.898 14.1218C223.386 14.1218 223.13 13.8538 223.13 13.3178C223.13 13.2298 223.134 13.1418 223.142 13.0538C223.158 12.9578 223.178 12.8418 223.202 12.7058L223.91 9.12984L222.938 8.94984V8.64984L224.714 8.25384H225.026L224.162 12.7418C224.146 12.7898 224.134 12.8458 224.126 12.9098C224.126 12.9658 224.126 13.0098 224.126 13.0418C224.126 13.3538 224.31 13.5098 224.678 13.5098C224.806 13.5098 224.934 13.4978 225.062 13.4738C225.19 13.4418 225.366 13.3938 225.59 13.3298V13.7018ZM228.867 13.7378C228.507 13.8818 228.199 13.9858 227.943 14.0498C227.687 14.1138 227.455 14.1458 227.247 14.1458C226.975 14.1458 226.763 14.0738 226.611 13.9298C226.467 13.7858 226.395 13.5858 226.395 13.3298C226.395 13.2018 226.407 13.0338 226.431 12.8258C226.463 12.6178 226.523 12.3018 226.611 11.8778L227.763 5.99784L226.695 5.87784V5.56584L228.519 5.20584H228.843C228.827 5.26984 228.815 5.32584 228.807 5.37384C228.799 5.42184 228.787 5.48984 228.771 5.57784C228.755 5.64984 228.743 5.72184 228.735 5.79384C228.727 5.86584 228.715 5.93384 228.699 5.99784L227.487 12.0218C227.439 12.2778 227.403 12.4738 227.379 12.6098C227.363 12.7378 227.355 12.8538 227.355 12.9578C227.355 13.3578 227.571 13.5578 228.003 13.5578C228.099 13.5578 228.207 13.5458 228.327 13.5218C228.455 13.4898 228.635 13.4378 228.867 13.3658V13.7378Z" fill="#155993"/>
</svg>
