<svg width="187" height="24" viewBox="0 0 187 24" fill="none" xmlns="http://www.w3.org/2000/svg">
<path d="M3.86244 7.21683C3.72397 7.26056 3.35959 7.36987 3.0608 7.45732C2.76201 7.55206 2.05511 7.7634 1.49396 7.93102C0.932815 8.09863 0.364381 8.27354 0.240491 8.31726L0 8.39743V8.92942V9.46142H0.896377H1.78547L1.74903 15.4446L1.71259 21.4277L0.969253 21.6172L0.218629 21.7994V22.3386V22.8706L3.66567 22.8561L7.10543 22.8342V22.3241V21.8212L6.34023 21.6463C5.91754 21.5443 5.5313 21.4568 5.48758 21.4423C5.4147 21.4204 5.39284 21.0123 5.39284 19.6932V17.9734L5.83009 18.0244C7.58641 18.2284 9.32086 17.9369 10.5233 17.23C10.946 16.9822 11.631 16.3482 12.0173 15.8454C12.3962 15.3571 12.8481 14.264 12.9574 13.5643C13.1469 12.4056 13.0084 10.7878 12.6513 9.89867C12.163 8.71079 11.5144 7.98203 10.4577 7.45732C10.0278 7.24598 9.99861 7.2387 8.92733 7.2387C7.84876 7.24598 7.8269 7.24598 7.32405 7.48647C6.42039 7.90916 5.99042 8.12778 5.77179 8.28811C5.42199 8.53589 5.39284 8.49945 5.39284 7.78527V7.12938L4.75881 7.13667C4.40172 7.14396 4.0009 7.18039 3.86244 7.21683ZM7.22932 9.54158C8.02367 9.7092 8.61396 10.1537 8.89818 10.8023C9.23341 11.5748 9.35001 13.0396 9.14596 13.9797C8.97106 14.8105 8.92004 14.9636 8.65769 15.3717C8.07468 16.2826 7.14915 16.7417 5.88839 16.749H5.39284V13.1781V9.60717L5.56045 9.57073C6.09974 9.45413 6.75562 9.43956 7.22932 9.54158Z" fill="black"/>
<path d="M28.7982 7.19461C28.4848 7.26748 28.1131 7.44239 27.9309 7.61C27.8143 7.71203 27.7998 7.90879 27.7998 9.81086V11.8951L26.8669 13.1267C26.3568 13.8118 25.803 14.5624 25.6353 14.8029C25.0596 15.6555 25.1033 15.9325 25.1033 11.4214V7.40595H23.8134L22.5162 7.41324L22.1519 8.03997C21.9551 8.38978 21.7146 8.79788 21.6271 8.95821C21.5397 9.11125 21.4231 9.29344 21.3648 9.35903C21.3065 9.42462 21.2118 9.57766 21.1535 9.70155C21.0587 9.89103 20.4247 10.955 20.2206 11.2684C20.1842 11.3267 19.9364 11.7348 19.6741 12.1793C19.4117 12.6166 19.1639 13.032 19.1275 13.0903C19.0911 13.1486 18.9162 13.4255 18.7485 13.7097L18.4352 14.2199L18.3987 10.8311L18.3623 7.44239L17.5971 7.42052C17.1526 7.40595 16.708 7.4351 16.5404 7.48611C16.3801 7.52984 15.972 7.62458 15.6294 7.69745C15.0756 7.81405 14.7695 7.89422 13.4067 8.23674L13.0423 8.33148V8.83432V9.33717L14.0626 9.46106C14.6237 9.52664 15.0902 9.58495 15.0974 9.58495C15.112 9.59223 15.1266 11.5162 15.1339 13.8701L15.1557 18.1552H16.4967H17.8449L18.1072 17.7544C18.3769 17.3463 19.0473 16.2458 19.2149 15.9252C19.2732 15.8304 19.3971 15.6191 19.4992 15.4588C20.0166 14.6644 20.4393 13.9648 20.4393 13.9211C20.4393 13.8919 20.5194 13.7607 20.6215 13.6296C20.7235 13.4984 20.8036 13.3672 20.8036 13.3454C20.8036 13.3162 20.9421 13.0757 21.117 12.8134C21.2846 12.5437 21.5251 12.1575 21.6417 11.9607L21.8604 11.5963L21.8968 14.8758L21.9332 18.1552L23.3616 18.177L24.79 18.1916L25.1471 17.7762C25.3511 17.543 25.7665 17.0256 26.0726 16.6248C26.8305 15.6337 27.7852 14.4093 28.3099 13.7462C28.5504 13.4474 29.0022 12.8717 29.3156 12.4708C30.1609 11.3996 30.9189 10.219 31.05 9.75985C31.3926 8.58654 30.9699 7.61 29.9642 7.2602C29.5269 7.10716 29.2427 7.09258 28.7982 7.19461Z" fill="black"/>
<path d="M36.3974 7.18943C35.4938 7.33518 35.195 7.40077 34.7213 7.58296C34.4443 7.68499 33.9998 7.90361 33.7374 8.05665C33.2054 8.37002 32.2872 9.25911 31.9665 9.78382C31.6969 10.2138 31.3544 11.03 31.3034 11.3652C31.1722 12.1887 31.1358 12.8883 31.1941 13.4131C31.3107 14.4916 31.3398 14.6228 31.5803 15.1548C32.5568 17.2901 34.2621 18.3322 36.7764 18.3322C38.2193 18.3322 39.2177 18.099 41.0761 17.3411L41.5279 17.1516L41.5498 16.1751C41.5716 15.3297 41.5571 15.1985 41.455 15.1985C41.3967 15.1985 41.3166 15.2277 41.2728 15.2568C41.1052 15.4026 39.6258 16.0002 39.1667 16.1168C38.0444 16.3937 37.0533 16.1969 36.3391 15.5629C35.8873 15.1548 35.6614 14.8123 35.3626 14.0981C35.1877 13.6608 35.1731 13.5588 35.1658 12.3199C35.1658 11.2195 35.1877 10.9425 35.297 10.6073C35.6249 9.64535 35.9893 9.14251 36.6452 8.76355C36.9731 8.56679 37.578 8.34816 37.7748 8.34816C37.7966 8.34816 37.8185 8.99676 37.8185 9.78382L37.8258 11.2268L38.2776 11.4381C38.8169 11.6932 39.6623 11.7733 40.1943 11.6276C41.3093 11.3142 41.8267 10.0753 41.2947 8.98947C41.0469 8.47934 40.4348 7.9109 39.8299 7.61211C39.0282 7.21858 37.425 7.02181 36.3974 7.18943Z" fill="black"/>
<path d="M55.7265 7.076V8.356H51.9185V18.5H50.3985V8.356H46.5905V7.076H55.7265ZM58.0608 10.036C60.1194 10.036 61.1488 10.7773 61.1488 12.26V17.028C61.1488 17.3373 61.2928 17.492 61.5808 17.492C61.7194 17.492 61.8581 17.4653 61.9968 17.412V18.468C61.7301 18.6173 61.4048 18.692 61.0208 18.692C60.2528 18.692 59.8688 18.2653 59.8688 17.412C59.1434 18.2653 58.1728 18.692 56.9568 18.692C56.1034 18.692 55.4314 18.4947 54.9408 18.1C54.4608 17.6947 54.2208 17.1187 54.2208 16.372C54.2208 15.636 54.4608 15.0493 54.9408 14.612C55.4208 14.1747 56.5354 13.844 58.2848 13.62C58.8821 13.5453 59.2821 13.4333 59.4848 13.284C59.6981 13.124 59.8048 12.8947 59.8048 12.596C59.8048 11.6893 59.1914 11.236 57.9648 11.236C57.2928 11.236 56.7861 11.364 56.4448 11.62C56.1141 11.8653 55.9328 12.26 55.9008 12.804H54.5408C54.6474 10.9587 55.8208 10.036 58.0608 10.036ZM55.6608 16.276C55.6608 16.66 55.7994 16.9587 56.0768 17.172C56.3541 17.3853 56.7488 17.492 57.2608 17.492C57.9968 17.492 58.5994 17.3107 59.0688 16.948C59.5488 16.5853 59.7888 16.1533 59.7888 15.652V14.228C59.5434 14.3987 59.2234 14.5107 58.8288 14.564L57.4368 14.772C56.8288 14.8573 56.3808 15.0227 56.0928 15.268C55.8048 15.5027 55.6608 15.8387 55.6608 16.276ZM64.0305 10.228L65.9985 13.108H66.0145L68.0785 10.228H69.7105L66.8625 14.036L70.0625 18.5H68.3185L66.0145 15.076L63.7105 18.5H62.0625L65.1665 14.148L62.2865 10.228H64.0305ZM80.0449 7.076L84.5089 18.5H82.8289L81.5809 15.06H76.7489L75.4689 18.5H73.9009L78.3649 7.076H80.0449ZM79.1649 8.452L77.2289 13.78H81.1009L79.1969 8.452H79.1649ZM88.4519 10.036C89.5826 10.036 90.4092 10.4947 90.9319 11.412H90.9479V10.228H92.2279V17.876C92.2279 20.532 90.9532 21.86 88.4039 21.86C87.3692 21.86 86.5479 21.636 85.9399 21.188C85.3319 20.7507 85.0066 20.164 84.9639 19.428H86.3239C86.3452 19.8227 86.5586 20.1427 86.9639 20.388C87.3692 20.644 87.8706 20.772 88.4679 20.772C90.1212 20.772 90.9479 19.716 90.9479 17.604V17.092H90.9159C90.7026 17.5507 90.3612 17.9187 89.8919 18.196C89.4332 18.4627 88.9159 18.596 88.3399 18.596C87.2199 18.596 86.3239 18.212 85.6519 17.444C84.9799 16.676 84.6439 15.6627 84.6439 14.404C84.6439 13.1027 84.9799 12.052 85.6519 11.252C86.3346 10.4413 87.2679 10.036 88.4519 10.036ZM86.0839 14.244C86.0839 15.2147 86.2866 15.9827 86.6919 16.548C87.0972 17.1133 87.6732 17.396 88.4199 17.396C89.1666 17.396 89.7639 17.1027 90.2119 16.516C90.6599 15.9293 90.8839 15.156 90.8839 14.196C90.8839 13.3107 90.6759 12.596 90.2599 12.052C89.8439 11.508 89.2626 11.236 88.5159 11.236C87.7479 11.236 87.1506 11.5133 86.7239 12.068C86.2972 12.612 86.0839 13.3373 86.0839 14.244ZM97.3994 10.036C98.5727 10.036 99.4901 10.4573 100.151 11.3C100.813 12.1427 101.143 13.2467 101.143 14.612V14.772H94.9514V14.868C94.9514 15.668 95.1807 16.308 95.6394 16.788C96.0981 17.2573 96.7274 17.492 97.5274 17.492C98.7114 17.492 99.4261 16.9533 99.6714 15.876H101.015C100.834 16.804 100.434 17.508 99.8154 17.988C99.1967 18.4573 98.4181 18.692 97.4794 18.692C96.1781 18.692 95.1914 18.2653 94.5194 17.412C93.8474 16.5587 93.5114 15.524 93.5114 14.308C93.5114 13.0813 93.8794 12.0627 94.6154 11.252C95.3514 10.4413 96.2794 10.036 97.3994 10.036ZM99.7034 13.572C99.6607 12.9 99.4154 12.3453 98.9674 11.908C98.5301 11.46 97.9754 11.236 97.3034 11.236C96.6741 11.236 96.1407 11.4493 95.7034 11.876C95.2661 12.292 95.0154 12.8573 94.9514 13.572H99.7034ZM106.233 10.036C108.132 10.036 109.081 11.0227 109.081 12.996V18.5H107.721V12.852C107.721 12.3933 107.577 12.0093 107.289 11.7C107.001 11.3907 106.58 11.236 106.025 11.236C105.246 11.236 104.644 11.4707 104.217 11.94C103.801 12.4093 103.593 13.0227 103.593 13.78V18.5H102.233V10.228H103.513V11.54H103.545C104.142 10.5373 105.038 10.036 106.233 10.036ZM112.692 7.748V10.228H114.34V11.428H112.692V16.612C112.692 16.8573 112.74 17.0333 112.836 17.14C112.932 17.2467 113.172 17.3 113.556 17.3H114.34V18.5H113.22C112.516 18.5 112.025 18.3827 111.748 18.148C111.47 17.9133 111.332 17.4547 111.332 16.772V11.428H109.924V10.228H111.332V7.748H112.692Z" fill="black"/>
<path d="M124.727 12.788C125.244 12.788 125.657 12.9293 125.967 13.212C126.281 13.4947 126.439 13.916 126.439 14.476C126.439 15.0147 126.289 15.4307 125.991 15.724C125.697 16.0173 125.292 16.164 124.775 16.164H122.943V18.5H122.183V12.788H124.727ZM124.511 15.524C124.873 15.524 125.159 15.4387 125.367 15.268C125.575 15.0973 125.679 14.8333 125.679 14.476C125.679 13.7773 125.273 13.428 124.463 13.428H122.943V15.524H124.511ZM129.042 14.268C129.661 14.268 130.149 14.4653 130.506 14.86C130.869 15.2547 131.05 15.78 131.05 16.436C131.05 17.0653 130.869 17.5827 130.506 17.988C130.149 18.3933 129.661 18.596 129.042 18.596C128.434 18.596 127.946 18.4013 127.578 18.012C127.215 17.6173 127.034 17.092 127.034 16.436C127.034 15.7747 127.213 15.2493 127.57 14.86C127.933 14.4653 128.423 14.268 129.042 14.268ZM127.754 16.436C127.754 16.9 127.874 17.276 128.114 17.564C128.354 17.852 128.663 17.996 129.042 17.996C129.415 17.996 129.722 17.8547 129.962 17.572C130.207 17.284 130.33 16.9053 130.33 16.436C130.33 15.972 130.21 15.596 129.97 15.308C129.73 15.0147 129.418 14.868 129.034 14.868C128.666 14.868 128.359 15.0147 128.114 15.308C127.874 15.6013 127.754 15.9773 127.754 16.436ZM132.228 14.364L133.164 17.748H133.18L134.012 14.364H134.756L135.628 17.748H135.636L136.564 14.364H137.268L135.956 18.492L135.948 18.5H135.228L134.38 15.212H134.372L133.54 18.5H132.804L131.476 14.364H132.228ZM139.634 14.268C140.221 14.268 140.68 14.4787 141.01 14.9C141.341 15.3213 141.506 15.8733 141.506 16.556V16.636H138.41V16.684C138.41 17.084 138.525 17.404 138.754 17.644C138.984 17.8787 139.298 17.996 139.698 17.996C140.29 17.996 140.648 17.7267 140.77 17.188H141.442C141.352 17.652 141.152 18.004 140.842 18.244C140.533 18.4787 140.144 18.596 139.674 18.596C139.024 18.596 138.53 18.3827 138.194 17.956C137.858 17.5293 137.69 17.012 137.69 16.404C137.69 15.7907 137.874 15.2813 138.242 14.876C138.61 14.4707 139.074 14.268 139.634 14.268ZM140.786 16.036C140.765 15.7 140.642 15.4227 140.418 15.204C140.2 14.98 139.922 14.868 139.586 14.868C139.272 14.868 139.005 14.9747 138.786 15.188C138.568 15.396 138.442 15.6787 138.41 16.036H140.786ZM144.363 14.268V14.988C143.851 14.988 143.472 15.124 143.227 15.396C142.987 15.6627 142.867 16.0813 142.867 16.652V18.5H142.187V14.364H142.827V15.236H142.843C143.158 14.5907 143.632 14.268 144.267 14.268H144.363ZM146.455 14.268C147.041 14.268 147.5 14.4787 147.831 14.9C148.161 15.3213 148.327 15.8733 148.327 16.556V16.636H145.231V16.684C145.231 17.084 145.345 17.404 145.575 17.644C145.804 17.8787 146.119 17.996 146.519 17.996C147.111 17.996 147.468 17.7267 147.591 17.188H148.263C148.172 17.652 147.972 18.004 147.663 18.244C147.353 18.4787 146.964 18.596 146.495 18.596C145.844 18.596 145.351 18.3827 145.015 17.956C144.679 17.5293 144.511 17.012 144.511 16.404C144.511 15.7907 144.695 15.2813 145.063 14.876C145.431 14.4707 145.895 14.268 146.455 14.268ZM147.607 16.036C147.585 15.7 147.463 15.4227 147.239 15.204C147.02 14.98 146.743 14.868 146.407 14.868C146.092 14.868 145.825 14.9747 145.607 15.188C145.388 15.396 145.263 15.6787 145.231 16.036H147.607ZM152.727 12.788V18.5H152.047V17.94H152.031C151.925 18.1533 151.754 18.316 151.519 18.428C151.29 18.54 151.021 18.596 150.711 18.596C150.141 18.596 149.679 18.396 149.327 17.996C148.981 17.596 148.807 17.0707 148.807 16.42C148.807 15.7693 148.975 15.2493 149.311 14.86C149.653 14.4653 150.111 14.268 150.687 14.268C150.959 14.268 151.218 14.324 151.463 14.436C151.714 14.548 151.903 14.708 152.031 14.916H152.047V12.788H152.727ZM149.527 16.468C149.527 16.9213 149.645 17.2893 149.879 17.572C150.114 17.8547 150.423 17.996 150.807 17.996C151.197 17.996 151.503 17.8547 151.727 17.572C151.957 17.284 152.071 16.9053 152.071 16.436C152.071 15.9667 151.957 15.588 151.727 15.3C151.503 15.012 151.181 14.868 150.759 14.868C150.365 14.868 150.061 15.012 149.847 15.3C149.634 15.5827 149.527 15.972 149.527 16.468ZM156.704 12.788V14.924H156.72C156.939 14.4867 157.379 14.268 158.04 14.268C158.616 14.268 159.078 14.468 159.424 14.868C159.771 15.268 159.944 15.7933 159.944 16.444C159.944 17.0893 159.771 17.6093 159.424 18.004C159.083 18.3987 158.627 18.596 158.056 18.596C157.8 18.596 157.55 18.5453 157.304 18.444C157.059 18.3373 156.864 18.172 156.72 17.948H156.704V18.5H156.024V12.788H156.704ZM156.68 16.428C156.68 16.908 156.792 17.2893 157.016 17.572C157.246 17.8547 157.568 17.996 157.984 17.996C158.379 17.996 158.683 17.8573 158.896 17.58C159.115 17.2973 159.224 16.9027 159.224 16.396C159.224 15.9427 159.107 15.5747 158.872 15.292C158.643 15.0093 158.331 14.868 157.936 14.868C157.552 14.868 157.246 15.0093 157.016 15.292C156.792 15.5747 156.68 15.9533 156.68 16.428ZM161.062 14.364L162.27 17.748H162.286L163.446 14.364H164.166L162.406 18.94C162.22 19.436 162.038 19.7613 161.862 19.916C161.692 20.076 161.46 20.156 161.166 20.156C160.985 20.156 160.828 20.132 160.694 20.084V19.46C160.886 19.524 161.02 19.556 161.094 19.556C161.377 19.556 161.569 19.4173 161.67 19.14L161.934 18.476L160.294 14.364H161.062ZM169.001 12.652C169.646 12.652 170.158 12.812 170.537 13.132C170.916 13.452 171.105 13.8947 171.105 14.46H170.385C170.3 13.6813 169.828 13.292 168.969 13.292C168.558 13.292 168.241 13.3773 168.017 13.548C167.798 13.7133 167.689 13.9533 167.689 14.268C167.689 14.4653 167.772 14.6387 167.937 14.788C168.102 14.9373 168.63 15.1027 169.521 15.284C170.134 15.4067 170.59 15.5987 170.889 15.86C171.193 16.116 171.345 16.4733 171.345 16.932C171.345 17.4653 171.126 17.8813 170.689 18.18C170.252 18.4787 169.726 18.6307 169.113 18.636C168.393 18.636 167.82 18.4573 167.393 18.1C166.966 17.7373 166.753 17.244 166.753 16.62H167.473C167.478 17.0627 167.633 17.404 167.937 17.644C168.246 17.8787 168.646 17.996 169.137 17.996C169.601 17.996 169.958 17.908 170.209 17.732C170.46 17.5507 170.585 17.292 170.585 16.956C170.585 16.6787 170.462 16.46 170.217 16.3C169.977 16.1347 169.564 15.996 168.977 15.884C168.14 15.7187 167.588 15.516 167.321 15.276C167.06 15.036 166.929 14.7187 166.929 14.324C166.929 13.8173 167.118 13.412 167.497 13.108C167.876 12.804 168.377 12.652 169.001 12.652ZM173.852 14.268C174.882 14.268 175.396 14.6387 175.396 15.38V17.764C175.396 17.9187 175.468 17.996 175.612 17.996C175.682 17.996 175.751 17.9827 175.82 17.956V18.484C175.687 18.5587 175.524 18.596 175.332 18.596C174.948 18.596 174.756 18.3827 174.756 17.956C174.394 18.3827 173.908 18.596 173.3 18.596C172.874 18.596 172.538 18.4973 172.292 18.3C172.052 18.0973 171.932 17.8093 171.932 17.436C171.932 17.068 172.052 16.7747 172.292 16.556C172.532 16.3373 173.09 16.172 173.964 16.06C174.263 16.0227 174.463 15.9667 174.564 15.892C174.671 15.812 174.724 15.6973 174.724 15.548C174.724 15.0947 174.418 14.868 173.804 14.868C173.468 14.868 173.215 14.932 173.044 15.06C172.879 15.1827 172.788 15.38 172.772 15.652H172.092C172.146 14.7293 172.732 14.268 173.852 14.268ZM172.652 17.388C172.652 17.58 172.722 17.7293 172.86 17.836C172.999 17.9427 173.196 17.996 173.452 17.996C173.82 17.996 174.122 17.9053 174.356 17.724C174.596 17.5427 174.716 17.3267 174.716 17.076V16.364C174.594 16.4493 174.434 16.5053 174.236 16.532L173.54 16.636C173.236 16.6787 173.012 16.7613 172.868 16.884C172.724 17.0013 172.652 17.1693 172.652 17.388ZM178.445 14.268C179.048 14.268 179.427 14.5027 179.581 14.972C179.72 14.748 179.901 14.5747 180.125 14.452C180.355 14.3293 180.608 14.268 180.885 14.268C181.355 14.268 181.699 14.3747 181.917 14.588C182.141 14.796 182.253 15.0813 182.253 15.444V18.5H181.573V15.756C181.573 15.4573 181.509 15.236 181.381 15.092C181.259 14.9427 181.056 14.868 180.773 14.868C180.453 14.868 180.192 14.964 179.989 15.156C179.792 15.3427 179.693 15.5907 179.693 15.9V18.5H179.013V15.756C179.013 15.4573 178.952 15.236 178.829 15.092C178.707 14.9427 178.509 14.868 178.237 14.868C178.04 14.868 177.861 14.9133 177.701 15.004C177.541 15.0947 177.405 15.2333 177.293 15.42C177.187 15.6013 177.133 15.764 177.133 15.908V18.5H176.453V14.364H177.093V14.972H177.109C177.419 14.5027 177.864 14.268 178.445 14.268ZM183.994 12.788V13.62H183.314V12.788H183.994ZM183.994 14.364V18.5H183.314V14.364H183.994ZM185.767 12.788V18.5H185.087V12.788H185.767Z" fill="black"/>
</svg>
