<svg width="212" height="24" viewBox="0 0 212 24" fill="none" xmlns="http://www.w3.org/2000/svg">
<path d="M3.86244 7.21683C3.72397 7.26056 3.35959 7.36987 3.0608 7.45732C2.76201 7.55206 2.05511 7.7634 1.49396 7.93102C0.932815 8.09863 0.364381 8.27354 0.240491 8.31726L0 8.39743V8.92942V9.46142H0.896377H1.78547L1.74903 15.4446L1.71259 21.4277L0.969253 21.6172L0.218629 21.7994V22.3386V22.8706L3.66567 22.8561L7.10543 22.8342V22.3241V21.8212L6.34023 21.6463C5.91754 21.5443 5.5313 21.4568 5.48758 21.4423C5.4147 21.4204 5.39284 21.0123 5.39284 19.6932V17.9734L5.83009 18.0244C7.58641 18.2284 9.32086 17.9369 10.5233 17.23C10.946 16.9822 11.631 16.3482 12.0173 15.8454C12.3962 15.3571 12.8481 14.264 12.9574 13.5643C13.1469 12.4056 13.0084 10.7878 12.6513 9.89867C12.163 8.71079 11.5144 7.98203 10.4577 7.45732C10.0278 7.24598 9.99861 7.2387 8.92733 7.2387C7.84876 7.24598 7.8269 7.24598 7.32405 7.48647C6.42039 7.90916 5.99042 8.12778 5.77179 8.28811C5.42199 8.53589 5.39284 8.49945 5.39284 7.78527V7.12938L4.75881 7.13667C4.40172 7.14396 4.0009 7.18039 3.86244 7.21683ZM7.22932 9.54158C8.02367 9.7092 8.61396 10.1537 8.89818 10.8023C9.23341 11.5748 9.35001 13.0396 9.14596 13.9797C8.97106 14.8105 8.92004 14.9636 8.65769 15.3717C8.07468 16.2826 7.14915 16.7417 5.88839 16.749H5.39284V13.1781V9.60717L5.56045 9.57073C6.09974 9.45413 6.75562 9.43956 7.22932 9.54158Z" fill="black"/>
<path d="M28.7982 7.19461C28.4848 7.26748 28.1131 7.44239 27.9309 7.61C27.8143 7.71203 27.7998 7.90879 27.7998 9.81086V11.8951L26.8669 13.1267C26.3568 13.8118 25.803 14.5624 25.6353 14.8029C25.0596 15.6555 25.1033 15.9325 25.1033 11.4214V7.40595H23.8134L22.5162 7.41324L22.1519 8.03997C21.9551 8.38978 21.7146 8.79788 21.6271 8.95821C21.5397 9.11125 21.4231 9.29344 21.3648 9.35903C21.3065 9.42462 21.2118 9.57766 21.1535 9.70155C21.0587 9.89103 20.4247 10.955 20.2206 11.2684C20.1842 11.3267 19.9364 11.7348 19.6741 12.1793C19.4117 12.6166 19.1639 13.032 19.1275 13.0903C19.0911 13.1486 18.9162 13.4255 18.7485 13.7097L18.4352 14.2199L18.3987 10.8311L18.3623 7.44239L17.5971 7.42052C17.1526 7.40595 16.708 7.4351 16.5404 7.48611C16.3801 7.52984 15.972 7.62458 15.6294 7.69745C15.0756 7.81405 14.7695 7.89422 13.4067 8.23674L13.0423 8.33148V8.83432V9.33717L14.0626 9.46106C14.6237 9.52664 15.0902 9.58495 15.0974 9.58495C15.112 9.59223 15.1266 11.5162 15.1339 13.8701L15.1557 18.1552H16.4967H17.8449L18.1072 17.7544C18.3769 17.3463 19.0473 16.2458 19.2149 15.9252C19.2732 15.8304 19.3971 15.6191 19.4992 15.4588C20.0166 14.6644 20.4393 13.9648 20.4393 13.9211C20.4393 13.8919 20.5194 13.7607 20.6215 13.6296C20.7235 13.4984 20.8036 13.3672 20.8036 13.3454C20.8036 13.3162 20.9421 13.0757 21.117 12.8134C21.2846 12.5437 21.5251 12.1575 21.6417 11.9607L21.8604 11.5963L21.8968 14.8758L21.9332 18.1552L23.3616 18.177L24.79 18.1916L25.1471 17.7762C25.3511 17.543 25.7665 17.0256 26.0726 16.6248C26.8305 15.6337 27.7852 14.4093 28.3099 13.7462C28.5504 13.4474 29.0022 12.8717 29.3156 12.4708C30.1609 11.3996 30.9189 10.219 31.05 9.75985C31.3926 8.58654 30.9699 7.61 29.9642 7.2602C29.5269 7.10716 29.2427 7.09258 28.7982 7.19461Z" fill="black"/>
<path d="M36.3974 7.18943C35.4938 7.33518 35.195 7.40077 34.7213 7.58296C34.4443 7.68499 33.9998 7.90361 33.7374 8.05665C33.2054 8.37002 32.2872 9.25911 31.9665 9.78382C31.6969 10.2138 31.3544 11.03 31.3034 11.3652C31.1722 12.1887 31.1358 12.8883 31.1941 13.4131C31.3107 14.4916 31.3398 14.6228 31.5803 15.1548C32.5568 17.2901 34.2621 18.3322 36.7764 18.3322C38.2193 18.3322 39.2177 18.099 41.0761 17.3411L41.5279 17.1516L41.5498 16.1751C41.5716 15.3297 41.5571 15.1985 41.455 15.1985C41.3967 15.1985 41.3166 15.2277 41.2728 15.2568C41.1052 15.4026 39.6258 16.0002 39.1667 16.1168C38.0444 16.3937 37.0533 16.1969 36.3391 15.5629C35.8873 15.1548 35.6614 14.8123 35.3626 14.0981C35.1877 13.6608 35.1731 13.5588 35.1658 12.3199C35.1658 11.2195 35.1877 10.9425 35.297 10.6073C35.6249 9.64535 35.9893 9.14251 36.6452 8.76355C36.9731 8.56679 37.578 8.34816 37.7748 8.34816C37.7966 8.34816 37.8185 8.99676 37.8185 9.78382L37.8258 11.2268L38.2776 11.4381C38.8169 11.6932 39.6623 11.7733 40.1943 11.6276C41.3093 11.3142 41.8267 10.0753 41.2947 8.98947C41.0469 8.47934 40.4348 7.9109 39.8299 7.61211C39.0282 7.21858 37.425 7.02181 36.3974 7.18943Z" fill="black"/>
<path d="M55.7265 7.076V8.356H51.9185V18.5H50.3985V8.356H46.5905V7.076H55.7265ZM58.0608 10.036C60.1194 10.036 61.1488 10.7773 61.1488 12.26V17.028C61.1488 17.3373 61.2928 17.492 61.5808 17.492C61.7194 17.492 61.8581 17.4653 61.9968 17.412V18.468C61.7301 18.6173 61.4048 18.692 61.0208 18.692C60.2528 18.692 59.8688 18.2653 59.8688 17.412C59.1434 18.2653 58.1728 18.692 56.9568 18.692C56.1034 18.692 55.4314 18.4947 54.9408 18.1C54.4608 17.6947 54.2208 17.1187 54.2208 16.372C54.2208 15.636 54.4608 15.0493 54.9408 14.612C55.4208 14.1747 56.5354 13.844 58.2848 13.62C58.8821 13.5453 59.2821 13.4333 59.4848 13.284C59.6981 13.124 59.8048 12.8947 59.8048 12.596C59.8048 11.6893 59.1914 11.236 57.9648 11.236C57.2928 11.236 56.7861 11.364 56.4448 11.62C56.1141 11.8653 55.9328 12.26 55.9008 12.804H54.5408C54.6474 10.9587 55.8208 10.036 58.0608 10.036ZM55.6608 16.276C55.6608 16.66 55.7994 16.9587 56.0768 17.172C56.3541 17.3853 56.7488 17.492 57.2608 17.492C57.9968 17.492 58.5994 17.3107 59.0688 16.948C59.5488 16.5853 59.7888 16.1533 59.7888 15.652V14.228C59.5434 14.3987 59.2234 14.5107 58.8288 14.564L57.4368 14.772C56.8288 14.8573 56.3808 15.0227 56.0928 15.268C55.8048 15.5027 55.6608 15.8387 55.6608 16.276ZM64.0305 10.228L65.9985 13.108H66.0145L68.0785 10.228H69.7105L66.8625 14.036L70.0625 18.5H68.3185L66.0145 15.076L63.7105 18.5H62.0625L65.1665 14.148L62.2865 10.228H64.0305ZM80.0449 7.076L84.5089 18.5H82.8289L81.5809 15.06H76.7489L75.4689 18.5H73.9009L78.3649 7.076H80.0449ZM79.1649 8.452L77.2289 13.78H81.1009L79.1969 8.452H79.1649ZM88.4519 10.036C89.5826 10.036 90.4092 10.4947 90.9319 11.412H90.9479V10.228H92.2279V17.876C92.2279 20.532 90.9532 21.86 88.4039 21.86C87.3692 21.86 86.5479 21.636 85.9399 21.188C85.3319 20.7507 85.0066 20.164 84.9639 19.428H86.3239C86.3452 19.8227 86.5586 20.1427 86.9639 20.388C87.3692 20.644 87.8706 20.772 88.4679 20.772C90.1212 20.772 90.9479 19.716 90.9479 17.604V17.092H90.9159C90.7026 17.5507 90.3612 17.9187 89.8919 18.196C89.4332 18.4627 88.9159 18.596 88.3399 18.596C87.2199 18.596 86.3239 18.212 85.6519 17.444C84.9799 16.676 84.6439 15.6627 84.6439 14.404C84.6439 13.1027 84.9799 12.052 85.6519 11.252C86.3346 10.4413 87.2679 10.036 88.4519 10.036ZM86.0839 14.244C86.0839 15.2147 86.2866 15.9827 86.6919 16.548C87.0972 17.1133 87.6732 17.396 88.4199 17.396C89.1666 17.396 89.7639 17.1027 90.2119 16.516C90.6599 15.9293 90.8839 15.156 90.8839 14.196C90.8839 13.3107 90.6759 12.596 90.2599 12.052C89.8439 11.508 89.2626 11.236 88.5159 11.236C87.7479 11.236 87.1506 11.5133 86.7239 12.068C86.2972 12.612 86.0839 13.3373 86.0839 14.244ZM97.3994 10.036C98.5727 10.036 99.4901 10.4573 100.151 11.3C100.813 12.1427 101.143 13.2467 101.143 14.612V14.772H94.9514V14.868C94.9514 15.668 95.1807 16.308 95.6394 16.788C96.0981 17.2573 96.7274 17.492 97.5274 17.492C98.7114 17.492 99.4261 16.9533 99.6714 15.876H101.015C100.834 16.804 100.434 17.508 99.8154 17.988C99.1967 18.4573 98.4181 18.692 97.4794 18.692C96.1781 18.692 95.1914 18.2653 94.5194 17.412C93.8474 16.5587 93.5114 15.524 93.5114 14.308C93.5114 13.0813 93.8794 12.0627 94.6154 11.252C95.3514 10.4413 96.2794 10.036 97.3994 10.036ZM99.7034 13.572C99.6607 12.9 99.4154 12.3453 98.9674 11.908C98.5301 11.46 97.9754 11.236 97.3034 11.236C96.6741 11.236 96.1407 11.4493 95.7034 11.876C95.2661 12.292 95.0154 12.8573 94.9514 13.572H99.7034ZM106.233 10.036C108.132 10.036 109.081 11.0227 109.081 12.996V18.5H107.721V12.852C107.721 12.3933 107.577 12.0093 107.289 11.7C107.001 11.3907 106.58 11.236 106.025 11.236C105.246 11.236 104.644 11.4707 104.217 11.94C103.801 12.4093 103.593 13.0227 103.593 13.78V18.5H102.233V10.228H103.513V11.54H103.545C104.142 10.5373 105.038 10.036 106.233 10.036ZM112.692 7.748V10.228H114.34V11.428H112.692V16.612C112.692 16.8573 112.74 17.0333 112.836 17.14C112.932 17.2467 113.172 17.3 113.556 17.3H114.34V18.5H113.22C112.516 18.5 112.025 18.3827 111.748 18.148C111.47 17.9133 111.332 17.4547 111.332 16.772V11.428H109.924V10.228H111.332V7.748H112.692Z" fill="black"/>
<path d="M122.803 20.756L123.511 20.612L123.631 20.48L124.891 13.496L123.955 13.376V13.076L125.659 12.716H125.971L125.827 13.448C126.227 13.176 126.563 12.984 126.835 12.872C127.115 12.76 127.391 12.704 127.663 12.704C128.135 12.704 128.503 12.888 128.767 13.256C129.031 13.624 129.163 14.132 129.163 14.78C129.163 15.852 128.823 16.752 128.143 17.48C127.823 17.816 127.467 18.08 127.075 18.272C126.683 18.456 126.287 18.548 125.887 18.548C125.719 18.548 125.567 18.532 125.431 18.5C125.295 18.468 125.131 18.408 124.939 18.32L124.543 20.552L125.683 20.756V21.116H122.803V20.756ZM125.059 17.696C125.259 17.808 125.439 17.892 125.599 17.948C125.759 17.996 125.923 18.02 126.091 18.02C126.355 18.02 126.603 17.956 126.835 17.828C127.075 17.7 127.279 17.52 127.447 17.288C127.679 16.952 127.859 16.568 127.987 16.136C128.115 15.704 128.179 15.26 128.179 14.804C128.179 14.372 128.079 14.02 127.879 13.748C127.687 13.476 127.435 13.34 127.123 13.34C126.923 13.34 126.723 13.388 126.523 13.484C126.331 13.572 126.071 13.736 125.743 13.976L125.059 17.696ZM133.117 12.704C133.429 12.704 133.709 12.76 133.957 12.872C134.205 12.984 134.417 13.144 134.593 13.352C134.769 13.552 134.905 13.796 135.001 14.084C135.097 14.364 135.145 14.68 135.145 15.032C135.145 15.52 135.061 15.984 134.893 16.424C134.733 16.856 134.513 17.236 134.233 17.564C133.961 17.884 133.637 18.14 133.261 18.332C132.885 18.516 132.489 18.608 132.073 18.608C131.761 18.608 131.477 18.556 131.221 18.452C130.973 18.34 130.757 18.188 130.573 17.996C130.397 17.796 130.261 17.556 130.165 17.276C130.069 16.996 130.021 16.684 130.021 16.34C130.021 15.836 130.101 15.364 130.261 14.924C130.421 14.476 130.641 14.088 130.921 13.76C131.201 13.432 131.529 13.176 131.905 12.992C132.281 12.8 132.685 12.704 133.117 12.704ZM132.925 13.184C132.661 13.184 132.413 13.268 132.181 13.436C131.957 13.596 131.761 13.816 131.593 14.096C131.425 14.376 131.289 14.704 131.185 15.08C131.089 15.456 131.041 15.86 131.041 16.292C131.041 16.876 131.141 17.328 131.341 17.648C131.541 17.968 131.825 18.128 132.193 18.128C132.465 18.128 132.717 18.048 132.949 17.888C133.181 17.728 133.385 17.508 133.561 17.228C133.737 16.94 133.873 16.608 133.969 16.232C134.073 15.848 134.125 15.44 134.125 15.008C134.125 14.416 134.021 13.964 133.813 13.652C133.613 13.34 133.317 13.184 132.925 13.184ZM136.923 18.236L136.599 13.484L135.711 13.376V13.088L137.091 12.68L137.511 12.704L137.775 17.432C137.991 17.016 138.183 16.648 138.351 16.328C138.519 16.008 138.667 15.72 138.795 15.464C138.931 15.208 139.051 14.976 139.155 14.768C139.259 14.56 139.355 14.364 139.443 14.18C139.531 13.988 139.619 13.796 139.707 13.604C139.795 13.412 139.887 13.204 139.983 12.98L140.703 12.896C140.719 13.272 140.735 13.636 140.751 13.988C140.775 14.332 140.799 14.688 140.823 15.056C140.855 15.416 140.887 15.804 140.919 16.22C140.951 16.636 140.987 17.096 141.027 17.6C141.163 17.416 141.271 17.272 141.351 17.168C141.431 17.056 141.519 16.932 141.615 16.796C141.967 16.292 142.251 15.844 142.467 15.452C142.691 15.06 142.859 14.7 142.971 14.372L142.731 12.968C142.827 12.872 142.919 12.804 143.007 12.764C143.103 12.724 143.211 12.704 143.331 12.704C143.523 12.704 143.675 12.764 143.787 12.884C143.907 12.996 143.967 13.148 143.967 13.34C143.967 13.556 143.919 13.796 143.823 14.06C143.735 14.316 143.571 14.64 143.331 15.032C143.099 15.424 142.783 15.9 142.383 16.46C141.991 17.012 141.491 17.692 140.883 18.5H140.187L139.899 14.312C139.763 14.584 139.627 14.852 139.491 15.116C139.363 15.372 139.211 15.66 139.035 15.98C138.859 16.292 138.655 16.652 138.423 17.06C138.199 17.46 137.927 17.94 137.607 18.5H136.827L136.923 18.236ZM148.482 17.528C148.074 17.904 147.686 18.18 147.318 18.356C146.95 18.524 146.562 18.608 146.154 18.608C145.578 18.608 145.13 18.42 144.81 18.044C144.49 17.66 144.33 17.128 144.33 16.448C144.33 15.824 144.458 15.24 144.714 14.696C144.978 14.144 145.342 13.688 145.806 13.328C146.062 13.128 146.326 12.976 146.598 12.872C146.878 12.76 147.146 12.704 147.402 12.704C147.77 12.704 148.066 12.812 148.29 13.028C148.514 13.244 148.626 13.532 148.626 13.892C148.626 14.444 148.346 14.884 147.786 15.212C147.226 15.54 146.414 15.748 145.35 15.836C145.326 16.028 145.314 16.2 145.314 16.352C145.314 16.848 145.422 17.24 145.638 17.528C145.854 17.808 146.15 17.948 146.526 17.948C146.83 17.948 147.134 17.872 147.438 17.72C147.742 17.568 148.09 17.316 148.482 16.964V17.528ZM145.41 15.428C145.794 15.396 146.11 15.348 146.358 15.284C146.606 15.212 146.834 15.108 147.042 14.972C147.522 14.668 147.762 14.3 147.762 13.868C147.762 13.684 147.702 13.528 147.582 13.4C147.462 13.272 147.31 13.208 147.126 13.208C146.758 13.208 146.422 13.404 146.118 13.796C145.822 14.18 145.586 14.724 145.41 15.428ZM150.544 13.592L149.56 13.412V13.112L151.336 12.716H151.576L151.192 14.36C151.624 13.776 152.008 13.356 152.344 13.1C152.688 12.836 153.028 12.704 153.364 12.704C153.548 12.704 153.7 12.768 153.82 12.896C153.94 13.016 154 13.168 154 13.352C154 13.584 153.924 13.772 153.772 13.916C153.62 14.052 153.42 14.12 153.172 14.12H153.112L152.8 13.472C152.52 13.584 152.28 13.704 152.08 13.832C151.888 13.96 151.724 14.112 151.588 14.288C151.452 14.456 151.34 14.656 151.252 14.888C151.172 15.112 151.104 15.376 151.048 15.68L150.556 18.5H149.548L150.544 13.592ZM158.243 17.528C157.835 17.904 157.447 18.18 157.079 18.356C156.711 18.524 156.323 18.608 155.915 18.608C155.339 18.608 154.891 18.42 154.571 18.044C154.251 17.66 154.091 17.128 154.091 16.448C154.091 15.824 154.219 15.24 154.475 14.696C154.739 14.144 155.103 13.688 155.567 13.328C155.823 13.128 156.087 12.976 156.359 12.872C156.639 12.76 156.907 12.704 157.163 12.704C157.531 12.704 157.827 12.812 158.051 13.028C158.275 13.244 158.387 13.532 158.387 13.892C158.387 14.444 158.107 14.884 157.547 15.212C156.987 15.54 156.175 15.748 155.111 15.836C155.087 16.028 155.075 16.2 155.075 16.352C155.075 16.848 155.183 17.24 155.399 17.528C155.615 17.808 155.911 17.948 156.287 17.948C156.591 17.948 156.895 17.872 157.199 17.72C157.503 17.568 157.851 17.316 158.243 16.964V17.528ZM155.171 15.428C155.555 15.396 155.871 15.348 156.119 15.284C156.367 15.212 156.595 15.108 156.803 14.972C157.283 14.668 157.523 14.3 157.523 13.868C157.523 13.684 157.463 13.528 157.343 13.4C157.223 13.272 157.071 13.208 156.887 13.208C156.519 13.208 156.183 13.404 155.879 13.796C155.583 14.18 155.347 14.724 155.171 15.428ZM164.889 18.236C164.537 18.356 164.245 18.444 164.013 18.5C163.781 18.556 163.573 18.584 163.389 18.584C162.869 18.584 162.609 18.292 162.609 17.708C162.609 17.668 162.609 17.636 162.609 17.612C162.609 17.588 162.613 17.548 162.621 17.492C162.029 18.236 161.401 18.608 160.737 18.608C160.249 18.608 159.865 18.42 159.585 18.044C159.313 17.66 159.177 17.136 159.177 16.472C159.177 15.864 159.285 15.308 159.501 14.804C159.725 14.3 160.049 13.864 160.473 13.496C160.769 13.24 161.089 13.044 161.433 12.908C161.777 12.772 162.125 12.704 162.477 12.704C162.645 12.704 162.801 12.716 162.945 12.74C163.089 12.764 163.249 12.808 163.425 12.872L163.845 10.46L162.789 10.364V10.028L164.625 9.668H164.937L163.653 16.856C163.629 17.008 163.609 17.136 163.593 17.24C163.585 17.336 163.581 17.428 163.581 17.516C163.581 17.836 163.749 17.996 164.085 17.996C164.197 17.996 164.309 17.988 164.421 17.972C164.533 17.956 164.689 17.924 164.889 17.876V18.236ZM163.245 13.892L162.669 13.208C162.581 13.192 162.513 13.184 162.465 13.184C162.425 13.176 162.385 13.172 162.345 13.172C162.057 13.172 161.781 13.26 161.517 13.436C161.261 13.612 161.029 13.848 160.821 14.144C160.621 14.44 160.461 14.784 160.341 15.176C160.221 15.56 160.161 15.964 160.161 16.388C160.161 16.868 160.249 17.244 160.425 17.516C160.601 17.788 160.841 17.924 161.145 17.924C161.401 17.924 161.653 17.844 161.901 17.684C162.157 17.524 162.429 17.264 162.717 16.904L163.245 13.892ZM169.501 10.52L168.457 10.34V10.028L170.281 9.668H170.677C170.621 9.844 170.569 10.032 170.521 10.232C170.473 10.424 170.433 10.604 170.401 10.772L169.885 13.592C170.277 13.272 170.609 13.044 170.881 12.908C171.161 12.772 171.425 12.704 171.673 12.704C171.905 12.704 172.113 12.756 172.297 12.86C172.489 12.956 172.653 13.096 172.789 13.28C172.925 13.464 173.029 13.684 173.101 13.94C173.181 14.188 173.221 14.468 173.221 14.78C173.221 15.316 173.133 15.82 172.957 16.292C172.789 16.756 172.553 17.16 172.249 17.504C171.953 17.848 171.601 18.12 171.193 18.32C170.785 18.512 170.349 18.608 169.885 18.608C169.565 18.608 169.269 18.568 168.997 18.488C168.733 18.408 168.433 18.272 168.097 18.08L169.501 10.52ZM169.117 17.636C169.301 17.812 169.473 17.936 169.633 18.008C169.801 18.08 169.981 18.116 170.173 18.116C170.437 18.116 170.693 18.028 170.941 17.852C171.189 17.668 171.409 17.428 171.601 17.132C171.793 16.828 171.945 16.484 172.057 16.1C172.177 15.708 172.237 15.3 172.237 14.876C172.237 14.428 172.145 14.076 171.961 13.82C171.785 13.564 171.541 13.436 171.229 13.436C171.045 13.436 170.849 13.484 170.641 13.58C170.433 13.668 170.153 13.828 169.801 14.06L169.117 17.636ZM173.902 20.36C174.262 20.336 174.602 20.16 174.922 19.832C175.25 19.512 175.598 19.004 175.966 18.308L175.222 14.66C175.166 14.38 175.098 14.144 175.018 13.952C174.946 13.752 174.854 13.572 174.742 13.412L173.722 13.328V13.064L174.898 12.68C174.938 12.672 174.99 12.668 175.054 12.668C175.366 12.668 175.598 12.836 175.75 13.172C175.782 13.252 175.81 13.324 175.834 13.388C175.866 13.452 175.898 13.552 175.93 13.688C175.962 13.824 176.002 14.012 176.05 14.252C176.098 14.492 176.166 14.824 176.254 15.248L176.65 17.276C176.842 16.804 177.006 16.392 177.142 16.04C177.286 15.688 177.426 15.348 177.562 15.02C177.698 14.692 177.842 14.352 177.994 14C178.146 13.64 178.326 13.212 178.534 12.716H178.762L179.71 13.028V13.28L179.098 13.64C178.978 13.776 178.874 13.908 178.786 14.036C178.698 14.164 178.602 14.316 178.498 14.492C178.402 14.66 178.294 14.868 178.174 15.116C178.054 15.364 177.906 15.68 177.73 16.064C177.546 16.472 177.374 16.84 177.214 17.168C177.062 17.488 176.914 17.78 176.77 18.044C176.626 18.308 176.482 18.552 176.338 18.776C176.194 19 176.046 19.22 175.894 19.436C175.494 19.988 175.098 20.404 174.706 20.684C174.314 20.964 173.926 21.104 173.542 21.104C173.262 21.104 173.026 21.024 172.834 20.864C172.642 20.712 172.546 20.528 172.546 20.312C172.546 19.96 172.762 19.74 173.194 19.652L173.902 20.36ZM182.609 16.184H183.233L183.113 17.564L183.233 17.72C183.505 17.848 183.741 17.94 183.941 17.996C184.149 18.044 184.369 18.068 184.601 18.068C184.897 18.068 185.165 18.028 185.405 17.948C185.653 17.86 185.865 17.74 186.041 17.588C186.225 17.436 186.365 17.256 186.461 17.048C186.565 16.84 186.617 16.612 186.617 16.364C186.617 15.98 186.493 15.684 186.245 15.476C186.197 15.436 186.153 15.404 186.113 15.38C186.073 15.356 186.021 15.324 185.957 15.284C185.893 15.244 185.797 15.196 185.669 15.14C185.549 15.076 185.381 14.988 185.165 14.876C184.797 14.692 184.489 14.52 184.241 14.36C184.001 14.2 183.809 14.04 183.665 13.88C183.521 13.72 183.417 13.556 183.353 13.388C183.297 13.212 183.269 13.016 183.269 12.8C183.269 12.44 183.345 12.108 183.497 11.804C183.649 11.5 183.857 11.236 184.121 11.012C184.385 10.788 184.697 10.616 185.057 10.496C185.425 10.368 185.825 10.304 186.257 10.304C186.609 10.304 186.929 10.332 187.217 10.388C187.513 10.444 187.853 10.536 188.237 10.664L187.853 12.488H187.325L187.373 11.3L187.229 11.084C187.029 10.996 186.849 10.936 186.689 10.904C186.529 10.872 186.357 10.856 186.173 10.856C185.901 10.856 185.649 10.9 185.417 10.988C185.193 11.068 184.997 11.18 184.829 11.324C184.661 11.468 184.529 11.64 184.433 11.84C184.337 12.032 184.289 12.244 184.289 12.476C184.289 12.892 184.449 13.22 184.769 13.46C184.825 13.5 184.873 13.536 184.913 13.568C184.961 13.592 185.021 13.624 185.093 13.664C185.165 13.704 185.265 13.756 185.393 13.82C185.529 13.876 185.713 13.96 185.945 14.072C186.265 14.216 186.533 14.36 186.749 14.504C186.973 14.648 187.153 14.8 187.289 14.96C187.425 15.12 187.521 15.292 187.577 15.476C187.641 15.652 187.673 15.848 187.673 16.064C187.673 16.44 187.593 16.788 187.433 17.108C187.273 17.42 187.049 17.692 186.761 17.924C186.473 18.148 186.129 18.324 185.729 18.452C185.329 18.58 184.893 18.644 184.421 18.644C184.013 18.644 183.641 18.604 183.305 18.524C182.969 18.444 182.605 18.3 182.213 18.092L182.609 16.184ZM194.455 18.188C194.055 18.348 193.747 18.456 193.531 18.512C193.315 18.576 193.119 18.608 192.943 18.608C192.695 18.608 192.515 18.532 192.403 18.38C192.299 18.22 192.247 17.96 192.247 17.6C191.895 17.96 191.579 18.22 191.299 18.38C191.019 18.532 190.727 18.608 190.423 18.608C189.919 18.608 189.523 18.42 189.235 18.044C188.947 17.668 188.803 17.156 188.803 16.508C188.803 15.98 188.887 15.484 189.055 15.02C189.231 14.556 189.467 14.156 189.763 13.82C190.059 13.476 190.407 13.204 190.807 13.004C191.215 12.804 191.647 12.704 192.103 12.704C192.327 12.704 192.527 12.724 192.703 12.764C192.879 12.804 193.071 12.876 193.279 12.98L193.519 12.716H194.143C194.007 13.004 193.855 13.576 193.687 14.432L193.255 16.556C193.207 16.788 193.175 16.964 193.159 17.084C193.143 17.196 193.135 17.304 193.135 17.408C193.135 17.768 193.339 17.948 193.747 17.948C193.819 17.948 193.903 17.94 193.999 17.924C194.095 17.908 194.247 17.876 194.455 17.828V18.188ZM192.883 13.916L192.403 13.184C192.363 13.176 192.327 13.172 192.295 13.172C192.263 13.172 192.235 13.172 192.211 13.172C191.867 13.172 191.547 13.256 191.251 13.424C190.955 13.584 190.699 13.812 190.483 14.108C190.267 14.396 190.095 14.74 189.967 15.14C189.847 15.532 189.787 15.96 189.787 16.424C189.787 17.392 190.131 17.876 190.819 17.876C190.939 17.876 191.055 17.864 191.167 17.84C191.279 17.808 191.391 17.764 191.503 17.708C191.615 17.644 191.731 17.564 191.851 17.468C191.979 17.364 192.115 17.236 192.259 17.084L192.883 13.916ZM196.27 13.592L195.286 13.412V13.112L197.062 12.716H197.362L197.146 13.856C197.658 13.448 198.094 13.156 198.454 12.98C198.814 12.796 199.146 12.704 199.45 12.704C200.026 12.704 200.338 13.072 200.386 13.808C200.858 13.424 201.266 13.144 201.61 12.968C201.962 12.792 202.29 12.704 202.594 12.704C202.882 12.704 203.114 12.8 203.29 12.992C203.474 13.184 203.566 13.432 203.566 13.736C203.566 13.856 203.554 13.996 203.53 14.156C203.506 14.316 203.47 14.512 203.422 14.744L203.014 16.604C202.958 16.86 202.922 17.036 202.906 17.132C202.89 17.228 202.882 17.316 202.882 17.396C202.882 17.58 202.934 17.724 203.038 17.828C203.15 17.932 203.298 17.984 203.482 17.984C203.65 17.984 203.878 17.948 204.166 17.876V18.2C203.798 18.344 203.502 18.444 203.278 18.5C203.062 18.556 202.858 18.584 202.666 18.584C202.41 18.584 202.21 18.524 202.066 18.404C201.922 18.284 201.85 18.108 201.85 17.876C201.85 17.796 201.858 17.696 201.874 17.576C201.89 17.448 201.914 17.324 201.946 17.204L202.462 14.984C202.502 14.816 202.53 14.672 202.546 14.552C202.562 14.424 202.57 14.304 202.57 14.192C202.57 13.696 202.37 13.448 201.97 13.448C201.482 13.448 200.942 13.772 200.35 14.42L199.57 18.5H198.574L199.294 14.984C199.366 14.616 199.402 14.34 199.402 14.156C199.402 13.948 199.346 13.78 199.234 13.652C199.122 13.516 198.974 13.448 198.79 13.448C198.582 13.448 198.334 13.528 198.046 13.688C197.766 13.848 197.43 14.096 197.038 14.432L196.282 18.5H195.274L196.27 13.592ZM207.076 10.052C207.252 10.052 207.404 10.12 207.532 10.256C207.66 10.384 207.724 10.536 207.724 10.712C207.724 10.888 207.66 11.04 207.532 11.168C207.404 11.288 207.248 11.348 207.064 11.348C206.88 11.348 206.728 11.288 206.608 11.168C206.488 11.048 206.428 10.896 206.428 10.712C206.428 10.528 206.488 10.372 206.608 10.244C206.736 10.116 206.892 10.052 207.076 10.052ZM207.712 18.164C207.352 18.308 207.036 18.416 206.764 18.488C206.5 18.552 206.252 18.584 206.02 18.584C205.508 18.584 205.252 18.316 205.252 17.78C205.252 17.692 205.256 17.604 205.264 17.516C205.28 17.42 205.3 17.304 205.324 17.168L206.032 13.592L205.06 13.412V13.112L206.836 12.716H207.148L206.284 17.204C206.268 17.252 206.256 17.308 206.248 17.372C206.248 17.428 206.248 17.472 206.248 17.504C206.248 17.816 206.432 17.972 206.8 17.972C206.928 17.972 207.056 17.96 207.184 17.936C207.312 17.904 207.488 17.856 207.712 17.792V18.164ZM210.989 18.2C210.629 18.344 210.321 18.448 210.065 18.512C209.809 18.576 209.577 18.608 209.369 18.608C209.097 18.608 208.885 18.536 208.733 18.392C208.589 18.248 208.517 18.048 208.517 17.792C208.517 17.664 208.529 17.496 208.553 17.288C208.585 17.08 208.645 16.764 208.733 16.34L209.885 10.46L208.817 10.34V10.028L210.641 9.668H210.965C210.949 9.732 210.937 9.788 210.929 9.836C210.921 9.884 210.909 9.952 210.893 10.04C210.877 10.112 210.865 10.184 210.857 10.256C210.849 10.328 210.837 10.396 210.821 10.46L209.609 16.484C209.561 16.74 209.525 16.936 209.501 17.072C209.485 17.2 209.477 17.316 209.477 17.42C209.477 17.82 209.693 18.02 210.125 18.02C210.221 18.02 210.329 18.008 210.449 17.984C210.577 17.952 210.757 17.9 210.989 17.828V18.2Z" fill="#FD5108"/>
</svg>
