<svg width="188" height="20" viewBox="0 0 188 20" fill="none" xmlns="http://www.w3.org/2000/svg">
<path d="M88.3187 14.3449C87.7708 14.5092 87.2847 14.6256 86.8601 14.6941C86.4492 14.7626 86.0247 14.7968 85.5864 14.7968C84.8058 14.7968 84.2579 14.6462 83.943 14.3449C83.6416 14.0436 83.491 13.5026 83.491 12.7219V6.08648H82.1968V5.44964L83.5526 4.85388L84.436 2.94336H85.1961V5.12094H88.3187V6.08648H85.1961V11.5099C85.1961 11.9482 85.2235 12.3111 85.2783 12.5987C85.333 12.8726 85.4221 13.0986 85.5453 13.2766C85.6823 13.4547 85.8535 13.5779 86.0589 13.6464C86.278 13.7149 86.5451 13.7491 86.8601 13.7491C87.0929 13.7491 87.3257 13.7423 87.5586 13.7286C87.8051 13.7012 88.0585 13.6532 88.3187 13.5848V14.3449Z" fill="white"/>
<path d="M70.6235 13.9957L71.7329 13.893L72.0821 13.5643V6.12764H70.6235V5.4908L73.0066 4.75124H73.7872V5.88112C74.2392 5.6346 74.6295 5.43602 74.9582 5.28536C75.2869 5.13471 75.5745 5.01145 75.821 4.91559C76.0812 4.81972 76.314 4.75809 76.5194 4.7307C76.7386 4.68961 76.9646 4.66907 77.1974 4.66907C78.0602 4.66907 78.7176 4.94298 79.1695 5.4908C79.6352 6.02492 79.868 6.78502 79.868 7.7711V13.5643L80.2172 13.893L81.3266 13.9957V14.7353H76.8276V13.9957L77.8137 13.893L78.1629 13.5643V8.12033C78.1629 7.38078 78.0054 6.84665 77.6904 6.51796C77.3891 6.18927 76.8961 6.02492 76.2113 6.02492C75.8278 6.02492 75.4649 6.07286 75.1225 6.16872C74.7801 6.2509 74.335 6.42209 73.7872 6.68231V13.5643L74.1364 13.893L75.1225 13.9957V14.7353H70.6235V13.9957Z" fill="white"/>
<path d="M69.1195 13.6876C68.4348 14.1258 67.7911 14.4408 67.1885 14.6325C66.5859 14.8243 65.9559 14.9202 65.2985 14.9202C64.6137 14.9202 63.9837 14.8037 63.4085 14.5709C62.847 14.3244 62.3608 13.982 61.9499 13.5438C61.5528 13.0918 61.2378 12.5577 61.005 11.9414C60.7858 11.3251 60.6763 10.6403 60.6763 9.88705C60.6763 9.12011 60.7927 8.42163 61.0255 7.79164C61.2583 7.14795 61.587 6.59329 62.0116 6.12764C62.4361 5.66199 62.936 5.30591 63.5112 5.05939C64.0864 4.79917 64.7233 4.66907 65.4218 4.66907C66.5722 4.66907 67.4761 5.02515 68.1335 5.73732C68.7909 6.43579 69.1195 7.40817 69.1195 8.65446C69.1195 8.72294 69.1195 8.8188 69.1195 8.94206C69.1195 9.05163 69.1127 9.18174 69.099 9.33239H62.443C62.443 9.56521 62.443 9.77064 62.443 9.94868C62.4567 10.1267 62.4704 10.2979 62.4841 10.4623C62.5115 10.6129 62.5389 10.7567 62.5662 10.8937C62.6073 11.0306 62.6484 11.1813 62.6895 11.3456C62.9223 12.1126 63.3127 12.7083 63.8605 13.1329C64.422 13.5438 65.0931 13.7492 65.8737 13.7492C66.1339 13.7492 66.3804 13.7286 66.6133 13.6876C66.8461 13.6465 67.0858 13.5848 67.3323 13.5027C67.5925 13.4068 67.8664 13.2835 68.154 13.1329C68.4416 12.9822 68.7635 12.7905 69.1195 12.5577V13.6876ZM67.2912 8.46957C67.2912 7.99023 67.2707 7.62045 67.2296 7.36023C67.1885 7.10002 67.1132 6.8535 67.0036 6.62068C66.6201 5.92221 66.0175 5.57297 65.1958 5.57297C64.4562 5.57297 63.8536 5.82634 63.388 6.33307C62.936 6.8398 62.6553 7.55197 62.5457 8.46957H67.2912Z" fill="white"/>
<path d="M55.8518 13.0302C57.1118 13.2219 58.0089 13.5095 58.543 13.893C59.0771 14.2765 59.3442 14.8106 59.3442 15.4954C59.3442 16.0021 59.2004 16.4814 58.9128 16.9334C58.6389 17.3853 58.2554 17.7757 57.7623 18.1044C57.283 18.4467 56.7215 18.7138 56.0778 18.9055C55.4341 19.111 54.7493 19.2137 54.0235 19.2137C52.8594 19.2137 51.9486 18.974 51.2912 18.4947C50.6475 18.029 50.3257 17.3853 50.3257 16.5636C50.3257 15.8925 50.5174 15.3379 50.9009 14.8996C51.2981 14.4614 51.8459 14.1669 52.5444 14.0162C52.4074 13.6876 52.3389 13.3931 52.3389 13.1329C52.3389 12.8453 52.4142 12.5508 52.5649 12.2495C52.7155 11.9482 52.9689 11.5784 53.325 11.1402C52.5033 10.9211 51.8733 10.5444 51.435 10.0103C50.9968 9.47619 50.7776 8.81881 50.7776 8.03816C50.7776 7.54512 50.8735 7.09317 51.0652 6.68231C51.257 6.25775 51.524 5.90166 51.8664 5.61406C52.2225 5.31276 52.6402 5.07993 53.1196 4.91559C53.5989 4.75124 54.133 4.66907 54.7219 4.66907C55.1465 4.66907 55.5437 4.717 55.9135 4.81287C56.2832 4.89504 56.6736 5.032 57.0844 5.22373H60.0221V6.18927H57.7623C57.9541 6.50426 58.0979 6.81241 58.1938 7.11371C58.2896 7.40132 58.3376 7.72316 58.3376 8.07925C58.3376 8.57229 58.2417 9.01739 58.0499 9.41456C57.8582 9.81173 57.5912 10.1541 57.2488 10.4417C56.9064 10.7156 56.4887 10.9348 55.9956 11.0991C55.5026 11.2498 54.9616 11.3251 54.3727 11.3251C54.3179 11.3251 54.27 11.3251 54.2289 11.3251C54.1878 11.3251 54.133 11.3182 54.0646 11.3045C53.9139 11.6058 53.8386 11.9208 53.8386 12.2495C53.8386 12.318 53.8386 12.3865 53.8386 12.455C53.8386 12.5097 53.8523 12.5988 53.8797 12.722L55.8518 13.0302ZM54.5165 5.47025C53.9139 5.47025 53.4346 5.70308 53.0785 6.16872C52.7224 6.62068 52.5444 7.22328 52.5444 7.97653C52.5444 8.74348 52.7224 9.35978 53.0785 9.82543C53.4483 10.2774 53.9413 10.5034 54.5576 10.5034C55.1739 10.5034 55.6601 10.2774 56.0162 9.82543C56.3859 9.35978 56.5708 8.75033 56.5708 7.99707C56.5708 7.21643 56.3859 6.60013 56.0162 6.14818C55.6464 5.69623 55.1465 5.47025 54.5165 5.47025ZM53.7359 14.119C52.5581 14.5435 51.9691 15.2215 51.9691 16.1527C51.9691 16.7827 52.2294 17.2895 52.7498 17.6729C53.2702 18.0701 53.9413 18.2687 54.763 18.2687C55.2013 18.2687 55.6053 18.2139 55.9751 18.1044C56.3449 17.9948 56.6667 17.8373 56.9406 17.6319C57.2145 17.4401 57.4268 17.2073 57.5775 16.9334C57.7418 16.6595 57.824 16.365 57.824 16.05C57.824 15.8172 57.7897 15.6186 57.7213 15.4543C57.6665 15.2899 57.5569 15.1461 57.3926 15.0229C57.2419 14.9133 57.0296 14.8174 56.7557 14.7353C56.4818 14.6531 56.1394 14.5709 55.7286 14.4887L53.7359 14.119Z" fill="white"/>
<path d="M36.1392 13.893L37.3307 13.6465L42.1378 0.786377H43.4936L48.424 13.6465L49.6566 13.893V14.7352H44.9933V13.893L46.267 13.7903L46.4108 13.5027L44.9317 9.57889H40.0835L38.6249 13.5027L38.8303 13.7903L40.1656 13.893V14.7352H36.1392V13.893ZM44.5824 8.6339L42.4665 2.94342L40.4327 8.6339H44.5824Z" fill="white"/>
<path d="M21.6641 13.9751L22.835 13.8107L25.7933 9.84589L23.0405 5.83996L21.7873 5.59344V4.85388H26.2041V5.59344L25.2591 5.73724L25.1564 5.94267L26.882 8.63384L28.7515 6.00431L28.5871 5.73724L27.6011 5.59344V4.85388H31.2989V5.59344L30.1484 5.81942L27.4367 9.41448L30.4566 13.8107L31.6892 13.9751V14.7352H27.3135V13.9751L28.1763 13.8313L28.279 13.6669L26.3685 10.606L24.2731 13.5848L24.3758 13.8313L25.5467 13.9751V14.7352H21.6641V13.9751Z" fill="white"/>
<path d="M17.9071 13.5438C17.1538 14.0368 16.5238 14.386 16.0171 14.5915C15.5241 14.7832 15.0242 14.8791 14.5174 14.8791C13.7368 14.8791 13.1068 14.6394 12.6275 14.1601C12.1481 13.6807 11.9084 13.0507 11.9084 12.2701C11.9084 11.6538 12.0728 11.1402 12.4015 10.7293C12.7302 10.3048 13.2506 9.94868 13.9628 9.66108C14.2093 9.56521 14.4353 9.48304 14.6407 9.41456C14.8598 9.33239 15.1063 9.25021 15.3803 9.16804C15.6542 9.08587 15.9897 8.99685 16.3869 8.90098C16.784 8.79141 17.2908 8.66131 17.9071 8.51066V7.85327C17.9071 7.00415 17.7701 6.41524 17.4962 6.08655C17.2223 5.74416 16.743 5.57297 16.0582 5.57297C15.7843 5.57297 15.5241 5.60036 15.2775 5.65514C15.0447 5.69623 14.7708 5.77156 14.4558 5.88112V7.60675H13.0383C12.8055 7.60675 12.6412 7.56567 12.5453 7.48349C12.4494 7.40132 12.4015 7.24382 12.4015 7.011C12.4015 6.66861 12.4974 6.35361 12.6891 6.06601C12.8945 5.7784 13.1753 5.53188 13.5314 5.32645C13.9011 5.12102 14.3394 4.96352 14.8461 4.85396C15.3529 4.7307 15.9075 4.66907 16.5101 4.66907C17.6058 4.66907 18.3933 4.90189 18.8726 5.36754C19.3657 5.83318 19.6122 6.57959 19.6122 7.60675V13.5643L19.9614 13.893L21.0502 13.9957V14.7353H18.1741L17.9071 13.5438ZM17.9071 9.22967C17.4688 9.35293 17.1059 9.46249 16.8183 9.55836C16.5444 9.64054 16.3116 9.71586 16.1198 9.78434C15.9281 9.83912 15.7569 9.90075 15.6062 9.96923C15.4693 10.024 15.3118 10.0925 15.1337 10.1747C14.6407 10.4075 14.2778 10.6745 14.0449 10.9758C13.8258 11.2771 13.7163 11.6401 13.7163 12.0646C13.7163 12.5851 13.8601 13.0028 14.1477 13.3178C14.449 13.6191 14.8393 13.7697 15.3186 13.7697C15.6747 13.7697 16.0376 13.7013 16.4074 13.5643C16.7909 13.4273 17.2908 13.1877 17.9071 12.8453V9.22967Z" fill="white"/>
<path d="M3.80397 13.8929L5.18037 13.7902L5.5296 13.5026V1.89567H2.38649L2.09888 2.20382L1.81128 4.11434H0.681396V0.950684H12.2883V4.11434H11.1585L10.8709 2.20382L10.5832 1.89567H7.44013V13.5026L7.78936 13.7902L9.16576 13.8929V14.7352H3.80397V13.8929Z" fill="white"/>
<path d="M98.5626 16.256L99.2706 16.112L99.3906 15.98L100.651 8.996L99.7146 8.876V8.576L101.419 8.216H101.731L101.587 8.948C101.987 8.676 102.323 8.484 102.595 8.372C102.875 8.26 103.151 8.204 103.423 8.204C103.895 8.204 104.263 8.388 104.527 8.756C104.791 9.124 104.923 9.632 104.923 10.28C104.923 11.352 104.583 12.252 103.903 12.98C103.583 13.316 103.227 13.58 102.835 13.772C102.443 13.956 102.047 14.048 101.647 14.048C101.479 14.048 101.327 14.032 101.191 14C101.055 13.968 100.891 13.908 100.699 13.82L100.303 16.052L101.443 16.256V16.616H98.5626V16.256ZM100.819 13.196C101.019 13.308 101.199 13.392 101.359 13.448C101.519 13.496 101.683 13.52 101.851 13.52C102.115 13.52 102.363 13.456 102.595 13.328C102.835 13.2 103.039 13.02 103.207 12.788C103.439 12.452 103.619 12.068 103.747 11.636C103.875 11.204 103.939 10.76 103.939 10.304C103.939 9.872 103.839 9.52 103.639 9.248C103.447 8.976 103.195 8.84 102.883 8.84C102.683 8.84 102.483 8.888 102.283 8.984C102.091 9.072 101.831 9.236 101.503 9.476L100.819 13.196ZM108.877 8.204C109.189 8.204 109.469 8.26 109.717 8.372C109.965 8.484 110.177 8.644 110.353 8.852C110.529 9.052 110.665 9.296 110.761 9.584C110.857 9.864 110.905 10.18 110.905 10.532C110.905 11.02 110.821 11.484 110.653 11.924C110.493 12.356 110.273 12.736 109.993 13.064C109.721 13.384 109.397 13.64 109.021 13.832C108.645 14.016 108.249 14.108 107.833 14.108C107.521 14.108 107.237 14.056 106.981 13.952C106.733 13.84 106.517 13.688 106.333 13.496C106.157 13.296 106.021 13.056 105.925 12.776C105.829 12.496 105.781 12.184 105.781 11.84C105.781 11.336 105.861 10.864 106.021 10.424C106.181 9.976 106.401 9.588 106.681 9.26C106.961 8.932 107.289 8.676 107.665 8.492C108.041 8.3 108.445 8.204 108.877 8.204ZM108.685 8.684C108.421 8.684 108.173 8.768 107.941 8.936C107.717 9.096 107.521 9.316 107.353 9.596C107.185 9.876 107.049 10.204 106.945 10.58C106.849 10.956 106.801 11.36 106.801 11.792C106.801 12.376 106.901 12.828 107.101 13.148C107.301 13.468 107.585 13.628 107.953 13.628C108.225 13.628 108.477 13.548 108.709 13.388C108.941 13.228 109.145 13.008 109.321 12.728C109.497 12.44 109.633 12.108 109.729 11.732C109.833 11.348 109.885 10.94 109.885 10.508C109.885 9.916 109.781 9.464 109.573 9.152C109.373 8.84 109.077 8.684 108.685 8.684ZM112.683 13.736L112.359 8.984L111.471 8.876V8.588L112.851 8.18L113.271 8.204L113.535 12.932C113.751 12.516 113.943 12.148 114.111 11.828C114.279 11.508 114.427 11.22 114.555 10.964C114.691 10.708 114.811 10.476 114.915 10.268C115.019 10.06 115.115 9.864 115.203 9.68C115.291 9.488 115.379 9.296 115.467 9.104C115.555 8.912 115.647 8.704 115.743 8.48L116.463 8.396C116.479 8.772 116.495 9.136 116.511 9.488C116.535 9.832 116.559 10.188 116.583 10.556C116.615 10.916 116.647 11.304 116.679 11.72C116.711 12.136 116.747 12.596 116.787 13.1C116.923 12.916 117.031 12.772 117.111 12.668C117.191 12.556 117.279 12.432 117.375 12.296C117.727 11.792 118.011 11.344 118.227 10.952C118.451 10.56 118.619 10.2 118.731 9.872L118.491 8.468C118.587 8.372 118.679 8.304 118.767 8.264C118.863 8.224 118.971 8.204 119.091 8.204C119.283 8.204 119.435 8.264 119.547 8.384C119.667 8.496 119.727 8.648 119.727 8.84C119.727 9.056 119.679 9.296 119.583 9.56C119.495 9.816 119.331 10.14 119.091 10.532C118.859 10.924 118.543 11.4 118.143 11.96C117.751 12.512 117.251 13.192 116.643 14H115.947L115.659 9.812C115.523 10.084 115.387 10.352 115.251 10.616C115.123 10.872 114.971 11.16 114.795 11.48C114.619 11.792 114.415 12.152 114.183 12.56C113.959 12.96 113.687 13.44 113.367 14H112.587L112.683 13.736ZM124.242 13.028C123.834 13.404 123.446 13.68 123.078 13.856C122.71 14.024 122.322 14.108 121.914 14.108C121.338 14.108 120.89 13.92 120.57 13.544C120.25 13.16 120.09 12.628 120.09 11.948C120.09 11.324 120.218 10.74 120.474 10.196C120.738 9.644 121.102 9.188 121.566 8.828C121.822 8.628 122.086 8.476 122.358 8.372C122.638 8.26 122.906 8.204 123.162 8.204C123.53 8.204 123.826 8.312 124.05 8.528C124.274 8.744 124.386 9.032 124.386 9.392C124.386 9.944 124.106 10.384 123.546 10.712C122.986 11.04 122.174 11.248 121.11 11.336C121.086 11.528 121.074 11.7 121.074 11.852C121.074 12.348 121.182 12.74 121.398 13.028C121.614 13.308 121.91 13.448 122.286 13.448C122.59 13.448 122.894 13.372 123.198 13.22C123.502 13.068 123.85 12.816 124.242 12.464V13.028ZM121.17 10.928C121.554 10.896 121.87 10.848 122.118 10.784C122.366 10.712 122.594 10.608 122.802 10.472C123.282 10.168 123.522 9.8 123.522 9.368C123.522 9.184 123.462 9.028 123.342 8.9C123.222 8.772 123.07 8.708 122.886 8.708C122.518 8.708 122.182 8.904 121.878 9.296C121.582 9.68 121.346 10.224 121.17 10.928ZM126.304 9.092L125.32 8.912V8.612L127.096 8.216H127.336L126.952 9.86C127.384 9.276 127.768 8.856 128.104 8.6C128.448 8.336 128.788 8.204 129.124 8.204C129.308 8.204 129.46 8.268 129.58 8.396C129.7 8.516 129.76 8.668 129.76 8.852C129.76 9.084 129.684 9.272 129.532 9.416C129.38 9.552 129.18 9.62 128.932 9.62H128.872L128.56 8.972C128.28 9.084 128.04 9.204 127.84 9.332C127.648 9.46 127.484 9.612 127.348 9.788C127.212 9.956 127.1 10.156 127.012 10.388C126.932 10.612 126.864 10.876 126.808 11.18L126.316 14H125.308L126.304 9.092ZM134.003 13.028C133.595 13.404 133.207 13.68 132.839 13.856C132.471 14.024 132.083 14.108 131.675 14.108C131.099 14.108 130.651 13.92 130.331 13.544C130.011 13.16 129.851 12.628 129.851 11.948C129.851 11.324 129.979 10.74 130.235 10.196C130.499 9.644 130.863 9.188 131.327 8.828C131.583 8.628 131.847 8.476 132.119 8.372C132.399 8.26 132.667 8.204 132.923 8.204C133.291 8.204 133.587 8.312 133.811 8.528C134.035 8.744 134.147 9.032 134.147 9.392C134.147 9.944 133.867 10.384 133.307 10.712C132.747 11.04 131.935 11.248 130.871 11.336C130.847 11.528 130.835 11.7 130.835 11.852C130.835 12.348 130.943 12.74 131.159 13.028C131.375 13.308 131.671 13.448 132.047 13.448C132.351 13.448 132.655 13.372 132.959 13.22C133.263 13.068 133.611 12.816 134.003 12.464V13.028ZM130.931 10.928C131.315 10.896 131.631 10.848 131.879 10.784C132.127 10.712 132.355 10.608 132.563 10.472C133.043 10.168 133.283 9.8 133.283 9.368C133.283 9.184 133.223 9.028 133.103 8.9C132.983 8.772 132.831 8.708 132.647 8.708C132.279 8.708 131.943 8.904 131.639 9.296C131.343 9.68 131.107 10.224 130.931 10.928ZM140.65 13.736C140.298 13.856 140.006 13.944 139.774 14C139.542 14.056 139.334 14.084 139.15 14.084C138.63 14.084 138.37 13.792 138.37 13.208C138.37 13.168 138.37 13.136 138.37 13.112C138.37 13.088 138.374 13.048 138.382 12.992C137.79 13.736 137.162 14.108 136.498 14.108C136.01 14.108 135.626 13.92 135.346 13.544C135.074 13.16 134.938 12.636 134.938 11.972C134.938 11.364 135.046 10.808 135.262 10.304C135.486 9.8 135.81 9.364 136.234 8.996C136.53 8.74 136.85 8.544 137.194 8.408C137.538 8.272 137.886 8.204 138.238 8.204C138.406 8.204 138.562 8.216 138.706 8.24C138.85 8.264 139.01 8.308 139.186 8.372L139.606 5.96L138.55 5.864V5.528L140.386 5.168H140.698L139.414 12.356C139.39 12.508 139.37 12.636 139.354 12.74C139.346 12.836 139.342 12.928 139.342 13.016C139.342 13.336 139.51 13.496 139.846 13.496C139.958 13.496 140.07 13.488 140.182 13.472C140.294 13.456 140.45 13.424 140.65 13.376V13.736ZM139.006 9.392L138.43 8.708C138.342 8.692 138.274 8.684 138.226 8.684C138.186 8.676 138.146 8.672 138.106 8.672C137.818 8.672 137.542 8.76 137.278 8.936C137.022 9.112 136.79 9.348 136.582 9.644C136.382 9.94 136.222 10.284 136.102 10.676C135.982 11.06 135.922 11.464 135.922 11.888C135.922 12.368 136.01 12.744 136.186 13.016C136.362 13.288 136.602 13.424 136.906 13.424C137.162 13.424 137.414 13.344 137.662 13.184C137.918 13.024 138.19 12.764 138.478 12.404L139.006 9.392ZM145.261 6.02L144.217 5.84V5.528L146.041 5.168H146.437C146.381 5.344 146.329 5.532 146.281 5.732C146.233 5.924 146.193 6.104 146.161 6.272L145.645 9.092C146.037 8.772 146.369 8.544 146.641 8.408C146.921 8.272 147.185 8.204 147.433 8.204C147.665 8.204 147.873 8.256 148.057 8.36C148.249 8.456 148.413 8.596 148.549 8.78C148.685 8.964 148.789 9.184 148.861 9.44C148.941 9.688 148.981 9.968 148.981 10.28C148.981 10.816 148.893 11.32 148.717 11.792C148.549 12.256 148.313 12.66 148.009 13.004C147.713 13.348 147.361 13.62 146.953 13.82C146.545 14.012 146.109 14.108 145.645 14.108C145.325 14.108 145.029 14.068 144.757 13.988C144.493 13.908 144.193 13.772 143.857 13.58L145.261 6.02ZM144.877 13.136C145.061 13.312 145.233 13.436 145.393 13.508C145.561 13.58 145.741 13.616 145.933 13.616C146.197 13.616 146.453 13.528 146.701 13.352C146.949 13.168 147.169 12.928 147.361 12.632C147.553 12.328 147.705 11.984 147.817 11.6C147.937 11.208 147.997 10.8 147.997 10.376C147.997 9.928 147.905 9.576 147.721 9.32C147.545 9.064 147.301 8.936 146.989 8.936C146.805 8.936 146.609 8.984 146.401 9.08C146.193 9.168 145.913 9.328 145.561 9.56L144.877 13.136ZM149.662 15.86C150.022 15.836 150.362 15.66 150.682 15.332C151.01 15.012 151.358 14.504 151.726 13.808L150.982 10.16C150.926 9.88 150.858 9.644 150.778 9.452C150.706 9.252 150.614 9.072 150.502 8.912L149.482 8.828V8.564L150.658 8.18C150.698 8.172 150.75 8.168 150.814 8.168C151.126 8.168 151.358 8.336 151.51 8.672C151.542 8.752 151.57 8.824 151.594 8.888C151.626 8.952 151.658 9.052 151.69 9.188C151.722 9.324 151.762 9.512 151.81 9.752C151.858 9.992 151.926 10.324 152.014 10.748L152.41 12.776C152.602 12.304 152.766 11.892 152.902 11.54C153.046 11.188 153.186 10.848 153.322 10.52C153.458 10.192 153.602 9.852 153.754 9.5C153.906 9.14 154.086 8.712 154.294 8.216H154.522L155.47 8.528V8.78L154.858 9.14C154.738 9.276 154.634 9.408 154.546 9.536C154.458 9.664 154.362 9.816 154.258 9.992C154.162 10.16 154.054 10.368 153.934 10.616C153.814 10.864 153.666 11.18 153.49 11.564C153.306 11.972 153.134 12.34 152.974 12.668C152.822 12.988 152.674 13.28 152.53 13.544C152.386 13.808 152.242 14.052 152.098 14.276C151.954 14.5 151.806 14.72 151.654 14.936C151.254 15.488 150.858 15.904 150.466 16.184C150.074 16.464 149.686 16.604 149.302 16.604C149.022 16.604 148.786 16.524 148.594 16.364C148.402 16.212 148.306 16.028 148.306 15.812C148.306 15.46 148.522 15.24 148.954 15.152L149.662 15.86ZM158.369 11.684H158.993L158.873 13.064L158.993 13.22C159.265 13.348 159.501 13.44 159.701 13.496C159.909 13.544 160.129 13.568 160.361 13.568C160.657 13.568 160.925 13.528 161.165 13.448C161.413 13.36 161.625 13.24 161.801 13.088C161.985 12.936 162.125 12.756 162.221 12.548C162.325 12.34 162.377 12.112 162.377 11.864C162.377 11.48 162.253 11.184 162.005 10.976C161.957 10.936 161.913 10.904 161.873 10.88C161.833 10.856 161.781 10.824 161.717 10.784C161.653 10.744 161.557 10.696 161.429 10.64C161.309 10.576 161.141 10.488 160.925 10.376C160.557 10.192 160.249 10.02 160.001 9.86C159.761 9.7 159.569 9.54 159.425 9.38C159.281 9.22 159.177 9.056 159.113 8.888C159.057 8.712 159.029 8.516 159.029 8.3C159.029 7.94 159.105 7.608 159.257 7.304C159.409 7 159.617 6.736 159.881 6.512C160.145 6.288 160.457 6.116 160.817 5.996C161.185 5.868 161.585 5.804 162.017 5.804C162.369 5.804 162.689 5.832 162.977 5.888C163.273 5.944 163.613 6.036 163.997 6.164L163.613 7.988H163.085L163.133 6.8L162.989 6.584C162.789 6.496 162.609 6.436 162.449 6.404C162.289 6.372 162.117 6.356 161.933 6.356C161.661 6.356 161.409 6.4 161.177 6.488C160.953 6.568 160.757 6.68 160.589 6.824C160.421 6.968 160.289 7.14 160.193 7.34C160.097 7.532 160.049 7.744 160.049 7.976C160.049 8.392 160.209 8.72 160.529 8.96C160.585 9 160.633 9.036 160.673 9.068C160.721 9.092 160.781 9.124 160.853 9.164C160.925 9.204 161.025 9.256 161.153 9.32C161.289 9.376 161.473 9.46 161.705 9.572C162.025 9.716 162.293 9.86 162.509 10.004C162.733 10.148 162.913 10.3 163.049 10.46C163.185 10.62 163.281 10.792 163.337 10.976C163.401 11.152 163.433 11.348 163.433 11.564C163.433 11.94 163.353 12.288 163.193 12.608C163.033 12.92 162.809 13.192 162.521 13.424C162.233 13.648 161.889 13.824 161.489 13.952C161.089 14.08 160.653 14.144 160.181 14.144C159.773 14.144 159.401 14.104 159.065 14.024C158.729 13.944 158.365 13.8 157.973 13.592L158.369 11.684ZM170.215 13.688C169.815 13.848 169.507 13.956 169.291 14.012C169.075 14.076 168.879 14.108 168.703 14.108C168.455 14.108 168.275 14.032 168.163 13.88C168.059 13.72 168.007 13.46 168.007 13.1C167.655 13.46 167.339 13.72 167.059 13.88C166.779 14.032 166.487 14.108 166.183 14.108C165.679 14.108 165.283 13.92 164.995 13.544C164.707 13.168 164.563 12.656 164.563 12.008C164.563 11.48 164.647 10.984 164.815 10.52C164.991 10.056 165.227 9.656 165.523 9.32C165.819 8.976 166.167 8.704 166.567 8.504C166.975 8.304 167.407 8.204 167.863 8.204C168.087 8.204 168.287 8.224 168.463 8.264C168.639 8.304 168.831 8.376 169.039 8.48L169.279 8.216H169.903C169.767 8.504 169.615 9.076 169.447 9.932L169.015 12.056C168.967 12.288 168.935 12.464 168.919 12.584C168.903 12.696 168.895 12.804 168.895 12.908C168.895 13.268 169.099 13.448 169.507 13.448C169.579 13.448 169.663 13.44 169.759 13.424C169.855 13.408 170.007 13.376 170.215 13.328V13.688ZM168.643 9.416L168.163 8.684C168.123 8.676 168.087 8.672 168.055 8.672C168.023 8.672 167.995 8.672 167.971 8.672C167.627 8.672 167.307 8.756 167.011 8.924C166.715 9.084 166.459 9.312 166.243 9.608C166.027 9.896 165.855 10.24 165.727 10.64C165.607 11.032 165.547 11.46 165.547 11.924C165.547 12.892 165.891 13.376 166.579 13.376C166.699 13.376 166.815 13.364 166.927 13.34C167.039 13.308 167.151 13.264 167.263 13.208C167.375 13.144 167.491 13.064 167.611 12.968C167.739 12.864 167.875 12.736 168.019 12.584L168.643 9.416ZM172.03 9.092L171.046 8.912V8.612L172.822 8.216H173.122L172.906 9.356C173.418 8.948 173.854 8.656 174.214 8.48C174.574 8.296 174.906 8.204 175.21 8.204C175.786 8.204 176.098 8.572 176.146 9.308C176.618 8.924 177.026 8.644 177.37 8.468C177.722 8.292 178.05 8.204 178.354 8.204C178.642 8.204 178.874 8.3 179.05 8.492C179.234 8.684 179.326 8.932 179.326 9.236C179.326 9.356 179.314 9.496 179.29 9.656C179.266 9.816 179.23 10.012 179.182 10.244L178.774 12.104C178.718 12.36 178.682 12.536 178.666 12.632C178.65 12.728 178.642 12.816 178.642 12.896C178.642 13.08 178.694 13.224 178.798 13.328C178.91 13.432 179.058 13.484 179.242 13.484C179.41 13.484 179.638 13.448 179.926 13.376V13.7C179.558 13.844 179.262 13.944 179.038 14C178.822 14.056 178.618 14.084 178.426 14.084C178.17 14.084 177.97 14.024 177.826 13.904C177.682 13.784 177.61 13.608 177.61 13.376C177.61 13.296 177.618 13.196 177.634 13.076C177.65 12.948 177.674 12.824 177.706 12.704L178.222 10.484C178.262 10.316 178.29 10.172 178.306 10.052C178.322 9.924 178.33 9.804 178.33 9.692C178.33 9.196 178.13 8.948 177.73 8.948C177.242 8.948 176.702 9.272 176.11 9.92L175.33 14H174.334L175.054 10.484C175.126 10.116 175.162 9.84 175.162 9.656C175.162 9.448 175.106 9.28 174.994 9.152C174.882 9.016 174.734 8.948 174.55 8.948C174.342 8.948 174.094 9.028 173.806 9.188C173.526 9.348 173.19 9.596 172.798 9.932L172.042 14H171.034L172.03 9.092ZM182.836 5.552C183.012 5.552 183.164 5.62 183.292 5.756C183.42 5.884 183.484 6.036 183.484 6.212C183.484 6.388 183.42 6.54 183.292 6.668C183.164 6.788 183.008 6.848 182.824 6.848C182.64 6.848 182.488 6.788 182.368 6.668C182.248 6.548 182.188 6.396 182.188 6.212C182.188 6.028 182.248 5.872 182.368 5.744C182.496 5.616 182.652 5.552 182.836 5.552ZM183.472 13.664C183.112 13.808 182.796 13.916 182.524 13.988C182.26 14.052 182.012 14.084 181.78 14.084C181.268 14.084 181.012 13.816 181.012 13.28C181.012 13.192 181.016 13.104 181.024 13.016C181.04 12.92 181.06 12.804 181.084 12.668L181.792 9.092L180.82 8.912V8.612L182.596 8.216H182.908L182.044 12.704C182.028 12.752 182.016 12.808 182.008 12.872C182.008 12.928 182.008 12.972 182.008 13.004C182.008 13.316 182.192 13.472 182.56 13.472C182.688 13.472 182.816 13.46 182.944 13.436C183.072 13.404 183.248 13.356 183.472 13.292V13.664ZM186.749 13.7C186.389 13.844 186.081 13.948 185.825 14.012C185.569 14.076 185.337 14.108 185.129 14.108C184.857 14.108 184.645 14.036 184.493 13.892C184.349 13.748 184.277 13.548 184.277 13.292C184.277 13.164 184.289 12.996 184.313 12.788C184.345 12.58 184.405 12.264 184.493 11.84L185.645 5.96L184.577 5.84V5.528L186.401 5.168H186.725C186.709 5.232 186.697 5.288 186.689 5.336C186.681 5.384 186.669 5.452 186.653 5.54C186.637 5.612 186.625 5.684 186.617 5.756C186.609 5.828 186.597 5.896 186.581 5.96L185.369 11.984C185.321 12.24 185.285 12.436 185.261 12.572C185.245 12.7 185.237 12.816 185.237 12.92C185.237 13.32 185.453 13.52 185.885 13.52C185.981 13.52 186.089 13.508 186.209 13.484C186.337 13.452 186.517 13.4 186.749 13.328V13.7Z" fill="#8BC4EE"/>
</svg>
