<svg width="112" height="55" viewBox="0 0 112 55" fill="none" xmlns="http://www.w3.org/2000/svg">
<g clip-path="url(#clip0_119_25)">
<path d="M82.9106 23.201C78.9692 23.8425 76.956 26.7753 76.956 31.936C76.956 37.0967 79.6402 40.6017 83.7534 40.6017C85.6675 40.6017 87.4078 39.9602 91.0642 38.1537V42.3552C86.6761 44.3837 84.093 45.011 80.5558 45.011C76.7276 45.011 74.0333 43.9866 71.8343 41.728C69.5806 39.4551 68.4528 36.4552 68.4528 33.1131C68.4528 25.6795 73.9141 20.6511 81.8898 20.6511C87.1875 20.6511 90.8317 23.0911 90.8317 26.6714C90.8317 28.9768 89.1359 30.5653 86.6195 30.5653C85.3279 30.5653 84.2668 30.2252 82.9085 29.4309V23.199L82.9106 23.201ZM63.4624 33.1152C66.9955 28.6265 68.2425 26.818 68.2425 24.6144C68.2425 22.4108 66.5144 20.6532 64.2041 20.6532C62.7812 20.6532 61.5018 21.3293 60.8752 22.034V31.1763L55.0864 38.948V21.2275H49.5826L40.4325 36.5122V21.2275H37.2693L28.9641 23.2682V25.4066L33.4937 25.8689V44.6138H39.3492L48.1253 30.0827V44.6138H54.5387L63.4603 33.1131L63.4624 33.1152ZM11.4785 25.9932C12.8247 25.8282 13.4917 25.7508 14.1283 25.7508C17.9464 25.7508 20.0162 28.3088 20.0162 33.1172C20.0162 38.7973 17.4876 41.7606 12.7701 41.7606C12.3759 41.7606 12.1031 41.7606 11.4785 41.73V25.9932ZM11.4785 44.3858C13.0005 44.5609 14.476 44.6159 15.3653 44.6159C23.2117 44.6159 28.19 39.5569 28.19 32.0358C28.19 25.5309 24.4588 20.8324 19.4017 20.8324C17.2127 20.8324 15.7453 21.2845 11.4785 23.8445V20.7123H9.11369L0 23.5003V25.7488H3.77362V51.9721L0.377969 52.8234V54.9944H15.2744V52.8234L11.4765 51.9721V44.3858H11.4785Z" fill="black"/>
<path d="M78.6741 14.1544H53.8191L58.0536 7.08127H82.9085L78.6741 14.1544ZM112 0.00610352H87.145L82.9106 7.07923H107.766L112 0.00610352Z" fill="#FD5108"/>
</g>
<defs>
<clipPath id="clip0_119_25">
<rect width="112" height="55" fill="white"/>
</clipPath>
</defs>
</svg>
