<svg width="187" height="20" viewBox="0 0 187 20" fill="none" xmlns="http://www.w3.org/2000/svg">
<path d="M87.6372 14.3449C87.0894 14.5092 86.6032 14.6256 86.1786 14.6941C85.7678 14.7626 85.3432 14.7968 84.905 14.7968C84.1243 14.7968 83.5765 14.6462 83.2615 14.3449C82.9602 14.0436 82.8095 13.5026 82.8095 12.7219V6.08648H81.5153V5.44964L82.8712 4.85388L83.7545 2.94336H84.5146V5.12094H87.6372V6.08648H84.5146V11.5099C84.5146 11.9482 84.542 12.3111 84.5968 12.5987C84.6516 12.8726 84.7406 13.0986 84.8639 13.2766C85.0008 13.4547 85.172 13.5779 85.3775 13.6464C85.5966 13.7149 85.8636 13.7491 86.1786 13.7491C86.4115 13.7491 86.6443 13.7423 86.8771 13.7286C87.1236 13.7012 87.377 13.6532 87.6372 13.5848V14.3449Z" fill="white"/>
<path d="M69.942 13.9956L71.0514 13.8929L71.4006 13.5642V6.12752H69.942V5.49068L72.3251 4.75112H73.1057V5.881C73.5577 5.63448 73.948 5.43589 74.2767 5.28524C74.6054 5.13459 74.893 5.01133 75.1395 4.91546C75.3997 4.8196 75.6325 4.75797 75.838 4.73058C76.0571 4.68949 76.2831 4.66895 76.5159 4.66895C77.3787 4.66895 78.0361 4.94286 78.488 5.49068C78.9537 6.0248 79.1865 6.7849 79.1865 7.77098V13.5642L79.5358 13.8929L80.6451 13.9956V14.7351H76.1461V13.9956L77.1322 13.8929L77.4814 13.5642V8.12021C77.4814 7.38065 77.3239 6.84653 77.0089 6.51784C76.7076 6.18915 76.2146 6.0248 75.5298 6.0248C75.1463 6.0248 74.7834 6.07273 74.441 6.1686C74.0986 6.25078 73.6535 6.42197 73.1057 6.68218V13.5642L73.4549 13.8929L74.441 13.9956V14.7351H69.942V13.9956Z" fill="white"/>
<path d="M68.438 13.6874C67.7533 14.1257 67.1096 14.4407 66.507 14.6324C65.9044 14.8242 65.2744 14.92 64.617 14.92C63.9322 14.92 63.3022 14.8036 62.727 14.5708C62.1655 14.3243 61.6793 13.9819 61.2684 13.5436C60.8713 13.0917 60.5563 12.5576 60.3234 11.9413C60.1043 11.325 59.9948 10.6402 59.9948 9.88693C59.9948 9.11998 60.1112 8.42151 60.344 7.79152C60.5768 7.14783 60.9055 6.59316 61.3301 6.12752C61.7546 5.66187 62.2545 5.30579 62.8297 5.05927C63.4049 4.79905 64.0418 4.66895 64.7402 4.66895C65.8907 4.66895 66.7946 5.02503 67.452 5.73719C68.1093 6.43567 68.438 7.40805 68.438 8.65434C68.438 8.72281 68.438 8.81868 68.438 8.94194C68.438 9.05151 68.4312 9.18161 68.4175 9.33226H61.7615C61.7615 9.56509 61.7615 9.77052 61.7615 9.94856C61.7752 10.1266 61.7889 10.2978 61.8026 10.4621C61.8299 10.6128 61.8573 10.7566 61.8847 10.8936C61.9258 11.0305 61.9669 11.1812 62.008 11.3455C62.2408 12.1125 62.6311 12.7082 63.179 13.1328C63.7405 13.5436 64.4115 13.7491 65.1922 13.7491C65.4524 13.7491 65.6989 13.7285 65.9317 13.6874C66.1646 13.6463 66.4042 13.5847 66.6508 13.5025C66.911 13.4067 67.1849 13.2834 67.4725 13.1328C67.7601 12.9821 68.0819 12.7904 68.438 12.5576V13.6874ZM66.6097 8.46945C66.6097 7.9901 66.5891 7.62033 66.5481 7.36011C66.507 7.0999 66.4316 6.85338 66.3221 6.62055C65.9386 5.92208 65.336 5.57285 64.5143 5.57285C63.7747 5.57285 63.1721 5.82622 62.7065 6.33295C62.2545 6.83968 61.9738 7.55185 61.8642 8.46945H66.6097Z" fill="white"/>
<path d="M55.1705 13.0301C56.4305 13.2218 57.3275 13.5094 57.8617 13.8929C58.3958 14.2763 58.6628 14.8105 58.6628 15.4952C58.6628 16.002 58.519 16.4813 58.2314 16.9333C57.9575 17.3852 57.574 17.7755 57.081 18.1042C56.6017 18.4466 56.0402 18.7137 55.3965 18.9054C54.7528 19.1109 54.068 19.2136 53.3421 19.2136C52.178 19.2136 51.2673 18.9739 50.6099 18.4946C49.9662 18.0289 49.6443 17.3852 49.6443 16.5635C49.6443 15.8924 49.8361 15.3377 50.2196 14.8995C50.6167 14.4612 51.1645 14.1668 51.863 14.0161C51.7261 13.6874 51.6576 13.393 51.6576 13.1328C51.6576 12.8452 51.7329 12.5507 51.8836 12.2494C52.0342 11.9481 52.2876 11.5783 52.6437 11.1401C51.8219 10.9209 51.1919 10.5443 50.7537 10.0102C50.3154 9.47607 50.0963 8.81868 50.0963 8.03804C50.0963 7.545 50.1922 7.09305 50.3839 6.68218C50.5756 6.25762 50.8427 5.90154 51.1851 5.61393C51.5412 5.31263 51.9589 5.07981 52.4382 4.91546C52.9176 4.75112 53.4517 4.66895 54.0406 4.66895C54.4652 4.66895 54.8623 4.71688 55.2321 4.81275C55.6019 4.89492 55.9922 5.03188 56.4031 5.22361H59.3408V6.18915H57.081C57.2727 6.50414 57.4165 6.81229 57.5124 7.11359C57.6083 7.4012 57.6562 7.72304 57.6562 8.07913C57.6562 8.57216 57.5603 9.01727 57.3686 9.41444C57.1769 9.81161 56.9098 10.154 56.5674 10.4416C56.225 10.7155 55.8073 10.9346 55.3143 11.099C54.8212 11.2496 54.2803 11.325 53.6914 11.325C53.6366 11.325 53.5887 11.325 53.5476 11.325C53.5065 11.325 53.4517 11.3181 53.3832 11.3044C53.2326 11.6057 53.1572 11.9207 53.1572 12.2494C53.1572 12.3179 53.1572 12.3864 53.1572 12.4548C53.1572 12.5096 53.1709 12.5986 53.1983 12.7219L55.1705 13.0301ZM53.8352 5.47013C53.2326 5.47013 52.7532 5.70296 52.3971 6.1686C52.0411 6.62055 51.863 7.22316 51.863 7.97641C51.863 8.74336 52.0411 9.35966 52.3971 9.8253C52.7669 10.2773 53.26 10.5032 53.8763 10.5032C54.4926 10.5032 54.9787 10.2773 55.3348 9.8253C55.7046 9.35966 55.8895 8.75021 55.8895 7.99695C55.8895 7.21631 55.7046 6.60001 55.3348 6.14806C54.9651 5.69611 54.4652 5.47013 53.8352 5.47013ZM53.0545 14.1188C51.8767 14.5434 51.2878 15.2213 51.2878 16.1526C51.2878 16.7826 51.548 17.2894 52.0685 17.6728C52.5889 18.07 53.26 18.2686 54.0817 18.2686C54.5199 18.2686 54.924 18.2138 55.2937 18.1042C55.6635 17.9947 55.9854 17.8372 56.2593 17.6317C56.5332 17.44 56.7455 17.2072 56.8961 16.9333C57.0605 16.6594 57.1426 16.3649 57.1426 16.0499C57.1426 15.8171 57.1084 15.6185 57.0399 15.4542C56.9851 15.2898 56.8756 15.146 56.7112 15.0227C56.5606 14.9132 56.3483 14.8173 56.0744 14.7351C55.8005 14.653 55.4581 14.5708 55.0472 14.4886L53.0545 14.1188Z" fill="white"/>
<path d="M35.4577 13.893L36.6492 13.6465L41.4563 0.786377H42.8122L47.7425 13.6465L48.9751 13.893V14.7352H44.3118V13.893L45.5855 13.7903L45.7293 13.5027L44.2502 9.57889H39.402L37.9434 13.5027L38.1488 13.7903L39.4841 13.893V14.7352H35.4577V13.893ZM43.901 8.6339L41.785 2.94342L39.7512 8.6339H43.901Z" fill="white"/>
<path d="M20.9827 13.9752L22.1537 13.8109L25.1119 9.84602L22.3591 5.84008L21.106 5.59356V4.854H25.5228V5.59356L24.5778 5.73736L24.475 5.9428L26.2007 8.63396L28.0701 6.00443L27.9058 5.73736L26.9197 5.59356V4.854H30.6175V5.59356L29.4671 5.81954L26.7554 9.41461L29.7752 13.8109L31.0078 13.9752V14.7353H26.6321V13.9752L27.4949 13.8314L27.5976 13.6671L25.6871 10.6061L23.5917 13.5849L23.6944 13.8314L24.8654 13.9752V14.7353H20.9827V13.9752Z" fill="white"/>
<path d="M17.2257 13.5436C16.4725 14.0367 15.8425 14.3859 15.3358 14.5913C14.8427 14.7831 14.3428 14.8789 13.8361 14.8789C13.0555 14.8789 12.4255 14.6393 11.9461 14.1599C11.4668 13.6806 11.2271 13.0506 11.2271 12.27C11.2271 11.6537 11.3915 11.1401 11.7201 10.7292C12.0488 10.3046 12.5693 9.94856 13.2814 9.66096C13.528 9.56509 13.7539 9.48291 13.9594 9.41444C14.1785 9.33226 14.425 9.25009 14.6989 9.16792C14.9728 9.08575 15.3084 8.99672 15.7055 8.90086C16.1027 8.79129 16.6094 8.66118 17.2257 8.51053V7.85315C17.2257 7.00403 17.0888 6.41512 16.8149 6.08643C16.541 5.74404 16.0616 5.57285 15.3769 5.57285C15.1029 5.57285 14.8427 5.60024 14.5962 5.65502C14.3634 5.69611 14.0895 5.77143 13.7745 5.881V7.60663H12.357C12.1242 7.60663 11.9598 7.56554 11.864 7.48337C11.7681 7.4012 11.7201 7.2437 11.7201 7.01088C11.7201 6.66849 11.816 6.35349 12.0078 6.06589C12.2132 5.77828 12.4939 5.53176 12.85 5.32633C13.2198 5.1209 13.6581 4.9634 14.1648 4.85383C14.6715 4.73057 15.2262 4.66895 15.8288 4.66895C16.9244 4.66895 17.7119 4.90177 18.1913 5.36742C18.6843 5.83306 18.9308 6.57947 18.9308 7.60663V13.5642L19.2801 13.8929L20.3689 13.9956V14.7351H17.4928L17.2257 13.5436ZM17.2257 9.22955C16.7875 9.35281 16.4246 9.46237 16.137 9.55824C15.863 9.64041 15.6302 9.71574 15.4385 9.78422C15.2467 9.839 15.0755 9.90063 14.9249 9.96911C14.7879 10.0239 14.6304 10.0924 14.4524 10.1745C13.9594 10.4074 13.5964 10.6744 13.3636 10.9757C13.1445 11.277 13.0349 11.64 13.0349 12.0645C13.0349 12.5849 13.1787 13.0027 13.4663 13.3177C13.7676 13.619 14.1579 13.7696 14.6373 13.7696C14.9934 13.7696 15.3563 13.7011 15.7261 13.5642C16.1096 13.4272 16.6094 13.1875 17.2257 12.8452V9.22955Z" fill="white"/>
<path d="M3.12258 13.8929L4.49897 13.7902L4.84821 13.5026V1.89567H1.70509L1.41748 2.20382L1.12988 4.11434H0V0.950684H11.6069V4.11434H10.4771L10.1895 2.20382L9.90185 1.89567H6.75873V13.5026L7.10797 13.7902L8.48436 13.8929V14.7352H3.12258V13.8929Z" fill="white"/>
<path d="M97.8812 16.256L98.5892 16.112L98.7092 15.98L99.9692 8.996L99.0332 8.876V8.576L100.737 8.216H101.049L100.905 8.948C101.305 8.676 101.641 8.484 101.913 8.372C102.193 8.26 102.469 8.204 102.741 8.204C103.213 8.204 103.581 8.388 103.845 8.756C104.109 9.124 104.241 9.632 104.241 10.28C104.241 11.352 103.901 12.252 103.221 12.98C102.901 13.316 102.545 13.58 102.153 13.772C101.761 13.956 101.365 14.048 100.965 14.048C100.797 14.048 100.645 14.032 100.509 14C100.373 13.968 100.209 13.908 100.017 13.82L99.6212 16.052L100.761 16.256V16.616H97.8812V16.256ZM100.137 13.196C100.337 13.308 100.517 13.392 100.677 13.448C100.837 13.496 101.001 13.52 101.169 13.52C101.433 13.52 101.681 13.456 101.913 13.328C102.153 13.2 102.357 13.02 102.525 12.788C102.757 12.452 102.937 12.068 103.065 11.636C103.193 11.204 103.257 10.76 103.257 10.304C103.257 9.872 103.157 9.52 102.957 9.248C102.765 8.976 102.513 8.84 102.201 8.84C102.001 8.84 101.801 8.888 101.601 8.984C101.409 9.072 101.149 9.236 100.821 9.476L100.137 13.196ZM108.196 8.204C108.508 8.204 108.788 8.26 109.036 8.372C109.284 8.484 109.496 8.644 109.672 8.852C109.848 9.052 109.984 9.296 110.08 9.584C110.176 9.864 110.224 10.18 110.224 10.532C110.224 11.02 110.14 11.484 109.972 11.924C109.812 12.356 109.592 12.736 109.312 13.064C109.04 13.384 108.716 13.64 108.34 13.832C107.964 14.016 107.568 14.108 107.152 14.108C106.84 14.108 106.556 14.056 106.3 13.952C106.052 13.84 105.836 13.688 105.652 13.496C105.476 13.296 105.34 13.056 105.244 12.776C105.148 12.496 105.1 12.184 105.1 11.84C105.1 11.336 105.18 10.864 105.34 10.424C105.5 9.976 105.72 9.588 106 9.26C106.28 8.932 106.608 8.676 106.984 8.492C107.36 8.3 107.764 8.204 108.196 8.204ZM108.004 8.684C107.74 8.684 107.492 8.768 107.26 8.936C107.036 9.096 106.84 9.316 106.672 9.596C106.504 9.876 106.368 10.204 106.264 10.58C106.168 10.956 106.12 11.36 106.12 11.792C106.12 12.376 106.22 12.828 106.42 13.148C106.62 13.468 106.904 13.628 107.272 13.628C107.544 13.628 107.796 13.548 108.028 13.388C108.26 13.228 108.464 13.008 108.64 12.728C108.816 12.44 108.952 12.108 109.048 11.732C109.152 11.348 109.204 10.94 109.204 10.508C109.204 9.916 109.1 9.464 108.892 9.152C108.692 8.84 108.396 8.684 108.004 8.684ZM112.002 13.736L111.678 8.984L110.79 8.876V8.588L112.17 8.18L112.59 8.204L112.854 12.932C113.07 12.516 113.262 12.148 113.43 11.828C113.598 11.508 113.746 11.22 113.874 10.964C114.01 10.708 114.13 10.476 114.234 10.268C114.338 10.06 114.434 9.864 114.522 9.68C114.61 9.488 114.698 9.296 114.786 9.104C114.874 8.912 114.966 8.704 115.062 8.48L115.782 8.396C115.798 8.772 115.814 9.136 115.83 9.488C115.854 9.832 115.878 10.188 115.902 10.556C115.934 10.916 115.966 11.304 115.998 11.72C116.03 12.136 116.066 12.596 116.106 13.1C116.242 12.916 116.35 12.772 116.43 12.668C116.51 12.556 116.598 12.432 116.694 12.296C117.046 11.792 117.33 11.344 117.546 10.952C117.77 10.56 117.938 10.2 118.05 9.872L117.81 8.468C117.906 8.372 117.998 8.304 118.086 8.264C118.182 8.224 118.29 8.204 118.41 8.204C118.602 8.204 118.754 8.264 118.866 8.384C118.986 8.496 119.046 8.648 119.046 8.84C119.046 9.056 118.998 9.296 118.902 9.56C118.814 9.816 118.65 10.14 118.41 10.532C118.178 10.924 117.862 11.4 117.462 11.96C117.07 12.512 116.57 13.192 115.962 14H115.266L114.978 9.812C114.842 10.084 114.706 10.352 114.57 10.616C114.442 10.872 114.29 11.16 114.114 11.48C113.938 11.792 113.734 12.152 113.502 12.56C113.278 12.96 113.006 13.44 112.686 14H111.906L112.002 13.736ZM123.56 13.028C123.152 13.404 122.764 13.68 122.396 13.856C122.028 14.024 121.64 14.108 121.232 14.108C120.656 14.108 120.208 13.92 119.888 13.544C119.568 13.16 119.408 12.628 119.408 11.948C119.408 11.324 119.536 10.74 119.792 10.196C120.056 9.644 120.42 9.188 120.884 8.828C121.14 8.628 121.404 8.476 121.676 8.372C121.956 8.26 122.224 8.204 122.48 8.204C122.848 8.204 123.144 8.312 123.368 8.528C123.592 8.744 123.704 9.032 123.704 9.392C123.704 9.944 123.424 10.384 122.864 10.712C122.304 11.04 121.492 11.248 120.428 11.336C120.404 11.528 120.392 11.7 120.392 11.852C120.392 12.348 120.5 12.74 120.716 13.028C120.932 13.308 121.228 13.448 121.604 13.448C121.908 13.448 122.212 13.372 122.516 13.22C122.82 13.068 123.168 12.816 123.56 12.464V13.028ZM120.488 10.928C120.872 10.896 121.188 10.848 121.436 10.784C121.684 10.712 121.912 10.608 122.12 10.472C122.6 10.168 122.84 9.8 122.84 9.368C122.84 9.184 122.78 9.028 122.66 8.9C122.54 8.772 122.388 8.708 122.204 8.708C121.836 8.708 121.5 8.904 121.196 9.296C120.9 9.68 120.664 10.224 120.488 10.928ZM125.622 9.092L124.638 8.912V8.612L126.414 8.216H126.654L126.27 9.86C126.702 9.276 127.086 8.856 127.422 8.6C127.766 8.336 128.106 8.204 128.442 8.204C128.626 8.204 128.778 8.268 128.898 8.396C129.018 8.516 129.078 8.668 129.078 8.852C129.078 9.084 129.002 9.272 128.85 9.416C128.698 9.552 128.498 9.62 128.25 9.62H128.19L127.878 8.972C127.598 9.084 127.358 9.204 127.158 9.332C126.966 9.46 126.802 9.612 126.666 9.788C126.53 9.956 126.418 10.156 126.33 10.388C126.25 10.612 126.182 10.876 126.126 11.18L125.634 14H124.626L125.622 9.092ZM133.322 13.028C132.914 13.404 132.526 13.68 132.158 13.856C131.79 14.024 131.402 14.108 130.994 14.108C130.418 14.108 129.97 13.92 129.65 13.544C129.33 13.16 129.17 12.628 129.17 11.948C129.17 11.324 129.298 10.74 129.554 10.196C129.818 9.644 130.182 9.188 130.646 8.828C130.902 8.628 131.166 8.476 131.438 8.372C131.718 8.26 131.986 8.204 132.242 8.204C132.61 8.204 132.906 8.312 133.13 8.528C133.354 8.744 133.466 9.032 133.466 9.392C133.466 9.944 133.186 10.384 132.626 10.712C132.066 11.04 131.254 11.248 130.19 11.336C130.166 11.528 130.154 11.7 130.154 11.852C130.154 12.348 130.262 12.74 130.478 13.028C130.694 13.308 130.99 13.448 131.366 13.448C131.67 13.448 131.974 13.372 132.278 13.22C132.582 13.068 132.93 12.816 133.322 12.464V13.028ZM130.25 10.928C130.634 10.896 130.95 10.848 131.198 10.784C131.446 10.712 131.674 10.608 131.882 10.472C132.362 10.168 132.602 9.8 132.602 9.368C132.602 9.184 132.542 9.028 132.422 8.9C132.302 8.772 132.15 8.708 131.966 8.708C131.598 8.708 131.262 8.904 130.958 9.296C130.662 9.68 130.426 10.224 130.25 10.928ZM139.968 13.736C139.616 13.856 139.324 13.944 139.092 14C138.86 14.056 138.652 14.084 138.468 14.084C137.948 14.084 137.688 13.792 137.688 13.208C137.688 13.168 137.688 13.136 137.688 13.112C137.688 13.088 137.692 13.048 137.7 12.992C137.108 13.736 136.48 14.108 135.816 14.108C135.328 14.108 134.944 13.92 134.664 13.544C134.392 13.16 134.256 12.636 134.256 11.972C134.256 11.364 134.364 10.808 134.58 10.304C134.804 9.8 135.128 9.364 135.552 8.996C135.848 8.74 136.168 8.544 136.512 8.408C136.856 8.272 137.204 8.204 137.556 8.204C137.724 8.204 137.88 8.216 138.024 8.24C138.168 8.264 138.328 8.308 138.504 8.372L138.924 5.96L137.868 5.864V5.528L139.704 5.168H140.016L138.732 12.356C138.708 12.508 138.688 12.636 138.672 12.74C138.664 12.836 138.66 12.928 138.66 13.016C138.66 13.336 138.828 13.496 139.164 13.496C139.276 13.496 139.388 13.488 139.5 13.472C139.612 13.456 139.768 13.424 139.968 13.376V13.736ZM138.324 9.392L137.748 8.708C137.66 8.692 137.592 8.684 137.544 8.684C137.504 8.676 137.464 8.672 137.424 8.672C137.136 8.672 136.86 8.76 136.596 8.936C136.34 9.112 136.108 9.348 135.9 9.644C135.7 9.94 135.54 10.284 135.42 10.676C135.3 11.06 135.24 11.464 135.24 11.888C135.24 12.368 135.328 12.744 135.504 13.016C135.68 13.288 135.92 13.424 136.224 13.424C136.48 13.424 136.732 13.344 136.98 13.184C137.236 13.024 137.508 12.764 137.796 12.404L138.324 9.392ZM144.579 6.02L143.535 5.84V5.528L145.359 5.168H145.755C145.699 5.344 145.647 5.532 145.599 5.732C145.551 5.924 145.511 6.104 145.479 6.272L144.963 9.092C145.355 8.772 145.687 8.544 145.959 8.408C146.239 8.272 146.503 8.204 146.751 8.204C146.983 8.204 147.191 8.256 147.375 8.36C147.567 8.456 147.731 8.596 147.867 8.78C148.003 8.964 148.107 9.184 148.179 9.44C148.259 9.688 148.299 9.968 148.299 10.28C148.299 10.816 148.211 11.32 148.035 11.792C147.867 12.256 147.631 12.66 147.327 13.004C147.031 13.348 146.679 13.62 146.271 13.82C145.863 14.012 145.427 14.108 144.963 14.108C144.643 14.108 144.347 14.068 144.075 13.988C143.811 13.908 143.511 13.772 143.175 13.58L144.579 6.02ZM144.195 13.136C144.379 13.312 144.551 13.436 144.711 13.508C144.879 13.58 145.059 13.616 145.251 13.616C145.515 13.616 145.771 13.528 146.019 13.352C146.267 13.168 146.487 12.928 146.679 12.632C146.871 12.328 147.023 11.984 147.135 11.6C147.255 11.208 147.315 10.8 147.315 10.376C147.315 9.928 147.223 9.576 147.039 9.32C146.863 9.064 146.619 8.936 146.307 8.936C146.123 8.936 145.927 8.984 145.719 9.08C145.511 9.168 145.231 9.328 144.879 9.56L144.195 13.136ZM148.981 15.86C149.341 15.836 149.681 15.66 150.001 15.332C150.329 15.012 150.677 14.504 151.045 13.808L150.301 10.16C150.245 9.88 150.177 9.644 150.097 9.452C150.025 9.252 149.933 9.072 149.821 8.912L148.801 8.828V8.564L149.977 8.18C150.017 8.172 150.069 8.168 150.133 8.168C150.445 8.168 150.677 8.336 150.829 8.672C150.861 8.752 150.889 8.824 150.913 8.888C150.945 8.952 150.977 9.052 151.009 9.188C151.041 9.324 151.081 9.512 151.129 9.752C151.177 9.992 151.245 10.324 151.333 10.748L151.729 12.776C151.921 12.304 152.085 11.892 152.221 11.54C152.365 11.188 152.505 10.848 152.641 10.52C152.777 10.192 152.921 9.852 153.073 9.5C153.225 9.14 153.405 8.712 153.613 8.216H153.841L154.789 8.528V8.78L154.177 9.14C154.057 9.276 153.953 9.408 153.865 9.536C153.777 9.664 153.681 9.816 153.577 9.992C153.481 10.16 153.373 10.368 153.253 10.616C153.133 10.864 152.985 11.18 152.809 11.564C152.625 11.972 152.453 12.34 152.293 12.668C152.141 12.988 151.993 13.28 151.849 13.544C151.705 13.808 151.561 14.052 151.417 14.276C151.273 14.5 151.125 14.72 150.973 14.936C150.573 15.488 150.177 15.904 149.785 16.184C149.393 16.464 149.005 16.604 148.621 16.604C148.341 16.604 148.105 16.524 147.913 16.364C147.721 16.212 147.625 16.028 147.625 15.812C147.625 15.46 147.841 15.24 148.273 15.152L148.981 15.86ZM157.688 11.684H158.312L158.192 13.064L158.312 13.22C158.584 13.348 158.82 13.44 159.02 13.496C159.228 13.544 159.448 13.568 159.68 13.568C159.976 13.568 160.244 13.528 160.484 13.448C160.732 13.36 160.944 13.24 161.12 13.088C161.304 12.936 161.444 12.756 161.54 12.548C161.644 12.34 161.696 12.112 161.696 11.864C161.696 11.48 161.572 11.184 161.324 10.976C161.276 10.936 161.232 10.904 161.192 10.88C161.152 10.856 161.1 10.824 161.036 10.784C160.972 10.744 160.876 10.696 160.748 10.64C160.628 10.576 160.46 10.488 160.244 10.376C159.876 10.192 159.568 10.02 159.32 9.86C159.08 9.7 158.888 9.54 158.744 9.38C158.6 9.22 158.496 9.056 158.432 8.888C158.376 8.712 158.348 8.516 158.348 8.3C158.348 7.94 158.424 7.608 158.576 7.304C158.728 7 158.936 6.736 159.2 6.512C159.464 6.288 159.776 6.116 160.136 5.996C160.504 5.868 160.904 5.804 161.336 5.804C161.688 5.804 162.008 5.832 162.296 5.888C162.592 5.944 162.932 6.036 163.316 6.164L162.932 7.988H162.404L162.452 6.8L162.308 6.584C162.108 6.496 161.928 6.436 161.768 6.404C161.608 6.372 161.436 6.356 161.252 6.356C160.98 6.356 160.728 6.4 160.496 6.488C160.272 6.568 160.076 6.68 159.908 6.824C159.74 6.968 159.608 7.14 159.512 7.34C159.416 7.532 159.368 7.744 159.368 7.976C159.368 8.392 159.528 8.72 159.848 8.96C159.904 9 159.952 9.036 159.992 9.068C160.04 9.092 160.1 9.124 160.172 9.164C160.244 9.204 160.344 9.256 160.472 9.32C160.608 9.376 160.792 9.46 161.024 9.572C161.344 9.716 161.612 9.86 161.828 10.004C162.052 10.148 162.232 10.3 162.368 10.46C162.504 10.62 162.6 10.792 162.656 10.976C162.72 11.152 162.752 11.348 162.752 11.564C162.752 11.94 162.672 12.288 162.512 12.608C162.352 12.92 162.128 13.192 161.84 13.424C161.552 13.648 161.208 13.824 160.808 13.952C160.408 14.08 159.972 14.144 159.5 14.144C159.092 14.144 158.72 14.104 158.384 14.024C158.048 13.944 157.684 13.8 157.292 13.592L157.688 11.684ZM169.533 13.688C169.133 13.848 168.825 13.956 168.609 14.012C168.393 14.076 168.197 14.108 168.021 14.108C167.773 14.108 167.593 14.032 167.481 13.88C167.377 13.72 167.325 13.46 167.325 13.1C166.973 13.46 166.657 13.72 166.377 13.88C166.097 14.032 165.805 14.108 165.501 14.108C164.997 14.108 164.601 13.92 164.313 13.544C164.025 13.168 163.881 12.656 163.881 12.008C163.881 11.48 163.965 10.984 164.133 10.52C164.309 10.056 164.545 9.656 164.841 9.32C165.137 8.976 165.485 8.704 165.885 8.504C166.293 8.304 166.725 8.204 167.181 8.204C167.405 8.204 167.605 8.224 167.781 8.264C167.957 8.304 168.149 8.376 168.357 8.48L168.597 8.216H169.221C169.085 8.504 168.933 9.076 168.765 9.932L168.333 12.056C168.285 12.288 168.253 12.464 168.237 12.584C168.221 12.696 168.213 12.804 168.213 12.908C168.213 13.268 168.417 13.448 168.825 13.448C168.897 13.448 168.981 13.44 169.077 13.424C169.173 13.408 169.325 13.376 169.533 13.328V13.688ZM167.961 9.416L167.481 8.684C167.441 8.676 167.405 8.672 167.373 8.672C167.341 8.672 167.313 8.672 167.289 8.672C166.945 8.672 166.625 8.756 166.329 8.924C166.033 9.084 165.777 9.312 165.561 9.608C165.345 9.896 165.173 10.24 165.045 10.64C164.925 11.032 164.865 11.46 164.865 11.924C164.865 12.892 165.209 13.376 165.897 13.376C166.017 13.376 166.133 13.364 166.245 13.34C166.357 13.308 166.469 13.264 166.581 13.208C166.693 13.144 166.809 13.064 166.929 12.968C167.057 12.864 167.193 12.736 167.337 12.584L167.961 9.416ZM171.349 9.092L170.365 8.912V8.612L172.141 8.216H172.441L172.225 9.356C172.737 8.948 173.173 8.656 173.533 8.48C173.893 8.296 174.225 8.204 174.529 8.204C175.105 8.204 175.417 8.572 175.465 9.308C175.937 8.924 176.345 8.644 176.689 8.468C177.041 8.292 177.369 8.204 177.673 8.204C177.961 8.204 178.193 8.3 178.369 8.492C178.553 8.684 178.645 8.932 178.645 9.236C178.645 9.356 178.633 9.496 178.609 9.656C178.585 9.816 178.549 10.012 178.501 10.244L178.093 12.104C178.037 12.36 178.001 12.536 177.985 12.632C177.969 12.728 177.961 12.816 177.961 12.896C177.961 13.08 178.013 13.224 178.117 13.328C178.229 13.432 178.377 13.484 178.561 13.484C178.729 13.484 178.957 13.448 179.245 13.376V13.7C178.877 13.844 178.581 13.944 178.357 14C178.141 14.056 177.937 14.084 177.745 14.084C177.489 14.084 177.289 14.024 177.145 13.904C177.001 13.784 176.929 13.608 176.929 13.376C176.929 13.296 176.937 13.196 176.953 13.076C176.969 12.948 176.993 12.824 177.025 12.704L177.541 10.484C177.581 10.316 177.609 10.172 177.625 10.052C177.641 9.924 177.649 9.804 177.649 9.692C177.649 9.196 177.449 8.948 177.049 8.948C176.561 8.948 176.021 9.272 175.429 9.92L174.649 14H173.653L174.373 10.484C174.445 10.116 174.481 9.84 174.481 9.656C174.481 9.448 174.425 9.28 174.313 9.152C174.201 9.016 174.053 8.948 173.869 8.948C173.661 8.948 173.413 9.028 173.125 9.188C172.845 9.348 172.509 9.596 172.117 9.932L171.361 14H170.353L171.349 9.092ZM182.154 5.552C182.33 5.552 182.482 5.62 182.61 5.756C182.738 5.884 182.802 6.036 182.802 6.212C182.802 6.388 182.738 6.54 182.61 6.668C182.482 6.788 182.326 6.848 182.142 6.848C181.958 6.848 181.806 6.788 181.686 6.668C181.566 6.548 181.506 6.396 181.506 6.212C181.506 6.028 181.566 5.872 181.686 5.744C181.814 5.616 181.97 5.552 182.154 5.552ZM182.79 13.664C182.43 13.808 182.114 13.916 181.842 13.988C181.578 14.052 181.33 14.084 181.098 14.084C180.586 14.084 180.33 13.816 180.33 13.28C180.33 13.192 180.334 13.104 180.342 13.016C180.358 12.92 180.378 12.804 180.402 12.668L181.11 9.092L180.138 8.912V8.612L181.914 8.216H182.226L181.362 12.704C181.346 12.752 181.334 12.808 181.326 12.872C181.326 12.928 181.326 12.972 181.326 13.004C181.326 13.316 181.51 13.472 181.878 13.472C182.006 13.472 182.134 13.46 182.262 13.436C182.39 13.404 182.566 13.356 182.79 13.292V13.664ZM186.068 13.7C185.708 13.844 185.4 13.948 185.144 14.012C184.888 14.076 184.656 14.108 184.448 14.108C184.176 14.108 183.964 14.036 183.812 13.892C183.668 13.748 183.596 13.548 183.596 13.292C183.596 13.164 183.608 12.996 183.632 12.788C183.664 12.58 183.724 12.264 183.812 11.84L184.964 5.96L183.896 5.84V5.528L185.72 5.168H186.044C186.028 5.232 186.016 5.288 186.008 5.336C186 5.384 185.988 5.452 185.972 5.54C185.956 5.612 185.944 5.684 185.936 5.756C185.928 5.828 185.916 5.896 185.9 5.96L184.688 11.984C184.64 12.24 184.604 12.436 184.58 12.572C184.564 12.7 184.556 12.816 184.556 12.92C184.556 13.32 184.772 13.52 185.204 13.52C185.3 13.52 185.408 13.508 185.528 13.484C185.656 13.452 185.836 13.4 186.068 13.328V13.7Z" fill="#FE7C39"/>
</svg>
